<?xml version="1.0" encoding="UTF-8"?>
<svg width="685px" height="461px" viewBox="0 0 685 461" version="1.1" xmlns="http://www.w3.org/2000/svg" xmlns:xlink="http://www.w3.org/1999/xlink">
    <!-- Generator: Sketch 52.2 (67145) - http://www.bohemiancoding.com/sketch -->
    <title>Group 26</title>
    <desc>Created with Sketch.</desc>
    <defs>
        <polygon id="path-1" points="62.5038782 -62.5038782 391.085006 -62.5038782 456.276366 -3.68424437 456.276366 456.276366 62.5038782 456.276366"></polygon>
        <filter x="-2.0%" y="-1.3%" width="104.1%" height="103.1%" filterUnits="objectBoundingBox" id="filter-2">
            <feOffset dx="0" dy="1" in="SourceAlpha" result="shadowOffsetOuter1"></feOffset>
            <feGaussianBlur stdDeviation="0.5" in="shadowOffsetOuter1" result="shadowBlurOuter1"></feGaussianBlur>
            <feComposite in="shadowBlurOuter1" in2="SourceAlpha" operator="out" result="shadowBlurOuter1"></feComposite>
            <feColorMatrix values="0 0 0 0 0   0 0 0 0 0   0 0 0 0 0  0 0 0 0.0581408514 0" type="matrix" in="shadowBlurOuter1" result="shadowMatrixOuter1"></feColorMatrix>
            <feMorphology radius="1" operator="dilate" in="SourceAlpha" result="shadowSpreadOuter2"></feMorphology>
            <feOffset dx="0" dy="1" in="shadowSpreadOuter2" result="shadowOffsetOuter2"></feOffset>
            <feGaussianBlur stdDeviation="1.5" in="shadowOffsetOuter2" result="shadowBlurOuter2"></feGaussianBlur>
            <feComposite in="shadowBlurOuter2" in2="SourceAlpha" operator="out" result="shadowBlurOuter2"></feComposite>
            <feColorMatrix values="0 0 0 0 0.243137255   0 0 0 0 0.243137255   0 0 0 0 0.243137255  0 0 0 0.08 0" type="matrix" in="shadowBlurOuter2" result="shadowMatrixOuter2"></feColorMatrix>
            <feMerge>
                <feMergeNode in="shadowMatrixOuter1"></feMergeNode>
                <feMergeNode in="shadowMatrixOuter2"></feMergeNode>
            </feMerge>
        </filter>
        <polygon id="path-3" points="66.0719087 -60.7511432 400.751955 -60.7551949 467.15263 -0.902621611 467.146956 467.141704 66.0655091 467.14656"></polygon>
        <filter x="-5.7%" y="-4.2%" width="111.5%" height="108.7%" filterUnits="objectBoundingBox" id="filter-4">
            <feMorphology radius="2" operator="dilate" in="SourceAlpha" result="shadowSpreadOuter1"></feMorphology>
            <feOffset dx="0" dy="1" in="shadowSpreadOuter1" result="shadowOffsetOuter1"></feOffset>
            <feGaussianBlur stdDeviation="5.5" in="shadowOffsetOuter1" result="shadowBlurOuter1"></feGaussianBlur>
            <feComposite in="shadowBlurOuter1" in2="SourceAlpha" operator="out" result="shadowBlurOuter1"></feComposite>
            <feColorMatrix values="0 0 0 0 0   0 0 0 0 0   0 0 0 0 0  0 0 0 0.0581408514 0" type="matrix" in="shadowBlurOuter1" result="shadowMatrixOuter1"></feColorMatrix>
            <feOffset dx="0" dy="2" in="SourceAlpha" result="shadowOffsetOuter2"></feOffset>
            <feGaussianBlur stdDeviation="2.5" in="shadowOffsetOuter2" result="shadowBlurOuter2"></feGaussianBlur>
            <feComposite in="shadowBlurOuter2" in2="SourceAlpha" operator="out" result="shadowBlurOuter2"></feComposite>
            <feColorMatrix values="0 0 0 0 0.243137255   0 0 0 0 0.243137255   0 0 0 0 0.243137255  0 0 0 0.08 0" type="matrix" in="shadowBlurOuter2" result="shadowMatrixOuter2"></feColorMatrix>
            <feMerge>
                <feMergeNode in="shadowMatrixOuter1"></feMergeNode>
                <feMergeNode in="shadowMatrixOuter2"></feMergeNode>
            </feMerge>
        </filter>
    </defs>
    <g id="Web-design" stroke="none" stroke-width="1" fill="none" fill-rule="evenodd">
        <g id="Soluciones-educacion" transform="translate(-638.000000, -181.000000)">
            <g id="Group-26" transform="translate(638.000000, 181.000000)">
                <g id="Group-24">
                    <g id="Group-3" transform="translate(59.000000, 24.000000)">
                        <g id="Group" opacity="0.602143787" transform="translate(263.695581, 230.250136) rotate(-1.000000) translate(-263.695581, -230.250136) translate(4.305459, 33.363892)">
                            <g id="Rectangle-21-Copy" transform="translate(259.390122, 196.886244) scale(-1, 1) rotate(-90.000000) translate(-259.390122, -196.886244) ">
                                <use fill="black" fill-opacity="1" filter="url(#filter-2)" xlink:href="#path-1"></use>
                                <path stroke="#EBEBEB" stroke-width="0.588902438" d="M62.7983294,-62.2094269 L62.7983294,455.981914 L455.981914,455.981914 L455.981914,-3.55332697 L390.971804,-62.2094269 L62.7983294,-62.2094269 Z M455.981914,455.981914 L456.276366,455.981914 L455.981914,456.276366 L455.981914,455.981914 Z" stroke-linejoin="square" fill="#FFFFFF" fill-rule="evenodd"></path>
                            </g>
                            <polyline id="Path-3-Copy" stroke="#D8D8D8" stroke-width="0.588902438" opacity="0.769999981" transform="translate(487.018188, 33.844422) scale(-1, 1) rotate(-90.000000) translate(-487.018188, -33.844422) " points="454.939562 3.84692448 454.939562 63.8419186 519.096814 63.8311669"></polyline>
                        </g>
                        <g id="Group-6" transform="translate(300.526316, 208.233708) rotate(1.000000) translate(-300.526316, -208.233708) translate(33.930390, 4.853933)">
                            <g id="Rectangle-21" transform="translate(266.609070, 203.195682) scale(-1, 1) rotate(-89.500000) translate(-266.609070, -203.195682) ">
                                <use fill="black" fill-opacity="1" filter="url(#filter-4)" xlink:href="#path-3"></use>
                                <path stroke="#EBEBEB" stroke-width="1.04077019" d="M66.5922875,-60.2307644 L66.5859005,466.626168 L466.626577,466.621325 L466.632242,-0.671102568 L400.552039,-60.2348073 L66.5922875,-60.2307644 Z" stroke-linejoin="square" fill="#FFFFFF" fill-rule="evenodd"></path>
                            </g>
                            <polyline id="Path-3" stroke="#DEDEDE" stroke-width="0.867308493" opacity="0.769999981" transform="translate(499.913395, 38.967926) scale(-1, 1) rotate(-89.500000) translate(-499.913395, -38.967926) " points="467.347689 8.59455786 467.346952 69.3412951 532.479837 69.3296201"></polyline>
                        </g>
                        <g id="Group-44" transform="translate(300.796804, 210.319379) rotate(1.000000) translate(-300.796804, -210.319379) translate(87.796804, 32.819379)">
                            <path d="M130.127662,98.7189677 L130.127662,109.628907 C130.127662,110.961306 130.437244,111.968427 131.056418,112.650302 C131.675591,113.332177 132.588663,113.673109 133.795659,113.673109 C135.002656,113.673109 135.915727,113.332177 136.5349,112.650302 C137.154074,111.968427 137.463656,110.961306 137.463656,109.628907 L137.463656,98.7189677 L139.438731,98.7189677 L139.438731,109.628907 C139.438731,111.541291 138.93713,112.99907 137.933912,114.002288 C136.930694,115.005506 135.55129,115.507107 133.795659,115.507107 C132.040028,115.507107 130.660624,115.005506 129.657406,114.002288 C128.654188,112.99907 128.152587,111.541291 128.152587,109.628907 L128.152587,98.7189677 L130.127662,98.7189677 Z M151.406747,114.331467 L151.688901,114.331467 L151.688901,98.7189677 L153.663976,98.7189677 L153.663976,115.177928 L149.713825,115.177928 L144.96424,99.5654285 L144.682086,99.5654285 L144.682086,115.177928 L142.707011,115.177928 L142.707011,98.7189677 L146.657161,98.7189677 L151.406747,114.331467 Z M157.355485,98.7189677 L167.795169,98.7189677 L167.795169,100.552966 L163.562865,100.552966 L163.562865,113.34393 L167.795169,113.34393 L167.795169,115.177928 L157.355485,115.177928 L157.355485,113.34393 L161.58779,113.34393 L161.58779,100.552966 L157.355485,100.552966 L157.355485,98.7189677 Z M170.40509,98.7189677 L172.521242,98.7189677 L176.824084,114.331467 L177.106238,114.331467 L181.409081,98.7189677 L183.525233,98.7189677 L178.869698,115.177928 L175.060624,115.177928 L170.40509,98.7189677 Z M186.370282,98.7189677 L196.339709,98.7189677 L196.339709,100.552966 L188.345357,100.552966 L188.345357,106.007936 L196.198632,106.007936 L196.198632,107.841934 L188.345357,107.841934 L188.345357,113.34393 L196.480786,113.34393 L196.480786,115.177928 L186.370282,115.177928 L186.370282,98.7189677 Z M210.894133,115.177928 L208.919057,115.177928 L208.919057,109.675933 C208.919057,109.268376 208.825007,108.954875 208.636904,108.735421 C208.4488,108.515967 208.119625,108.406242 207.649366,108.406242 L202.523576,108.406242 L202.523576,115.177928 L200.5485,115.177928 L200.5485,98.7189677 L206.426701,98.7189677 C207.273166,98.7189677 208.009893,98.8404493 208.636904,99.0834161 C209.263915,99.3263829 209.78511,99.6516401 210.200505,100.059197 C210.6159,100.466755 210.929401,100.940925 211.141017,101.481722 C211.352633,102.022519 211.45844,102.590739 211.45844,103.1864 L211.45844,103.891784 C211.45844,104.50312 211.289933,105.114446 210.952915,105.725782 C210.615896,106.337118 210.094701,106.807369 209.389313,107.13655 L209.389313,107.418704 C209.859572,107.49708 210.227935,107.685181 210.494415,107.983011 C210.760895,108.280841 210.894133,108.704068 210.894133,109.252702 L210.894133,115.177928 Z M202.523576,106.572243 L206.191573,106.572243 C207.304517,106.572243 208.131376,106.333199 208.672173,105.855103 C209.21297,105.377007 209.483365,104.675548 209.483365,103.750707 L209.483365,103.327477 C209.483365,102.496687 209.21297,101.826579 208.672173,101.317132 C208.131376,100.807686 207.304517,100.552966 206.191573,100.552966 L202.523576,100.552966 L202.523576,106.572243 Z M224.014275,103.468553 C224.014275,102.935594 223.908469,102.465343 223.696853,102.057785 C223.485236,101.650228 223.199167,101.313215 222.838635,101.046735 C222.478104,100.780255 222.062715,100.57648 221.592457,100.435402 C221.122199,100.294325 220.628435,100.223787 220.111151,100.223787 C219.656567,100.223787 219.225504,100.282568 218.817946,100.400133 C218.410389,100.517698 218.045944,100.686204 217.724601,100.905658 C217.403258,101.125112 217.148539,101.395507 216.960435,101.71685 C216.772332,102.038193 216.678282,102.410475 216.678282,102.833708 L216.678282,102.974785 C216.678282,103.429368 216.772332,103.817325 216.960435,104.138668 C217.148539,104.460011 217.426771,104.734325 217.79514,104.961616 C218.163509,105.188908 218.622004,105.377008 219.170639,105.525923 C219.719273,105.674839 220.36195,105.804158 221.098688,105.913885 C222.822969,106.180364 224.092647,106.685885 224.907762,107.43046 C225.722876,108.175036 226.130428,109.17432 226.130428,110.428342 L226.130428,110.710496 C226.130428,111.415884 226.008946,112.062479 225.765979,112.650302 C225.523012,113.238125 225.162486,113.743645 224.68439,114.166878 C224.206294,114.59011 223.614561,114.919286 222.909174,115.154415 C222.203786,115.389545 221.388684,115.507107 220.463843,115.507107 C219.413599,115.507107 218.484853,115.354276 217.677576,115.048608 C216.870299,114.74294 216.196272,114.319714 215.655475,113.778917 C215.114678,113.238119 214.703208,112.60328 214.421053,111.87438 C214.138898,111.145479 213.997822,110.349971 213.997822,109.48783 L213.997822,108.782446 L215.972898,108.782446 L215.972898,109.346754 C215.972898,110.788879 216.368692,111.870457 217.160294,112.59152 C217.951896,113.312583 219.053067,113.673109 220.463843,113.673109 C221.686514,113.673109 222.607423,113.402714 223.226597,112.861917 C223.84577,112.32112 224.155352,111.603987 224.155352,110.710496 L224.155352,110.569419 C224.155352,109.707279 223.837933,109.048927 223.203084,108.594344 C222.568235,108.139761 221.537601,107.810585 220.111151,107.606806 C219.280361,107.497079 218.531877,107.328573 217.865678,107.101281 C217.199479,106.87399 216.631258,106.576164 216.161,106.207795 C215.690742,105.839426 215.330216,105.396606 215.079411,104.879321 C214.828607,104.362037 214.703206,103.750711 214.703206,103.045323 L214.703206,102.763169 C214.703206,102.120483 214.836444,101.532669 215.102924,100.999709 C215.369404,100.46675 215.741686,100.004336 216.219782,99.6124541 C216.697878,99.2205721 217.270017,98.9188275 217.936216,98.7072113 C218.602416,98.495595 219.335224,98.3897885 220.134663,98.3897885 C221.059505,98.3897885 221.886363,98.5230263 222.615264,98.7895061 C223.344164,99.0559858 223.95941,99.4125931 224.461019,99.8593385 C224.962628,100.306084 225.342747,100.831198 225.601389,101.434696 C225.860032,102.038194 225.989351,102.669115 225.989351,103.327477 L225.989351,104.315014 L224.014275,104.315014 L224.014275,103.468553 Z M229.304656,98.7189677 L239.744339,98.7189677 L239.744339,100.552966 L235.512035,100.552966 L235.512035,113.34393 L239.744339,113.34393 L239.744339,115.177928 L229.304656,115.177928 L229.304656,113.34393 L233.53696,113.34393 L233.53696,100.552966 L229.304656,100.552966 L229.304656,98.7189677 Z M243.435849,98.7189677 L248.843793,98.7189677 C250.881579,98.7189677 252.370708,99.204894 253.311225,100.176761 C254.251742,101.148629 254.721993,102.700458 254.721993,104.832296 L254.721993,109.0646 C254.721993,111.196438 254.251742,112.748267 253.311225,113.720135 C252.370708,114.692002 250.881579,115.177928 248.843793,115.177928 L243.435849,115.177928 L243.435849,113.320417 L244.846617,113.320417 L244.846617,100.552966 L243.435849,100.552966 L243.435849,98.7189677 Z M248.561639,113.34393 C249.282702,113.34393 249.905785,113.273392 250.430907,113.132315 C250.956029,112.991237 251.391011,112.752193 251.735867,112.415174 C252.080724,112.078156 252.335443,111.627498 252.500033,111.063188 C252.664624,110.498878 252.746918,109.785664 252.746918,108.923523 L252.746918,104.973373 C252.746918,104.111232 252.664624,103.398018 252.500033,102.833708 C252.335443,102.269398 252.080724,101.81874 251.735867,101.481722 C251.391011,101.144703 250.956029,100.905659 250.430907,100.764581 C249.905785,100.623504 249.282702,100.552966 248.561639,100.552966 L246.821692,100.552966 L246.821692,113.34393 L248.561639,113.34393 Z M266.831086,111.086701 L259.777245,111.086701 L258.578092,115.177928 L256.46194,115.177928 L261.446654,98.7189677 L265.161677,98.7189677 L270.14639,115.177928 L268.030238,115.177928 L266.831086,111.086701 Z M263.163089,99.5654285 L260.31804,109.252702 L266.290291,109.252702 L263.445242,99.5654285 L263.163089,99.5654285 Z M272.215517,98.7189677 L277.623461,98.7189677 C279.661247,98.7189677 281.150376,99.204894 282.090893,100.176761 C283.03141,101.148629 283.501661,102.700458 283.501661,104.832296 L283.501661,109.0646 C283.501661,111.196438 283.03141,112.748267 282.090893,113.720135 C281.150376,114.692002 279.661247,115.177928 277.623461,115.177928 L272.215517,115.177928 L272.215517,113.320417 L273.626285,113.320417 L273.626285,100.552966 L272.215517,100.552966 L272.215517,98.7189677 Z M277.341307,113.34393 C278.06237,113.34393 278.685453,113.273392 279.210575,113.132315 C279.735697,112.991237 280.170679,112.752193 280.515536,112.415174 C280.860392,112.078156 281.115111,111.627498 281.279702,111.063188 C281.444292,110.498878 281.526586,109.785664 281.526586,108.923523 L281.526586,104.973373 C281.526586,104.111232 281.444292,103.398018 281.279702,102.833708 C281.115111,102.269398 280.860392,101.81874 280.515536,101.481722 C280.170679,101.144703 279.735697,100.905659 279.210575,100.764581 C278.685453,100.623504 278.06237,100.552966 277.341307,100.552966 L275.60136,100.552966 L275.60136,113.34393 L277.341307,113.34393 Z" id="UNIVERSIDAD" fill="#4A4A4A" transform="translate(205.827124, 106.948448) rotate(0.500000) translate(-205.827124, -106.948448) "></path>
                            <rect id="Rectangle" fill="#D8D8D8" x="263.687606" y="269.878652" width="161.896435" height="7.76629213"></rect>
                            <g id="Group-23" transform="translate(299.587436, 299.002247)">
                                <rect id="Rectangle-Copy-36" fill="#D8D8D8" x="5.7860781" y="40.7730337" width="63.0135823" height="2.91235955"></rect>
                                <rect id="Rectangle-Copy-37" fill="#D8D8D8" x="12.5721562" y="44.6561798" width="48.4719864" height="2.91235955"></rect>
                                <path d="M19.9428054,16.3386565 C10.5766774,25.4792194 10.5765566,28.8057883 19.9424431,26.3183633 C33.9912728,22.5872257 44.0193173,8.96954957 39.0451993,7.13408051 C35.7291206,5.91043447 30.5028524,11.1368368 23.3663946,22.8132875 C20.1809184,32.6632722 26.5555435,33.8313576 42.4902699,26.3175436 C58.4249963,18.8037296 56.1497538,17.6354952 35.6645422,22.8128404 C21.0252407,26.9341061 22.1518439,29.4905585 39.0443517,30.4821978 C55.9368595,31.473837 62.6047415,22.9289429 59.0479976,4.84751554 C56.1139381,-3.12779963 50.5947772,1.7767736 42.4905152,19.5612352 C34.3862531,37.3456969 32.1105584,48.6326611 35.663431,53.4221279" id="Path-4" stroke="#000000" stroke-width="0.5" stroke-linecap="round" stroke-linejoin="round" transform="translate(36.447027, 27.282933) rotate(-1.500000) translate(-36.447027, -27.282933) "></path>
                                <path d="M0.290562169,38.6549631 L74.7821829,37.354707" id="Line-5-Copy-2" stroke="#979797" stroke-width="0.5" stroke-linecap="square" transform="translate(37.536373, 38.004835) rotate(1.000000) translate(-37.536373, -38.004835) "></path>
                            </g>
                            <g id="Group-22" transform="translate(206.521222, 302.885393)">
                                <rect id="Rectangle-Copy-38" fill="#D8D8D8" x="6.75551783" y="35.9191011" width="63.0135823" height="2.91235955"></rect>
                                <rect id="Rectangle-Copy-39" fill="#D8D8D8" x="13.5415959" y="39.8022472" width="48.4719864" height="2.91235955"></rect>
                                <path d="M0.270629369,33.1759167 L74.7622501,31.8756606" id="Line-5-Copy-6" stroke="#979797" stroke-width="0.5" stroke-linecap="square" transform="translate(37.516440, 32.525789) rotate(1.000000) translate(-37.516440, -32.525789) "></path>
                                <path d="M52.8313122,28.8128568 C12.5131406,15.0929212 2.08759632,9.43679927 21.5546794,11.8444911 C41.0217625,14.2521829 40.1902883,18.4223717 19.060257,24.3550575 C6.77445916,28.9763922 18.0329212,27.5412684 52.8356431,20.0496859 C87.638365,12.5581035 82.1282644,9.29889687 36.3053414,10.272066 C20.4881256,10.8826066 20.3880371,19.1121321 36.0050761,34.9606425" id="Path-6-Copy" stroke="#000000" stroke-width="0.5" stroke-linecap="round" stroke-linejoin="round" transform="translate(43.708215, 22.532442) rotate(-18.500000) translate(-43.708215, -22.532442) "></path>
                            </g>
                            <rect id="Rectangle-Copy-7" fill="#D8D8D8" x="3.63797881e-12" y="237.842697" width="221.032258" height="7.76629213"></rect>
                            <rect id="Rectangle-Copy-12" fill="#D8D8D8" x="92.0967742" y="167.946067" width="246.237691" height="7.76629213"></rect>
                            <rect id="Rectangle-Copy-13" fill="#D8D8D8" x="30.0526316" y="131.05618" width="350.937182" height="7.76629213"></rect>
                            <rect id="Rectangle-Copy-8" fill="#D8D8D8" x="3.63797881e-12" y="223.280899" width="425.584041" height="7.76629213"></rect>
                            <rect id="Rectangle-Copy-9" fill="#D8D8D8" x="1.8189894e-12" y="195.12809" width="425.584041" height="7.76629213"></rect>
                            <rect id="Rectangle-Copy-11" fill="#D8D8D8" x="3.63797881e-12" y="181.79681" width="425.584041" height="7.76629213"></rect>
                            <rect id="Rectangle-Copy-10" fill="#D8D8D8" x="0" y="208.978832" width="247.207131" height="7.76629213"></rect>
                            <g id="Group-29" opacity="0.400111607" transform="translate(206.693496, 42.440874) rotate(-1.000000) translate(-206.693496, -42.440874) translate(166.461747, 0.697054)">
                                <path d="M25.0868689,6.25807762 C29.4336835,7.59376603 32.9842201,6.57689286 35.7384789,3.20745808 C39.8698671,-1.84669407 43.9939856,-0.214427717 46.3704607,3.20745808 C48.7469358,6.62934389 53.5136985,9.96203877 60.1734991,8.29569133 C66.8332998,6.62934389 68.4282788,10.8321941 68.4282788,14.8559373 C68.4282788,18.8796806 68.9291633,23.6155009 75.315622,25.6030807 C81.7020808,27.5906605 81.3960251,34.1973147 78.3558236,36.6649302 C75.315622,39.1325457 74.6300864,46.6325594 78.3558236,49.1306303 C82.0815608,51.6287012 80.317197,60.2236604 74.3727379,60.2236604 C68.4282788,60.2236604 66.5236092,67.4916327 66.5236092,70.8410056 C66.5236092,74.1903784 63.9246804,79.487449 57.3426658,76.932818 C50.7606513,74.378187 47.3101408,75.8898292 44.6119127,79.6078204 C42.5334966,82.4717491 41.5977931,82.7580577 39.2783961,83.0458912 C37.1079983,83.3152341 35.2092692,82.4717491 33.0116028,79.2365542 C28.1656,72.1027308 24.0167645,75.3324573 20.9024117,75.3324573 C17.7880589,75.3324573 10.8854492,75.2584941 12.0747772,67.7410772 C12.8676626,62.729466 10.9031389,59.5787786 6.18120622,58.2890151 C0.351851169,55.5349735 -1.35435472,51.8385053 1.06258855,47.1996106 C4.68800345,40.2412686 3.71313251,37.6692345 1.06258855,32.4838339 C-1.58795541,27.2984333 1.06258855,24.0926361 5.9951011,23.0847061 C6.76340602,22.9277076 14.5544825,20.8277408 13.8573153,12.4669984 C13.7354674,11.0057443 14.2393659,6.94667535 16.9723951,5.74577367 C18.1796604,5.21529745 20.884485,5.38606543 25.0868689,6.25807762 Z" id="Path-5" fill="#D8D8D8"></path>
                                <ellipse id="Oval" fill="#EDEDED" cx="40.512164" cy="41.5773465" rx="30.7590128" ry="30.6876543"></ellipse>
                                <ellipse id="Oval-Copy-4" stroke="#D8D8D8" stroke-width="3.75755226" cx="40.6204789" cy="41.6663607" rx="27.2098959" ry="27.1467711"></ellipse>
                            </g>
                        </g>
                        <g id="Group-45" transform="translate(87.249576, 312.593258)" stroke="#70C6FF">
                            <polygon id="Path-11" stroke-width="4.69031389" stroke-linecap="square" stroke-linejoin="bevel" points="49.9204779 0 100.7887 18.2131899 50.3943502 35.4099474 -8.52651283e-13 17.995951"></polygon>
                            <path d="M21.248451,26.7203897 L21.248451,49.0960006 C29.4548973,57.7855583 39.4360003,62.1303371 51.19176,62.1303371 C62.934533,61.2766559 72.3436579,57.0042901 79.4191346,49.3132396 L79.4191346,26.7203897" id="Path-15" stroke-width="4.69031389" stroke-linejoin="bevel"></path>
                            <path d="M93.7750516,20.4204604 L93.7750516,35.7777316" id="Path-17" stroke-width="2.73097397"></path>
                            <path d="M93.7750516,35.4099474 L93.7750516,51.7028679" id="Path-17-Copy-2" stroke-width="7.30276647" stroke-linejoin="bevel"></path>
                        </g>
                    </g>
                    <g id="Group-4" transform="translate(15.000000, 62.000000) scale(1, -1) rotate(-90.000000) translate(-15.000000, -62.000000) translate(-47.000000, 47.000000)">
                        <polygon id="Rectangle-9-Copy-2" fill="#39ff14" transform="translate(36.062500, 3.937500) rotate(-90.000000) translate(-36.062500, -3.937500) " points="33.0625 0.9375 39.0625 0.9375 39.0625 6.9375 33.0625 6.9375"></polygon>
                        <polygon id="Rectangle-9-Copy-4" fill="#70C6FF" transform="translate(3.000000, 26.000000) rotate(-90.000000) translate(-3.000000, -26.000000) " points="0 23 6 23 6 29 0 29"></polygon>
                        <polygon id="Rectangle-9-Copy-3" fill="#39ff14" transform="translate(120.062500, 17.937500) rotate(-90.000000) translate(-120.062500, -17.937500) " points="117.0625 14.9375 123.0625 14.9375 123.0625 20.9375 117.0625 20.9375"></polygon>
                    </g>
                    <g id="Group-5" transform="translate(671.000000, 386.000000)">
                        <polygon id="Rectangle-9-Copy-2" fill="#39ff14" transform="translate(3.000000, 3.000000) rotate(-90.000000) translate(-3.000000, -3.000000) " points="0 0 6 0 6 6 0 6"></polygon>
                        <polygon id="Rectangle-9-Copy-4" fill="#70C6FF" transform="translate(11.000000, 59.000000) rotate(-90.000000) translate(-11.000000, -59.000000) " points="8 56 14 56 14 62 8 62"></polygon>
                    </g>
                </g>
            </g>
        </g>
    </g>
</svg>