<?xml version="1.0" encoding="UTF-8"?>
<svg width="549px" height="491px" viewBox="0 0 549 491" version="1.1" xmlns="http://www.w3.org/2000/svg" xmlns:xlink="http://www.w3.org/1999/xlink">
    <!-- Generator: Sketch 52.2 (67145) - http://www.bohemiancoding.com/sketch -->
    <title>Group 18</title>
    <desc>Created with Sketch.</desc>
    <defs>
        <polygon id="path-1" points="1.09592708e-13 2.40203827e-13 265.446915 2.40203827e-13 309.847312 38.6967554 309.847312 231.357645 -2.21195492e-14 231.357645"></polygon>
        <filter x="-5.2%" y="-6.1%" width="110.3%" height="113.8%" filterUnits="objectBoundingBox" id="filter-2">
            <feMorphology radius="1.5" operator="dilate" in="SourceAlpha" result="shadowSpreadOuter1"></feMorphology>
            <feOffset dx="0" dy="2" in="shadowSpreadOuter1" result="shadowOffsetOuter1"></feOffset>
            <feGaussianBlur stdDeviation="3.5" in="shadowOffsetOuter1" result="shadowBlurOuter1"></feGaussianBlur>
            <feComposite in="shadowBlurOuter1" in2="SourceAlpha" operator="out" result="shadowBlurOuter1"></feComposite>
            <feColorMatrix values="0 0 0 0 0.24346301   0 0 0 0 0.24346301   0 0 0 0 0.24346301  0 0 0 0.0766530797 0" type="matrix" in="shadowBlurOuter1" result="shadowMatrixOuter1"></feColorMatrix>
            <feOffset dx="0" dy="1" in="SourceAlpha" result="shadowOffsetOuter2"></feOffset>
            <feGaussianBlur stdDeviation="1.5" in="shadowOffsetOuter2" result="shadowBlurOuter2"></feGaussianBlur>
            <feComposite in="shadowBlurOuter2" in2="SourceAlpha" operator="out" result="shadowBlurOuter2"></feComposite>
            <feColorMatrix values="0 0 0 0 0   0 0 0 0 0   0 0 0 0 0  0 0 0 0.0586786685 0" type="matrix" in="shadowBlurOuter2" result="shadowMatrixOuter2"></feColorMatrix>
            <feMerge>
                <feMergeNode in="shadowMatrixOuter1"></feMergeNode>
                <feMergeNode in="shadowMatrixOuter2"></feMergeNode>
            </feMerge>
        </filter>
        <polygon id="path-3" points="1.19753622e-13 2.62722935e-13 290.057888 2.62722935e-13 338.574878 42.3245762 338.574878 253.047424 -2.41703683e-14 253.047424"></polygon>
        <filter x="-4.7%" y="-5.5%" width="109.5%" height="112.6%" filterUnits="objectBoundingBox" id="filter-4">
            <feMorphology radius="1.5" operator="dilate" in="SourceAlpha" result="shadowSpreadOuter1"></feMorphology>
            <feOffset dx="0" dy="2" in="shadowSpreadOuter1" result="shadowOffsetOuter1"></feOffset>
            <feGaussianBlur stdDeviation="3.5" in="shadowOffsetOuter1" result="shadowBlurOuter1"></feGaussianBlur>
            <feComposite in="shadowBlurOuter1" in2="SourceAlpha" operator="out" result="shadowBlurOuter1"></feComposite>
            <feColorMatrix values="0 0 0 0 0.24346301   0 0 0 0 0.24346301   0 0 0 0 0.24346301  0 0 0 0.0766530797 0" type="matrix" in="shadowBlurOuter1" result="shadowMatrixOuter1"></feColorMatrix>
            <feOffset dx="0" dy="1" in="SourceAlpha" result="shadowOffsetOuter2"></feOffset>
            <feGaussianBlur stdDeviation="1.5" in="shadowOffsetOuter2" result="shadowBlurOuter2"></feGaussianBlur>
            <feComposite in="shadowBlurOuter2" in2="SourceAlpha" operator="out" result="shadowBlurOuter2"></feComposite>
            <feColorMatrix values="0 0 0 0 0   0 0 0 0 0   0 0 0 0 0  0 0 0 0.0586786685 0" type="matrix" in="shadowBlurOuter2" result="shadowMatrixOuter2"></feColorMatrix>
            <feMerge>
                <feMergeNode in="shadowMatrixOuter1"></feMergeNode>
                <feMergeNode in="shadowMatrixOuter2"></feMergeNode>
            </feMerge>
        </filter>
        <polygon id="path-5" points="3.21948468e-14 3.20271769e-13 353.343245 3.20271769e-13 412.44576 51.5956739 412.44576 308.47686 -1.43130741e-13 308.47686"></polygon>
        <filter x="-3.9%" y="-4.5%" width="107.8%" height="110.4%" filterUnits="objectBoundingBox" id="filter-6">
            <feMorphology radius="1.5" operator="dilate" in="SourceAlpha" result="shadowSpreadOuter1"></feMorphology>
            <feOffset dx="0" dy="2" in="shadowSpreadOuter1" result="shadowOffsetOuter1"></feOffset>
            <feGaussianBlur stdDeviation="3.5" in="shadowOffsetOuter1" result="shadowBlurOuter1"></feGaussianBlur>
            <feComposite in="shadowBlurOuter1" in2="SourceAlpha" operator="out" result="shadowBlurOuter1"></feComposite>
            <feColorMatrix values="0 0 0 0 0.24346301   0 0 0 0 0.24346301   0 0 0 0 0.24346301  0 0 0 0.0766530797 0" type="matrix" in="shadowBlurOuter1" result="shadowMatrixOuter1"></feColorMatrix>
            <feOffset dx="0" dy="1" in="SourceAlpha" result="shadowOffsetOuter2"></feOffset>
            <feGaussianBlur stdDeviation="1.5" in="shadowOffsetOuter2" result="shadowBlurOuter2"></feGaussianBlur>
            <feComposite in="shadowBlurOuter2" in2="SourceAlpha" operator="out" result="shadowBlurOuter2"></feComposite>
            <feColorMatrix values="0 0 0 0 0   0 0 0 0 0   0 0 0 0 0  0 0 0 0.0586786685 0" type="matrix" in="shadowBlurOuter2" result="shadowMatrixOuter2"></feColorMatrix>
            <feMerge>
                <feMergeNode in="shadowMatrixOuter1"></feMergeNode>
                <feMergeNode in="shadowMatrixOuter2"></feMergeNode>
            </feMerge>
        </filter>
    </defs>
    <g id="Web-design" stroke="none" stroke-width="1" fill="none" fill-rule="evenodd">
        <g id="Soluciones-gobierno" transform="translate(-744.000000, -164.000000)">
            <g id="Group-18" transform="translate(744.000000, 173.000000)">
                <g id="Group-14">
                    <polygon id="Fill-195-Copy" fill="#70C6FF" points="460.758094 421.09381 466.92538 421.09381 466.92538 415.090395 460.758094 415.090395"></polygon>
                    <polygon id="Fill-196-Copy" fill="#39ff14" points="502.372307 395.438442 508.539593 395.438442 508.539593 389.435028 502.372307 389.435028"></polygon>
                    <g id="Group-5" transform="translate(24.222637, 356.768526) scale(-1, 1) rotate(-90.000000) translate(-24.222637, -356.768526) translate(4.692897, 332.768526)">
                        <polygon id="Fill-195-Copy-2" fill="#70C6FF" transform="translate(34.987873, 44.860464) scale(-1, -1) translate(-34.987873, -44.860464) " points="31.90423 47.8621713 38.0715162 47.8621713 38.0715162 41.8587571 31.90423 41.8587571"></polygon>
                        <polygon id="Fill-196-Copy-2" fill="#39ff14" transform="translate(3.083643, 3.001707) scale(-1, -1) translate(-3.083643, -3.001707) " points="0 6.00341422 6.16728625 6.00341422 6.16728625 0 0 0"></polygon>
                    </g>
                    <g id="Group-13" transform="translate(2.083643, 0.000000)">
                        <g id="Group-27" opacity="0.297688802">
                            <g id="Group-2-Copy-2">
                                <g id="Group-2-Copy" transform="translate(125.632457, 155.935388) scale(-1, 1) rotate(-91.000000) translate(-125.632457, -155.935388) translate(-32.147283, 36.935388)">
                                    <g id="Group" transform="translate(157.754565, 118.767167) rotate(1.000000) translate(-157.754565, -118.767167) translate(2.544528, 2.767167)">
                                        <g id="Rectangle-21">
                                            <use fill="black" fill-opacity="1" filter="url(#filter-2)" xlink:href="#path-1"></use>
                                            <path stroke="#EBEBEB" stroke-width="0.81506246" d="M0.40753123,0.40753123 L0.40753123,230.950113 L309.439781,230.950113 L309.439781,38.8821626 L265.294248,0.40753123 L0.40753123,0.40753123 Z" stroke-linejoin="square" fill="#FFFFFF" fill-rule="evenodd"></path>
                                        </g>
                                        <polyline id="Path-3" stroke="#DEDEDE" stroke-width="1.22259369" opacity="0.769999981" points="264.024822 1.0564276 264.024822 40.1442489 308.705003 40.1372439"></polyline>
                                    </g>
                                </g>
                            </g>
                            <g id="Group-26" transform="translate(62.445414, 240.682150)" stroke="#DFDFDF" stroke-linecap="square" stroke-width="6.92803091">
                                <path d="M78.4933219,-64.5734319 L78.4933219,90.7012319" id="Line-Copy-10" transform="translate(78.493322, 13.063900) scale(-1, 1) rotate(-270.000000) translate(-78.493322, -13.063900) "></path>
                                <path d="M78.4933219,-74.3713569 L78.4933219,80.9033069" id="Line-Copy-11" transform="translate(78.493322, 3.265975) scale(-1, 1) rotate(-270.000000) translate(-78.493322, -3.265975) "></path>
                            </g>
                            <g id="Group-26-Copy" transform="translate(62.445414, 212.921362)" stroke="#DFDFDF" stroke-linecap="square" stroke-width="6.92803091">
                                <path d="M78.4933219,-64.5734319 L78.4933219,90.7012319" id="Line-Copy-10" transform="translate(78.493322, 13.063900) scale(-1, 1) rotate(-270.000000) translate(-78.493322, -13.063900) "></path>
                                <path d="M78.4933219,-74.3713569 L78.4933219,80.9033069" id="Line-Copy-11" transform="translate(78.493322, 3.265975) scale(-1, 1) rotate(-270.000000) translate(-78.493322, -3.265975) "></path>
                            </g>
                            <g id="Group-26-Copy-2" transform="translate(62.445414, 185.160575)" stroke="#DFDFDF" stroke-linecap="square" stroke-width="6.92803091">
                                <path d="M78.4933219,-64.5734319 L78.4933219,90.7012319" id="Line-Copy-10" transform="translate(78.493322, 13.063900) scale(-1, 1) rotate(-270.000000) translate(-78.493322, -13.063900) "></path>
                                <path d="M78.4933219,-74.3713569 L78.4933219,80.9033069" id="Line-Copy-11" transform="translate(78.493322, 3.265975) scale(-1, 1) rotate(-270.000000) translate(-78.493322, -3.265975) "></path>
                            </g>
                            <g id="Group-26-Copy-3" transform="translate(62.445414, 157.399787)" stroke="#DFDFDF" stroke-linecap="square" stroke-width="6.92803091">
                                <path d="M78.4933219,-64.5734319 L78.4933219,90.7012319" id="Line-Copy-10" transform="translate(78.493322, 13.063900) scale(-1, 1) rotate(-270.000000) translate(-78.493322, -13.063900) "></path>
                                <path d="M78.4933219,-74.3713569 L78.4933219,80.9033069" id="Line-Copy-11" transform="translate(78.493322, 3.265975) scale(-1, 1) rotate(-270.000000) translate(-78.493322, -3.265975) "></path>
                            </g>
                            <g id="Group-26-Copy-4" transform="translate(62.445414, 129.639000)" stroke="#DFDFDF" stroke-linecap="square" stroke-width="6.92803091">
                                <path d="M78.4933219,-64.5734319 L78.4933219,90.7012319" id="Line-Copy-10" transform="translate(78.493322, 13.063900) scale(-1, 1) rotate(-270.000000) translate(-78.493322, -13.063900) "></path>
                                <path d="M78.4933219,-74.3713569 L78.4933219,80.9033069" id="Line-Copy-11" transform="translate(78.493322, 3.265975) scale(-1, 1) rotate(-270.000000) translate(-78.493322, -3.265975) "></path>
                            </g>
                            <g id="Group-26-Copy-5" transform="translate(62.445414, 101.878212)" stroke="#DFDFDF" stroke-linecap="square" stroke-width="6.92803091">
                                <path d="M78.4933219,-64.5734319 L78.4933219,90.7012319" id="Line-Copy-10" transform="translate(78.493322, 13.063900) scale(-1, 1) rotate(-270.000000) translate(-78.493322, -13.063900) "></path>
                                <path d="M78.4933219,-74.3713569 L78.4933219,80.9033069" id="Line-Copy-11" transform="translate(78.493322, 3.265975) scale(-1, 1) rotate(-270.000000) translate(-78.493322, -3.265975) "></path>
                            </g>
                            <g id="Group-26-Copy-6" transform="translate(62.445414, 74.117425)" stroke="#DFDFDF" stroke-linecap="square" stroke-width="6.92803091">
                                <path d="M78.4933219,-64.5734319 L78.4933219,90.7012319" id="Line-Copy-10" transform="translate(78.493322, 13.063900) scale(-1, 1) rotate(-270.000000) translate(-78.493322, -13.063900) "></path>
                                <path d="M78.4933219,-74.3713569 L78.4933219,80.9033069" id="Line-Copy-11" transform="translate(78.493322, 3.265975) scale(-1, 1) rotate(-270.000000) translate(-78.493322, -3.265975) "></path>
                            </g>
                            <g id="Group-12" transform="translate(33.426288, 73.620843)">
                                <rect id="Rectangle" stroke="#DFDFDF" stroke-width="1.63012492" fill="#DFDFDF" x="1.41569926" y="1.31164488" width="15.0866334" height="14.6997501"></rect>
                                <polygon id="ic_check-copy-6" fill="#FFFFFF" points="7.00653061 10.6730435 3.50361334 7.31160837 2.15653473 8.6041814 6.33302794 12.6119031 7.68003327 12.6119734 15.0957431 5.49670478 13.7488111 4.20399113"></polygon>
                            </g>
                            <g id="Group-8" transform="translate(33.426288, 156.649667)">
                                <rect id="Rectangle-Copy-25" stroke="#DFDFDF" stroke-width="1.63012492" fill="#DFDFDF" x="1.41569926" y="1.56518254" width="15.0866334" height="14.6997501"></rect>
                                <polygon id="ic_check-copy-9" fill="#FFFFFF" points="7.00653061 10.6730435 3.50361334 7.31160837 2.15653473 8.6041814 6.33302794 12.6119031 7.68003327 12.6119734 15.0957431 5.49670478 13.7488111 4.20399113"></polygon>
                            </g>
                            <g id="Group-10" transform="translate(33.426288, 100.946785)">
                                <g id="Group-11">
                                    <rect id="Rectangle-Copy-23" stroke="#DFDFDF" stroke-width="1.63012492" fill="#DFDFDF" x="1.41569926" y="1.74649003" width="15.0866334" height="14.6997501"></rect>
                                    <polygon id="ic_check-copy-7" fill="#FFFFFF" points="7.00653061 11.7240413 3.50361334 8.36260616 2.15653473 9.65517919 6.33302794 13.6629009 7.68003327 13.6629712 15.0957431 6.54770256 13.7488111 5.25498891"></polygon>
                                </g>
                            </g>
                            <g id="Group-7" transform="translate(33.426288, 185.026608)">
                                <rect id="Rectangle-Copy-26" stroke="#DFDFDF" stroke-width="1.63012492" fill="#DFDFDF" x="1.41569926" y="0.949029905" width="15.0866334" height="14.6997501"></rect>
                                <polygon id="ic_check-copy-10" fill="#FFFFFF" points="7.00653061 10.6730435 3.50361334 7.31160837 2.15653473 8.6041814 6.33302794 12.6119031 7.68003327 12.6119734 15.0957431 5.49670478 13.7488111 4.20399113"></polygon>
                            </g>
                            <g id="Group-9" transform="translate(33.426288, 129.323725)">
                                <rect id="Rectangle-Copy-24" stroke="#DFDFDF" stroke-width="1.63012492" fill="#DFDFDF" x="1.41569926" y="1.13033739" width="15.0866334" height="14.6997501"></rect>
                                <polygon id="ic_check-copy-8" fill="#FFFFFF" points="7.00653061 10.6730435 3.50361334 7.31160837 2.15653473 8.6041814 6.33302794 12.6119031 7.68003327 12.6119734 15.0957431 5.49670478 13.7488111 4.20399113"></polygon>
                            </g>
                            <g id="Group-6" transform="translate(33.426288, 212.352550)">
                                <rect id="Rectangle-Copy-27" stroke="#DFDFDF" stroke-width="1.63012492" fill="#DFDFDF" x="1.41569926" y="1.38387505" width="15.0866334" height="14.6997501"></rect>
                                <polygon id="ic_check-copy-11" fill="#FFFFFF" points="7.00653061 11.7240413 3.50361334 8.36260616 2.15653473 9.65517919 6.33302794 13.6629009 7.68003327 13.6629712 15.0957431 6.54770256 13.7488111 5.25498891"></polygon>
                            </g>
                            <g id="Group-4" transform="translate(33.426288, 239.678492)">
                                <rect id="Rectangle-Copy-35" stroke="#DFDFDF" stroke-width="1.63012492" fill="#DFDFDF" x="1.41569926" y="1.8187202" width="15.0866334" height="14.6997501"></rect>
                                <polygon id="ic_check-copy-12" fill="#FFFFFF" points="7.00653061 11.5058867 3.50361334 8.14445152 2.15653473 9.43702455 6.33302794 13.4447462 7.68003327 13.4448165 15.0957431 6.32954793 13.7488111 5.03683428"></polygon>
                            </g>
                        </g>
                        <g id="Group-22" opacity="0.703543527" transform="translate(275.168112, 32.776227)">
                            <g id="Group-2">
                                <g id="Group-2-Copy" transform="translate(136.661919, 169.966600) scale(-1, 1) rotate(-91.000000) translate(-136.661919, -169.966600) translate(-35.321726, 40.168374)">
                                    <g id="Group" transform="translate(172.072580, 129.666537) rotate(1.000000) translate(-172.072580, -129.666537) translate(2.784603, 3.021304)">
                                        <g id="Rectangle-21">
                                            <use fill="black" fill-opacity="1" filter="url(#filter-4)" xlink:href="#path-3"></use>
                                            <path stroke="#EBEBEB" stroke-width="0.81506246" d="M0.40753123,0.40753123 L0.40753123,252.639893 L338.167346,252.639893 L338.167346,42.5098681 L289.905111,0.40753123 L0.40753123,0.40753123 Z" stroke-linejoin="square" fill="#FFFFFF" fill-rule="evenodd"></path>
                                        </g>
                                        <polyline id="Path-3" stroke="#DEDEDE" stroke-width="1.33670242" opacity="0.769999981" points="288.503945 1.15546769 288.503945 43.9077722 337.326659 43.9001105"></polyline>
                                    </g>
                                </g>
                            </g>
                            <g id="Group-21" opacity="0.607514881" transform="translate(32.948658, 53.419579)">
                                <g id="Group-19" transform="translate(6.863835, 178.322235)" stroke="#DFDFDF" stroke-width="3.58627483">
                                    <ellipse id="Oval-Copy" cx="8.23660146" cy="60.3345908" rx="8.23660146" ry="8.0446121"></ellipse>
                                    <ellipse id="Oval-Copy-2" cx="34.3191728" cy="30.8376797" rx="8.23660146" ry="8.0446121"></ellipse>
                                    <ellipse id="Oval-Copy-3" cx="87.8570823" cy="68.3792029" rx="8.23660146" ry="8.0446121"></ellipse>
                                    <ellipse id="Oval-Copy-5" cx="133.15839" cy="8.0446121" rx="8.23660146" ry="8.0446121"></ellipse>
                                    <ellipse id="Oval-Copy-6" cx="182.577999" cy="52.2899787" rx="8.23660146" ry="8.0446121"></ellipse>
                                    <path d="M13.7276691,53.6307474 L28.8281051,36.2007545" id="Path-16"></path>
                                    <path d="M40.4966239,36.2007545 L80.9932477,63.6865125" id="Path-16-Copy"></path>
                                    <path d="M128.353706,14.0780712 L91.2889995,61.6753595" id="Path-16-Copy-2"></path>
                                    <path d="M137.963074,14.0780712 L176.400548,47.5972883" id="Path-16-Copy-3"></path>
                                </g>
                                <g id="Group-20" transform="translate(0.000000, 37.541523)">
                                    <path d="M103.198825,12.3619945 L103.198825,218.250219" id="Line-Copy-4" stroke="#D8D8D8" stroke-width="2.67340485" stroke-linecap="square" transform="translate(103.198825, 115.306107) scale(-1, 1) rotate(-270.000000) translate(-103.198825, -115.306107) "></path>
                                    <rect id="Rectangle" fill="#D8D8D8" x="8.23660146" y="79.1053524" width="16.4732029" height="34.8599858"></rect>
                                    <rect id="Rectangle-Copy-14" fill="#D8D8D8" x="37.0647066" y="44.2453666" width="16.4732029" height="69.7199716"></rect>
                                    <rect id="Rectangle-Copy-15" fill="#D8D8D8" x="65.8928117" y="57.6530534" width="16.4732029" height="56.3122847"></rect>
                                    <rect id="Rectangle-Copy-21" fill="#D8D8D8" x="152.377127" y="57.6530534" width="16.4732029" height="56.3122847"></rect>
                                    <rect id="Rectangle-Copy-16" fill="#D8D8D8" x="94.7209168" y="28.1561424" width="16.4732029" height="85.8091958"></rect>
                                    <rect id="Rectangle-Copy-22" fill="#D8D8D8" x="181.205232" y="28.1561424" width="16.4732029" height="85.8091958"></rect>
                                    <rect id="Rectangle-Copy-17" fill="#D8D8D8" x="123.549022" y="0" width="16.4732029" height="113.965338"></rect>
                                    <path id="Path-17-Copy" d="M19.6108667,80.3611751 L29.5537237,79.9299377 L29.6406044,81.9331081 L15.879793,82.5299362 L14.1021915,82.6070336 L14.9571464,81.0466288 L21.5755435,68.9671854 L23.3339561,69.9306299 L18.5518416,78.6586165 L25.460424,74.3613413 L42.8875403,63.5213297 L43.4792421,63.1532794 L44.0304278,63.5796201 L76.0797268,88.369671 L133.319301,27.0894857 L134.172637,26.1759125 L134.879056,27.2073038 L168.11596,75.7340473 L189.645964,55.3408973 L191.024797,56.7965961 L168.642008,77.9975009 L167.789224,78.8052557 L167.125472,77.8361615 L133.931238,29.3717151 L76.9214943,90.405845 L76.2979905,91.0733628 L75.5754838,90.5145058 L43.3548637,65.5919385 L26.5194492,76.0638999 L19.6108667,80.3611751 Z" fill="#70C6FF" fill-rule="nonzero"></path>
                                </g>
                                <path d="M31.26029,-22.9960012 L31.26029,25.6775386" id="Line-Copy-8" stroke="#DFDFDF" stroke-width="4.01010727" stroke-linecap="square" transform="translate(31.260290, 1.340769) scale(-1, 1) rotate(-270.000000) translate(-31.260290, -1.340769) "></path>
                                <path d="M71.7569138,-4.46364793 L71.7569138,7.14518529" id="Line-Copy-9" stroke="#DFDFDF" stroke-width="4.01010727" stroke-linecap="square" transform="translate(71.756914, 1.340769) scale(-1, 1) rotate(-270.000000) translate(-71.756914, -1.340769) "></path>
                            </g>
                        </g>
                        <g id="Group-2-Copy-3" transform="translate(76.556983, 56.804878)">
                            <g id="Group-2-Copy" transform="translate(166.982347, 207.973524) scale(-1, 1) rotate(-91.000000) translate(-166.982347, -207.973524) translate(-43.279790, 49.798358)">
                                <g id="Group" transform="translate(210.417728, 158.156761) rotate(1.000000) translate(-210.417728, -158.156761) translate(3.390393, 3.660087)">
                                    <g id="Rectangle-21">
                                        <use fill="black" fill-opacity="1" filter="url(#filter-6)" xlink:href="#path-5"></use>
                                        <path stroke="#EBEBEB" stroke-width="0.81506246" d="M0.40753123,0.40753123 L0.40753123,308.069328 L412.038229,308.069328 L412.038229,51.7808792 L353.190387,0.40753123 L0.40753123,0.40753123 Z M412.038229,308.069328 L412.44576,308.069328 L412.038229,308.47686 L412.038229,308.069328 Z" stroke-linejoin="square" fill="#FFFFFF" fill-rule="evenodd"></path>
                                    </g>
                                    <polyline id="Path-3" stroke="#DEDEDE" stroke-width="1.63012492" opacity="0.769999981" points="353.606795 1.40857014 353.606795 53.5256651 413.081738 53.5163252"></polyline>
                                </g>
                            </g>
                        </g>
                        <g id="Group-40" transform="translate(243.097664, 142.833745) rotate(-1.000000) translate(-243.097664, -142.833745) translate(85.597664, 118.333745)">
                            <path d="M33.7107731,43.741831 L277.908496,43.7079978" id="Line-5-Copy" stroke="#979797" stroke-width="0.530249971" stroke-linecap="square" transform="translate(155.809634, 43.724914) rotate(1.000000) translate(-155.809634, -43.724914) "></path>
                            <path d="M62.9263098,28.4960817 L54.907756,28.4960817 L53.5446019,33.1468429 L51.1390357,33.1468429 L56.8054804,14.436884 L61.0285854,14.436884 L66.6950301,33.1468429 L64.289464,33.1468429 L62.9263098,28.4960817 Z M58.7566618,15.3991104 L55.5225118,26.4112577 L62.311554,26.4112577 L59.077404,15.3991104 L58.7566618,15.3991104 Z M78.936689,32.1846164 L79.2574311,32.1846164 L79.2574311,14.436884 L81.5026262,14.436884 L81.5026262,33.1468429 L77.0122361,33.1468429 L71.6130765,15.3991104 L71.2923343,15.3991104 L71.2923343,33.1468429 L69.0471393,33.1468429 L69.0471393,14.436884 L73.5375294,14.436884 L78.936689,32.1846164 Z M95.2945388,32.1846164 L95.6152809,32.1846164 L95.6152809,14.436884 L97.860476,14.436884 L97.860476,33.1468429 L93.3700859,33.1468429 L87.9709263,15.3991104 L87.6501841,15.3991104 L87.6501841,33.1468429 L85.4049891,33.1468429 L85.4049891,14.436884 L89.8953792,14.436884 L95.2945388,32.1846164 Z M103.820934,14.436884 L103.820934,26.8389139 C103.820934,28.3535372 104.172856,29.498397 104.876711,30.2735278 C105.580565,31.0486585 106.618512,31.4362181 107.990582,31.4362181 C109.362653,31.4362181 110.4006,31.0486585 111.104454,30.2735278 C111.808308,29.498397 112.16023,28.3535372 112.16023,26.8389139 L112.16023,14.436884 L114.405425,14.436884 L114.405425,26.8389139 C114.405425,29.0128438 113.835223,30.669995 112.694801,31.8104173 C111.554378,32.9508395 109.986321,33.5210421 107.990582,33.5210421 C105.994843,33.5210421 104.426786,32.9508395 103.286364,31.8104173 C102.145942,30.669995 101.575739,29.0128438 101.575739,26.8389139 L101.575739,14.436884 L103.820934,14.436884 Z M128.357709,28.4960817 L120.339155,28.4960817 L118.976001,33.1468429 L116.570435,33.1468429 L122.23688,14.436884 L126.459985,14.436884 L132.126429,33.1468429 L129.720863,33.1468429 L128.357709,28.4960817 Z M124.188061,15.3991104 L120.953911,26.4112577 L127.742953,26.4112577 L124.508803,15.3991104 L124.188061,15.3991104 Z M134.852738,14.436884 L137.097933,14.436884 L137.097933,31.0620189 L146.880568,31.0620189 L146.880568,33.1468429 L134.852738,33.1468429 L134.852738,14.436884 Z M179.275526,33.1468429 L177.030331,33.1468429 L177.030331,26.8923709 C177.030331,26.4290744 176.923418,26.0726978 176.709589,25.8232304 C176.495759,25.573763 176.121564,25.4490312 175.586991,25.4490312 L169.760175,25.4490312 L169.760175,33.1468429 L167.51498,33.1468429 L167.51498,14.436884 L174.197108,14.436884 C175.15934,14.436884 175.996825,14.5749799 176.709589,14.8511759 C177.422353,15.1273719 178.014829,15.4971127 178.487035,15.9604092 C178.959241,16.4237057 179.315617,16.9627254 179.556175,17.5774842 C179.796733,18.1922431 179.91701,18.8381757 179.91701,19.5153014 L179.91701,20.3171568 C179.91701,21.0121016 179.725458,21.707036 179.342347,22.4019808 C178.959237,23.0969256 178.36676,23.6314905 177.564901,24.0056915 L177.564901,24.3264337 C178.099474,24.4155292 178.518216,24.6293551 178.821141,24.967918 C179.124066,25.3064809 179.275526,25.7875893 179.275526,26.4112577 L179.275526,33.1468429 Z M169.760175,23.3642072 L173.929823,23.3642072 C175.194979,23.3642072 176.134923,23.0924701 176.749681,22.5489876 C177.36444,22.0055051 177.671815,21.2081125 177.671815,20.1567857 L177.671815,19.6756725 C177.671815,18.7312603 177.36444,17.9695053 176.749681,17.3903846 C176.134923,16.811264 175.194979,16.521708 173.929823,16.521708 L169.760175,16.521708 L169.760175,23.3642072 Z M184.113387,14.436884 L195.446276,14.436884 L195.446276,16.521708 L186.358582,16.521708 L186.358582,22.7227229 L195.285905,22.7227229 L195.285905,24.8075469 L186.358582,24.8075469 L186.358582,31.0620189 L195.606647,31.0620189 L195.606647,33.1468429 L184.113387,33.1468429 L184.113387,14.436884 Z M202.475875,25.4490312 L202.475875,33.1468429 L200.23068,33.1468429 L200.23068,14.436884 L206.912808,14.436884 C207.875039,14.436884 208.712524,14.5749799 209.425288,14.8511759 C210.138052,15.1273719 210.730528,15.4971127 211.202734,15.9604092 C211.67494,16.4237057 212.031317,16.9627254 212.271875,17.5774842 C212.512433,18.1922431 212.63271,18.8381757 212.63271,19.5153014 L212.63271,20.3171568 C212.63271,20.9942825 212.512433,21.6446698 212.271875,22.2683382 C212.031317,22.8920066 211.670486,23.4399357 211.18937,23.9121417 C210.708254,24.3843478 210.111324,24.7585433 209.39856,25.0347393 C208.685796,25.3109353 207.85722,25.4490312 206.912808,25.4490312 L202.475875,25.4490312 Z M202.475875,23.3642072 L206.645523,23.3642072 C209.140197,23.3642072 210.387515,22.2950774 210.387515,20.1567857 L210.387515,19.6756725 C210.387515,18.7312603 210.08014,17.9695053 209.465381,17.3903846 C208.850622,16.811264 207.910679,16.521708 206.645523,16.521708 L202.475875,16.521708 L202.475875,23.3642072 Z M215.920317,21.7070394 C215.920317,19.2836422 216.499429,17.4037556 217.65767,16.0673232 C218.815912,14.7308909 220.428516,14.0626848 222.495531,14.0626848 C224.562546,14.0626848 226.17515,14.7308909 227.333392,16.0673232 C228.491633,17.4037556 229.070745,19.2836422 229.070745,21.7070394 L229.070745,25.8766874 C229.070745,28.3713611 228.491633,30.2690665 227.333392,31.5698606 C226.17515,32.8706548 224.562546,33.5210421 222.495531,33.5210421 C220.428516,33.5210421 218.815912,32.8706548 217.65767,31.5698606 C216.499429,30.2690665 215.920317,28.3713611 215.920317,25.8766874 L215.920317,21.7070394 Z M222.495531,31.4362181 C223.938878,31.4362181 225.021372,30.9417455 225.743045,29.9527856 C226.464719,28.9638257 226.82555,27.5516834 226.82555,25.7163164 L226.82555,21.8674105 C226.82555,20.1567771 226.464719,18.7758178 225.743045,17.724491 C225.021372,16.6731643 223.938878,16.1475088 222.495531,16.1475088 C221.052184,16.1475088 219.96969,16.6731643 219.248017,17.724491 C218.526343,18.7758178 218.165512,20.1567771 218.165512,21.8674105 L218.165512,25.7163164 C218.165512,27.5516834 218.526343,28.9638257 219.248017,29.9527856 C219.96969,30.9417455 221.052184,31.4362181 222.495531,31.4362181 Z M244.706925,33.1468429 L242.46173,33.1468429 L242.46173,26.8923709 C242.46173,26.4290744 242.354817,26.0726978 242.140988,25.8232304 C241.927159,25.573763 241.552963,25.4490312 241.01839,25.4490312 L235.191575,25.4490312 L235.191575,33.1468429 L232.946379,33.1468429 L232.946379,14.436884 L239.628508,14.436884 C240.590739,14.436884 241.428224,14.5749799 242.140988,14.8511759 C242.853752,15.1273719 243.446228,15.4971127 243.918434,15.9604092 C244.39064,16.4237057 244.747017,16.9627254 244.987574,17.5774842 C245.228132,18.1922431 245.348409,18.8381757 245.348409,19.5153014 L245.348409,20.3171568 C245.348409,21.0121016 245.156857,21.707036 244.773746,22.4019808 C244.390636,23.0969256 243.79816,23.6314905 242.9963,24.0056915 L242.9963,24.3264337 C243.530873,24.4155292 243.949616,24.6293551 244.25254,24.967918 C244.555465,25.3064809 244.706925,25.7875893 244.706925,26.4112577 L244.706925,33.1468429 Z M235.191575,23.3642072 L239.361223,23.3642072 C240.626378,23.3642072 241.566322,23.0924701 242.181081,22.5489876 C242.795839,22.0055051 243.103214,21.2081125 243.103214,20.1567857 L243.103214,19.6756725 C243.103214,18.7312603 242.795839,17.9695053 242.181081,17.3903846 C241.566322,16.811264 240.626378,16.521708 239.361223,16.521708 L235.191575,16.521708 L235.191575,23.3642072 Z M248.636016,14.436884 L261.786445,14.436884 L261.786445,16.521708 L256.333828,16.521708 L256.333828,33.1468429 L254.088633,33.1468429 L254.088633,16.521708 L248.636016,16.521708 L248.636016,14.436884 Z" id="ANNUAL-REPORT" fill="#4A4A4A" transform="translate(156.462740, 23.791863) rotate(1.000000) translate(-156.462740, -23.791863) "></path>
                        </g>
                        <path d="M347.579221,441.117845 L350.347321,441.117845 L350.347321,418.711521 L347.579221,418.711521 L347.579221,441.117845 Z M323.399597,441.117845 L326.141405,441.117845 L326.141405,418.711521 L323.399597,418.711521 L323.399597,441.117845 Z M317.937077,440.959955 L320.800787,440.959955 L320.800787,419.025507 L317.937077,419.025507 L317.937077,440.959955 Z M328.740423,440.959955 L331.603821,440.959955 L331.603821,419.025507 L328.740423,419.025507 L328.740423,440.959955 Z M334.202839,441.117745 L339.517579,441.117745 L339.517579,418.711421 L334.202839,418.711421 L334.202839,441.117745 Z M342.116701,440.959955 L344.980307,440.959955 L344.980307,419.025507 L342.116701,419.025507 L342.116701,440.959955 Z M314.08329,416.401546 L358.859782,416.401546 L358.859782,407.872701 L314.08329,407.872701 L314.08329,416.401546 Z M336.59588,392.619836 C346.830453,392.619836 355.286379,398.291721 356.397943,405.562726 L344.545388,405.562726 L328.38594,405.562726 L316.793921,405.562726 C317.905589,398.291721 326.361307,392.619836 336.59588,392.619836 Z M344.425253,380.254216 L342.599113,382.174396 L342.605244,383.389302 L344.396778,385.236664 L337.205286,385.236664 L337.205286,380.254216 L344.425253,380.254216 Z M352.946443,440.959955 L355.810049,440.959955 L355.810049,419.025507 L352.946443,419.025507 L352.946443,440.959955 Z M359.831776,418.711521 L361.219568,417.556484 L361.219568,406.717664 L359.831776,405.562726 L359.230372,405.562726 C358.736944,401.506898 356.406153,397.759477 352.54135,394.875321 C348.41175,391.793927 342.986227,390.050265 337.205182,389.935707 L337.205182,387.030334 L346.544145,387.030334 L347.229311,385.522858 L344.56212,382.772685 L347.23565,379.961547 L346.544145,378.460546 L337.205286,378.460546 L337.205286,377.359202 L335.097722,377.359202 L335.097722,389.966987 C329.651206,390.233955 324.567487,391.952415 320.650618,394.875321 C316.785711,397.759477 314.455024,401.506898 313.961492,405.562726 L313.007164,405.562726 L311.619269,406.717664 L311.619269,417.556484 L313.007164,418.711521 L315.33806,418.711521 L315.33806,441.117745 L312.07518,441.117745 L312.07518,443.571962 L360.882233,443.572062 L360.882233,441.117745 L358.408962,441.117745 L358.408962,418.711521 L359.831776,418.711521 Z" id="Fill-1" fill="#70C6FF"></path>
                        <polygon id="Rectangle-21-Copy-46" fill="#EBEBEB" points="119.687678 172.414634 366.610905 172.414634 366.610905 181.873614 119.687678 181.873614"></polygon>
                        <polygon id="Rectangle-21-Copy-75" fill="#EBEBEB" points="119.687678 286.973392 366.610905 286.973392 366.610905 296.432373 119.687678 296.432373"></polygon>
                        <polygon id="Rectangle-21-Copy-76" fill="#EBEBEB" points="119.687678 301.687361 366.610905 301.687361 366.610905 311.146341 119.687678 311.146341"></polygon>
                        <polygon id="Rectangle-21-Copy-77" fill="#EBEBEB" points="119.687678 329.013304 366.610905 329.013304 366.610905 338.472284 119.687678 338.472284"></polygon>
                        <polygon id="Rectangle-21-Copy-78" fill="#EBEBEB" points="119.687678 343.727273 366.610905 343.727273 366.610905 353.186253 119.687678 353.186253"></polygon>
                        <polygon id="Rectangle-21-Copy-79" fill="#EBEBEB" points="119.687678 358.441242 227.514414 358.441242 227.514414 367.900222 119.687678 367.900222"></polygon>
                        <polygon id="Rectangle-21-Copy-70" fill="#EBEBEB" points="119.687678 187.128603 366.610905 187.128603 366.610905 196.587583 119.687678 196.587583"></polygon>
                        <polygon id="Rectangle-21-Copy-71" fill="#EBEBEB" points="119.687678 201.842572 366.610905 201.842572 366.610905 211.301552 119.687678 211.301552"></polygon>
                        <polygon id="Rectangle-21-Copy-72" fill="#EBEBEB" points="119.687678 216.556541 366.610905 216.556541 366.610905 226.015521 119.687678 226.015521"></polygon>
                        <polygon id="Rectangle-21-Copy-73" fill="#EBEBEB" points="119.687678 231.27051 366.610905 231.27051 366.610905 240.72949 119.687678 240.72949"></polygon>
                        <polygon id="Rectangle-21-Copy-74" fill="#EBEBEB" points="119.687678 245.984479 268.488574 245.984479 268.488574 255.443459 119.687678 255.443459"></polygon>
                        <polygon id="Rectangle-21-Copy-29" fill="#E2E2E2" points="120.765945 440.419069 201.635998 440.419069 201.635998 444.62306 120.765945 444.62306"></polygon>
                        <polygon id="Rectangle-21-Copy-30" fill="#E2E2E2" points="120.765945 434.113082 228.592682 434.113082 228.592682 438.317073 120.765945 438.317073"></polygon>
                        <path d="M120.765945,427.281332 L184.825065,427.281861" id="Line-5-Copy-3" stroke="#979797" stroke-width="0.5" stroke-linecap="square"></path>
                        <path d="M132.719032,426.288857 C149.670169,414.451007 156.228221,405.197547 152.393189,398.528474 C148.558157,391.859402 144.00493,402.322316 138.733506,429.917218 C138.452133,435.377832 144.740426,431.220446 157.598386,417.445059 C170.456346,403.669672 166.254873,405.740214 144.993966,423.656686 C142.076427,427.627113 144.362371,429.589809 151.851798,429.544774 C159.341224,429.499739 163.13744,426.204874 163.240444,419.660179 C162.233284,414.531191 153.37722,411.92108 136.672249,411.829845 C119.967279,411.73861 131.762924,417.714799 172.059183,429.758412" id="Path-6" stroke="#000000" stroke-width="0.55171587" transform="translate(150.694006, 414.411902) rotate(-1.000000) translate(-150.694006, -414.411902) "></path>
                    </g>
                </g>
            </g>
        </g>
    </g>
</svg>