<?xml version="1.0" encoding="UTF-8"?>
<svg width="563px" height="450px" viewBox="0 0 563 450" version="1.1" xmlns="http://www.w3.org/2000/svg" xmlns:xlink="http://www.w3.org/1999/xlink">
    <!-- Generator: Sketch 52.2 (67145) - http://www.bohemiancoding.com/sketch -->
    <title>Group 7</title>
    <desc>Created with Sketch.</desc>
    <defs>
        <path d="M75.7083525,0.713326039 C189.356186,0.713326039 306.024231,0.713326039 425.712488,0.713326039 C445.038845,1.98813562 454.702023,11.748605 454.702023,29.9947342 C454.702023,48.2408634 454.702023,128.470437 454.702023,270.683454 L48.9758613,270.683454 L48.9758613,33.8842383 C48.9758613,11.7702968 57.8866917,0.713326039 75.7083525,0.713326039 Z" id="path-1"></path>
        <filter x="-0.9%" y="-0.9%" width="101.7%" height="102.6%" filterUnits="objectBoundingBox" id="filter-2">
            <feOffset dx="0" dy="1" in="SourceAlpha" result="shadowOffsetOuter1"></feOffset>
            <feGaussianBlur stdDeviation="1" in="shadowOffsetOuter1" result="shadowBlurOuter1"></feGaussianBlur>
            <feColorMatrix values="0 0 0 0 0   0 0 0 0 0   0 0 0 0 0  0 0 0 0.0629245924 0" type="matrix" in="shadowBlurOuter1"></feColorMatrix>
        </filter>
        <path d="M45.690445,275.106252 C48.1604381,269.401195 52.6840206,266.548666 59.2611924,266.548666 C65.8383643,266.548666 192.824773,266.548666 440.220418,266.548666 C449.844528,266.657919 455.758631,269.510448 457.962728,275.106252 C460.166825,280.702057 475.072907,311.617254 502.680975,367.851843 C505.06568,372.933817 503.095706,375.474804 496.771052,375.474804 C490.446398,375.474804 327.422673,375.474804 7.69987758,375.474804 C0.677872846,375.474804 -1.54127464,372.933817 1.04243513,367.851843 C3.6261449,362.76987 18.5088148,331.854673 45.690445,275.106252 Z" id="path-3"></path>
        <filter x="-0.7%" y="-2.3%" width="101.4%" height="106.4%" filterUnits="objectBoundingBox" id="filter-4">
            <feOffset dx="0" dy="1" in="SourceAlpha" result="shadowOffsetOuter1"></feOffset>
            <feGaussianBlur stdDeviation="1" in="shadowOffsetOuter1" result="shadowBlurOuter1"></feGaussianBlur>
            <feColorMatrix values="0 0 0 0 0   0 0 0 0 0   0 0 0 0 0  0 0 0 0.0604619565 0" type="matrix" in="shadowBlurOuter1"></feColorMatrix>
        </filter>
        <path d="M77.1145329,277.98996 C79.0516594,274.634044 82.5993421,272.956086 87.757581,272.956086 C92.9158198,272.956086 201.39514,272.956086 413.195541,272.956086 C420.743384,273.020353 425.381602,274.698311 427.110195,277.98996 C428.838789,281.28161 436.202919,299.46702 449.202585,332.54619 C451.072824,335.535587 449.527844,337.030285 444.567646,337.030285 C439.607448,337.030285 311.753816,337.030285 61.0067505,337.030285 C55.4996452,337.030285 53.7592478,335.535587 55.7855583,332.54619 C57.8118687,329.556794 64.9215269,311.371384 77.1145329,277.98996 Z" id="path-5"></path>
        <filter x="-1.0%" y="-4.3%" width="101.9%" height="111.8%" filterUnits="objectBoundingBox" id="filter-6">
            <feMorphology radius="0.280500001" operator="dilate" in="SourceAlpha" result="shadowSpreadOuter1"></feMorphology>
            <feOffset dx="0" dy="1" in="shadowSpreadOuter1" result="shadowOffsetOuter1"></feOffset>
            <feGaussianBlur stdDeviation="1" in="shadowOffsetOuter1" result="shadowBlurOuter1"></feGaussianBlur>
            <feComposite in="shadowBlurOuter1" in2="SourceAlpha" operator="out" result="shadowBlurOuter1"></feComposite>
            <feColorMatrix values="0 0 0 0 0   0 0 0 0 0   0 0 0 0 0  0 0 0 0.0647361866 0" type="matrix" in="shadowBlurOuter1"></feColorMatrix>
        </filter>
        <polygon id="path-7" points="3.18452983 2.43193447 210.426045 2.36923076 248.33603 40.2240725 248.099165 324.662506 3.16422085 324.677887"></polygon>
        <filter x="-5.7%" y="-4.0%" width="111.4%" height="108.7%" filterUnits="objectBoundingBox" id="filter-8">
            <feMorphology radius="1.5" operator="dilate" in="SourceAlpha" result="shadowSpreadOuter1"></feMorphology>
            <feOffset dx="0" dy="1" in="shadowSpreadOuter1" result="shadowOffsetOuter1"></feOffset>
            <feGaussianBlur stdDeviation="3" in="shadowOffsetOuter1" result="shadowBlurOuter1"></feGaussianBlur>
            <feComposite in="shadowBlurOuter1" in2="SourceAlpha" operator="out" result="shadowBlurOuter1"></feComposite>
            <feColorMatrix values="0 0 0 0 0.243137255   0 0 0 0 0.243137255   0 0 0 0 0.243137255  0 0 0 0.08 0" type="matrix" in="shadowBlurOuter1" result="shadowMatrixOuter1"></feColorMatrix>
            <feOffset dx="0" dy="1" in="SourceAlpha" result="shadowOffsetOuter2"></feOffset>
            <feGaussianBlur stdDeviation="1.5" in="shadowOffsetOuter2" result="shadowBlurOuter2"></feGaussianBlur>
            <feComposite in="shadowBlurOuter2" in2="SourceAlpha" operator="out" result="shadowBlurOuter2"></feComposite>
            <feColorMatrix values="0 0 0 0 0   0 0 0 0 0   0 0 0 0 0  0 0 0 0.06 0" type="matrix" in="shadowBlurOuter2" result="shadowMatrixOuter2"></feColorMatrix>
            <feMerge>
                <feMergeNode in="shadowMatrixOuter1"></feMergeNode>
                <feMergeNode in="shadowMatrixOuter2"></feMergeNode>
            </feMerge>
        </filter>
    </defs>
    <g id="Web-design" stroke="none" stroke-width="1" fill="none" fill-rule="evenodd">
        <g id="Soluciones-mercados-financieros" transform="translate(-749.000000, -186.000000)">
            <g id="Group-7" transform="translate(757.000000, 186.000000)">
                <path d="" id="Path-6" stroke="#979797" stroke-width="1.10000002"></path>
                <g id="Group-4" opacity="0.70328776" transform="translate(49.339593, 70.897597)">
                    <g id="Path-4">
                        <use fill="black" fill-opacity="1" filter="url(#filter-2)" xlink:href="#path-1"></use>
                        <use fill="#D8D8D8" fill-rule="evenodd" xlink:href="#path-1"></use>
                    </g>
                    <path d="M69.310099,19.5027596 L69.310099,258.579262 L434.350308,258.579262 L434.350308,19.5027596 L69.310099,19.5027596 Z" id="Rectangle" stroke="#EBEBEB" stroke-width="0.561000002" fill="#FFFFFF"></path>
                    <g id="Path-7">
                        <use fill="black" fill-opacity="1" filter="url(#filter-4)" xlink:href="#path-3"></use>
                        <use fill="#EBEBEB" fill-rule="evenodd" xlink:href="#path-3"></use>
                    </g>
                    <g id="Path-7-Copy">
                        <use fill="black" fill-opacity="1" filter="url(#filter-6)" xlink:href="#path-5"></use>
                        <use stroke-opacity="0.197803442" stroke="#979797" stroke-width="0.561000002" fill="#D8D8D8" fill-rule="evenodd" xlink:href="#path-5"></use>
                    </g>
                </g>
                <g id="Group-5" transform="translate(383.527410, 148.753308) scale(1, -1) translate(-383.527410, -148.753308) translate(219.527410, 61.253308)">
                    <ellipse id="Oval-Copy" fill="#70C6FF" cx="11.2315435" cy="52.0221864" rx="11.2315435" ry="11.2528103"></ellipse>
                    <ellipse id="Oval-Copy-2" fill="#70C6FF" cx="46.7740766" cy="11.2528103" rx="11.2315435" ry="11.2528103"></ellipse>
                    <ellipse id="Oval-Copy-3" fill="#70C6FF" cx="118.904511" cy="65.6119785" rx="11.2315435" ry="11.2528103"></ellipse>
                    <ellipse id="Oval-Copy-5" fill="#70C6FF" cx="182.671997" cy="15.4342847" rx="11.2315435" ry="11.2528103"></ellipse>
                    <ellipse id="Oval-Copy-6" fill="#70C6FF" cx="316.479181" cy="162.83126" rx="11.2315435" ry="11.2528103"></ellipse>
                    <path d="M18.8166352,42.9824552 L39.4077982,18.6013663" id="Path-16" stroke="#70C6FF" stroke-width="3.905837"></path>
                    <path d="M54.8818526,15.4342847 L110.516886,58.3091055" id="Path-16-Copy" stroke="#70C6FF" stroke-width="3.905837"></path>
                    <path d="M175.876773,22.8904752 L127.534972,58.3091055" id="Path-16-Copy-2" stroke="#70C6FF" stroke-width="3.905837"></path>
                    <path d="M190.767435,21.8451066 L310.47448,156.282609" id="Path-16-Copy-3" stroke="#70C6FF" stroke-width="3.905837"></path>
                </g>
                <g id="Group" opacity="0.70328776" transform="translate(132.502125, 177.673244)" fill="#DFDFDF" fill-opacity="0.5">
                    <rect id="Rectangle" x="0" y="79.7883958" width="15.2269425" height="71.5748845"></rect>
                    <rect id="Rectangle-Copy-4" x="99.5607782" y="51.6277855" width="15.2269425" height="99.7354948"></rect>
                    <rect id="Rectangle-Copy-8" x="223.718925" y="51.6277855" width="15.2269425" height="99.7354948"></rect>
                    <rect id="Rectangle-Copy-2" x="49.1947374" y="31.6806866" width="15.2269425" height="119.682594"></rect>
                    <rect id="Rectangle-Copy-13" x="323.279703" y="0" width="15.2269425" height="151.36328"></rect>
                    <rect id="Rectangle-Copy-5" x="148.755516" y="72.7482432" width="15.2269425" height="78.615037"></rect>
                    <rect id="Rectangle-Copy-9" x="272.913663" y="72.7482432" width="15.2269425" height="78.615037"></rect>
                    <rect id="Rectangle-Copy" x="24.5973687" y="51.6277855" width="15.2269425" height="99.7354948"></rect>
                    <rect id="Rectangle-Copy-6" x="124.158147" y="72.7482432" width="15.2269425" height="78.615037"></rect>
                    <rect id="Rectangle-Copy-10" x="248.316294" y="72.7482432" width="15.2269425" height="78.615037"></rect>
                    <rect id="Rectangle-Copy-3" x="74.9634094" y="24.640534" width="15.2269425" height="126.722746"></rect>
                    <rect id="Rectangle-Copy-11" x="199.121556" y="24.640534" width="15.2269425" height="126.722746"></rect>
                    <rect id="Rectangle-Copy-7" x="174.524188" y="44.587633" width="15.2269425" height="106.775647"></rect>
                    <rect id="Rectangle-Copy-12" x="298.682335" y="44.587633" width="15.2269425" height="106.775647"></rect>
                </g>
                <g id="Group-3" transform="translate(3.136106, 387.831758)">
                    <polygon id="Fill-195-Copy" fill="#70C6FF" points="26.1342155 6.27629798 32.4064272 6.27629798 32.4064272 -7.54951657e-15 26.1342155 -7.54951657e-15"></polygon>
                    <polygon id="Fill-196-Copy" fill="#39ff14" points="0 26.1383018 6.27221172 26.1383018 6.27221172 19.8620038 0 19.8620038"></polygon>
                </g>
                <g id="Group-6" transform="translate(293.748582, 0.000000)">
                    <polygon id="Fill-195-Copy-2" fill="#70C6FF" transform="translate(116.035917, 36.589945) scale(-1, -1) rotate(360.000000) translate(-116.035917, -36.589945) " points="112.899811 39.7280938 119.172023 39.7280938 119.172023 33.4517958 112.899811 33.4517958"></polygon>
                    <polygon id="Fill-196-Copy-2" fill="#39ff14" transform="translate(3.136106, 17.773310) scale(-1, -1) rotate(360.000000) translate(-3.136106, -17.773310) " points="0 20.9114587 6.27221172 20.9114587 6.27221172 14.6351607 0 14.6351607"></polygon>
                    <polygon id="Fill-196-Copy-3" fill="#39ff14" transform="translate(137.988658, 3.138149) scale(-1, -1) rotate(360.000000) translate(-137.988658, -3.138149) " points="134.852552 6.27629798 141.124764 6.27629798 141.124764 -6.21724894e-15 134.852552 -6.21724894e-15"></polygon>
                </g>
                <g id="Group-24" transform="translate(0.000000, 34.497164)">
                    <g id="Group-23">
                        <g id="Group-26" transform="translate(0.364117, 0.730634)">
                            <g id="Group-25">
                                <g id="Rectangle-21" transform="translate(125.750125, 163.523559) rotate(1.000000) translate(-125.750125, -163.523559) ">
                                    <use fill="black" fill-opacity="1" filter="url(#filter-8)" xlink:href="#path-7"></use>
                                    <path stroke="#EBEBEB" stroke-width="0.548681402" d="M3.45885325,2.70619219 L3.43857884,324.403529 L247.825053,324.388183 L248.061594,40.3377305 L210.312561,2.64360581 L3.45885325,2.70619219 Z" stroke-linejoin="square" fill="#FFFFFF" fill-rule="evenodd"></path>
                                </g>
                                <g id="Group" transform="translate(28.152413, 72.488213)" fill="#E2E2E2">
                                    <polygon id="Rectangle-21-Copy-11" transform="translate(98.560597, 4.666537) rotate(1.000000) translate(-98.560597, -4.666537) " points="1.91475399 1.91365056 195.206788 1.90151248 195.206441 7.41942263 1.91440624 7.43156071"></polygon>
                                    <polygon id="Rectangle-21-Copy-14" transform="translate(69.788087, 63.038624) rotate(1.000000) translate(-69.788087, -63.038624) " points="1.91472246 60.2839311 137.6618 60.2754066 137.661452 65.7933168 1.9143747 65.8018412"></polygon>
                                    <polygon id="Rectangle-21-Copy-17" transform="translate(98.560597, 47.014914) rotate(1.000000) translate(-98.560597, -47.014914) " points="1.91475399 44.2620276 195.206788 44.2498896 195.206441 49.7677997 1.91440624 49.7799378"></polygon>
                                    <polygon id="Rectangle-21-Copy-19" transform="translate(98.560597, 38.621542) rotate(1.000000) translate(-98.560597, -38.621542) " points="1.91475399 35.8686556 195.206788 35.8565175 195.206441 41.3744277 1.91440624 41.3865658"></polygon>
                                    <polygon id="Rectangle-21-Copy-12" transform="translate(98.560597, 13.059909) rotate(1.000000) translate(-98.560597, -13.059909) " points="1.91475399 10.3070226 195.206788 10.2948845 195.206441 15.8127947 1.91440624 15.8249327"></polygon>
                                    <polygon id="Rectangle-21-Copy-15" transform="translate(98.594202, 71.967662) rotate(1.000000) translate(-98.594202, -71.967662) " points="1.94835858 69.2147765 195.240393 69.2026384 195.240045 74.7205485 1.94801082 74.7326866"></polygon>
                                    <polygon id="Rectangle-21-Copy-18" transform="translate(98.560597, 55.026769) rotate(1.000000) translate(-98.560597, -55.026769) " points="1.91475399 52.2738828 195.206788 52.2617447 195.206441 57.7796548 1.91440624 57.7917929"></polygon>
                                    <polygon id="Rectangle-21-Copy-13" transform="translate(36.957916, 20.308730) rotate(1.000000) translate(-36.957916, -20.308730) " points="1.91468647 17.5519755 72.0014928 17.5475743 72.0011451 23.0654844 1.91433871 23.0698856"></polygon>
                                    <polygon id="Rectangle-21-Copy-16" transform="translate(80.337505, 80.043510) rotate(1.000000) translate(-80.337505, -80.043510) " points="1.95111957 77.2894768 158.724239 77.279632 158.723891 82.7975422 1.95077182 82.807387"></polygon>
                                    <polygon id="Rectangle-21-Copy-20" transform="translate(97.029018, 122.936779) rotate(1.000000) translate(-97.029018, -122.936779) " points="0.38317465 120.183893 193.675209 120.171755 193.674861 125.689665 0.382826893 125.701803"></polygon>
                                    <polygon id="Rectangle-21-Copy-21" transform="translate(85.601801, 101.190315) rotate(1.000000) translate(-85.601801, -101.190315) " points="45.9475977 98.4338501 125.256352 98.4288698 125.256004 103.94678 45.9472499 103.95176"></polygon>
                                    <polygon id="Rectangle-21-Copy-31" transform="translate(38.883152, 100.687592) rotate(1.000000) translate(-38.883152, -100.687592) " points="36.1167413 97.9288108 41.6499102 97.9284633 41.6495625 103.446373 36.1163936 103.446721"></polygon>
                                    <polygon id="Rectangle-21-Copy-22" transform="translate(85.601801, 92.796943) rotate(1.000000) translate(-85.601801, -92.796943) " points="45.9475977 90.040478 125.256352 90.0354977 125.256004 95.5534079 45.9472499 95.5583882"></polygon>
                                    <polygon id="Rectangle-21-Copy-32" transform="translate(39.036848, 91.914040) rotate(1.000000) translate(-39.036848, -91.914040) " points="36.2704373 89.1552583 41.8036063 89.1549109 41.8032585 94.672821 36.2700896 94.6731685"></polygon>
                                    <polygon id="Rectangle-21-Copy-24" transform="translate(97.029018, 147.734793) rotate(1.000000) translate(-97.029018, -147.734793) " points="0.383174613 144.982492 193.675209 144.970354 193.674861 150.487095 0.38282693 150.499233"></polygon>
                                    <polygon id="Rectangle-21-Copy-23" transform="translate(85.601801, 109.583687) rotate(1.000000) translate(-85.601801, -109.583687) " points="45.9475977 106.827222 125.256352 106.822242 125.256004 112.340152 45.9472499 112.345132"></polygon>
                                    <polygon id="Rectangle-21-Copy-33" transform="translate(38.742821, 108.698227) rotate(1.000000) translate(-38.742821, -108.698227) " points="35.9764102 105.939446 41.5095791 105.939098 41.5092313 111.457008 35.9760624 111.457356"></polygon>
                                    <polygon id="Rectangle-21-Copy-25" transform="translate(55.899084, 154.983615) rotate(1.000000) translate(-55.899084, -154.983615) " points="0.38312953 152.228731 111.415386 152.221758 111.415038 157.738499 0.382781847 157.745471"></polygon>
                                </g>
                                <g id="Group-2" transform="translate(27.003729, 268.206388)" fill="#E2E2E2">
                                    <polygon id="Rectangle-21-Copy-26" transform="translate(22.146716, 10.995707) rotate(1.000000) translate(-22.146716, -10.995707) " points="0.383034611 9.15777053 43.9106301 9.15503714 43.9103983 12.8336439 0.382802773 12.8363773"></polygon>
                                    <polygon id="Rectangle-21-Copy-27" transform="translate(32.844188, 16.336944) rotate(1.000000) translate(-32.844188, -16.336944) " points="0.383046336 14.499679 65.3055617 14.4956021 65.3053298 18.1742089 0.382814499 18.1782858"></polygon>
                                    <polygon id="Rectangle-21-Copy-28" transform="translate(16.613541, 21.296664) rotate(1.000000) translate(-16.613541, -21.296664) " points="0.383028546 19.4583797 32.8442862 19.4563412 32.8440544 23.134948 0.382796708 23.1369864"></polygon>
                                    <polygon id="Rectangle-21-Copy-34" transform="translate(9.051536, 1.485098) rotate(1.000000) translate(-9.051536, -1.485098) " points="0.382973889 0.382060057 17.7202365 0.380971336 17.7200974 2.5881354 0.382834787 2.58922412"></polygon>
                                </g>
                                <polygon id="Rectangle-21-Copy-29" fill="#E2E2E2" transform="translate(195.896208, 292.090070) rotate(1.000000) translate(-195.896208, -292.090070) " points="183.643635 291.327804 208.148877 291.326265 208.148781 292.852335 183.643539 292.853874"></polygon>
                                <polygon id="Rectangle-21-Copy-35" fill="#E2E2E2" transform="translate(147.645150, 291.284288) rotate(1.000000) translate(-147.645150, -291.284288) " points="135.392577 290.522023 159.897819 290.520484 159.897723 292.046554 135.392481 292.048092"></polygon>
                                <polygon id="Rectangle-21-Copy-30" fill="#E2E2E2" transform="translate(195.744884, 289.797988) rotate(1.000000) translate(-195.744884, -289.797988) " points="179.47192 289.035975 212.017945 289.033931 212.017849 290.56 179.471824 290.562044"></polygon>
                                <polygon id="Rectangle-21-Copy-36" fill="#E2E2E2" transform="translate(147.500509, 288.610748) rotate(1.000000) translate(-147.500509, -288.610748) " points="131.227544 287.848735 163.77357 287.846691 163.773473 289.37276 131.227448 289.374804"></polygon>
                                <path d="M31.7131801,63.9649524 L224.51561,63.9528451" id="Line-5-Copy" stroke="#979797" stroke-width="0.535499966" stroke-linecap="square" transform="translate(128.114395, 63.958899) rotate(1.000000) translate(-128.114395, -63.958899) "></path>
                                <path d="M174.331649,286.522897 L217.655867,286.520176" id="Line-5-Copy-2" stroke="#979797" stroke-width="0.535499966" stroke-linecap="square" transform="translate(195.993758, 286.521536) rotate(1.000000) translate(-195.993758, -286.521536) "></path>
                                <path d="M126.463428,285.723774 L169.787645,285.721053" id="Line-5-Copy-3" stroke="#979797" stroke-width="0.535499966" stroke-linecap="square" transform="translate(148.125537, 285.722413) rotate(1.000000) translate(-148.125537, -285.722413) "></path>
                                <g id="Group-11" opacity="0.504910714" transform="translate(173.084224, 257.378726) rotate(1.000000) translate(-173.084224, -257.378726) translate(153.556588, 237.158330)">
                                    <path d="M12.1791838,3.04577347 C14.2894772,3.695846 16.0131932,3.20093917 17.3503319,1.56105298 C19.35604,-0.898776296 21.3582188,-0.104360843 22.511951,1.56105298 C23.6656831,3.22646681 25.9798531,4.84847189 29.2130559,4.03746935 C32.4462588,3.22646681 33.2205899,5.27197191 33.2205899,7.23030658 C33.2205899,9.18864125 33.4637595,11.4935401 36.5642602,12.4608847 C39.6647609,13.4282294 39.5161769,16.6436533 38.0402185,17.8446287 C36.5642602,19.0456042 36.2314461,22.6958215 38.0402185,23.9116194 C39.848991,25.1274174 38.992427,29.3105388 36.1065084,29.3105388 C33.2205899,29.3105388 32.2959101,32.8478228 32.2959101,34.4779449 C32.2959101,36.1080671 31.034181,38.6861234 27.8387418,37.442798 C24.6433026,36.1994725 22.9681473,36.9351808 21.6582104,38.7447076 C20.64918,40.1385666 20.1949143,40.2779115 19.0688924,40.4179986 C18.0152068,40.5490863 17.093411,40.1385666 16.026487,38.5640143 C13.6738475,35.0920199 11.659669,36.6639109 10.1477117,36.6639109 C8.6357544,36.6639109 5.28467251,36.6279133 5.86206798,32.9692261 C6.24699829,30.5301013 5.2932605,28.9966783 3.00085462,28.3689571 C0.170816855,27.0285796 -0.657512706,25.229528 0.515865939,22.9718023 C2.27593391,19.5852138 1.80265315,18.3334183 0.515865939,15.8097111 C-0.77092127,13.2860039 0.515865939,11.7257593 2.91050423,11.2352051 C3.28350123,11.1587947 7.06591635,10.1367519 6.72745532,6.06762257 C6.66830057,5.35643788 6.91293342,3.38091037 8.23976557,2.79643783 C8.82586926,2.53825785 10.1390087,2.62136973 12.1791838,3.04577347 Z" id="Path-5" fill="#D8D8D8"></path>
                                    <ellipse id="Oval" fill="#EDEDED" cx="19.5276366" cy="20.2203963" rx="14.9328986" ry="14.93552"></ellipse>
                                    <ellipse id="Oval-Copy-4" stroke="#D8D8D8" stroke-width="1.75578049" cx="19.4127682" cy="20.1055077" rx="13.2098718" ry="13.2121907"></ellipse>
                                </g>
                                <path d="M37.1032089,44.0339136 L38.5849689,44.0339136 L38.5849689,55.0059936 L45.0412089,55.0059936 L45.0412089,56.3819136 L37.1032089,56.3819136 L37.1032089,44.0339136 Z M47.8459689,44.0339136 L55.6781289,44.0339136 L55.6781289,45.4098336 L52.5029289,45.4098336 L52.5029289,55.0059936 L55.6781289,55.0059936 L55.6781289,56.3819136 L47.8459689,56.3819136 L47.8459689,55.0059936 L51.0211689,55.0059936 L51.0211689,45.4098336 L47.8459689,45.4098336 L47.8459689,44.0339136 Z M58.2182889,48.8319936 C58.2182889,47.2326256 58.6004851,45.991958 59.3648889,45.1099536 C60.1292927,44.2279492 61.1935621,43.7869536 62.5577289,43.7869536 C63.9218957,43.7869536 64.9861651,44.2279492 65.7505689,45.1099536 C66.5149727,45.991958 66.8971689,47.2326256 66.8971689,48.8319936 L66.8971689,51.5838336 C66.8971689,53.0891212 66.5767121,54.2680494 65.9357889,55.1206536 C65.2948657,55.9732579 64.3981747,56.464233 63.2456889,56.5935936 L63.2456889,57.3344736 C63.2456889,57.6872754 63.4044473,57.8636736 63.7219689,57.8636736 L65.2037289,57.8636736 L65.2037289,59.1337536 L63.2280489,59.1337536 C62.8282069,59.1337536 62.5018702,59.0043949 62.2490289,58.7456736 C61.9961876,58.4869523 61.8697689,58.1576756 61.8697689,57.7578336 L61.8697689,56.5935936 C60.7055231,56.4524729 59.8058921,55.9585579 59.1708489,55.1118336 C58.5358057,54.2651094 58.2182889,53.0891212 58.2182889,51.5838336 L58.2182889,48.8319936 Z M62.5577289,55.2529536 C63.5102937,55.2529536 64.2247065,54.9266169 64.7009889,54.2739336 C65.1772713,53.6212504 65.4154089,52.6892797 65.4154089,51.4779936 L65.4154089,48.9378336 C65.4154089,47.808868 65.1772713,46.8974771 64.7009889,46.2036336 C64.2247065,45.5097902 63.5102937,45.1628736 62.5577289,45.1628736 C61.6051641,45.1628736 60.8907513,45.5097902 60.4144689,46.2036336 C59.9381865,46.8974771 59.7000489,47.808868 59.7000489,48.9378336 L59.7000489,51.4779936 C59.7000489,52.6892797 59.9381865,53.6212504 60.4144689,54.2739336 C60.8907513,54.9266169 61.6051641,55.2529536 62.5577289,55.2529536 Z M70.6015689,44.0339136 L70.6015689,52.2188736 C70.6015689,53.2184786 70.8338266,53.9740511 71.2983489,54.4856136 C71.7628712,54.9971762 72.4478844,55.2529536 73.3534089,55.2529536 C74.2589334,55.2529536 74.9439466,54.9971762 75.4084689,54.4856136 C75.8729912,53.9740511 76.1052489,53.2184786 76.1052489,52.2188736 L76.1052489,44.0339136 L77.5870089,44.0339136 L77.5870089,52.2188736 C77.5870089,53.6536008 77.2106927,54.7472699 76.4580489,55.4999136 C75.7054051,56.2525574 74.6705355,56.6288736 73.3534089,56.6288736 C72.0362823,56.6288736 71.0014127,56.2525574 70.2487689,55.4999136 C69.4961251,54.7472699 69.1198089,53.6536008 69.1198089,52.2188736 L69.1198089,44.0339136 L70.6015689,44.0339136 Z M80.2330089,44.0339136 L88.0651689,44.0339136 L88.0651689,45.4098336 L84.8899689,45.4098336 L84.8899689,55.0059936 L88.0651689,55.0059936 L88.0651689,56.3819136 L80.2330089,56.3819136 L80.2330089,55.0059936 L83.4082089,55.0059936 L83.4082089,45.4098336 L80.2330089,45.4098336 L80.2330089,44.0339136 Z M90.8346489,44.0339136 L94.8918489,44.0339136 C96.4206565,44.0339136 97.5378454,44.39847 98.2434489,45.1275936 C98.9490524,45.8567173 99.3018489,47.0209456 99.3018489,48.6203136 L99.3018489,51.7955136 C99.3018489,53.3948816 98.9490524,54.55911 98.2434489,55.2882336 C97.5378454,56.0173573 96.4206565,56.3819136 94.8918489,56.3819136 L90.8346489,56.3819136 L90.8346489,54.9883536 L91.8930489,54.9883536 L91.8930489,45.4098336 L90.8346489,45.4098336 L90.8346489,44.0339136 Z M94.6801689,55.0059936 C95.2211316,55.0059936 95.6885869,54.9530742 96.0825489,54.8472336 C96.4765109,54.7413931 96.8028476,54.5620549 97.0615689,54.3092136 C97.3202902,54.0563724 97.5113883,53.7182757 97.6348689,53.2949136 C97.7583495,52.8715515 97.8200889,52.3364769 97.8200889,51.6896736 L97.8200889,48.7261536 C97.8200889,48.0793504 97.7583495,47.5442757 97.6348689,47.1209136 C97.5113883,46.6975515 97.3202902,46.3594549 97.0615689,46.1066136 C96.8028476,45.8537724 96.4765109,45.6744342 96.0825489,45.5685936 C95.6885869,45.4627531 95.2211316,45.4098336 94.6801689,45.4098336 L93.3748089,45.4098336 L93.3748089,55.0059936 L94.6801689,55.0059936 Z M101.824369,44.0339136 L109.656529,44.0339136 L109.656529,45.4098336 L106.481329,45.4098336 L106.481329,55.0059936 L109.656529,55.0059936 L109.656529,56.3819136 L101.824369,56.3819136 L101.824369,55.0059936 L104.999569,55.0059936 L104.999569,45.4098336 L101.824369,45.4098336 L101.824369,44.0339136 Z M112.196689,44.0339136 L120.875569,44.0339136 L120.875569,45.4098336 L117.277009,45.4098336 L117.277009,56.3819136 L115.795249,56.3819136 L115.795249,45.4098336 L112.196689,45.4098336 L112.196689,44.0339136 Z M126.590929,52.0424736 L126.273409,52.0424736 L122.410249,44.0339136 L124.068409,44.0339136 L127.225969,50.7723936 L127.437649,50.7723936 L130.595209,44.0339136 L132.253369,44.0339136 L128.390209,52.0424736 L128.072689,52.0424736 L128.072689,56.3819136 L126.590929,56.3819136 L126.590929,52.0424736 Z M144.530809,55.0059936 L145.589209,55.0059936 L145.589209,45.4098336 L144.530809,45.4098336 L144.530809,44.0339136 L149.522929,44.0339136 C150.110932,44.0339136 150.631307,44.1162328 151.084069,44.2808736 C151.536831,44.4455145 151.919027,44.6689522 152.230669,44.9511936 C152.54231,45.233435 152.777508,45.5715317 152.936269,45.9654936 C153.09503,46.3594556 153.174409,46.7857513 153.174409,47.2443936 L153.174409,47.4560736 C153.174409,47.7971153 153.121489,48.1087522 153.015649,48.3909936 C152.909808,48.673235 152.76281,48.9260725 152.574649,49.1495136 C152.386488,49.3729547 152.16599,49.5640528 151.913149,49.7228136 C151.660308,49.8815744 151.38689,50.0021132 151.092889,50.0844336 L151.092889,50.2961136 C151.680892,50.4607545 152.174807,50.7753313 152.574649,51.2398536 C152.974491,51.704376 153.174409,52.2717903 153.174409,52.9421136 L153.174409,53.1537936 C153.174409,53.6124359 153.09503,54.0387317 152.936269,54.4326936 C152.777508,54.8266556 152.54231,55.1676922 152.230669,55.4558136 C151.919027,55.7439351 151.536831,55.9703128 151.084069,56.1349536 C150.631307,56.2995945 150.110932,56.3819136 149.522929,56.3819136 L144.530809,56.3819136 L144.530809,55.0059936 Z M147.070969,55.0059936 L149.417089,55.0059936 C150.110932,55.0059936 150.675407,54.8325354 151.110529,54.4856136 C151.545651,54.1386919 151.763209,53.6594767 151.763209,53.0479536 L151.763209,52.9421136 C151.763209,52.3070705 151.557411,51.8043355 151.145809,51.4338936 C150.734207,51.0634518 150.175612,50.8782336 149.470009,50.8782336 L147.070969,50.8782336 L147.070969,55.0059936 Z M147.070969,49.5023136 L149.470009,49.5023136 C150.175612,49.5023136 150.734207,49.3200355 151.145809,48.9554736 C151.557411,48.5909118 151.763209,48.0911168 151.763209,47.4560736 L151.763209,47.3502336 C151.763209,46.7504706 151.545651,46.2771354 151.110529,45.9302136 C150.675407,45.5832919 150.110932,45.4098336 149.417089,45.4098336 L147.070969,45.4098336 L147.070969,49.5023136 Z M162.364849,53.3125536 L157.072849,53.3125536 L156.173209,56.3819136 L154.585609,56.3819136 L158.325289,44.0339136 L161.112409,44.0339136 L164.852089,56.3819136 L163.264489,56.3819136 L162.364849,53.3125536 Z M159.613009,44.6689536 L157.478569,51.9366336 L161.959129,51.9366336 L159.824689,44.6689536 L159.613009,44.6689536 Z M166.651369,44.0339136 L168.133129,44.0339136 L168.133129,55.0059936 L174.589369,55.0059936 L174.589369,56.3819136 L166.651369,56.3819136 L166.651369,44.0339136 Z M183.956209,53.3125536 L178.664209,53.3125536 L177.764569,56.3819136 L176.176969,56.3819136 L179.916649,44.0339136 L182.703769,44.0339136 L186.443449,56.3819136 L184.855849,56.3819136 L183.956209,53.3125536 Z M181.204369,44.6689536 L179.069929,51.9366336 L183.550489,51.9366336 L181.416049,44.6689536 L181.204369,44.6689536 Z M194.522569,55.7468736 L194.734249,55.7468736 L194.734249,44.0339136 L196.216009,44.0339136 L196.216009,56.3819136 L193.252489,56.3819136 L189.689209,44.6689536 L189.477529,44.6689536 L189.477529,56.3819136 L187.995769,56.3819136 L187.995769,44.0339136 L190.959289,44.0339136 L194.522569,55.7468736 Z M202.972129,55.2529536 C203.477811,55.2529536 203.909987,55.1676945 204.268669,54.9971736 C204.627351,54.8266528 204.921348,54.5973351 205.150669,54.3092136 C205.37999,54.0210922 205.550508,53.6918155 205.662229,53.3213736 C205.773949,52.9509318 205.829809,52.5599157 205.829809,52.1483136 L205.829809,51.9366336 L207.311569,51.9366336 L207.311569,52.1483136 C207.311569,52.7715967 207.21749,53.3566509 207.029329,53.9034936 C206.841168,54.4503364 206.564811,54.9266116 206.200249,55.3323336 C205.835687,55.7380557 205.382932,56.0555725 204.841969,56.2848936 C204.301006,56.5142148 203.677732,56.6288736 202.972129,56.6288736 C201.607962,56.6288736 200.543693,56.1996379 199.779289,55.3411536 C199.014885,54.4826693 198.632689,53.2302419 198.632689,51.5838336 L198.632689,48.8319936 C198.632689,47.2326256 199.014885,45.991958 199.779289,45.1099536 C200.543693,44.2279492 201.607962,43.7869536 202.972129,43.7869536 C203.677732,43.7869536 204.301006,43.9016125 204.841969,44.1309336 C205.382932,44.3602548 205.835687,44.6777716 206.200249,45.0834936 C206.564811,45.4892157 206.841168,45.9654909 207.029329,46.5123336 C207.21749,47.0591764 207.311569,47.6442305 207.311569,48.2675136 L207.311569,48.4791936 L205.829809,48.4791936 L205.829809,48.2675136 C205.818049,47.8676716 205.756309,47.4795955 205.644589,47.1032736 C205.532868,46.7269517 205.36235,46.3947351 205.133029,46.1066136 C204.903708,45.8184922 204.612651,45.5891745 204.259849,45.4186536 C203.907047,45.2481328 203.477811,45.1628736 202.972129,45.1628736 C202.019564,45.1628736 201.305151,45.5097902 200.828869,46.2036336 C200.352587,46.8974771 200.114449,47.808868 200.114449,48.9378336 L200.114449,51.4779936 C200.114449,52.6892797 200.352587,53.6212504 200.828869,54.2739336 C201.305151,54.9266169 202.019564,55.2529536 202.972129,55.2529536 Z M209.957569,44.0339136 L217.436929,44.0339136 L217.436929,45.4098336 L211.439329,45.4098336 L211.439329,49.5023136 L217.331089,49.5023136 L217.331089,50.8782336 L211.439329,50.8782336 L211.439329,55.0059936 L217.542769,55.0059936 L217.542769,56.3819136 L209.957569,56.3819136 L209.957569,44.0339136 Z" id="LIQUIDITY-BALANCE" fill="#4A4A4A" transform="translate(127.322989, 51.460354) rotate(1.000000) translate(-127.322989, -51.460354) "></path>
                                <path d="M179.975945,280.013694 C178.861519,279.266585 180.836015,277.17674 185.899433,273.744159 C193.494561,268.595288 193.414545,271.868695 189.326595,275.941029 C185.238645,280.013363 183.985148,281.696781 181.407458,285.260375 C178.829768,288.82397 180.873075,288.452924 184.412416,285.260187 C187.951757,282.06745 187.329717,286.815088 191.407796,281.377865 C195.485876,275.940642 186.933725,289.012199 193.715227,281.37772 C200.49673,273.743242 192.936503,285.515693 196.712092,281.377532 C200.48768,277.239372 199.781603,283.584627 201.829357,283.584498 C207.553561,283.584139 222.810464,270.101893 200.488574,263.063148 C185.607313,258.370651 190.509072,268.855038 215.193849,294.516308" id="Path-4" stroke="#000000" stroke-width="0.535499966" transform="translate(197.434123, 278.245656) rotate(1.000000) translate(-197.434123, -278.245656) "></path>
                                <path d="M133.831388,283.671798 C149.109548,268.619589 153.813953,258.368707 147.944604,252.919153 C142.075254,247.469598 140.940318,261.942581 144.539796,296.338102 L138.160687,274.069631 C146.666166,288.169951 154.576092,288.169951 161.890465,274.069631 C169.204837,259.969312 167.178111,260.591693 155.810286,275.936773 C151.942559,280.971554 150.008695,287.771997 150.008695,296.338102" id="Path-6" stroke="#000000" stroke-width="0.535499966"></path>
                                <polygon id="ic_check-copy-28" fill="#FFFFFF" transform="translate(66.807216, 181.287263) rotate(3.000000) translate(-66.807216, -181.287263) " points="66.3277313 182.006899 65.2913658 180.939394 64.892667 181.350032 66.1283153 182.62278 66.5269148 182.622728 68.721764 180.362277 68.3232636 179.951745"></polygon>
                                <polygon id="ic_check-copy-29" fill="#FFFFFF" transform="translate(66.947547, 173.276628) rotate(3.000000) translate(-66.947547, -173.276628) " points="66.4680625 173.996264 65.431697 172.928759 65.0329982 173.339397 66.2686464 174.612145 66.667246 174.612093 68.8620951 172.351642 68.4635947 171.94111"></polygon>
                                <polygon id="ic_check-copy-30" fill="#FFFFFF" transform="translate(67.101243, 164.503075) rotate(3.000000) translate(-67.101243, -164.503075) " points="66.6217585 165.222711 65.585393 164.155207 65.1866942 164.565844 66.4223425 165.838593 66.820942 165.83854 69.0157912 163.57809 68.6172908 163.167558"></polygon>
                            </g>
                            <polyline id="Path-3" stroke="#EBEBEB" stroke-width="0.910668538" opacity="0.769999981" transform="translate(230.890685, 23.855082) rotate(1.000000) translate(-230.890685, -23.855082) " points="212.306762 5.33623086 212.304428 42.3739333 249.476942 42.3649614"></polyline>
                        </g>
                    </g>
                </g>
            </g>
        </g>
    </g>
</svg>