<?xml version="1.0" encoding="UTF-8"?>
<svg width="475px" height="341px" viewBox="0 0 475 341" version="1.1" xmlns="http://www.w3.org/2000/svg" xmlns:xlink="http://www.w3.org/1999/xlink">
    <!-- Generator: Sketch 52.2 (67145) - http://www.bohemiancoding.com/sketch -->
    <title>Group 44</title>
    <desc>Created with Sketch.</desc>
    <defs>
        <path d="M68.370995,0.640498216 C171.004525,0.640498216 276.365559,0.640498216 384.454098,0.640498216 C401.90742,1.78515468 410.634081,10.549118 410.634081,26.9323881 C410.634081,43.3156583 410.634081,115.354103 410.634081,243.047723 L44.2293123,243.047723 L44.2293123,30.4247889 C44.2293123,10.5685951 52.2765399,0.640498216 68.370995,0.640498216 Z" id="path-1"></path>
        <filter x="-1.0%" y="-1.0%" width="101.9%" height="102.9%" filterUnits="objectBoundingBox" id="filter-2">
            <feOffset dx="0" dy="1" in="SourceAlpha" result="shadowOffsetOuter1"></feOffset>
            <feGaussianBlur stdDeviation="1" in="shadowOffsetOuter1" result="shadowBlurOuter1"></feGaussianBlur>
            <feColorMatrix values="0 0 0 0 0   0 0 0 0 0   0 0 0 0 0  0 0 0 0.0629245924 0" type="matrix" in="shadowBlurOuter1"></feColorMatrix>
        </filter>
        <path d="M41.2623057,247.01897 C43.4929167,241.896377 47.5780913,239.335081 53.5178294,239.335081 C59.4575674,239.335081 174.13695,239.335081 397.555976,239.335081 C406.247355,239.433179 411.588287,241.994476 413.578771,247.01897 C415.569255,252.043465 429.030698,279.80234 453.9631,330.295596 C456.116689,334.85872 454.337637,337.140282 448.625944,337.140282 C442.914251,337.140282 295.690148,337.140282 6.95363555,337.140282 C0.61217606,337.140282 -1.39190033,334.85872 0.941406393,330.295596 C3.27471311,325.732472 16.7150129,297.973597 41.2623057,247.01897 Z" id="path-3"></path>
        <filter x="-0.8%" y="-2.6%" width="101.5%" height="107.2%" filterUnits="objectBoundingBox" id="filter-4">
            <feOffset dx="0" dy="1" in="SourceAlpha" result="shadowOffsetOuter1"></feOffset>
            <feGaussianBlur stdDeviation="1" in="shadowOffsetOuter1" result="shadowBlurOuter1"></feGaussianBlur>
            <feColorMatrix values="0 0 0 0 0   0 0 0 0 0   0 0 0 0 0  0 0 0 0.0604619565 0" type="matrix" in="shadowBlurOuter1"></feColorMatrix>
        </filter>
        <path d="M69.6408939,249.608263 C71.3902817,246.594973 74.5941369,245.088328 79.2524594,245.088328 C83.9107819,245.088328 181.87671,245.088328 373.150245,245.088328 C379.96658,245.146033 384.15528,246.652678 385.716345,249.608263 C387.27741,252.563848 393.927838,268.892598 405.667627,298.594513 C407.35661,301.278704 405.961363,302.620799 401.481888,302.620799 C397.002413,302.620799 281.539855,302.620799 55.0942148,302.620799 C50.1208366,302.620799 48.5491117,301.278704 50.3790401,298.594513 C52.2089685,295.910323 58.6295864,279.581573 69.6408939,249.608263 Z" id="path-5"></path>
        <filter x="-1.1%" y="-4.8%" width="102.1%" height="113.1%" filterUnits="objectBoundingBox" id="filter-6">
            <feMorphology radius="0.267500013" operator="dilate" in="SourceAlpha" result="shadowSpreadOuter1"></feMorphology>
            <feOffset dx="0" dy="1" in="shadowSpreadOuter1" result="shadowOffsetOuter1"></feOffset>
            <feGaussianBlur stdDeviation="1" in="shadowOffsetOuter1" result="shadowBlurOuter1"></feGaussianBlur>
            <feComposite in="shadowBlurOuter1" in2="SourceAlpha" operator="out" result="shadowBlurOuter1"></feComposite>
            <feColorMatrix values="0 0 0 0 0   0 0 0 0 0   0 0 0 0 0  0 0 0 0.0647361866 0" type="matrix" in="shadowBlurOuter1"></feColorMatrix>
        </filter>
        <polygon id="path-7" points="2.80061381e-13 1.95959143e-13 143.048508 1.21576776e-13 143.048508 217.797891 2.19253231e-13 217.797891"></polygon>
        <filter x="-5.2%" y="-3.4%" width="110.5%" height="106.9%" filterUnits="objectBoundingBox" id="filter-8">
            <feMorphology radius="1" operator="dilate" in="SourceAlpha" result="shadowSpreadOuter1"></feMorphology>
            <feOffset dx="0" dy="0" in="shadowSpreadOuter1" result="shadowOffsetOuter1"></feOffset>
            <feGaussianBlur stdDeviation="1.5" in="shadowOffsetOuter1" result="shadowBlurOuter1"></feGaussianBlur>
            <feComposite in="shadowBlurOuter1" in2="SourceAlpha" operator="out" result="shadowBlurOuter1"></feComposite>
            <feColorMatrix values="0 0 0 0 0.24346301   0 0 0 0 0.24346301   0 0 0 0 0.24346301  0 0 0 0.0525079257 0" type="matrix" in="shadowBlurOuter1" result="shadowMatrixOuter1"></feColorMatrix>
            <feOffset dx="0" dy="0" in="SourceAlpha" result="shadowOffsetOuter2"></feOffset>
            <feGaussianBlur stdDeviation="0.5" in="shadowOffsetOuter2" result="shadowBlurOuter2"></feGaussianBlur>
            <feComposite in="shadowBlurOuter2" in2="SourceAlpha" operator="out" result="shadowBlurOuter2"></feComposite>
            <feColorMatrix values="0 0 0 0 0   0 0 0 0 0   0 0 0 0 0  0 0 0 0.017578125 0" type="matrix" in="shadowBlurOuter2" result="shadowMatrixOuter2"></feColorMatrix>
            <feMerge>
                <feMergeNode in="shadowMatrixOuter1"></feMergeNode>
                <feMergeNode in="shadowMatrixOuter2"></feMergeNode>
            </feMerge>
        </filter>
        <polygon id="path-9" points="2.8038011e-13 -3.79561347e-13 143.298439 -4.54747351e-13 143.298439 217.797891 2.19465717e-13 217.797891"></polygon>
        <filter x="-5.6%" y="-3.2%" width="111.2%" height="107.3%" filterUnits="objectBoundingBox" id="filter-10">
            <feMorphology radius="1" operator="dilate" in="SourceAlpha" result="shadowSpreadOuter1"></feMorphology>
            <feOffset dx="0" dy="1" in="shadowSpreadOuter1" result="shadowOffsetOuter1"></feOffset>
            <feGaussianBlur stdDeviation="1.5" in="shadowOffsetOuter1" result="shadowBlurOuter1"></feGaussianBlur>
            <feComposite in="shadowBlurOuter1" in2="SourceAlpha" operator="out" result="shadowBlurOuter1"></feComposite>
            <feColorMatrix values="0 0 0 0 0.24346301   0 0 0 0 0.24346301   0 0 0 0 0.24346301  0 0 0 0.0766530797 0" type="matrix" in="shadowBlurOuter1" result="shadowMatrixOuter1"></feColorMatrix>
            <feOffset dx="0" dy="1" in="SourceAlpha" result="shadowOffsetOuter2"></feOffset>
            <feGaussianBlur stdDeviation="0.5" in="shadowOffsetOuter2" result="shadowBlurOuter2"></feGaussianBlur>
            <feComposite in="shadowBlurOuter2" in2="SourceAlpha" operator="out" result="shadowBlurOuter2"></feComposite>
            <feColorMatrix values="0 0 0 0 0   0 0 0 0 0   0 0 0 0 0  0 0 0 0.0586786685 0" type="matrix" in="shadowBlurOuter2" result="shadowMatrixOuter2"></feColorMatrix>
            <feMerge>
                <feMergeNode in="shadowMatrixOuter1"></feMergeNode>
                <feMergeNode in="shadowMatrixOuter2"></feMergeNode>
            </feMerge>
        </filter>
        <polygon id="path-11" points="2.79741006e-13 1.95959143e-13 142.797284 1.21576776e-13 142.797284 217.797891 2.19039647e-13 217.797891"></polygon>
        <filter x="-5.6%" y="-3.2%" width="111.2%" height="107.3%" filterUnits="objectBoundingBox" id="filter-12">
            <feMorphology radius="1" operator="dilate" in="SourceAlpha" result="shadowSpreadOuter1"></feMorphology>
            <feOffset dx="0" dy="1" in="shadowSpreadOuter1" result="shadowOffsetOuter1"></feOffset>
            <feGaussianBlur stdDeviation="1.5" in="shadowOffsetOuter1" result="shadowBlurOuter1"></feGaussianBlur>
            <feComposite in="shadowBlurOuter1" in2="SourceAlpha" operator="out" result="shadowBlurOuter1"></feComposite>
            <feColorMatrix values="0 0 0 0 0.24346301   0 0 0 0 0.24346301   0 0 0 0 0.24346301  0 0 0 0.0766530797 0" type="matrix" in="shadowBlurOuter1" result="shadowMatrixOuter1"></feColorMatrix>
            <feOffset dx="0" dy="1" in="SourceAlpha" result="shadowOffsetOuter2"></feOffset>
            <feGaussianBlur stdDeviation="0.5" in="shadowOffsetOuter2" result="shadowBlurOuter2"></feGaussianBlur>
            <feComposite in="shadowBlurOuter2" in2="SourceAlpha" operator="out" result="shadowBlurOuter2"></feComposite>
            <feColorMatrix values="0 0 0 0 0   0 0 0 0 0   0 0 0 0 0  0 0 0 0.0586786685 0" type="matrix" in="shadowBlurOuter2" result="shadowMatrixOuter2"></feColorMatrix>
            <feMerge>
                <feMergeNode in="shadowMatrixOuter1"></feMergeNode>
                <feMergeNode in="shadowMatrixOuter2"></feMergeNode>
            </feMerge>
        </filter>
    </defs>
    <g id="Web-design" stroke="none" stroke-width="1" fill="none" fill-rule="evenodd">
        <g id="Producto-xchcek" transform="translate(-188.000000, -2190.000000)">
            <g id="Group-44" transform="translate(188.000000, 2191.000000)">
                <g id="Group-38" transform="translate(8.000000, 0.000000)">
                    <g id="Group-8">
                        <g id="Group-14">
                            <path d="M0,331.206897 C0.0209463821,333.804598 2.18235119,335.103448 6.48421442,335.103448 C10.7860777,335.103448 157.438899,335.103448 446.442679,335.103448 C450.744543,334.921685 452.895474,333.622834 452.895474,331.206897" id="Path-8" stroke="#C5C5C5" stroke-width="3.21000016"></path>
                            <g id="Group-5" opacity="0.652399554">
                                <g id="Group-4" transform="translate(0.000000, 0.068908)">
                                    <g id="Path-4">
                                        <use fill="black" fill-opacity="1" filter="url(#filter-2)" xlink:href="#path-1"></use>
                                        <use fill="#D8D8D8" fill-rule="evenodd" xlink:href="#path-1"></use>
                                    </g>
                                    <path d="M62.6070202,17.5272414 L62.6070202,232.163684 L392.24059,232.163684 L392.24059,17.5272414 L62.6070202,17.5272414 Z" id="Rectangle" stroke="#EBEBEB" stroke-width="0.535000026" fill="#FFFFFF"></path>
                                    <g id="Path-7">
                                        <use fill="black" fill-opacity="1" filter="url(#filter-4)" xlink:href="#path-3"></use>
                                        <use fill="#EBEBEB" fill-rule="evenodd" xlink:href="#path-3"></use>
                                    </g>
                                    <g id="Path-7-Copy">
                                        <use fill="black" fill-opacity="1" filter="url(#filter-6)" xlink:href="#path-5"></use>
                                        <use stroke-opacity="0.197803442" stroke="#979797" stroke-width="0.535000026" fill="#D8D8D8" fill-rule="evenodd" xlink:href="#path-5"></use>
                                    </g>
                                </g>
                            </g>
                        </g>
                        <g id="Group-3" transform="translate(100.564706, 29.943218)">
                            <g id="Group-7" transform="translate(26.364400, 0.255058)">
                                <path d="M221.406155,15.260995 C221.285278,15.260995 221.22484,12.7396835 221.22484,7.69706032 L120.984156,7.69706032 L114.317183,0.15507701 C114.28334,0.0941150551 77.4746437,0.0987746535 3.89109481,0.169055805 L3.89109481,7.49481892 L3.89109481,15.260995 L221.406155,15.260995 Z" id="Shape-Copy-2" fill="#DFDFDF" fill-rule="nonzero" transform="translate(112.648625, 7.686799) scale(-1, 1) translate(-112.648625, -7.686799) "></path>
                                <g id="Group-5-Copy-2" transform="translate(0.112174, 4.015873)">
                                    <g id="Group-4">
                                        <g id="Group-16-Copy-2" transform="translate(0.000000, 0.382624)">
                                            <g id="Group-2">
                                                <g id="Group-2-Copy" transform="translate(112.420451, 77.145328) scale(-1, 1) rotate(-91.000000) translate(-112.420451, -77.145328) translate(38.014569, -33.537637)">
                                                    <g id="Group" transform="translate(74.132148, 110.886284) rotate(1.000000) translate(-74.132148, -110.886284) translate(2.402736, 1.807420)">
                                                        <g id="Rectangle-21">
                                                            <use fill="black" fill-opacity="1" filter="url(#filter-8)" xlink:href="#path-7"></use>
                                                            <path stroke="#EBEBEB" stroke-width="0.535000026" d="M0.267500013,0.267500013 L0.267500013,217.530391 L142.781008,217.530391 L142.781008,0.267500013 L0.267500013,0.267500013 Z" stroke-linejoin="square" fill="#FFFFFF" fill-rule="evenodd"></path>
                                                        </g>
                                                    </g>
                                                </g>
                                            </g>
                                        </g>
                                    </g>
                                </g>
                            </g>
                            <g id="Group-6" transform="translate(13.675519, 14.867127)">
                                <path d="M221.047593,15.260995 C220.940846,15.260995 220.887472,12.7396835 220.887472,7.69706032 L92.8232093,7.71103911 L87.1769725,0.169055805 C87.0733671,-0.0422726165 59.3184259,-0.0422726165 3.91214895,0.169055805 L3.91214895,15.260995 L221.047593,15.260995 Z" id="Shape-Copy" fill="#70C6FF" fill-rule="nonzero" transform="translate(112.479871, 7.635777) scale(-1, 1) translate(-112.479871, -7.635777) "></path>
                                <g id="Group-5-Copy" transform="translate(0.274780, 3.816068)">
                                    <g id="Group-4">
                                        <g id="Group-16-Copy-2" transform="translate(0.000000, 0.382624)">
                                            <g id="Group-2">
                                                <g id="Group-2-Copy" transform="translate(112.220853, 77.274504) scale(-1, 1) rotate(-91.000000) translate(-112.220853, -77.274504) translate(37.814971, -33.408461)">
                                                    <g id="Group" transform="translate(74.136371, 110.884100) rotate(1.000000) translate(-74.136371, -110.884100) translate(2.406960, 1.805235)">
                                                        <g id="Rectangle-21">
                                                            <use fill="black" fill-opacity="1" filter="url(#filter-10)" xlink:href="#path-9"></use>
                                                            <path stroke="#EBEBEB" stroke-width="0.535000026" d="M0.267500013,0.267500013 L0.267500013,217.530391 L143.030939,217.530391 L143.030939,0.267500013 L0.267500013,0.267500013 Z" stroke-linejoin="square" fill="#FFFFFF" fill-rule="evenodd"></path>
                                                        </g>
                                                    </g>
                                                </g>
                                            </g>
                                        </g>
                                    </g>
                                </g>
                            </g>
                            <path d="M220.584078,46.688467 C220.477704,46.688467 220.424517,44.1671555 220.424517,39.1245323 L59.4795797,39.1245323 L53.8530894,31.582549 C53.7498463,31.3712206 37.1432474,31.3758802 4.03329255,31.5965278 L4.03329255,46.688467 L220.584078,46.688467 Z" id="Shape" fill="#39ff14" fill-rule="nonzero" transform="translate(112.308685, 39.057970) scale(-1, 1) translate(-112.308685, -39.057970) "></path>
                            <g id="Group-4" transform="translate(0.010569, 35.192327)">
                                <g id="Group-16-Copy-2" transform="translate(0.000000, 0.382624)">
                                    <g id="Group-2">
                                        <g id="Group-2-Copy" transform="translate(112.225704, 77.014614) scale(-1, 1) rotate(-91.000000) translate(-112.225704, -77.014614) translate(37.819822, -33.668352)">
                                            <g id="Group" transform="translate(74.127931, 110.888477) rotate(1.000000) translate(-74.127931, -110.888477) translate(2.398519, 1.809613)">
                                                <g id="Rectangle-21">
                                                    <use fill="black" fill-opacity="1" filter="url(#filter-12)" xlink:href="#path-11"></use>
                                                    <path stroke="#EBEBEB" stroke-width="0.535000026" d="M0.267500013,0.267500013 L0.267500013,217.530391 L142.529784,217.530391 L142.529784,0.267500013 L0.267500013,0.267500013 Z" stroke-linejoin="square" fill="#FFFFFF" fill-rule="evenodd"></path>
                                                </g>
                                            </g>
                                        </g>
                                    </g>
                                </g>
                            </g>
                            <polygon id="Rectangle-21-Copy-44" fill="#EBEBEB" points="116.764706 74.8580442 205.343351 74.8580442 205.343351 78.9153639 116.764706 78.9153639"></polygon>
                            <polygon id="Rectangle-21-Copy-46" fill="#EBEBEB" points="18.2705882 74.8580442 106.849233 74.8580442 106.849233 78.9153639 18.2705882 78.9153639"></polygon>
                            <polygon id="Rectangle-21-Copy-56" fill="#EBEBEB" points="18.2705882 115.495268 106.849233 115.495268 106.849233 119.552588 18.2705882 119.552588"></polygon>
                            <polygon id="Rectangle-21-Copy-62" fill="#EBEBEB" points="116.764706 115.495268 205.343351 115.495268 205.343351 119.552588 116.764706 119.552588"></polygon>
                            <polygon id="Rectangle-21-Copy-47" fill="#EBEBEB" points="116.764706 87.6908517 205.343351 87.6908517 205.343351 91.7481715 116.764706 91.7481715"></polygon>
                            <polygon id="Rectangle-21-Copy-48" fill="#EBEBEB" points="18.2705882 87.6908517 106.849233 87.6908517 106.849233 91.7481715 18.2705882 91.7481715"></polygon>
                            <polygon id="Rectangle-21-Copy-57" fill="#EBEBEB" points="18.2705882 128.328076 106.849233 128.328076 106.849233 132.385395 18.2705882 132.385395"></polygon>
                            <polygon id="Rectangle-21-Copy-63" fill="#EBEBEB" points="116.764706 128.328076 205.343351 128.328076 205.343351 132.385395 116.764706 132.385395"></polygon>
                            <polygon id="Rectangle-21-Copy-51" fill="#EBEBEB" points="116.764706 100.523659 205.343351 100.523659 205.343351 104.580979 116.764706 104.580979"></polygon>
                            <polygon id="Rectangle-21-Copy-52" fill="#EBEBEB" points="18.2705882 100.523659 106.849233 100.523659 106.849233 104.580979 18.2705882 104.580979"></polygon>
                            <polygon id="Rectangle-21-Copy-45" fill="#EBEBEB" points="116.764706 81.2744479 205.343351 81.2744479 205.343351 85.3317677 116.764706 85.3317677"></polygon>
                            <polygon id="Rectangle-21-Copy-50" fill="#EBEBEB" points="18.2705882 81.2744479 106.849233 81.2744479 106.849233 85.3317677 18.2705882 85.3317677"></polygon>
                            <polygon id="Rectangle-21-Copy-59" fill="#EBEBEB" points="18.2705882 121.911672 106.849233 121.911672 106.849233 125.968992 18.2705882 125.968992"></polygon>
                            <polygon id="Rectangle-21-Copy-65" fill="#EBEBEB" points="116.764706 121.911672 205.343351 121.911672 205.343351 125.968992 116.764706 125.968992"></polygon>
                            <polygon id="Rectangle-21-Copy-49" fill="#EBEBEB" points="116.764706 94.1072555 205.343351 94.1072555 205.343351 98.1645753 116.764706 98.1645753"></polygon>
                            <polygon id="Rectangle-21-Copy-54" fill="#EBEBEB" points="18.2705882 94.1072555 106.849233 94.1072555 106.849233 98.1645753 18.2705882 98.1645753"></polygon>
                            <polygon id="Rectangle-21-Copy-60" fill="#EBEBEB" points="18.2705882 134.744479 106.849233 134.744479 106.849233 138.801799 18.2705882 138.801799"></polygon>
                            <polygon id="Rectangle-21-Copy-66" fill="#EBEBEB" points="116.764706 134.744479 205.343351 134.744479 205.343351 138.801799 116.764706 138.801799"></polygon>
                            <polygon id="Rectangle-21-Copy-53" fill="#EBEBEB" points="116.764706 106.940063 153.770885 106.940063 153.770885 110.995195 116.764706 110.995195"></polygon>
                            <polygon id="Rectangle-21-Copy-55" fill="#EBEBEB" points="18.2705882 106.940063 55.2767672 106.940063 55.2767672 110.995195 18.2705882 110.995195"></polygon>
                            <polygon id="Rectangle-21-Copy-61" fill="#EBEBEB" points="18.2705882 141.160883 55.2767672 141.160883 55.2767672 145.216015 18.2705882 145.216015"></polygon>
                            <polygon id="Rectangle-21-Copy-67" fill="#EBEBEB" points="116.764706 141.160883 153.770885 141.160883 153.770885 145.216015 116.764706 145.216015"></polygon>
                            <path d="M18.2705882,60.3664405 L78.2235294,60.4758308" id="Line-5-Copy-4" stroke="#979797" stroke-width="0.535000026" stroke-linecap="square"></path>
                            <path d="M145.670588,60.3664405 L205.623529,60.4758308" id="Line-5-Copy-5" stroke="#979797" stroke-width="0.535000026" stroke-linecap="square"></path>
                            <path d="M84.5300533,57.2270551 L85.0805684,57.2270551 L85.0805684,61.3034878 L87.479241,61.3034878 L87.479241,61.8146803 L84.5300533,61.8146803 L84.5300533,57.2270551 Z M88.5868248,57.2270551 L91.3656149,57.2270551 L91.3656149,57.7382476 L89.1373398,57.7382476 L89.1373398,59.2587177 L91.3262924,59.2587177 L91.3262924,59.7699102 L89.1373398,59.7699102 L89.1373398,61.3034878 L91.4049374,61.3034878 L91.4049374,61.8146803 L88.5868248,61.8146803 L88.5868248,57.2270551 Z M93.5480138,59.6126202 L95.5927839,59.6126202 L95.5927839,61.8146803 L95.0815914,61.8146803 L95.0815914,61.2641653 L95.0029464,61.2641653 C94.9286701,61.4564096 94.7975964,61.6115134 94.6097213,61.7294815 C94.4218462,61.8474496 94.2033901,61.9064328 93.9543463,61.9064328 C93.460628,61.9064328 93.0728683,61.7469598 92.7910556,61.428009 C92.5092429,61.1090582 92.3683387,60.6437466 92.3683387,60.0320602 L92.3683387,59.0096752 C92.3683387,58.4154655 92.5103352,57.954523 92.7943325,57.6268338 C93.0783298,57.2991447 93.4737354,57.1353026 93.9805613,57.1353026 C94.2427126,57.1353026 94.4742762,57.1779015 94.6752588,57.2631007 C94.8762415,57.3482999 95.0444528,57.4662662 95.1798976,57.6170032 C95.3153425,57.7677402 95.4180169,57.9446897 95.4879239,58.147857 C95.5578309,58.3510243 95.5927839,58.5683881 95.5927839,58.7999551 L95.5927839,58.8786002 L95.0422689,58.8786002 L95.0422689,58.7999551 C95.0422689,58.6514027 95.0215155,58.5072217 94.9800082,58.3674076 C94.9385009,58.2275936 94.8751486,58.1041659 94.7899495,57.9971207 C94.7047503,57.8900756 94.5955222,57.8048777 94.462262,57.7415245 C94.3290017,57.6781712 94.1684364,57.6464951 93.9805613,57.6464951 C93.626657,57.6464951 93.3612328,57.7753842 93.1842806,58.0331664 C93.0073285,58.2909485 92.9188538,58.6295555 92.9188538,59.0489977 L92.9188538,59.9927377 C92.9188538,60.4427641 93.0073285,60.7890172 93.1842806,61.0315071 C93.3612328,61.2739971 93.6310261,61.3952403 93.9936688,61.3952403 C94.321358,61.3952403 94.5780439,61.2903813 94.7637345,61.0806603 C94.949425,60.8709392 95.0422689,60.5782079 95.0422689,60.2024577 L95.0422689,60.1238127 L93.5480138,60.1238127 L93.5480138,59.6126202 Z M98.9810728,60.6743277 L97.0149477,60.6743277 L96.6807064,61.8146803 L96.0908689,61.8146803 L97.480264,57.2270551 L98.5157565,57.2270551 L99.9051516,61.8146803 L99.3153141,61.8146803 L98.9810728,60.6743277 Z M97.9586877,57.4629901 L97.165684,60.1631352 L98.8303365,60.1631352 L98.0373328,57.4629901 L97.9586877,57.4629901 Z M100.573634,57.2270551 L101.124149,57.2270551 L101.124149,61.3034878 L103.522822,61.3034878 L103.522822,61.8146803 L100.573634,61.8146803 L100.573634,57.2270551 Z M108.503672,57.2270551 L110.011035,57.2270551 C110.579029,57.2270551 110.994096,57.3624979 111.256247,57.6333876 C111.518398,57.9042773 111.649472,58.3368205 111.649472,58.9310302 L111.649472,60.1107052 C111.649472,60.7049149 111.518398,61.1374581 111.256247,61.4083478 C110.994096,61.6792375 110.579029,61.8146803 110.011035,61.8146803 L108.503672,61.8146803 L108.503672,61.296934 L108.896897,61.296934 L108.896897,57.7382476 L108.503672,57.7382476 L108.503672,57.2270551 Z M109.93239,61.3034878 C110.133372,61.3034878 110.307045,61.2838267 110.453413,61.244504 C110.599781,61.2051813 110.721024,61.1385522 110.817146,61.0446146 C110.913268,60.9506771 110.984266,60.8250648 111.030143,60.667774 C111.076019,60.5104832 111.098957,60.3116881 111.098957,60.0713827 L111.098957,58.9703527 C111.098957,58.7300473 111.076019,58.5312522 111.030143,58.3739614 C110.984266,58.2166706 110.913268,58.0910583 110.817146,57.9971207 C110.721024,57.9031832 110.599781,57.836554 110.453413,57.7972313 C110.307045,57.7579086 110.133372,57.7382476 109.93239,57.7382476 L109.447412,57.7382476 L109.447412,61.3034878 L109.93239,61.3034878 Z M112.429368,59.0096752 C112.429368,58.4154655 112.571365,57.954523 112.855362,57.6268338 C113.139359,57.2991447 113.534765,57.1353026 114.041591,57.1353026 C114.548417,57.1353026 114.943823,57.2991447 115.22782,57.6268338 C115.511817,57.954523 115.653814,58.4154655 115.653814,59.0096752 L115.653814,60.0320602 C115.653814,60.6437466 115.511817,61.1090582 115.22782,61.428009 C114.943823,61.7469598 114.548417,61.9064328 114.041591,61.9064328 C113.534765,61.9064328 113.139359,61.7469598 112.855362,61.428009 C112.571365,61.1090582 112.429368,60.6437466 112.429368,60.0320602 L112.429368,59.0096752 Z M114.041591,61.3952403 C114.395495,61.3952403 114.66092,61.2739971 114.837872,61.0315071 C115.014824,60.7890172 115.103299,60.4427641 115.103299,59.9927377 L115.103299,59.0489977 C115.103299,58.6295555 115.014824,58.2909485 114.837872,58.0331664 C114.66092,57.7753842 114.395495,57.6464951 114.041591,57.6464951 C113.687687,57.6464951 113.422263,57.7753842 113.24531,58.0331664 C113.068358,58.2909485 112.979883,58.6295555 112.979883,59.0489977 L112.979883,59.9927377 C112.979883,60.4427641 113.068358,60.7890172 113.24531,61.0315071 C113.422263,61.2739971 113.687687,61.3952403 114.041591,61.3952403 Z M118.078701,61.3952403 C118.266576,61.3952403 118.427142,61.3635641 118.560402,61.3002109 C118.693662,61.2368577 118.80289,61.1516598 118.888089,61.0446146 C118.973289,60.9375695 119.036641,60.8152341 119.078148,60.6776046 C119.119655,60.5399752 119.140409,60.3947018 119.140409,60.2417802 L119.140409,60.1631352 L119.690924,60.1631352 L119.690924,60.2417802 C119.690924,60.4733472 119.655971,60.6907111 119.586064,60.8938784 C119.516157,61.0970457 119.413482,61.2739951 119.278038,61.4247322 C119.142593,61.5754692 118.974381,61.6934355 118.773399,61.7786347 C118.572416,61.8638338 118.340853,61.9064328 118.078701,61.9064328 C117.571875,61.9064328 117.17647,61.7469598 116.892472,61.428009 C116.608475,61.1090582 116.466479,60.6437466 116.466479,60.0320602 L116.466479,59.0096752 C116.466479,58.4154655 116.608475,57.954523 116.892472,57.6268338 C117.17647,57.2991447 117.571875,57.1353026 118.078701,57.1353026 C118.340853,57.1353026 118.572416,57.1779015 118.773399,57.2631007 C118.974381,57.3482999 119.142593,57.4662662 119.278038,57.6170032 C119.413482,57.7677402 119.516157,57.9446897 119.586064,58.147857 C119.655971,58.3510243 119.690924,58.5683881 119.690924,58.7999551 L119.690924,58.8786002 L119.140409,58.8786002 L119.140409,58.7999551 C119.13604,58.6514027 119.113102,58.5072217 119.071594,58.3674076 C119.030087,58.2275936 118.966735,58.1041659 118.881536,57.9971207 C118.796336,57.8900756 118.688201,57.8048777 118.557125,57.7415245 C118.426049,57.6781712 118.266576,57.6464951 118.078701,57.6464951 C117.724797,57.6464951 117.459373,57.7753842 117.282421,58.0331664 C117.105468,58.2909485 117.016994,58.6295555 117.016994,59.0489977 L117.016994,59.9927377 C117.016994,60.4427641 117.105468,60.7890172 117.282421,61.0315071 C117.459373,61.2739971 117.724797,61.3952403 118.078701,61.3952403 Z M121.040996,57.2270551 L121.040996,60.2679952 C121.040996,60.6393763 121.127287,60.9200924 121.29987,61.1101521 C121.472452,61.3002118 121.726954,61.3952403 122.063381,61.3952403 C122.399809,61.3952403 122.65431,61.3002118 122.826893,61.1101521 C122.999476,60.9200924 123.085766,60.6393763 123.085766,60.2679952 L123.085766,57.2270551 L123.636282,57.2270551 L123.636282,60.2679952 C123.636282,60.8010362 123.49647,61.2073647 123.216841,61.4869928 C122.937213,61.7666209 122.552731,61.9064328 122.063381,61.9064328 C121.574032,61.9064328 121.189549,61.7666209 120.909921,61.4869928 C120.630293,61.2073647 120.490481,60.8010362 120.490481,60.2679952 L120.490481,57.2270551 L121.040996,57.2270551 Z M124.370302,57.2270551 L125.418902,57.2270551 L126.034954,61.5787453 L126.113599,61.5787453 L126.729652,57.2270551 L127.778252,57.2270551 L127.778252,61.8146803 L127.267059,61.8146803 L127.267059,57.4629901 L127.188414,57.4629901 L126.572362,61.8146803 L125.576192,61.8146803 L124.960139,57.4629901 L124.881494,57.4629901 L124.881494,61.8146803 L124.370302,61.8146803 L124.370302,57.2270551 Z M128.695777,57.2270551 L131.474567,57.2270551 L131.474567,57.7382476 L129.246292,57.7382476 L129.246292,59.2587177 L131.435244,59.2587177 L131.435244,59.7699102 L129.246292,59.7699102 L129.246292,61.3034878 L131.513889,61.3034878 L131.513889,61.8146803 L128.695777,61.8146803 L128.695777,57.2270551 Z M134.993931,61.5787453 L135.072576,61.5787453 L135.072576,57.2270551 L135.623091,57.2270551 L135.623091,61.8146803 L134.522061,61.8146803 L133.198203,57.4629901 L133.119558,57.4629901 L133.119558,61.8146803 L132.569043,61.8146803 L132.569043,57.2270551 L133.670073,57.2270551 L134.993931,61.5787453 Z M136.49474,57.2270551 L139.719185,57.2270551 L139.719185,57.7382476 L138.38222,57.7382476 L138.38222,61.8146803 L137.831705,61.8146803 L137.831705,57.7382476 L136.49474,57.7382476 L136.49474,57.2270551 Z" id="LEGAL-DOCUMENT" fill="#4A4A4A"></path>
                            <polygon id="Rectangle-21-Copy-29" fill="#E2E2E2" points="17.8770606 175.550453 48.3176272 175.550453 48.3176272 177.355408 17.8770606 177.355408"></polygon>
                            <polygon id="Rectangle-21-Copy-30" fill="#E2E2E2" points="17.8770606 172.542195 58.4644827 172.542195 58.4644827 174.34715 17.8770606 174.34715"></polygon>
                            <path d="M20.5847449,169.113944 C29.4149529,160.317113 32.133924,154.32628 28.7416584,151.141445 C25.3493928,147.956609 24.6934421,156.414928 26.7738064,176.516402 L23.0869188,163.502234 C28.0027689,171.74276 32.5744116,171.74276 36.8018469,163.502234 C41.0292823,155.261708 39.8579101,155.62544 33.2877301,164.593432 C31.0523276,167.535865 29.9346263,171.510188 29.9346263,176.516402" id="Path-6" stroke="#000000" stroke-width="0.5" stroke-linecap="round" stroke-linejoin="round"></path>
                        </g>
                    </g>
                </g>
                <polygon id="Fill-195-Copy-4" fill="#70C6FF" points="25 31 33 31 33 23 25 23"></polygon>
                <polygon id="Fill-195-Copy-5" fill="#70C6FF" points="13 132 21 132 21 124 13 124"></polygon>
                <polygon id="Fill-196-Copy-3" fill="#39ff14" points="0 71 8 71 8 63 0 63"></polygon>
                <polygon id="Fill-195-Copy-6" fill="#70C6FF" transform="translate(449.000000, 230.000000) scale(-1, -1) rotate(270.000000) translate(-449.000000, -230.000000) " points="445 234 453 234 453 226 445 226"></polygon>
                <polygon id="Fill-196-Copy-4" fill="#39ff14" transform="translate(471.000000, 194.000000) scale(-1, -1) rotate(270.000000) translate(-471.000000, -194.000000) " points="467 198 475 198 475 190 467 190"></polygon>
            </g>
        </g>
    </g>
</svg>