<?xml version="1.0" encoding="UTF-8"?>
<svg width="517px" height="351px" viewBox="0 0 517 351" version="1.1" xmlns="http://www.w3.org/2000/svg" xmlns:xlink="http://www.w3.org/1999/xlink">
    <!-- Generator: Sketch 52.2 (67145) - http://www.bohemiancoding.com/sketch -->
    <title>Group 36</title>
    <desc>Created with Sketch.</desc>
    <defs>
        <path d="M47.9508893,0.448382857 C119.931252,0.448382857 193.824506,0.448382857 269.630651,0.448382857 C281.871256,1.24970333 287.991558,7.38494432 287.991558,18.8541058 C287.991558,30.3232673 287.991558,80.7540148 287.991558,170.146348 L31.0195114,170.146348 L31.0195114,21.2989724 C31.0195114,7.39857936 36.6633041,0.448382857 47.9508893,0.448382857 Z" id="path-1"></path>
        <filter x="-1.4%" y="-1.5%" width="102.7%" height="104.1%" filterUnits="objectBoundingBox" id="filter-2">
            <feOffset dx="0" dy="1" in="SourceAlpha" result="shadowOffsetOuter1"></feOffset>
            <feGaussianBlur stdDeviation="1" in="shadowOffsetOuter1" result="shadowBlurOuter1"></feGaussianBlur>
            <feColorMatrix values="0 0 0 0 0   0 0 0 0 0   0 0 0 0 0  0 0 0 0.0629245924 0" type="matrix" in="shadowBlurOuter1"></feColorMatrix>
        </filter>
        <path d="M28.9386494,172.926433 C30.5030523,169.340345 33.3681233,167.547301 37.5338623,167.547301 C41.6996014,167.547301 122.128128,167.547301 278.819441,167.547301 C284.914999,167.615975 288.660775,169.409019 290.056769,172.926433 C291.452763,176.443846 300.893727,195.876537 318.379663,231.224505 C319.890048,234.418935 318.642339,236.01615 314.636536,236.01615 C310.630732,236.01615 207.377493,236.01615 4.8768196,236.01615 C0.429339759,236.01615 -0.976186737,234.418935 0.660240118,231.224505 C2.29666697,228.030076 11.7228034,208.597385 28.9386494,172.926433 Z" id="path-3"></path>
        <filter x="-1.1%" y="-3.7%" width="102.2%" height="110.2%" filterUnits="objectBoundingBox" id="filter-4">
            <feOffset dx="0" dy="1" in="SourceAlpha" result="shadowOffsetOuter1"></feOffset>
            <feGaussianBlur stdDeviation="1" in="shadowOffsetOuter1" result="shadowBlurOuter1"></feGaussianBlur>
            <feColorMatrix values="0 0 0 0 0   0 0 0 0 0   0 0 0 0 0  0 0 0 0.0604619565 0" type="matrix" in="shadowBlurOuter1"></feColorMatrix>
        </filter>
        <path d="M48.8415123,174.739076 C50.0684171,172.629612 52.315389,171.57488 55.582428,171.57488 C58.849467,171.57488 127.556283,171.57488 261.702877,171.57488 C266.483403,171.615277 269.42108,172.670009 270.515908,174.739076 C271.610736,176.808142 276.274905,188.239137 284.508416,209.032059 C285.692957,210.911136 284.714423,211.850674 281.572816,211.850674 C278.431209,211.850674 197.453415,211.850674 38.6394347,211.850674 C35.1514365,211.850674 34.0491327,210.911136 35.3325233,209.032059 C36.6159139,207.152983 41.1189103,195.721989 48.8415123,174.739076 Z" id="path-5"></path>
        <filter x="-1.5%" y="-6.8%" width="103.0%" height="118.6%" filterUnits="objectBoundingBox" id="filter-6">
            <feMorphology radius="0.25" operator="dilate" in="SourceAlpha" result="shadowSpreadOuter1"></feMorphology>
            <feOffset dx="0" dy="1" in="shadowSpreadOuter1" result="shadowOffsetOuter1"></feOffset>
            <feGaussianBlur stdDeviation="1" in="shadowOffsetOuter1" result="shadowBlurOuter1"></feGaussianBlur>
            <feComposite in="shadowBlurOuter1" in2="SourceAlpha" operator="out" result="shadowBlurOuter1"></feComposite>
            <feColorMatrix values="0 0 0 0 0   0 0 0 0 0   0 0 0 0 0  0 0 0 0.0647361866 0" type="matrix" in="shadowBlurOuter1"></feColorMatrix>
        </filter>
        <polygon id="path-7" points="2.4716031e-13 1.63568232e-13 85.4484138 1.63568232e-13 100.766328 17.0337669 100.766328 153.680275 2.04325792e-13 153.680275"></polygon>
        <filter x="-6.5%" y="-3.6%" width="112.9%" height="108.5%" filterUnits="objectBoundingBox" id="filter-8">
            <feMorphology radius="1" operator="dilate" in="SourceAlpha" result="shadowSpreadOuter1"></feMorphology>
            <feOffset dx="0" dy="1" in="shadowSpreadOuter1" result="shadowOffsetOuter1"></feOffset>
            <feGaussianBlur stdDeviation="1" in="shadowOffsetOuter1" result="shadowBlurOuter1"></feGaussianBlur>
            <feComposite in="shadowBlurOuter1" in2="SourceAlpha" operator="out" result="shadowBlurOuter1"></feComposite>
            <feColorMatrix values="0 0 0 0 0.24346301   0 0 0 0 0.24346301   0 0 0 0 0.24346301  0 0 0 0.0766530797 0" type="matrix" in="shadowBlurOuter1" result="shadowMatrixOuter1"></feColorMatrix>
            <feOffset dx="0" dy="1" in="SourceAlpha" result="shadowOffsetOuter2"></feOffset>
            <feGaussianBlur stdDeviation="0.5" in="shadowOffsetOuter2" result="shadowBlurOuter2"></feGaussianBlur>
            <feComposite in="shadowBlurOuter2" in2="SourceAlpha" operator="out" result="shadowBlurOuter2"></feComposite>
            <feColorMatrix values="0 0 0 0 0   0 0 0 0 0   0 0 0 0 0  0 0 0 0.0586786685 0" type="matrix" in="shadowBlurOuter2" result="shadowMatrixOuter2"></feColorMatrix>
            <feMerge>
                <feMergeNode in="shadowMatrixOuter1"></feMergeNode>
                <feMergeNode in="shadowMatrixOuter2"></feMergeNode>
            </feMerge>
        </filter>
        <polygon id="path-9" points="2.4716031e-13 1.63568232e-13 85.4484138 1.63568232e-13 100.766328 17.0337669 100.766328 153.680275 2.04325792e-13 153.680275"></polygon>
        <filter x="-6.5%" y="-3.6%" width="112.9%" height="108.5%" filterUnits="objectBoundingBox" id="filter-10">
            <feMorphology radius="1" operator="dilate" in="SourceAlpha" result="shadowSpreadOuter1"></feMorphology>
            <feOffset dx="0" dy="1" in="shadowSpreadOuter1" result="shadowOffsetOuter1"></feOffset>
            <feGaussianBlur stdDeviation="1" in="shadowOffsetOuter1" result="shadowBlurOuter1"></feGaussianBlur>
            <feComposite in="shadowBlurOuter1" in2="SourceAlpha" operator="out" result="shadowBlurOuter1"></feComposite>
            <feColorMatrix values="0 0 0 0 0.24346301   0 0 0 0 0.24346301   0 0 0 0 0.24346301  0 0 0 0.0766530797 0" type="matrix" in="shadowBlurOuter1" result="shadowMatrixOuter1"></feColorMatrix>
            <feOffset dx="0" dy="1" in="SourceAlpha" result="shadowOffsetOuter2"></feOffset>
            <feGaussianBlur stdDeviation="0.5" in="shadowOffsetOuter2" result="shadowBlurOuter2"></feGaussianBlur>
            <feComposite in="shadowBlurOuter2" in2="SourceAlpha" operator="out" result="shadowBlurOuter2"></feComposite>
            <feColorMatrix values="0 0 0 0 0   0 0 0 0 0   0 0 0 0 0  0 0 0 0.0586786685 0" type="matrix" in="shadowBlurOuter2" result="shadowMatrixOuter2"></feColorMatrix>
            <feMerge>
                <feMergeNode in="shadowMatrixOuter1"></feMergeNode>
                <feMergeNode in="shadowMatrixOuter2"></feMergeNode>
            </feMerge>
        </filter>
        <polygon id="path-11" points="2.4716031e-13 1.63568232e-13 85.4484138 1.63568232e-13 100.766328 17.0337669 100.766328 153.680275 2.04325792e-13 153.680275"></polygon>
        <filter x="-6.5%" y="-3.6%" width="112.9%" height="108.5%" filterUnits="objectBoundingBox" id="filter-12">
            <feMorphology radius="1" operator="dilate" in="SourceAlpha" result="shadowSpreadOuter1"></feMorphology>
            <feOffset dx="0" dy="1" in="shadowSpreadOuter1" result="shadowOffsetOuter1"></feOffset>
            <feGaussianBlur stdDeviation="1" in="shadowOffsetOuter1" result="shadowBlurOuter1"></feGaussianBlur>
            <feComposite in="shadowBlurOuter1" in2="SourceAlpha" operator="out" result="shadowBlurOuter1"></feComposite>
            <feColorMatrix values="0 0 0 0 0.24346301   0 0 0 0 0.24346301   0 0 0 0 0.24346301  0 0 0 0.0766530797 0" type="matrix" in="shadowBlurOuter1" result="shadowMatrixOuter1"></feColorMatrix>
            <feOffset dx="0" dy="1" in="SourceAlpha" result="shadowOffsetOuter2"></feOffset>
            <feGaussianBlur stdDeviation="0.5" in="shadowOffsetOuter2" result="shadowBlurOuter2"></feGaussianBlur>
            <feComposite in="shadowBlurOuter2" in2="SourceAlpha" operator="out" result="shadowBlurOuter2"></feComposite>
            <feColorMatrix values="0 0 0 0 0   0 0 0 0 0   0 0 0 0 0  0 0 0 0.0586786685 0" type="matrix" in="shadowBlurOuter2" result="shadowMatrixOuter2"></feColorMatrix>
            <feMerge>
                <feMergeNode in="shadowMatrixOuter1"></feMergeNode>
                <feMergeNode in="shadowMatrixOuter2"></feMergeNode>
            </feMerge>
        </filter>
    </defs>
    <g id="Web-design" stroke="none" stroke-width="1" fill="none" fill-rule="evenodd">
        <g id="Producto-xchcek" transform="translate(-177.000000, -912.000000)">
            <g id="Group-36" transform="translate(177.000000, 912.000000)">
                <g id="Group-41">
                    <g id="Group-6" transform="translate(91.000000, 110.000000)">
                        <path d="M0,234.421053 C0.0146708403,236.807018 1.52851817,238 4.54154199,238 C7.55456581,238 110.270162,238 312.688329,238 C315.701353,237.833052 317.207865,236.64007 317.207865,234.421053" id="Path-8" stroke="#C5C5C5" stroke-width="2.94000006"></path>
                        <g id="Group-5" opacity="0.652399554">
                            <g id="Group-4" transform="translate(0.000000, 0.730188)">
                                <g id="Path-4">
                                    <use fill="black" fill-opacity="1" filter="url(#filter-2)" xlink:href="#path-1"></use>
                                    <use fill="#D8D8D8" fill-rule="evenodd" xlink:href="#path-1"></use>
                                </g>
                                <path d="M43.9708122,12.332738 L43.9708122,162.464206 L275.029188,162.464206 L275.029188,12.332738 L43.9708122,12.332738 Z M275.029188,162.464206 L275.279188,162.464206 L275.029188,162.714206 L275.029188,162.464206 Z" id="Rectangle" stroke="#EBEBEB" stroke-width="0.5" fill="#FFFFFF"></path>
                                <g id="Path-7">
                                    <use fill="black" fill-opacity="1" filter="url(#filter-4)" xlink:href="#path-3"></use>
                                    <use fill="#EBEBEB" fill-rule="evenodd" xlink:href="#path-3"></use>
                                </g>
                                <g id="Path-7-Copy">
                                    <use fill="black" fill-opacity="1" filter="url(#filter-6)" xlink:href="#path-5"></use>
                                    <use stroke-opacity="0.197803442" stroke="#979797" stroke-width="0.5" fill="#D8D8D8" fill-rule="evenodd" xlink:href="#path-5"></use>
                                </g>
                            </g>
                        </g>
                    </g>
                    <path d="M150,189 L154.592677,183.254339 L189.632325,32 L242,32" id="Path-5-Copy" stroke="#D1D1D1" stroke-width="0.980000019" stroke-dasharray="1.960000038146973,1.960000038146973" transform="translate(196.000000, 110.500000) scale(-1, 1) translate(-196.000000, -110.500000) "></path>
                    <path d="M275.845536,196 L272,196 L365.527009,107 L413,107" id="Path-2" stroke="#D1D1D1" stroke-width="0.980000019" stroke-dasharray="1.960000038146973,1.960000038146973"></path>
                    <path d="M77,196 L171.81145,107 L222,107" id="Path-2-Copy" stroke="#D1D1D1" stroke-width="0.980000019" stroke-dasharray="1.960000038146973,1.960000038146973" transform="translate(149.500000, 151.500000) scale(-1, 1) translate(-149.500000, -151.500000) "></path>
                    <path d="M251,188 L290.519923,31 L336,31" id="Path-5" stroke="#D1D1D1" stroke-width="0.980000019" stroke-dasharray="1.960000038146973,1.960000038146973"></path>
                    <path d="M273,208 L441,208 L398.678399,208" id="Path-3" stroke="#D1D1D1" stroke-width="0.980000019" stroke-dasharray="1.960000038146973,1.960000038146973"></path>
                    <path d="M65,208 L232,208" id="Path-3-Copy" stroke="#D1D1D1" stroke-width="0.980000019" stroke-dasharray="1.960000038146973,1.960000038146973" transform="translate(148.500000, 208.000000) scale(-1, 1) translate(-148.500000, -208.000000) "></path>
                    <g id="Group-5-Copy" transform="translate(219.000000, 179.000000)">
                        <circle id="Oval-2" fill="#39ff14" cx="28" cy="28" r="28"></circle>
                        <polygon id="Rectangle" fill="#FFFFFF" points="27.0967742 12.6451613 30.7096774 12.6451613 30.7096774 43.3548387 27.0967742 43.3548387"></polygon>
                        <polygon id="Rectangle-Copy" fill="#FFFFFF" transform="translate(28.903226, 28.000000) rotate(-270.000000) translate(-28.903226, -28.000000) " points="27.0967742 12.6451613 30.7096774 12.6451613 30.7096774 43.3548387 27.0967742 43.3548387"></polygon>
                    </g>
                    <polygon id="Rectangle-Copy-29" fill="#5A5A5A" points="334 27 342 27 342 35 334 35"></polygon>
                    <polygon id="Rectangle-Copy-30" fill="#5A5A5A" points="146 27 154 27 154 35 146 35"></polygon>
                    <polygon id="Rectangle-Copy-31" fill="#5A5A5A" points="73 102 81 102 81 110 73 110"></polygon>
                    <polygon id="Rectangle-Copy-32" fill="#5A5A5A" points="414 102 422 102 422 110 414 110"></polygon>
                    <polygon id="Rectangle-Copy-33" fill="#5A5A5A" points="436 204 444 204 444 212 436 212"></polygon>
                    <polygon id="Rectangle-Copy-34" fill="#5A5A5A" points="60 204 68 204 68 212 60 212"></polygon>
                    <g id="Group-10" transform="translate(257.000000, 312.000000) rotate(-180.000000) translate(-257.000000, -312.000000) translate(0.000000, 273.000000)">
                        <polygon id="Rectangle-9" fill="#70C6FF" transform="translate(473.657143, 70.845896) rotate(-90.000000) translate(-473.657143, -70.845896) " points="469.657143 66.8458963 477.657143 66.8458963 477.657143 74.8458963 469.657143 74.8458963"></polygon>
                        <polygon id="Rectangle-9-Copy" fill="#39ff14" transform="translate(464.914286, 4.377661) rotate(-90.000000) translate(-464.914286, -4.377661) " points="460.914286 0.377661401 468.914286 0.377661401 468.914286 8.3776614 460.914286 8.3776614"></polygon>
                        <polygon id="Rectangle-9-Copy-4" fill="#39ff14" transform="translate(509.057143, 51.392771) rotate(-90.000000) translate(-509.057143, -51.392771) " points="505.057143 47.3927713 513.057143 47.3927713 513.057143 55.3927713 505.057143 55.3927713"></polygon>
                        <g id="Group-11" transform="translate(26.614286, 40.648352) scale(-1, 1) translate(-26.614286, -40.648352) translate(0.114286, 3.648352)">
                            <polygon id="Rectangle-9-Copy-2" fill="#70C6FF" transform="translate(13.028571, 69.933808) rotate(-90.000000) translate(-13.028571, -69.933808) " points="9.02857143 65.9338084 17.0285714 65.9338084 17.0285714 73.9338084 9.02857143 73.9338084"></polygon>
                            <polygon id="Rectangle-9-Copy-3" fill="#39ff14" transform="translate(4.285714, 4.377661) rotate(-90.000000) translate(-4.285714, -4.377661) " points="0.285714286 0.377661401 8.28571429 0.377661401 8.28571429 8.3776614 0.285714286 8.3776614"></polygon>
                            <polygon id="Rectangle-9-Copy-5" fill="#39ff14" transform="translate(48.428571, 50.480683) rotate(-90.000000) translate(-48.428571, -50.480683) " points="44.4285714 46.4806834 52.4285714 46.4806834 52.4285714 54.4806834 44.4285714 54.4806834"></polygon>
                        </g>
                    </g>
                    <g id="Group-3" transform="translate(162.000000, 132.000000)">
                        <g id="Group-5-Copy-2" transform="translate(18.407770, 0.000000)">
                            <g id="Group-4">
                                <g id="Group-16-Copy-2" transform="translate(0.000000, 0.269983)">
                                    <g id="Group-2">
                                        <g id="Group-2-Copy" transform="translate(80.625378, 54.240960) scale(-1, 1) rotate(-91.000000) translate(-80.625378, -54.240960) translate(27.805706, -24.415529)">
                                            <g id="Group" transform="translate(52.551977, 78.471990) rotate(1.000000) translate(-52.551977, -78.471990) translate(1.688589, 1.281150)">
                                                <g id="Rectangle-21">
                                                    <use fill="black" fill-opacity="1" filter="url(#filter-8)" xlink:href="#path-7"></use>
                                                    <path stroke="#EBEBEB" stroke-width="0.5" d="M0.25,0.25 L0.25,153.430275 L100.516328,153.430275 L100.516328,17.1296428 L85.3370126,0.25 L0.25,0.25 Z" stroke-linejoin="square" fill="#FFFFFF" fill-rule="evenodd"></path>
                                                </g>
                                            </g>
                                        </g>
                                    </g>
                                </g>
                            </g>
                        </g>
                        <g id="Group-5-Copy" transform="translate(9.203885, 8.470738)">
                            <g id="Group-4">
                                <g id="Group-16-Copy-2" transform="translate(0.000000, 0.269983)">
                                    <g id="Group-2">
                                        <g id="Group-2-Copy" transform="translate(80.625378, 54.240960) scale(-1, 1) rotate(-91.000000) translate(-80.625378, -54.240960) translate(27.805706, -24.415529)">
                                            <g id="Group" transform="translate(52.551977, 78.471990) rotate(1.000000) translate(-52.551977, -78.471990) translate(1.688589, 1.281150)">
                                                <g id="Rectangle-21">
                                                    <use fill="black" fill-opacity="1" filter="url(#filter-10)" xlink:href="#path-9"></use>
                                                    <path stroke="#EBEBEB" stroke-width="0.5" d="M0.25,0.25 L0.25,153.430275 L100.516328,153.430275 L100.516328,17.1296428 L85.3370126,0.25 L0.25,0.25 Z" stroke-linejoin="square" fill="#FFFFFF" fill-rule="evenodd"></path>
                                                </g>
                                            </g>
                                        </g>
                                    </g>
                                </g>
                            </g>
                        </g>
                        <g id="Group-5" transform="translate(0.000000, 18.481611)">
                            <g id="Group-4">
                                <g id="Group-16-Copy-2" transform="translate(0.000000, 0.269983)">
                                    <g id="Group-2">
                                        <g id="Group-2-Copy" transform="translate(80.625378, 54.240960) scale(-1, 1) rotate(-91.000000) translate(-80.625378, -54.240960) translate(27.805706, -24.415529)">
                                            <g id="Group" transform="translate(52.551977, 78.471990) rotate(1.000000) translate(-52.551977, -78.471990) translate(1.688589, 1.281150)">
                                                <g id="Rectangle-21">
                                                    <use fill="black" fill-opacity="1" filter="url(#filter-12)" xlink:href="#path-11"></use>
                                                    <path stroke="#EBEBEB" stroke-width="0.5" d="M0.25,0.25 L0.25,153.430275 L100.516328,153.430275 L100.516328,17.1296428 L85.3370126,0.25 L0.25,0.25 Z" stroke-linejoin="square" fill="#FFFFFF" fill-rule="evenodd"></path>
                                                </g>
                                            </g>
                                        </g>
                                    </g>
                                </g>
                                <polyline id="Path-3" stroke="#DEDEDE" stroke-width="0.5" opacity="0.769999981" transform="translate(148.873399, 12.056991) scale(-1, -1) rotate(-180.000000) translate(-148.873399, -12.056991) " points="140.628881 4.20873429 140.628881 19.9052474 157.117916 19.9024344"></polyline>
                            </g>
                            <g id="Group-17" transform="translate(16.628415, 28.335878)" fill="#EBEBEB">
                                <g id="Group-15" transform="translate(67.491803, 0.000000)">
                                    <polygon id="Rectangle-21-Copy-44" points="6.03961325e-14 -1.33226763e-13 62.506404 -1.33226763e-13 62.506404 2.86288364 6.03961325e-14 2.86288364"></polygon>
                                    <polygon id="Rectangle-21-Copy-62" points="6.03961325e-14 28.3358779 62.506404 28.3358779 62.506404 31.1987615 6.03961325e-14 31.1987615"></polygon>
                                    <polygon id="Rectangle-21-Copy-47" points="6.03961325e-14 7.81679389 62.506404 7.81679389 62.506404 10.6796775 6.03961325e-14 10.6796775"></polygon>
                                    <polygon id="Rectangle-21-Copy-51" points="6.03961325e-14 15.6335878 62.506404 15.6335878 62.506404 18.4964714 6.03961325e-14 18.4964714"></polygon>
                                    <polygon id="Rectangle-21-Copy-49" points="6.03961325e-14 11.7251908 62.506404 11.7251908 62.506404 14.5880745 6.03961325e-14 14.5880745"></polygon>
                                    <polygon id="Rectangle-21-Copy-53" points="-1.04805054e-13 19.5419847 26.1137793 19.5419847 26.1137793 22.4033247 -1.04805054e-13 22.4033247"></polygon>
                                    <polygon id="Rectangle-21-Copy-63" points="6.03961325e-14 36.1526718 62.506404 36.1526718 62.506404 39.0155554 6.03961325e-14 39.0155554"></polygon>
                                    <polygon id="Rectangle-21-Copy-64" points="6.03961325e-14 43.9694656 62.506404 43.9694656 62.506404 46.8323493 6.03961325e-14 46.8323493"></polygon>
                                    <polygon id="Rectangle-21-Copy-45" points="6.03961325e-14 3.90839695 62.506404 3.90839695 62.506404 6.77128059 6.03961325e-14 6.77128059"></polygon>
                                    <polygon id="Rectangle-21-Copy-65" points="6.03961325e-14 32.2442748 62.506404 32.2442748 62.506404 35.1071584 6.03961325e-14 35.1071584"></polygon>
                                    <polygon id="Rectangle-21-Copy-66" points="6.03961325e-14 40.0610687 62.506404 40.0610687 62.506404 42.9239523 6.03961325e-14 42.9239523"></polygon>
                                    <polygon id="Rectangle-21-Copy-67" points="-1.04805054e-13 47.8778626 26.1137793 47.8778626 26.1137793 50.7392025 -1.04805054e-13 50.7392025"></polygon>
                                </g>
                                <g id="Group-16">
                                    <polygon id="Rectangle-21-Copy-46" points="5.32907052e-14 -1.33226763e-13 62.506404 -1.33226763e-13 62.506404 2.86288364 5.32907052e-14 2.86288364"></polygon>
                                    <polygon id="Rectangle-21-Copy-56" points="5.32907052e-14 28.3358779 62.506404 28.3358779 62.506404 31.1987615 5.32907052e-14 31.1987615"></polygon>
                                    <polygon id="Rectangle-21-Copy-48" points="5.32907052e-14 7.81679389 62.506404 7.81679389 62.506404 10.6796775 5.32907052e-14 10.6796775"></polygon>
                                    <polygon id="Rectangle-21-Copy-52" points="5.32907052e-14 15.6335878 62.506404 15.6335878 62.506404 18.4964714 5.32907052e-14 18.4964714"></polygon>
                                    <polygon id="Rectangle-21-Copy-54" points="5.32907052e-14 11.7251908 62.506404 11.7251908 62.506404 14.5880745 5.32907052e-14 14.5880745"></polygon>
                                    <polygon id="Rectangle-21-Copy-55" points="6.75015599e-14 19.5419847 26.1137793 19.5419847 26.1137793 22.4033247 6.75015599e-14 22.4033247"></polygon>
                                    <polygon id="Rectangle-21-Copy-57" points="5.32907052e-14 36.1526718 62.506404 36.1526718 62.506404 39.0155554 5.32907052e-14 39.0155554"></polygon>
                                    <polygon id="Rectangle-21-Copy-58" points="5.32907052e-14 43.9694656 62.506404 43.9694656 62.506404 46.8323493 5.32907052e-14 46.8323493"></polygon>
                                    <polygon id="Rectangle-21-Copy-50" points="5.32907052e-14 3.90839695 62.506404 3.90839695 62.506404 6.77128059 5.32907052e-14 6.77128059"></polygon>
                                    <polygon id="Rectangle-21-Copy-59" points="5.32907052e-14 32.2442748 62.506404 32.2442748 62.506404 35.1071584 5.32907052e-14 35.1071584"></polygon>
                                    <polygon id="Rectangle-21-Copy-60" points="5.32907052e-14 40.0610687 62.506404 40.0610687 62.506404 42.9239523 5.32907052e-14 42.9239523"></polygon>
                                    <polygon id="Rectangle-21-Copy-61" points="6.75015599e-14 47.8778626 26.1137793 47.8778626 26.1137793 50.7392025 6.75015599e-14 50.7392025"></polygon>
                                </g>
                            </g>
                            <path d="M107.804511,17.1010317 L140.119678,17.2205161" id="Line-5-Copy-3" stroke="#979797" stroke-width="0.5" stroke-linecap="square"></path>
                            <path d="M15.6514331,17.6164688 L52.331761,17.6164688" id="Line-5-Copy-4" stroke="#979797" stroke-width="0.5" stroke-linecap="square"></path>
                            <path d="M58.044618,15.7117557 L58.5047361,15.7117557 L58.5047361,19.1151878 L60.5095361,19.1151878 L60.5095361,19.5419847 L58.044618,19.5419847 L58.044618,15.7117557 Z M61.4352497,15.7117557 L63.7577503,15.7117557 L63.7577503,16.1385527 L61.8953678,16.1385527 L61.8953678,17.408 L63.7248847,17.408 L63.7248847,17.8347969 L61.8953678,17.8347969 L61.8953678,19.1151878 L63.7906158,19.1151878 L63.7906158,19.5419847 L61.4352497,19.5419847 L61.4352497,15.7117557 Z M65.5817896,17.7034748 L67.2907994,17.7034748 L67.2907994,19.5419847 L66.863547,19.5419847 L66.863547,19.0823573 L66.7978158,19.0823573 C66.7357361,19.2428629 66.6261853,19.3723598 66.4691601,19.4708519 C66.3121349,19.569344 66.1295502,19.6185893 65.9214005,19.6185893 C65.5087529,19.6185893 65.1846651,19.4854446 64.9491273,19.2191511 C64.7135895,18.9528577 64.5958224,18.5643669 64.5958224,18.0536672 L64.5958224,17.2000733 C64.5958224,16.7039649 64.7145025,16.319122 64.9518661,16.0455328 C65.1892298,15.7719437 65.5197081,15.6351511 65.9433109,15.6351511 C66.1624158,15.6351511 66.3559556,15.6707172 66.5239361,15.7418504 C66.6919165,15.8129836 66.8325067,15.9114742 66.9457109,16.0373252 C67.0589151,16.1631762 67.1447299,16.3109121 67.2031579,16.4805374 C67.2615859,16.6501627 67.2907994,16.8316408 67.2907994,17.0249771 L67.2907994,17.0906382 L66.8306814,17.0906382 L66.8306814,17.0249771 C66.8306814,16.90095 66.8133359,16.7805726 66.7786443,16.6638412 C66.7439526,16.5471098 66.6910031,16.4440595 66.619794,16.354687 C66.5485849,16.2653146 66.4572925,16.1941825 66.3459142,16.1412885 C66.2345359,16.0883946 66.1003361,16.0619481 65.9433109,16.0619481 C65.6475193,16.0619481 65.4256789,16.1695582 65.2777831,16.3847817 C65.1298872,16.6000051 65.0559404,16.8827097 65.0559404,17.2329038 L65.0559404,18.0208366 C65.0559404,18.3965657 65.1298872,18.6856539 65.2777831,18.8881099 C65.4256789,19.0905659 65.651171,19.1917924 65.9542661,19.1917924 C66.2281473,19.1917924 66.4426843,19.1042452 66.5978836,18.9291481 C66.7530829,18.754051 66.8306814,18.5096484 66.8306814,18.1959328 L66.8306814,18.1302718 L65.5817896,18.1302718 L65.5817896,17.7034748 Z M70.1227164,18.5898992 L68.4794377,18.5898992 L68.2000803,19.5419847 L67.7070967,19.5419847 L68.868347,15.7117557 L69.7338071,15.7117557 L70.8950574,19.5419847 L70.4020738,19.5419847 L70.1227164,18.5898992 Z M69.2682115,15.9087389 L68.6054224,18.1631023 L69.9967317,18.1631023 L69.3339426,15.9087389 L69.2682115,15.9087389 Z M71.4537721,15.7117557 L71.9138902,15.7117557 L71.9138902,19.1151878 L73.9186902,19.1151878 L73.9186902,19.5419847 L71.4537721,19.5419847 L71.4537721,15.7117557 Z M78.0816628,15.7117557 L79.3415098,15.7117557 C79.8162372,15.7117557 80.1631481,15.8248375 80.382253,16.0510046 C80.6013579,16.2771716 80.7109087,16.6383039 80.7109087,17.1344122 L80.7109087,18.1193282 C80.7109087,18.6154366 80.6013579,18.9765688 80.382253,19.2027359 C80.1631481,19.4289029 79.8162372,19.5419847 79.3415098,19.5419847 L78.0816628,19.5419847 L78.0816628,19.109716 L78.4103186,19.109716 L78.4103186,16.1385527 L78.0816628,16.1385527 L78.0816628,15.7117557 Z M79.2757787,19.1151878 C79.4437591,19.1151878 79.588914,19.0987727 79.7112475,19.065942 C79.8335811,19.0331113 79.9349156,18.9774823 80.0152541,18.8990534 C80.0955926,18.8206245 80.1549326,18.7157503 80.193276,18.5844275 C80.2316193,18.4531047 80.2507907,18.2871298 80.2507907,18.0864977 L80.2507907,17.1672427 C80.2507907,16.9666107 80.2316193,16.8006358 80.193276,16.669313 C80.1549326,16.5379902 80.0955926,16.4331159 80.0152541,16.354687 C79.9349156,16.2762581 79.8335811,16.2206292 79.7112475,16.1877985 C79.588914,16.1549678 79.4437591,16.1385527 79.2757787,16.1385527 L78.8704366,16.1385527 L78.8704366,19.1151878 L79.2757787,19.1151878 Z M81.3627426,17.2000733 C81.3627426,16.7039649 81.4814227,16.319122 81.7187863,16.0455328 C81.95615,15.7719437 82.2866283,15.6351511 82.7102311,15.6351511 C83.133834,15.6351511 83.4643123,15.7719437 83.701676,16.0455328 C83.9390396,16.319122 84.0577197,16.7039649 84.0577197,17.2000733 L84.0577197,18.0536672 C84.0577197,18.5643669 83.9390396,18.9528577 83.701676,19.2191511 C83.4643123,19.4854446 83.133834,19.6185893 82.7102311,19.6185893 C82.2866283,19.6185893 81.95615,19.4854446 81.7187863,19.2191511 C81.4814227,18.9528577 81.3627426,18.5643669 81.3627426,18.0536672 L81.3627426,17.2000733 Z M82.7102311,19.1917924 C83.0060228,19.1917924 83.2278632,19.0905659 83.375759,18.8881099 C83.5236548,18.6856539 83.5976016,18.3965657 83.5976016,18.0208366 L83.5976016,17.2329038 C83.5976016,16.8827097 83.5236548,16.6000051 83.375759,16.3847817 C83.2278632,16.1695582 83.0060228,16.0619481 82.7102311,16.0619481 C82.4144395,16.0619481 82.1925991,16.1695582 82.0447033,16.3847817 C81.8968075,16.6000051 81.8228607,16.8827097 81.8228607,17.2329038 L81.8228607,18.0208366 C81.8228607,18.3965657 81.8968075,18.6856539 82.0447033,18.8881099 C82.1925991,19.0905659 82.4144395,19.1917924 82.7102311,19.1917924 Z M86.0844301,19.1917924 C86.2414552,19.1917924 86.375655,19.1653458 86.4870333,19.1124519 C86.5984117,19.059558 86.689704,18.9884259 86.7609131,18.8990534 C86.8321222,18.809681 86.8850718,18.7075426 86.9197634,18.5926351 C86.954455,18.4777277 86.9718005,18.3564383 86.9718005,18.2287634 L86.9718005,18.1631023 L87.4319186,18.1631023 L87.4319186,18.2287634 C87.4319186,18.4220997 87.402705,18.6035778 87.344277,18.7732031 C87.2858491,18.9428283 87.2000343,19.0905643 87.0868301,19.2164153 C86.9736258,19.3422663 86.8330356,19.4407569 86.6650552,19.5118901 C86.4970747,19.5830233 86.303535,19.6185893 86.0844301,19.6185893 C85.6608272,19.6185893 85.3303489,19.4854446 85.0929852,19.2191511 C84.8556216,18.9528577 84.7369415,18.5643669 84.7369415,18.0536672 L84.7369415,17.2000733 C84.7369415,16.7039649 84.8556216,16.319122 85.0929852,16.0455328 C85.3303489,15.7719437 85.6608272,15.6351511 86.0844301,15.6351511 C86.303535,15.6351511 86.4970747,15.6707172 86.6650552,15.7418504 C86.8330356,15.8129836 86.9736258,15.9114742 87.0868301,16.0373252 C87.2000343,16.1631762 87.2858491,16.3109121 87.344277,16.4805374 C87.402705,16.6501627 87.4319186,16.8316408 87.4319186,17.0249771 L87.4319186,17.0906382 L86.9718005,17.0906382 L86.9718005,17.0249771 C86.9681488,16.90095 86.9489774,16.7805726 86.9142858,16.6638412 C86.8795942,16.5471098 86.8266446,16.4440595 86.7554355,16.354687 C86.6842264,16.2653146 86.593847,16.1941825 86.4842945,16.1412885 C86.3747421,16.0883946 86.2414552,16.0619481 86.0844301,16.0619481 C85.7886384,16.0619481 85.566798,16.1695582 85.4189022,16.3847817 C85.2710064,16.6000051 85.1970596,16.8827097 85.1970596,17.2329038 L85.1970596,18.0208366 C85.1970596,18.3965657 85.2710064,18.6856539 85.4189022,18.8881099 C85.566798,19.0905659 85.7886384,19.1917924 86.0844301,19.1917924 Z M88.5603033,15.7117557 L88.5603033,18.2506504 C88.5603033,18.5607181 88.6324242,18.7950893 88.7766683,18.953771 C88.9209124,19.1124527 89.1336235,19.1917924 89.4148082,19.1917924 C89.6959928,19.1917924 89.908704,19.1124527 90.0529481,18.953771 C90.1971922,18.7950893 90.2693131,18.5607181 90.2693131,18.2506504 L90.2693131,15.7117557 L90.7294311,15.7117557 L90.7294311,18.2506504 C90.7294311,18.6956887 90.6125769,19.0349342 90.378865,19.2683969 C90.1451531,19.5018597 89.823804,19.6185893 89.4148082,19.6185893 C89.0058123,19.6185893 88.6844633,19.5018597 88.4507514,19.2683969 C88.2170394,19.0349342 88.1001852,18.6956887 88.1001852,18.2506504 L88.1001852,15.7117557 L88.5603033,15.7117557 Z M91.3429219,15.7117557 L92.2193372,15.7117557 L92.7342311,19.3450015 L92.7999623,19.3450015 L93.3148563,15.7117557 L94.1912716,15.7117557 L94.1912716,19.5419847 L93.7640191,19.5419847 L93.7640191,15.9087389 L93.698288,15.9087389 L93.183394,19.5419847 L92.3507994,19.5419847 L91.8359055,15.9087389 L91.7701743,15.9087389 L91.7701743,19.5419847 L91.3429219,19.5419847 L91.3429219,15.7117557 Z M94.958135,15.7117557 L97.2806355,15.7117557 L97.2806355,16.1385527 L95.418253,16.1385527 L95.418253,17.408 L97.2477699,17.408 L97.2477699,17.8347969 L95.418253,17.8347969 L95.418253,19.1151878 L97.3135011,19.1151878 L97.3135011,19.5419847 L94.958135,19.5419847 L94.958135,15.7117557 Z M100.222104,19.3450015 L100.287836,19.3450015 L100.287836,15.7117557 L100.747954,15.7117557 L100.747954,19.5419847 L99.8277175,19.5419847 L98.7212432,15.9087389 L98.655512,15.9087389 L98.655512,19.5419847 L98.195394,19.5419847 L98.195394,15.7117557 L99.1156301,15.7117557 L100.222104,19.3450015 Z M101.476474,15.7117557 L104.171451,15.7117557 L104.171451,16.1385527 L103.054021,16.1385527 L103.054021,19.5419847 L102.593903,19.5419847 L102.593903,16.1385527 L101.476474,16.1385527 L101.476474,15.7117557 Z" id="LEGAL-DOCUMENT" fill="#4A4A4A"></path>
                            <polygon id="Rectangle-21-Copy-29" fill="#E2E2E2" points="16.548666 99.2605561 38.0293554 99.2605561 38.0293554 100.53415 16.548666 100.53415"></polygon>
                            <polygon id="Rectangle-21-Copy-30" fill="#E2E2E2" points="16.548666 97.1379004 45.1895852 97.1379004 45.1895852 98.4114939 16.548666 98.4114939"></polygon>
                            <path d="M18.4593704,94.7188942 C24.6904947,88.5117661 26.6091639,84.2845768 24.2153778,82.0373265 C21.8215917,79.7900761 21.3587136,85.7583469 22.8267434,99.9421389 L20.2250544,90.7592177 C23.693973,96.5738119 26.9199983,96.5738119 29.9031302,90.7592177 C32.8862622,84.9446236 32.0596716,85.2012767 27.4233587,91.5291771 C25.8459245,93.605386 25.0572075,96.4097066 25.0572075,99.9421389" id="Path-6" stroke="#000000" stroke-width="0.5" stroke-linecap="round" stroke-linejoin="round"></path>
                        </g>
                    </g>
                    <g id="Group-14" transform="translate(101.000000, 0.000000)" fill="#E1E1E1">
                        <path d="M7.8780715,35 C7.41116861,31.6335668 4.28764562,28.8117945 -5.83533222e-13,27.5830115 C0.127677175,23.2394385 5.05615071,19.7435897 11.1119751,19.7435897 L18.8829487,19.7435897 C25.0188948,19.7435897 29.9974619,23.3325543 29.9974619,27.7558538 L29.9974619,35 L7.8780715,35 Z" id="Combined-Shape" fill-rule="nonzero"></path>
                        <ellipse id="Oval-3-Copy-8" cx="15.8823529" cy="8.97435897" rx="8.82352941" ry="8.97435897"></ellipse>
                    </g>
                    <g id="Group-14-Copy-2" transform="translate(406.000000, 0.000000)" fill="#E1E1E1">
                        <path d="M7.8780715,35 C7.41116861,31.6335668 4.28764562,28.8117945 -1.14797061e-13,27.5830115 C0.127677175,23.2394385 5.05615071,19.7435897 11.1119751,19.7435897 L18.8829487,19.7435897 C25.0188948,19.7435897 29.9974619,23.3325543 29.9974619,27.7558538 L29.9974619,35 L7.8780715,35 Z" id="Combined-Shape" fill-rule="nonzero"></path>
                        <ellipse id="Oval-3-Copy-8" cx="15.8823529" cy="8.97435897" rx="8.82352941" ry="8.97435897"></ellipse>
                    </g>
                    <g id="Group-14" transform="translate(61.000000, 17.500000) scale(-1, 1) translate(-61.000000, -17.500000) translate(46.000000, 0.000000)" fill="#E1E1E1">
                        <path d="M7.8780715,35 C7.41116861,31.6335668 4.28764562,28.8117945 -1.13242749e-13,27.5830115 C0.127677175,23.2394385 5.05615071,19.7435897 11.1119751,19.7435897 L18.8829487,19.7435897 C25.0188948,19.7435897 29.9974619,23.3325543 29.9974619,27.7558538 L29.9974619,35 L7.8780715,35 Z" id="Combined-Shape" fill-rule="nonzero"></path>
                        <ellipse id="Oval-3-Copy-8" cx="15.8823529" cy="8.97435897" rx="8.82352941" ry="8.97435897"></ellipse>
                    </g>
                    <g id="Group-14-Copy-3" transform="translate(366.000000, 17.500000) scale(-1, 1) translate(-366.000000, -17.500000) translate(351.000000, 0.000000)" fill="#E1E1E1">
                        <path d="M7.8780715,35 C7.41116861,31.6335668 4.28764562,28.8117945 -5.83311177e-13,27.5830115 C0.127677175,23.2394385 5.05615071,19.7435897 11.1119751,19.7435897 L18.8829487,19.7435897 C25.0188948,19.7435897 29.9974619,23.3325543 29.9974619,27.7558538 L29.9974619,35 L7.8780715,35 Z" id="Combined-Shape" fill-rule="nonzero"></path>
                        <ellipse id="Oval-3-Copy-8" cx="15.8823529" cy="8.97435897" rx="8.82352941" ry="8.97435897"></ellipse>
                    </g>
                    <path d="M476,120 L441,120 L441,111.927951 C441,106.999132 446.808328,103 453.966932,103 L463.033068,103 C470.191672,103 476,106.999132 476,111.927951 L476,120 Z" id="Shape-Copy-21" fill="#E1E1E1" fill-rule="nonzero"></path>
                    <g id="Group-13" transform="translate(72.000000, 4.000000)" fill="#E1E1E1">
                        <path d="M35,41 L0,41 L0,32.9589183 C0,28.0490074 5.80832823,24.0652174 12.966932,24.0652174 L22.033068,24.0652174 C29.1916718,24.0652174 35,28.0490074 35,32.9589183 L35,41 Z" id="Shape-Copy-10" fill-rule="nonzero"></path>
                        <ellipse id="Oval-3-Copy-10" cx="16.6025641" cy="10.25" rx="10.3205128" ry="10.25"></ellipse>
                    </g>
                    <g id="Group-13-Copy-2" transform="translate(376.000000, 4.000000)" fill="#E1E1E1">
                        <path d="M35,41 L0,41 L0,32.9589183 C0,28.0490074 5.80832823,24.0652174 12.966932,24.0652174 L22.033068,24.0652174 C29.1916718,24.0652174 35,28.0490074 35,32.9589183 L35,41 Z" id="Shape-Copy-10" fill-rule="nonzero"></path>
                        <ellipse id="Oval-3-Copy-10" cx="16.6025641" cy="10.25" rx="10.3205128" ry="10.25"></ellipse>
                    </g>
                    <g id="Group-9" transform="translate(4.000000, 75.000000)" fill="#E1E1E1">
                        <g id="Group-14-Copy" transform="translate(16.194030, 17.625000) scale(-1, 1) translate(-16.194030, -17.625000) translate(0.940062, 0.000000)">
                            <path d="M7.99988516,35.192402 C7.52576284,31.8074628 4.35394279,28.9701786 -1.13686838e-13,27.7346408 C0.129651367,23.3671903 5.13433078,19.8521242 11.2837925,19.8521242 L19.1749239,19.8521242 C25.4057463,19.8521242 30.4612938,23.460818 30.4612938,27.9084333 L30.4612938,35.192402 L7.99988516,35.192402 Z" id="Combined-Shape" fill-rule="nonzero"></path>
                            <ellipse id="Oval-3-Copy-8" cx="16.1279318" cy="9.02369281" rx="8.95996209" ry="9.02369281"></ellipse>
                        </g>
                        <g id="Group-13-Copy" transform="translate(26.072021, 4.511846)">
                            <path d="M34.9438522,41.5089869 L0,41.5089869 L0,33.3680807 C0,28.3972166 5.79901037,24.3639706 12.9461302,24.3639706 L21.997722,24.3639706 C29.1448418,24.3639706 34.9438522,28.3972166 34.9438522,33.3680807 L34.9438522,41.5089869 Z" id="Shape-Copy-10" fill-rule="nonzero"></path>
                            <ellipse id="Oval-3-Copy-10" cx="16.5759299" cy="10.3772467" rx="10.3039564" ry="10.3772467"></ellipse>
                        </g>
                    </g>
                    <circle id="Oval-3-Copy-21" fill="#E1E1E1" cx="457.5" cy="89.5" r="10.5"></circle>
                    <g id="Group-7" transform="translate(5.000000, 179.000000)" fill="#E1E1E1">
                        <path d="M33,38 L0,38 L0,30.4469477 C0,25.8350291 5.47642376,22.0930233 12.2259645,22.0930233 L20.7740355,22.0930233 C27.5235762,22.0930233 33,25.8350291 33,30.4469477 L33,38 Z" id="Shape-Copy-18" fill-rule="nonzero"></path>
                        <ellipse id="Oval-3-Copy-18" cx="16.0540541" cy="9.72093023" rx="9.81081081" ry="9.72093023"></ellipse>
                    </g>
                    <g id="Group-8" transform="translate(486.000000, 205.500000) scale(-1, 1) translate(-486.000000, -205.500000) translate(455.000000, 182.000000)" fill="#E1E1E1">
                        <g id="Group-9">
                            <g id="Group-14-Copy" transform="translate(16.194030, 17.625000) scale(-1, 1) translate(-16.194030, -17.625000) translate(0.940062, 0.000000)">
                                <path d="M7.99988516,35.192402 C7.52576284,31.8074628 4.35394279,28.9701786 -1.13242749e-13,27.7346408 C0.129651367,23.3671903 5.13433078,19.8521242 11.2837925,19.8521242 L19.1749239,19.8521242 C25.4057463,19.8521242 30.4612938,23.460818 30.4612938,27.9084333 L30.4612938,35.192402 L7.99988516,35.192402 Z" id="Combined-Shape" fill-rule="nonzero"></path>
                                <ellipse id="Oval-3-Copy-8" cx="16.1279318" cy="9.02369281" rx="8.95996209" ry="9.02369281"></ellipse>
                            </g>
                            <g id="Group-13-Copy" transform="translate(26.072021, 4.511846)">
                                <path d="M34.9438522,41.5089869 L0,41.5089869 L0,33.3680807 C0,28.3972166 5.79901037,24.3639706 12.9461302,24.3639706 L21.997722,24.3639706 C29.1448418,24.3639706 34.9438522,28.3972166 34.9438522,33.3680807 L34.9438522,41.5089869 Z" id="Shape-Copy-10" fill-rule="nonzero"></path>
                                <ellipse id="Oval-3-Copy-10" cx="16.5759299" cy="10.3772467" rx="10.3039564" ry="10.3772467"></ellipse>
                            </g>
                        </g>
                    </g>
                </g>
            </g>
        </g>
    </g>
</svg>