<?xml version="1.0" encoding="UTF-8"?>
<svg width="961px" height="643px" viewBox="0 0 961 643" version="1.1" xmlns="http://www.w3.org/2000/svg" xmlns:xlink="http://www.w3.org/1999/xlink">
    <!-- Generator: Sketch 52.2 (67145) - http://www.bohemiancoding.com/sketch -->
    <title>Group 35</title>
    <desc>Created with Sketch.</desc>
    <defs>
        <polygon id="path-1" points="6.23660483e-14 1.8189894e-13 194.64277 1.8189894e-13 227.2 29.3038579 227.2 175.2 -3.42138596e-14 175.2"></polygon>
        <filter x="-5.7%" y="-6.3%" width="111.4%" height="114.8%" filterUnits="objectBoundingBox" id="filter-2">
            <feMorphology radius="1.5" operator="dilate" in="SourceAlpha" result="shadowSpreadOuter1"></feMorphology>
            <feOffset dx="0" dy="2" in="shadowSpreadOuter1" result="shadowOffsetOuter1"></feOffset>
            <feGaussianBlur stdDeviation="2.5" in="shadowOffsetOuter1" result="shadowBlurOuter1"></feGaussianBlur>
            <feComposite in="shadowBlurOuter1" in2="SourceAlpha" operator="out" result="shadowBlurOuter1"></feComposite>
            <feColorMatrix values="0 0 0 0 0.24346301   0 0 0 0 0.24346301   0 0 0 0 0.24346301  0 0 0 0.0766530797 0" type="matrix" in="shadowBlurOuter1" result="shadowMatrixOuter1"></feColorMatrix>
            <feOffset dx="0" dy="1" in="SourceAlpha" result="shadowOffsetOuter2"></feOffset>
            <feGaussianBlur stdDeviation="1" in="shadowOffsetOuter2" result="shadowBlurOuter2"></feGaussianBlur>
            <feComposite in="shadowBlurOuter2" in2="SourceAlpha" operator="out" result="shadowBlurOuter2"></feComposite>
            <feColorMatrix values="0 0 0 0 0   0 0 0 0 0   0 0 0 0 0  0 0 0 0.0586786685 0" type="matrix" in="shadowBlurOuter2" result="shadowMatrixOuter2"></feColorMatrix>
            <feMerge>
                <feMergeNode in="shadowMatrixOuter1"></feMergeNode>
                <feMergeNode in="shadowMatrixOuter2"></feMergeNode>
            </feMerge>
        </filter>
        <polygon id="path-3" points="5.31841557e-14 2.27373675e-13 220 2.27373675e-13 220 332.884718 -4.03351214e-14 332.884718"></polygon>
        <filter x="-5.9%" y="-3.3%" width="111.8%" height="107.8%" filterUnits="objectBoundingBox" id="filter-4">
            <feMorphology radius="1.5" operator="dilate" in="SourceAlpha" result="shadowSpreadOuter1"></feMorphology>
            <feOffset dx="0" dy="2" in="shadowSpreadOuter1" result="shadowOffsetOuter1"></feOffset>
            <feGaussianBlur stdDeviation="2.5" in="shadowOffsetOuter1" result="shadowBlurOuter1"></feGaussianBlur>
            <feComposite in="shadowBlurOuter1" in2="SourceAlpha" operator="out" result="shadowBlurOuter1"></feComposite>
            <feColorMatrix values="0 0 0 0 0.24346301   0 0 0 0 0.24346301   0 0 0 0 0.24346301  0 0 0 0.0766530797 0" type="matrix" in="shadowBlurOuter1" result="shadowMatrixOuter1"></feColorMatrix>
            <feOffset dx="0" dy="1" in="SourceAlpha" result="shadowOffsetOuter2"></feOffset>
            <feGaussianBlur stdDeviation="1" in="shadowOffsetOuter2" result="shadowBlurOuter2"></feGaussianBlur>
            <feComposite in="shadowBlurOuter2" in2="SourceAlpha" operator="out" result="shadowBlurOuter2"></feComposite>
            <feColorMatrix values="0 0 0 0 0   0 0 0 0 0   0 0 0 0 0  0 0 0 0.0586786685 0" type="matrix" in="shadowBlurOuter2" result="shadowMatrixOuter2"></feColorMatrix>
            <feMerge>
                <feMergeNode in="shadowMatrixOuter1"></feMergeNode>
                <feMergeNode in="shadowMatrixOuter2"></feMergeNode>
            </feMerge>
        </filter>
        <polygon id="path-5" points="6.23660483e-14 1.8189894e-13 194.64277 1.8189894e-13 227.2 29.3038579 227.2 175.2 -3.42138596e-14 175.2"></polygon>
        <filter x="-5.7%" y="-6.3%" width="111.4%" height="114.8%" filterUnits="objectBoundingBox" id="filter-6">
            <feMorphology radius="1.5" operator="dilate" in="SourceAlpha" result="shadowSpreadOuter1"></feMorphology>
            <feOffset dx="0" dy="2" in="shadowSpreadOuter1" result="shadowOffsetOuter1"></feOffset>
            <feGaussianBlur stdDeviation="2.5" in="shadowOffsetOuter1" result="shadowBlurOuter1"></feGaussianBlur>
            <feComposite in="shadowBlurOuter1" in2="SourceAlpha" operator="out" result="shadowBlurOuter1"></feComposite>
            <feColorMatrix values="0 0 0 0 0.24346301   0 0 0 0 0.24346301   0 0 0 0 0.24346301  0 0 0 0.0766530797 0" type="matrix" in="shadowBlurOuter1" result="shadowMatrixOuter1"></feColorMatrix>
            <feOffset dx="0" dy="1" in="SourceAlpha" result="shadowOffsetOuter2"></feOffset>
            <feGaussianBlur stdDeviation="1" in="shadowOffsetOuter2" result="shadowBlurOuter2"></feGaussianBlur>
            <feComposite in="shadowBlurOuter2" in2="SourceAlpha" operator="out" result="shadowBlurOuter2"></feComposite>
            <feColorMatrix values="0 0 0 0 0   0 0 0 0 0   0 0 0 0 0  0 0 0 0.0586786685 0" type="matrix" in="shadowBlurOuter2" result="shadowMatrixOuter2"></feColorMatrix>
            <feMerge>
                <feMergeNode in="shadowMatrixOuter1"></feMergeNode>
                <feMergeNode in="shadowMatrixOuter2"></feMergeNode>
            </feMerge>
        </filter>
        <path d="M0,2.00835368 C0,0.899170572 0.900626183,0 2.0096451,0 L509.990355,0 C511.100251,0 512,0.893320341 512,2.00835368 L512,299.991646 C512,301.100829 511.099374,302 509.990355,302 L2.0096451,302 C0.899748761,302 0,301.10668 0,299.991646 L0,2.00835368 Z" id="path-7"></path>
        <filter x="-2.5%" y="-3.6%" width="105.1%" height="108.6%" filterUnits="objectBoundingBox" id="filter-9">
            <feMorphology radius="1.5" operator="dilate" in="SourceAlpha" result="shadowSpreadOuter1"></feMorphology>
            <feOffset dx="0" dy="2" in="shadowSpreadOuter1" result="shadowOffsetOuter1"></feOffset>
            <feGaussianBlur stdDeviation="2.5" in="shadowOffsetOuter1" result="shadowBlurOuter1"></feGaussianBlur>
            <feComposite in="shadowBlurOuter1" in2="SourceAlpha" operator="out" result="shadowBlurOuter1"></feComposite>
            <feColorMatrix values="0 0 0 0 0.24346301   0 0 0 0 0.24346301   0 0 0 0 0.24346301  0 0 0 0.0766530797 0" type="matrix" in="shadowBlurOuter1" result="shadowMatrixOuter1"></feColorMatrix>
            <feOffset dx="0" dy="1" in="SourceAlpha" result="shadowOffsetOuter2"></feOffset>
            <feGaussianBlur stdDeviation="1" in="shadowOffsetOuter2" result="shadowBlurOuter2"></feGaussianBlur>
            <feComposite in="shadowBlurOuter2" in2="SourceAlpha" operator="out" result="shadowBlurOuter2"></feComposite>
            <feColorMatrix values="0 0 0 0 0   0 0 0 0 0   0 0 0 0 0  0 0 0 0.0586786685 0" type="matrix" in="shadowBlurOuter2" result="shadowMatrixOuter2"></feColorMatrix>
            <feMerge>
                <feMergeNode in="shadowMatrixOuter1"></feMergeNode>
                <feMergeNode in="shadowMatrixOuter2"></feMergeNode>
            </feMerge>
        </filter>
        <polygon id="path-10" points="0.0549187722 0 99.4232854 0 119.138231 17.7627105 119.138231 156.664411 0.0549187722 156.664411"></polygon>
        <filter x="-5.0%" y="-1.3%" width="106.7%" height="105.1%" filterUnits="objectBoundingBox" id="filter-11">
            <feOffset dx="-2" dy="2" in="SourceAlpha" result="shadowOffsetOuter1"></feOffset>
            <feGaussianBlur stdDeviation="1" in="shadowOffsetOuter1" result="shadowBlurOuter1"></feGaussianBlur>
            <feComposite in="shadowBlurOuter1" in2="SourceAlpha" operator="out" result="shadowBlurOuter1"></feComposite>
            <feColorMatrix values="0 0 0 0 0.654761905   0 0 0 0 0.654761905   0 0 0 0 0.654761905  0 0 0 0.5 0" type="matrix" in="shadowBlurOuter1"></feColorMatrix>
        </filter>
    </defs>
    <g id="Web-design" stroke="none" stroke-width="1" fill="none" fill-rule="evenodd">
        <g id="Producto-xchcek" transform="translate(-457.000000, -93.000000)">
            <g id="Group-35" transform="translate(457.000000, 93.000000)">
                <g id="Group-Copy" opacity="0.102008929" transform="translate(449.000000, 0.000000)">
                    <polyline id="Path-5-Copy" stroke="#9B9B9B" stroke-width="1.44" points="116.8 317.6 116.8 428 190.4 428 190.4 341.993623"></polyline>
                    <polyline id="Path-8-Copy" stroke="#4A4A4A" stroke-width="2.4" points="45.1136445 106.4 45.1136445 166.57298 7.2 213.973019 7.2 416.8 58.4 416.8"></polyline>
                    <polyline id="Path-4-Copy" stroke="#4A4A4A" stroke-width="2.4" points="107.428212 48 107.428212 210.006356 144 255.729466 144 417.6 70.4 417.6"></polyline>
                    <polyline id="Path-6-Copy" stroke="#9B9B9B" stroke-width="1.44" points="48.8 8.8 48.8 68.8640717 86.4 116.682498 86.4 280.594103 62.568661 304.334704 62.568661 412.8"></polyline>
                    <polygon id="Rectangle-Copy-15" fill="#9B9B9B" points="110.4 311.2 123.2 311.2 123.2 323.2 110.4 323.2"></polygon>
                    <polygon id="Rectangle-Copy-16" fill="#4A4A4A" points="0 350.4 14.4 350.4 14.4 364.8 0 364.8"></polygon>
                    <polygon id="Rectangle-Copy-17" fill="#4A4A4A" points="152.8 234.4 171.2 234.4 171.2 252.8 152.8 252.8"></polygon>
                    <polygon id="Rectangle-Copy-18" fill="#4A4A4A" points="156.8 373.6 167.2 373.6 167.2 384 156.8 384"></polygon>
                    <polygon id="Rectangle-Copy-28" fill="#4A4A4A" points="160 424 165.6 424 165.6 429.6 160 429.6"></polygon>
                    <polygon id="Rectangle-Copy-19" fill="#4A4A4A" points="96.8 327.2 102.4 327.2 102.4 332 96.8 332"></polygon>
                    <polygon id="Rectangle-Copy-20" fill="#4A4A4A" points="54.4 408.8 72 408.8 72 425.6 54.4 425.6"></polygon>
                    <polygon id="Rectangle-Copy-22" fill="#9B9B9B" points="186.4 337.6 194.4 337.6 194.4 345.6 186.4 345.6"></polygon>
                    <polygon id="Rectangle-Copy-24" fill="#4A4A4A" points="100.8 40 114.4 40 114.4 53.6 100.8 53.6"></polygon>
                    <polygon id="Rectangle-Copy-25" fill="#9B9B9B" points="43.2 0 56 0 56 12 43.2 12"></polygon>
                    <polygon id="Rectangle-Copy-26" fill="#4A4A4A" points="38.4 97.6 51.2 97.6 51.2 110.4 38.4 110.4"></polygon>
                    <polygon id="Rectangle-Copy-27" fill="#4A4A4A" points="34.4 228 47.2 228 47.2 240 34.4 240"></polygon>
                    <polyline id="Path-11-Copy" stroke="#4A4A4A" stroke-width="0.96" transform="translate(88.400000, 375.200000) scale(-1, 1) translate(-88.400000, -375.200000) " points="77.6 331.2 77.6 360.919157 99.2 386.951896 99.2 419.2"></polyline>
                </g>
                <g id="Group-16-Copy-3" transform="translate(612.000000, 58.000000)">
                    <g id="Group-2">
                        <g id="Group-2-Copy" transform="translate(92.698043, 118.180882) scale(-1, 1) rotate(-91.000000) translate(-92.698043, -118.180882) translate(-23.301957, 27.680882)">
                            <g id="Group" transform="translate(115.863062, 90.098765) rotate(1.000000) translate(-115.863062, -90.098765) translate(1.863062, 2.098765)">
                                <g id="Rectangle-21">
                                    <use fill="black" fill-opacity="1" filter="url(#filter-2)" xlink:href="#path-1"></use>
                                    <path stroke="#EBEBEB" stroke-width="0.5" d="M0.25,0.25 L0.25,174.95 L226.95,174.95 L226.95,29.4151925 L194.54683,0.25 L0.25,0.25 Z" stroke-linejoin="square" fill="#FFFFFF" fill-rule="evenodd"></path>
                                </g>
                                <polyline id="Path-3" stroke="#DEDEDE" opacity="0.769999981" points="193.6 0.8 193.6 30.4 226.362386 30.3946954"></polyline>
                            </g>
                        </g>
                        <g id="Group-11" opacity="0.303404018" transform="translate(72.000000, 24.000000)">
                            <path d="M12.9727436,3.19332998 C15.2205375,3.87489613 17.0565658,3.35601289 18.4808285,1.63668025 C20.6172227,-0.942318697 22.7498575,-0.109416741 23.9787635,1.63668025 C25.2076694,3.38277725 27.6726239,5.08336249 31.1164927,4.23306987 C34.5603616,3.38277725 35.3851458,5.52737953 35.3851458,7.58058831 C35.3851458,9.63379708 35.6441596,12.0503598 38.9466798,13.0645687 C42.2492001,14.0787776 42.0909347,17.449977 40.5188073,18.7091353 C38.9466798,19.9682936 38.5921805,23.7953504 40.5188073,25.0700493 C42.445434,26.3447482 41.5330588,30.7305265 38.4591023,30.7305265 C35.3851458,30.7305265 34.4002166,34.4391788 34.4002166,36.1482744 C34.4002166,37.8573699 33.0562769,40.5603237 29.6526323,39.2567636 C26.2489877,37.9532036 24.4646842,38.7245543 23.0693956,40.621746 C21.9946198,42.0831324 21.5107555,42.229228 20.3113654,42.3761018 C19.1890247,42.5135402 18.2071673,42.0831324 17.0707257,40.4322987 C14.5647952,36.7920991 12.4193788,38.4401423 10.8089068,38.4401423 C9.19843474,38.4401423 5.62900622,38.4024009 6.24402308,34.5664637 C6.65403432,32.0091722 5.63815379,30.4014606 3.19638148,29.7433286 C0.181946779,28.3380147 -0.700354299,26.4518057 0.549478246,24.0847015 C2.42422706,20.5340453 1.92010872,19.2216049 0.549478246,16.5756334 C-0.821152231,13.9296619 0.549478246,12.2938291 3.10014412,11.7795094 C3.49744451,11.6993972 7.52631067,10.6278402 7.16579651,6.36157653 C7.10278742,5.61593757 7.36335982,3.54470302 8.77664446,2.93191495 C9.40093693,2.66122709 10.7996366,2.74836544 12.9727436,3.19332998 Z" id="Path-5" fill="#9B9B9B"></path>
                            <circle id="Oval" fill="#EDEDED" cx="20.4" cy="21.2" r="15.6"></circle>
                            <circle id="Oval-Copy-4" stroke="#FFFFFF" stroke-width="1.60512" cx="20.4" cy="21.2" r="14"></circle>
                        </g>
                    </g>
                    <g id="Group-18" transform="translate(95.400000, 194.600000)">
                        <polygon id="Rectangle-21-Copy-29" fill="#E2E2E2" points="0 21.6 40.8 21.6 40.8 24 0 24"></polygon>
                        <polygon id="Rectangle-21-Copy-30" fill="#E2E2E2" points="0 17.6 54.4 17.6 54.4 20 0 20"></polygon>
                        <path d="M1.07164179,13.1216049 L73.3283582,13.1216049" id="Line-5-Copy-2" stroke="#979797" stroke-width="0.5" stroke-linecap="square"></path>
                        <g id="Group-10" transform="translate(1.600000, 0.000000)" stroke="#000000" stroke-width="0.8">
                            <g id="Group-2" transform="translate(5.782874, 4.752774) rotate(-10.000000) translate(-5.782874, -4.752774) translate(1.282874, 1.252774)">
                                <path d="M8.81915833,0.757925922 L0.349254009,6.50982429" id="Path-13"></path>
                            </g>
                            <g id="Group-2-Copy" transform="translate(6.220246, 4.752774) scale(-1, 1) rotate(-10.000000) translate(-6.220246, -4.752774) translate(1.720246, 1.252774)">
                                <path d="M8.81915833,0.757925922 L0.349254009,6.50982429" id="Path-13"></path>
                            </g>
                        </g>
                    </g>
                    <g id="Group-17" transform="translate(18.000000, 88.000000)" fill="#EBEBEB">
                        <polygon id="Rectangle-21-Copy-31" points="0 15.2 150.663123 15.2 150.663123 20.594909 0 20.594909"></polygon>
                        <polygon id="Rectangle-21-Copy-39" points="0 56.2482759 150.663123 56.2482759 150.663123 61.6431849 0 61.6431849"></polygon>
                        <polygon id="Rectangle-21-Copy-37" points="0 31.2 150.663123 31.2 150.663123 36.594909 0 36.594909"></polygon>
                        <polygon id="Rectangle-21-Copy-43" points="0 39.2 150.663123 39.2 150.663123 44.594909 0 44.594909"></polygon>
                        <polygon id="Rectangle-21-Copy-40" points="0 71.4482759 150.663123 71.4482759 150.663123 76.8431849 0 76.8431849"></polygon>
                        <polygon id="Rectangle-21-Copy-36" points="0 23.2 150.663123 23.2 150.663123 28.594909 0 28.594909"></polygon>
                        <polygon id="Rectangle-21-Copy-41" points="0 63.4482759 150.663123 63.4482759 150.663123 68.8431849 0 68.8431849"></polygon>
                        <polygon id="Rectangle-21-Copy-11" points="0 0 150.663123 0 150.663123 5.39490902 0 5.39490902"></polygon>
                        <polygon id="Rectangle-21-Copy-12" points="0 7.2 150.663123 7.2 150.663123 12.594909 0 12.594909"></polygon>
                    </g>
                </g>
                <g id="Group" opacity="0.115848214" transform="translate(304.500000, 491.539267) rotate(-90.000000) translate(-304.500000, -491.539267) translate(153.500000, 187.039267)">
                    <polyline id="Path-3-Copy" stroke="#4A4A4A" stroke-width="2.4" points="175.964557 179.617801 175.964557 238.890344 217.319311 289.787588 217.319311 531.413613 301.064359 531.413613"></polyline>
                    <polyline id="Path-5-Copy" stroke="#9B9B9B" stroke-width="1.44" points="155.34371 423.005236 155.34371 569.675393 254.323773 569.675393 254.323773 455.412994"></polyline>
                    <polyline id="Path-7-Copy" stroke="#4A4A4A" stroke-width="1.44" points="53.6142009 314.596859 53.6142009 599.434555 217.20625 599.434555 217.20625 566.470465"></polyline>
                    <polyline id="Path-8-Copy" stroke="#4A4A4A" stroke-width="2.4" points="60.5222443 141.356021 60.5222443 221.503908 9.6230617 284.638774 9.6230617 554.795812 78.3592167 554.795812"></polyline>
                    <polyline id="Path-4-Copy" stroke="#4A4A4A" stroke-width="2.4" points="144.652834 63.7696335 144.652834 279.466458 193.835957 340.342649 193.835957 555.858639 94.8558939 555.858639"></polyline>
                    <polyline id="Path-6-Copy" stroke="#9B9B9B" stroke-width="1.44" points="64.6119857 11.6910995 64.6119857 91.646277 115.47674 155.300482 115.47674 373.49384 83.2380379 405.096492 83.2380379 549.481675"></polyline>
                    <polygon id="Rectangle-Copy-15" fill="#9B9B9B" points="147.095372 414.502618 164.966772 414.502618 164.966772 430.445026 147.095372 430.445026"></polygon>
                    <polygon id="Rectangle-Copy-16" fill="#4A4A4A" points="0 466.581152 19.2461234 466.581152 19.2461234 485.712042 0 485.712042"></polygon>
                    <polygon id="Rectangle-Copy-17" fill="#4A4A4A" points="204.833742 312.471204 229.578758 312.471204 229.578758 336.91623 204.833742 336.91623"></polygon>
                    <polygon id="Rectangle-Copy-18" fill="#4A4A4A" points="210.332634 496.340314 224.079865 496.340314 224.079865 510.157068 210.332634 510.157068"></polygon>
                    <polygon id="Rectangle-Copy-28" fill="#4A4A4A" points="214.456804 564.361257 222.705142 564.361257 222.705142 571.801047 214.456804 571.801047"></polygon>
                    <polygon id="Rectangle-Copy-20" fill="#4A4A4A" points="72.8603243 544.167539 96.230617 544.167539 96.230617 566.486911 72.8603243 566.486911"></polygon>
                    <polygon id="Rectangle-Copy-21" fill="#4A4A4A" points="166.341495 593.057592 182.838172 593.057592 182.838172 609 166.341495 609"></polygon>
                    <polygon id="Rectangle-Copy-22" fill="#9B9B9B" points="248.824881 449.575916 259.822666 449.575916 259.822666 460.204188 248.824881 460.204188"></polygon>
                    <polygon id="Rectangle-Copy-23" fill="#4A4A4A" points="166.341495 167.926702 184.212895 167.926702 184.212895 183.86911 166.341495 183.86911"></polygon>
                    <polygon id="Rectangle-Copy-24" fill="#4A4A4A" points="134.722864 53.1413613 153.968987 53.1413613 153.968987 71.2094241 134.722864 71.2094241"></polygon>
                    <polygon id="Rectangle-Copy-25" fill="#9B9B9B" points="57.7383702 0 75.6097705 0 75.6097705 15.9424084 57.7383702 15.9424084"></polygon>
                    <polygon id="Rectangle-Copy-26" fill="#4A4A4A" points="52.2394778 130.727749 70.1108781 130.727749 70.1108781 147.732984 52.2394778 147.732984"></polygon>
                    <polygon id="Rectangle-Copy-27" fill="#4A4A4A" points="46.7405854 302.905759 64.6119857 302.905759 64.6119857 318.848168 46.7405854 318.848168"></polygon>
                </g>
                <g id="Group-Copy-2" opacity="0.102008929" transform="translate(846.600000, 379.600000) scale(-1, -1) rotate(-360.000000) translate(-846.600000, -379.600000) translate(732.600000, 176.600000)">
                    <polyline id="Path-3-Copy" stroke="#4A4A4A" stroke-width="2.4" points="132.979775 119.2 132.979775 158.693034 164.258771 192.605644 164.258771 353.6 227.6 353.6"></polyline>
                    <polyline id="Path-5-Copy" stroke="#9B9B9B" stroke-width="1.44" points="118.48839 281.6 118.48839 379.2 192.650187 379.2 192.650187 303.165377"></polyline>
                    <polyline id="Path-7-Copy" stroke="#4A4A4A" stroke-width="1.44" points="40.9168539 209.6 40.9168539 400 164.51985 400 164.51985 377.965126"></polyline>
                    <polyline id="Path-8-Copy" stroke="#4A4A4A" stroke-width="2.4" points="46.176846 94.4 46.176846 147.74924 7.67191011 189.774017 7.67191011 369.6 59.670412 369.6"></polyline>
                    <polyline id="Path-4-Copy" stroke="#4A4A4A" stroke-width="2.4" points="108.915347 42.4 108.915347 186.171874 145.766292 226.748661 145.766292 370.4 71.6044944 370.4"></polyline>
                    <polyline id="Path-6-Copy" stroke="#9B9B9B" stroke-width="1.44" points="49.4411985 8 49.4411985 61.2845626 87.8007491 103.705661 87.8007491 249.116353 63.4879976 270.177321 63.4879976 366.4"></polyline>
                    <polygon id="Rectangle-Copy-15" fill="#9B9B9B" points="111.668914 276 124.455431 276 124.455431 286.4 111.668914 286.4"></polygon>
                    <polygon id="Rectangle-Copy-16" fill="#4A4A4A" points="0 310.4 14.4913858 310.4 14.4913858 323.2 0 323.2"></polygon>
                    <polygon id="Rectangle-Copy-18" fill="#4A4A4A" points="158.552809 331.2 168.782022 331.2 168.782022 340.8 158.552809 340.8"></polygon>
                    <polygon id="Rectangle-Copy-28" fill="#4A4A4A" points="161.962547 376 167.929588 376 167.929588 380.8 161.962547 380.8"></polygon>
                    <polygon id="Rectangle-Copy-19" fill="#4A4A4A" points="98.0299625 290.4 103.997004 290.4 103.997004 294.4 98.0299625 294.4"></polygon>
                    <polygon id="Rectangle-Copy-20" fill="#4A4A4A" points="55.4082397 362.4 73.3093633 362.4 73.3093633 377.6 55.4082397 377.6"></polygon>
                    <polygon id="Rectangle-Copy-21" fill="#4A4A4A" points="126.1603 395.2 138.094382 395.2 138.094382 405.6 126.1603 405.6"></polygon>
                    <polygon id="Rectangle-Copy-22" fill="#9B9B9B" points="188.388015 299.2 196.91236 299.2 196.91236 306.4 188.388015 306.4"></polygon>
                    <polygon id="Rectangle-Copy-23" fill="#4A4A4A" points="126.1603 111.2 138.946816 111.2 138.946816 121.6 126.1603 121.6"></polygon>
                    <polygon id="Rectangle-Copy-24" fill="#4A4A4A" points="102.292135 35.2 115.931086 35.2 115.931086 47.2 102.292135 47.2"></polygon>
                    <polygon id="Rectangle-Copy-25" fill="#9B9B9B" points="43.4741573 0 56.2606742 0 56.2606742 10.4 43.4741573 10.4"></polygon>
                    <polygon id="Rectangle-Copy-26" fill="#4A4A4A" points="39.211985 86.4 51.9985019 86.4 51.9985019 97.6 39.211985 97.6"></polygon>
                    <polygon id="Rectangle-Copy-27" fill="#4A4A4A" points="34.9498127 202.4 47.7363296 202.4 47.7363296 212.8 34.9498127 212.8"></polygon>
                    <polyline id="Path-11-Copy" stroke="#4A4A4A" stroke-width="0.96" transform="translate(89.505618, 332.800000) scale(-1, 1) translate(-89.505618, -332.800000) " points="78.42397 293.6 78.42397 320.077067 100.587266 343.269871 100.587266 372"></polyline>
                </g>
                <g id="Group-22" transform="translate(97.000000, 47.000000)">
                    <g id="Group-16-Copy-2">
                        <g id="Group-2">
                            <g id="Group-2-Copy" transform="translate(171.347372, 117.204897) scale(-1, 1) rotate(-91.000000) translate(-171.347372, -117.204897) translate(57.847372, -51.795103)">
                                <g id="Group" transform="translate(113.699079, 169.257013) rotate(1.000000) translate(-113.699079, -169.257013) translate(3.699079, 2.757013)">
                                    <g id="Rectangle-21">
                                        <use fill="black" fill-opacity="1" filter="url(#filter-4)" xlink:href="#path-3"></use>
                                        <path stroke="#EBEBEB" stroke-width="0.5" d="M0.25,0.25 L0.25,332.634718 L219.75,332.634718 L219.75,0.25 L0.25,0.25 Z" stroke-linejoin="square" fill="#FFFFFF" fill-rule="evenodd"></path>
                                    </g>
                                </g>
                            </g>
                        </g>
                    </g>
                    <g id="Group-21" transform="translate(27.000000, 59.000000)" fill="#EBEBEB">
                        <g id="Group-19">
                            <polygon id="Rectangle-21-Copy-46" points="-3.83693077e-13 -7.10542736e-15 136.468294 -7.10542736e-15 136.468294 6.20125266 -3.83693077e-13 6.20125266"></polygon>
                            <polygon id="Rectangle-21-Copy-48" points="-3.83693077e-13 16.4025053 136.468294 16.4025053 136.468294 22.603758 -3.83693077e-13 22.603758"></polygon>
                            <polygon id="Rectangle-21-Copy-52" points="-3.83693077e-13 32.8050106 136.468294 32.8050106 136.468294 39.0062633 -3.83693077e-13 39.0062633"></polygon>
                            <polygon id="Rectangle-21-Copy-50" points="-3.83693077e-13 8.20125266 136.468294 8.20125266 136.468294 14.4025053 -3.83693077e-13 14.4025053"></polygon>
                            <polygon id="Rectangle-21-Copy-54" points="-3.83693077e-13 24.603758 136.468294 24.603758 136.468294 30.8050106 -3.83693077e-13 30.8050106"></polygon>
                            <polygon id="Rectangle-21-Copy-55" points="-1.38555833e-13 41.0062633 57.0134048 41.0062633 57.0134048 47.2041721 -1.38555833e-13 47.2041721"></polygon>
                        </g>
                        <g id="Group-19-Copy" transform="translate(0.000000, 62.000000)">
                            <polygon id="Rectangle-21-Copy-46" points="-3.83693077e-13 -7.10542736e-15 136.468294 -7.10542736e-15 136.468294 6.20125266 -3.83693077e-13 6.20125266"></polygon>
                            <polygon id="Rectangle-21-Copy-48" points="-3.83693077e-13 16.4025053 136.468294 16.4025053 136.468294 22.603758 -3.83693077e-13 22.603758"></polygon>
                            <polygon id="Rectangle-21-Copy-52" points="-3.83693077e-13 32.8050106 136.468294 32.8050106 136.468294 39.0062633 -3.83693077e-13 39.0062633"></polygon>
                            <polygon id="Rectangle-21-Copy-50" points="-3.83693077e-13 8.20125266 136.468294 8.20125266 136.468294 14.4025053 -3.83693077e-13 14.4025053"></polygon>
                            <polygon id="Rectangle-21-Copy-54" points="-3.83693077e-13 24.603758 136.468294 24.603758 136.468294 30.8050106 -3.83693077e-13 30.8050106"></polygon>
                            <polygon id="Rectangle-21-Copy-55" points="-1.38555833e-13 41.0062633 57.0134048 41.0062633 57.0134048 47.2041721 -1.38555833e-13 47.2041721"></polygon>
                        </g>
                    </g>
                    <g id="Group-21-Copy" transform="translate(177.000000, 59.000000)" fill="#EBEBEB">
                        <g id="Group-19">
                            <polygon id="Rectangle-21-Copy-46" points="-3.83693077e-13 -7.10542736e-15 136.468294 -7.10542736e-15 136.468294 6.20125266 -3.83693077e-13 6.20125266"></polygon>
                            <polygon id="Rectangle-21-Copy-48" points="-3.83693077e-13 16.4025053 136.468294 16.4025053 136.468294 22.603758 -3.83693077e-13 22.603758"></polygon>
                            <polygon id="Rectangle-21-Copy-52" points="-3.83693077e-13 32.8050106 136.468294 32.8050106 136.468294 39.0062633 -3.83693077e-13 39.0062633"></polygon>
                            <polygon id="Rectangle-21-Copy-50" points="-3.83693077e-13 8.20125266 136.468294 8.20125266 136.468294 14.4025053 -3.83693077e-13 14.4025053"></polygon>
                            <polygon id="Rectangle-21-Copy-54" points="-3.83693077e-13 24.603758 136.468294 24.603758 136.468294 30.8050106 -3.83693077e-13 30.8050106"></polygon>
                            <polygon id="Rectangle-21-Copy-55" points="-1.38555833e-13 41.0062633 57.0134048 41.0062633 57.0134048 47.2041721 -1.38555833e-13 47.2041721"></polygon>
                        </g>
                        <g id="Group-19-Copy" transform="translate(0.000000, 62.000000)">
                            <polygon id="Rectangle-21-Copy-46" points="-3.83693077e-13 -7.10542736e-15 136.468294 -7.10542736e-15 136.468294 6.20125266 -3.83693077e-13 6.20125266"></polygon>
                            <polygon id="Rectangle-21-Copy-48" points="-3.83693077e-13 16.4025053 136.468294 16.4025053 136.468294 22.603758 -3.83693077e-13 22.603758"></polygon>
                            <polygon id="Rectangle-21-Copy-52" points="-3.83693077e-13 32.8050106 136.468294 32.8050106 136.468294 39.0062633 -3.83693077e-13 39.0062633"></polygon>
                            <polygon id="Rectangle-21-Copy-50" points="-3.83693077e-13 8.20125266 136.468294 8.20125266 136.468294 14.4025053 -3.83693077e-13 14.4025053"></polygon>
                            <polygon id="Rectangle-21-Copy-54" points="-3.83693077e-13 24.603758 136.468294 24.603758 136.468294 30.8050106 -3.83693077e-13 30.8050106"></polygon>
                            <polygon id="Rectangle-21-Copy-55" points="-1.38555833e-13 41.0062633 57.0134048 41.0062633 57.0134048 47.2041721 -1.38555833e-13 47.2041721"></polygon>
                        </g>
                    </g>
                    <path d="M226.128023,35.4722222 L314,35.4722222" id="Line-5-Copy-3" stroke="#979797" stroke-width="0.5" stroke-linecap="square"></path>
                    <path d="M26.8284182,35.4722222 L116.897523,35.4722222" id="Line-5-Copy-4" stroke="#979797" stroke-width="0.5" stroke-linecap="square"></path>
                    <path d="M129.53,31 L130.37,31 L130.37,37.22 L134.03,37.22 L134.03,38 L129.53,38 L129.53,31 Z M135.72,31 L139.96,31 L139.96,31.78 L136.56,31.78 L136.56,34.1 L139.9,34.1 L139.9,34.88 L136.56,34.88 L136.56,37.22 L140.02,37.22 L140.02,38 L135.72,38 L135.72,31 Z M143.29,34.64 L146.41,34.64 L146.41,38 L145.63,38 L145.63,37.16 L145.51,37.16 C145.396666,37.4533348 145.196668,37.6899991 144.91,37.87 C144.623332,38.0500009 144.290002,38.14 143.91,38.14 C143.156663,38.14 142.565002,37.8966691 142.135,37.41 C141.704998,36.9233309 141.49,36.213338 141.49,35.28 L141.49,33.72 C141.49,32.8133288 141.706664,32.1100025 142.14,31.61 C142.573335,31.1099975 143.176663,30.86 143.95,30.86 C144.350002,30.86 144.703332,30.9249994 145.01,31.055 C145.316668,31.1850006 145.573332,31.3649988 145.78,31.595 C145.986668,31.8250011 146.143333,32.0949984 146.25,32.405 C146.356667,32.7150015 146.41,33.0466649 146.41,33.4 L146.41,33.52 L145.57,33.52 L145.57,33.4 C145.57,33.1733322 145.538334,32.9533344 145.475,32.74 C145.411666,32.5266656 145.315001,32.3383342 145.185,32.175 C145.054999,32.0116658 144.888334,31.8816671 144.685,31.785 C144.481666,31.6883329 144.236668,31.64 143.95,31.64 C143.409997,31.64 143.005001,31.8366647 142.735,32.23 C142.464999,32.6233353 142.33,33.1399968 142.33,33.78 L142.33,35.22 C142.33,35.9066701 142.464999,36.4349981 142.735,36.805 C143.005001,37.1750019 143.416664,37.36 143.97,37.36 C144.470002,37.36 144.861665,37.2000016 145.145,36.88 C145.428335,36.5599984 145.57,36.1133362 145.57,35.54 L145.57,35.42 L143.29,35.42 L143.29,34.64 Z M151.58,36.26 L148.58,36.26 L148.07,38 L147.17,38 L149.29,31 L150.87,31 L152.99,38 L152.09,38 L151.58,36.26 Z M150.02,31.36 L148.81,35.48 L151.35,35.48 L150.14,31.36 L150.02,31.36 Z M154.01,31 L154.85,31 L154.85,37.22 L158.51,37.22 L158.51,38 L154.01,38 L154.01,31 Z M166.11,31 L168.41,31 C169.276671,31 169.909998,31.2066646 170.31,31.62 C170.710002,32.0333354 170.91,32.6933288 170.91,33.6 L170.91,35.4 C170.91,36.3066712 170.710002,36.9666646 170.31,37.38 C169.909998,37.7933354 169.276671,38 168.41,38 L166.11,38 L166.11,37.21 L166.71,37.21 L166.71,31.78 L166.11,31.78 L166.11,31 Z M168.29,37.22 C168.596668,37.22 168.861666,37.1900003 169.085,37.13 C169.308334,37.0699997 169.493333,36.968334 169.64,36.825 C169.786667,36.6816659 169.895,36.4900012 169.965,36.25 C170.035,36.0099988 170.07,35.7066685 170.07,35.34 L170.07,33.66 C170.07,33.2933315 170.035,32.9900012 169.965,32.75 C169.895,32.5099988 169.786667,32.3183341 169.64,32.175 C169.493333,32.031666 169.308334,31.9300003 169.085,31.87 C168.861666,31.8099997 168.596668,31.78 168.29,31.78 L167.55,31.78 L167.55,37.22 L168.29,37.22 Z M172.1,33.72 C172.1,32.8133288 172.316665,32.1100025 172.75,31.61 C173.183335,31.1099975 173.786663,30.86 174.56,30.86 C175.333337,30.86 175.936665,31.1099975 176.37,31.61 C176.803336,32.1100025 177.02,32.8133288 177.02,33.72 L177.02,35.28 C177.02,36.213338 176.803336,36.9233309 176.37,37.41 C175.936665,37.8966691 175.333337,38.14 174.56,38.14 C173.786663,38.14 173.183335,37.8966691 172.75,37.41 C172.316665,36.9233309 172.1,36.213338 172.1,35.28 L172.1,33.72 Z M174.56,37.36 C175.100003,37.36 175.504999,37.1750019 175.775,36.805 C176.045001,36.4349981 176.18,35.9066701 176.18,35.22 L176.18,33.78 C176.18,33.1399968 176.045001,32.6233353 175.775,32.23 C175.504999,31.8366647 175.100003,31.64 174.56,31.64 C174.019997,31.64 173.615001,31.8366647 173.345,32.23 C173.074999,32.6233353 172.94,33.1399968 172.94,33.78 L172.94,35.22 C172.94,35.9066701 173.074999,36.4349981 173.345,36.805 C173.615001,37.1750019 174.019997,37.36 174.56,37.36 Z M180.72,37.36 C181.006668,37.36 181.251666,37.3116671 181.455,37.215 C181.658334,37.1183329 181.824999,36.9883342 181.955,36.825 C182.085001,36.6616658 182.181666,36.4750011 182.245,36.265 C182.308334,36.0549989 182.34,35.8333345 182.34,35.6 L182.34,35.48 L183.18,35.48 L183.18,35.6 C183.18,35.9533351 183.126667,36.2849985 183.02,36.595 C182.913333,36.9050016 182.756668,37.1749989 182.55,37.405 C182.343332,37.6350012 182.086668,37.8149994 181.78,37.945 C181.473332,38.0750006 181.120002,38.14 180.72,38.14 C179.946663,38.14 179.343336,37.8966691 178.91,37.41 C178.476665,36.9233309 178.26,36.213338 178.26,35.28 L178.26,33.72 C178.26,32.8133288 178.476665,32.1100025 178.91,31.61 C179.343336,31.1099975 179.946663,30.86 180.72,30.86 C181.120002,30.86 181.473332,30.9249994 181.78,31.055 C182.086668,31.1850006 182.343332,31.3649988 182.55,31.595 C182.756668,31.8250011 182.913333,32.0949984 183.02,32.405 C183.126667,32.7150015 183.18,33.0466649 183.18,33.4 L183.18,33.52 L182.34,33.52 L182.34,33.4 C182.333333,33.1733322 182.298334,32.9533344 182.235,32.74 C182.171666,32.5266656 182.075001,32.3383342 181.945,32.175 C181.814999,32.0116658 181.650001,31.8816671 181.45,31.785 C181.249999,31.6883329 181.006668,31.64 180.72,31.64 C180.179997,31.64 179.775001,31.8366647 179.505,32.23 C179.234999,32.6233353 179.1,33.1399968 179.1,33.78 L179.1,35.22 C179.1,35.9066701 179.234999,36.4349981 179.505,36.805 C179.775001,37.1750019 180.179997,37.36 180.72,37.36 Z M185.24,31 L185.24,35.64 C185.24,36.2066695 185.371665,36.6349985 185.635,36.925 C185.898335,37.2150015 186.286664,37.36 186.8,37.36 C187.313336,37.36 187.701665,37.2150015 187.965,36.925 C188.228335,36.6349985 188.36,36.2066695 188.36,35.64 L188.36,31 L189.2,31 L189.2,35.64 C189.2,36.4533374 188.986669,37.0733312 188.56,37.5 C188.133331,37.9266688 187.54667,38.14 186.8,38.14 C186.05333,38.14 185.466669,37.9266688 185.04,37.5 C184.613331,37.0733312 184.4,36.4533374 184.4,35.64 L184.4,31 L185.24,31 Z M190.32,31 L191.92,31 L192.86,37.64 L192.98,37.64 L193.92,31 L195.52,31 L195.52,38 L194.74,38 L194.74,31.36 L194.62,31.36 L193.68,38 L192.16,38 L191.22,31.36 L191.1,31.36 L191.1,38 L190.32,38 L190.32,31 Z M196.92,31 L201.16,31 L201.16,31.78 L197.76,31.78 L197.76,34.1 L201.1,34.1 L201.1,34.88 L197.76,34.88 L197.76,37.22 L201.22,37.22 L201.22,38 L196.92,38 L196.92,31 Z M206.53,37.64 L206.65,37.64 L206.65,31 L207.49,31 L207.49,38 L205.81,38 L203.79,31.36 L203.67,31.36 L203.67,38 L202.83,38 L202.83,31 L204.51,31 L206.53,37.64 Z M208.82,31 L213.74,31 L213.74,31.78 L211.7,31.78 L211.7,38 L210.86,38 L210.86,31.78 L208.82,31.78 L208.82,31 Z" id="LEGAL-DOCUMENT-Copy" fill="#4A4A4A"></path>
                    <polygon id="Rectangle-21-Copy-29" fill="#E2E2E2" points="26.8284182 212.30563 73.7265416 212.30563 73.7265416 215.064343 26.8284182 215.064343"></polygon>
                    <polygon id="Rectangle-21-Copy-30" fill="#E2E2E2" points="26.8284182 207.707775 89.3592493 207.707775 89.3592493 210.466488 26.8284182 210.466488"></polygon>
                    <path d="M30.8274314,202.467999 C44.4316519,189.022824 48.6206227,179.866368 43.3943438,174.99863 C38.1680649,170.130892 37.1574774,183.058681 40.3625813,213.781997 L34.6823945,193.890998 C42.2559769,206.48591 49.2992579,206.48591 55.8122374,193.890998 C62.3252169,181.296086 60.5205474,181.852019 50.398229,195.558797 C46.954266,200.056044 45.2322844,206.130444 45.2322844,213.781997" id="Path-6" stroke="#000000" stroke-width="0.5" stroke-linecap="round" stroke-linejoin="round"></path>
                </g>
                <g id="Group-16-Copy" transform="translate(718.000000, 119.000000)">
                    <g id="Group-2">
                        <g id="Group-2-Copy" transform="translate(92.698043, 118.180882) scale(-1, 1) rotate(-91.000000) translate(-92.698043, -118.180882) translate(-23.301957, 27.680882)">
                            <g id="Group" transform="translate(115.863062, 90.098765) rotate(1.000000) translate(-115.863062, -90.098765) translate(1.863062, 2.098765)">
                                <g id="Rectangle-21">
                                    <use fill="black" fill-opacity="1" filter="url(#filter-6)" xlink:href="#path-5"></use>
                                    <path stroke="#EBEBEB" stroke-width="0.5" d="M0.25,0.25 L0.25,174.95 L226.95,174.95 L226.95,29.4151925 L194.54683,0.25 L0.25,0.25 Z" stroke-linejoin="square" fill="#FFFFFF" fill-rule="evenodd"></path>
                                </g>
                                <polyline id="Path-3" stroke="#DEDEDE" opacity="0.769999981" points="193.6 0.8 193.6 30.4 226.362386 30.3946954"></polyline>
                            </g>
                        </g>
                        <g id="Group-11" opacity="0.296875" transform="translate(72.000000, 29.000000)">
                            <path d="M12.9727436,3.19332998 C15.2205375,3.87489613 17.0565658,3.35601289 18.4808285,1.63668025 C20.6172227,-0.942318697 22.7498575,-0.109416741 23.9787635,1.63668025 C25.2076694,3.38277725 27.6726239,5.08336249 31.1164927,4.23306987 C34.5603616,3.38277725 35.3851458,5.52737953 35.3851458,7.58058831 C35.3851458,9.63379708 35.6441596,12.0503598 38.9466798,13.0645687 C42.2492001,14.0787776 42.0909347,17.449977 40.5188073,18.7091353 C38.9466798,19.9682936 38.5921805,23.7953504 40.5188073,25.0700493 C42.445434,26.3447482 41.5330588,30.7305265 38.4591023,30.7305265 C35.3851458,30.7305265 34.4002166,34.4391788 34.4002166,36.1482744 C34.4002166,37.8573699 33.0562769,40.5603237 29.6526323,39.2567636 C26.2489877,37.9532036 24.4646842,38.7245543 23.0693956,40.621746 C21.9946198,42.0831324 21.5107555,42.229228 20.3113654,42.3761018 C19.1890247,42.5135402 18.2071673,42.0831324 17.0707257,40.4322987 C14.5647952,36.7920991 12.4193788,38.4401423 10.8089068,38.4401423 C9.19843474,38.4401423 5.62900622,38.4024009 6.24402308,34.5664637 C6.65403432,32.0091722 5.63815379,30.4014606 3.19638148,29.7433286 C0.181946779,28.3380147 -0.700354299,26.4518057 0.549478246,24.0847015 C2.42422706,20.5340453 1.92010872,19.2216049 0.549478246,16.5756334 C-0.821152231,13.9296619 0.549478246,12.2938291 3.10014412,11.7795094 C3.49744451,11.6993972 7.52631067,10.6278402 7.16579651,6.36157653 C7.10278742,5.61593757 7.36335982,3.54470302 8.77664446,2.93191495 C9.40093693,2.66122709 10.7996366,2.74836544 12.9727436,3.19332998 Z" id="Path-5" fill="#9B9B9B"></path>
                            <circle id="Oval" fill="#EDEDED" cx="20.4" cy="21.2" r="15.6"></circle>
                            <circle id="Oval-Copy-4" stroke="#FFFFFF" stroke-width="1.60512" cx="20.4" cy="21.2" r="14"></circle>
                        </g>
                    </g>
                    <g id="Group-18" transform="translate(67.000000, 194.000000)">
                        <polygon id="Rectangle-21-Copy-29" fill="#E2E2E2" points="0 17 40.8 17 40.8 19.4 0 19.4"></polygon>
                        <polygon id="Rectangle-21-Copy-68" fill="#E2E2E2" points="0 21.4 20.5 21.4 20.5 23.8 0 23.8"></polygon>
                        <path d="M0.271641791,13.3216049 L40.5,13.3216049" id="Line-5-Copy-2" stroke="#979797" stroke-width="0.5" stroke-linecap="square"></path>
                        <g id="Group-10" stroke="#000000" stroke-width="0.8">
                            <g id="Group-2" transform="translate(5.782874, 4.752774) rotate(-10.000000) translate(-5.782874, -4.752774) translate(1.282874, 1.252774)">
                                <path d="M8.81915833,0.757925922 L0.349254009,6.50982429" id="Path-13"></path>
                            </g>
                            <g id="Group-2-Copy" transform="translate(6.220246, 4.752774) scale(-1, 1) rotate(-10.000000) translate(-6.220246, -4.752774) translate(1.720246, 1.252774)">
                                <path d="M8.81915833,0.757925922 L0.349254009,6.50982429" id="Path-13"></path>
                            </g>
                        </g>
                    </g>
                    <g id="Group-18-Copy" transform="translate(126.000000, 193.000000)">
                        <polygon id="Rectangle-21-Copy-29" fill="#E2E2E2" points="1 18 41.8 18 41.8 20.4 1 20.4"></polygon>
                        <polygon id="Rectangle-21-Copy-68" fill="#E2E2E2" points="1 22.4 21.5 22.4 21.5 24.8 1 24.8"></polygon>
                        <path d="M1.27164179,14.3216049 L41.5,14.3216049" id="Line-5-Copy-2" stroke="#979797" stroke-width="0.5" stroke-linecap="square"></path>
                        <g id="Group-10">
                            <g id="Group-2" transform="translate(6.782874, 5.752774) rotate(-10.000000) translate(-6.782874, -5.752774) translate(1.282874, 1.252774)" stroke="#000000" stroke-width="0.8">
                                <g id="Group-39" transform="translate(0.000000, 0.000000)">
                                    <path d="M9.81915833,1.75792592 L1.34925401,7.50982429" id="Path-13"></path>
                                    <path d="M10.0407633,1.79700085 L1.57085893,7.54889922" id="Path-13" transform="translate(5.805811, 4.672950) scale(-1, 1) rotate(-20.000000) translate(-5.805811, -4.672950) "></path>
                                </g>
                            </g>
                            <g id="Group-2-Copy" transform="translate(7.220246, 5.752774) scale(-1, 1) rotate(-10.000000) translate(-7.220246, -5.752774) translate(2.720246, 2.252774)"></g>
                        </g>
                    </g>
                    <g id="Group-17" transform="translate(18.000000, 88.000000)" fill="#EBEBEB">
                        <polygon id="Rectangle-21-Copy-31" points="45.4953125 24.8 150.663123 24.8 150.663123 30.194909 45.4953125 30.194909"></polygon>
                        <polygon id="Rectangle-21-Copy-39" points="45.4953125 56.2482759 150.663123 56.2482759 150.663123 61.6431849 45.4953125 61.6431849"></polygon>
                        <polygon id="Rectangle-21-Copy-37" points="45.4953125 40.2482759 150.663123 40.2482759 150.663123 45.6431849 45.4953125 45.6431849"></polygon>
                        <polygon id="Rectangle-21-Copy-40" points="45.4953125 71.4482759 150.663123 71.4482759 150.663123 76.8431849 45.4953125 76.8431849"></polygon>
                        <polygon id="Rectangle-21-Copy-36" points="45.4953125 32.2482759 150.663123 32.2482759 150.663123 37.6431849 45.4953125 37.6431849"></polygon>
                        <polygon id="Rectangle-21-Copy-41" points="45.4953125 63.4482759 150.663123 63.4482759 150.663123 68.8431849 45.4953125 68.8431849"></polygon>
                        <polygon id="Rectangle-21-Copy-38" points="45.4953125 48.2482759 150.663123 48.2482759 150.663123 53.6431849 45.4953125 53.6431849"></polygon>
                        <polygon id="Rectangle-21-Copy-42" points="45.4953125 79.4482759 150.663123 79.4482759 150.663123 84.8431849 45.4953125 84.8431849"></polygon>
                        <polygon id="Rectangle-21-Copy-11" points="0 0 150.663123 0 150.663123 5.39490902 0 5.39490902"></polygon>
                        <polygon id="Rectangle-21-Copy-12" points="0 7.2 150.663123 7.2 150.663123 12.594909 0 12.594909"></polygon>
                    </g>
                </g>
                <g id="Group-20" transform="translate(264.400000, 228.800000)">
                    <g id="Safari">
                        <mask id="mask-8" fill="white">
                            <use xlink:href="#path-7"></use>
                        </mask>
                        <g id="window">
                            <use fill="black" fill-opacity="1" filter="url(#filter-9)" xlink:href="#path-7"></use>
                            <path stroke="#EBEBEB" stroke-width="0.5" d="M0.25,2.00835368 L0.25,299.991646 C0.25,300.966439 1.03564559,301.75 2.0096451,301.75 L509.990355,301.75 C510.961658,301.75 511.75,300.962403 511.75,299.991646 L511.75,2.00835368 C511.75,1.03356095 510.964354,0.25 509.990355,0.25 L2.0096451,0.25 C1.03834151,0.25 0.25,1.03759739 0.25,2.00835368 Z" stroke-linejoin="square" fill="#FFFFFF" fill-rule="evenodd"></path>
                        </g>
                        <g id="traffic-light" mask="url(#mask-8)" fill="#A3A3A3">
                            <g transform="translate(10.200000, 11.000000)">
                                <circle id="green" cx="21.5" cy="2.5" r="2.5"></circle>
                                <path d="M12.5,5 C13.8807119,5 15,3.88071187 15,2.5 C15,1.11928813 13.8807119,0 12.5,0 C11.1192881,0 10,1.11928813 10,2.5 C10,3.88071187 11.1192881,5 12.5,5 Z" id="orange"></path>
                                <path d="M2.5,5 C3.88071187,5 5,3.88071187 5,2.5 C5,1.11928813 3.88071187,0 2.5,0 C1.11928813,0 0,1.11928813 0,2.5 C0,3.88071187 1.11928813,5 2.5,5 Z" id="red"></path>
                            </g>
                        </g>
                        <g id="line" mask="url(#mask-8)" stroke="#BFBDBF" stroke-linecap="square" stroke-width="0.5">
                            <g transform="translate(-1.600000, 27.800000)" id="top">
                                <path d="M0.1,0.1 L511.7,0.1"></path>
                            </g>
                        </g>
                        <g id="address-and-search-+-refresh" mask="url(#mask-8)" fill="#FFFFFF">
                            <g transform="translate(86.000000, 9.000000)" id="address-and-search">
                                <polygon points="0 0 358 0 358 9.2 0 9.2"></polygon>
                            </g>
                        </g>
                    </g>
                    <g id="Group-15" transform="translate(35.800000, 57.200000)">
                        <g id="Group-13" transform="translate(346.000000, 64.000000)">
                            <polygon id="Rectangle-21-Copy-29" fill="#E2E2E2" points="28.8 128.8 76.8 128.8 76.8 132 28.8 132"></polygon>
                            <polygon id="Rectangle-21-Copy-30" fill="#E2E2E2" points="20.8 123.2 84.8 123.2 84.8 126.4 20.8 126.4"></polygon>
                            <path d="M10.719403,119.521605 L95.680597,119.521605" id="Line-5-Copy-2" stroke="#979797" stroke-width="0.5016" stroke-linecap="square"></path>
                            <g id="Group-11" opacity="0.504910714">
                                <path d="M28.3165551,7.06224921 C33.2229791,8.56957543 37.2306122,7.42203265 40.3394546,3.61962087 C45.0027181,-2.08399681 49.657776,-0.241981974 52.3401988,3.61962087 C55.0226216,7.48122371 60.4030578,11.2421745 67.9202419,9.36169909 C75.437426,7.48122371 77.2377428,12.2241459 77.2377428,16.7649457 C77.2377428,21.3057455 77.8031112,26.6501253 85.0117634,28.8931118 C92.2204155,31.1360983 91.8749582,38.5917168 88.4433608,41.3764242 C85.0117634,44.1611317 84.2379718,52.6249075 88.4433608,55.443984 C92.6487498,58.2630604 90.6572417,67.9624837 83.9474922,67.9624837 C77.2377428,67.9624837 75.0878659,76.1644005 75.0878659,79.9441724 C75.0878659,83.7239443 72.1543506,89.7016956 64.7249668,86.818791 C57.295583,83.9358864 53.4008535,85.6417768 50.3552552,89.837535 C48.0092636,93.0694825 46.9530975,93.3925821 44.335101,93.7174026 C41.8852861,94.0213564 39.7421143,93.0694825 37.2615201,89.4185605 C31.7916424,81.368031 27.1086854,85.0127818 23.5933904,85.0127818 C20.0780955,85.0127818 12.2868431,84.9293142 13.6292853,76.445899 C14.5242468,70.7902888 12.3068102,67.2347337 6.97697537,65.7792338 C0.397148526,62.6712941 -1.52871449,58.4998247 1.19938631,53.2648256 C5.29153752,45.412327 4.19116159,42.509783 1.19938631,36.6580513 C-1.79238897,30.8063196 1.19938631,27.188573 6.76691106,26.0511227 C7.63412764,25.8739496 16.4282282,23.5041342 15.6413076,14.0690249 C15.503773,12.4199976 16.0725434,7.8393327 19.157423,6.4841135 C20.5201118,5.88547036 23.5731559,6.07818226 28.3165551,7.06224921 Z" id="Path-5" fill="#D8D8D8"></path>
                                <ellipse id="Oval" fill="#FFFFFF" cx="44.8915483" cy="46.8851275" rx="34.6889237" ry="34.6542247"></ellipse>
                                <ellipse id="Oval-Copy-4" stroke="#D8D8D8" stroke-width="3.3792" cx="44.8915483" cy="46.8851275" rx="30.6078739" ry="30.5772571"></ellipse>
                            </g>
                            <path d="M22.1909313,105.874018 C20.0071904,104.404575 23.8758335,100.294815 33.7968607,93.5447394 C48.6784015,83.4196258 48.5220203,89.8572777 40.5124408,97.8656478 C32.5028612,105.874018 30.0469201,109.184565 24.9965386,116.192605 C19.9461571,123.200646 23.9498424,122.471179 30.8845654,116.192605 C37.8192884,109.914032 36.6010263,119.25092 44.591096,108.558284 C52.5811656,97.8656478 35.8253754,123.571828 49.1123624,108.558284 C62.3993494,93.5447394 47.5870117,116.69615 54.9845301,108.558284 C62.3820486,100.420418 60.9993177,112.899256 65.0117648,112.899256 C76.2279833,112.899256 106.121264,86.3862196 62.3820486,72.540682 C33.2225715,63.3103236 42.8285553,83.9300962 91.2,134.4" id="Path-4" stroke="#000000" stroke-width="0.6688"></path>
                        </g>
                        <g id="Group" transform="translate(0.000000, 47.000000)">
                            <g id="Rectangle-21">
                                <use fill="black" fill-opacity="1" filter="url(#filter-11)" xlink:href="#path-10"></use>
                                <path stroke="#E2E2E2" stroke-width="0.5" d="M0.304918772,0.25 L0.304918772,156.414411 L118.888231,156.414411 L118.888231,17.8739703 L99.3272741,0.25 L0.304918772,0.25 Z M118.888231,156.414411 L119.138231,156.414411 L118.888231,156.664411 L118.888231,156.414411 Z" stroke-linejoin="square" fill="#FFFFFF" fill-rule="evenodd"></path>
                            </g>
                            <g id="Group-3" transform="translate(30.187013, 86.510345)">
                                <polygon id="Rectangle-21-Copy-21" fill="#E2E2E2" points="4.64415584 4.63448276 43.2027583 4.63448276 43.2027583 7.31709253 4.64415584 7.31709253"></polygon>
                                <polygon id="Rectangle-21-Copy-22" fill="#E2E2E2" points="4.64415584 0 43.2027583 0 43.2027583 2.68260977 4.64415584 2.68260977"></polygon>
                                <polygon id="Rectangle-21-Copy-32" fill="#E2E2E2" points="0 0 3.0961039 0 3.0961039 2.68260977 0 2.68260977"></polygon>
                                <polygon id="Rectangle-21-Copy-33" fill="#E2E2E2" points="0 4.63448276 3.0961039 4.63448276 3.0961039 7.31709253 0 7.31709253"></polygon>
                                <polygon id="Rectangle-21-Copy-35" fill="#E2E2E2" points="0 8.49655172 3.0961039 8.49655172 3.0961039 11.1791615 0 11.1791615"></polygon>
                                <polygon id="Rectangle-21-Copy-23" fill="#E2E2E2" points="4.64415584 8.49655172 43.2027583 8.49655172 43.2027583 11.1791615 4.64415584 11.1791615"></polygon>
                                <polygon id="ic_check-copy-30" stroke="#FFFFFF" stroke-width="0.5" fill="#FFFFFF" transform="translate(1.726947, 1.453615) rotate(2.000000) translate(-1.726947, -1.453615) " points="1.49393321 1.80338532 0.989967062 1.28431268 0.796162311 1.48391174 1.3970361 2.10278391 1.59083031 2.10279477 2.65773153 1.00405536 2.46394786 0.804434585"></polygon>
                                <polygon id="ic_check-copy-31" stroke="#FFFFFF" stroke-width="0.5" fill="#FFFFFF" transform="translate(1.726947, 6.088097) rotate(2.000000) translate(-1.726947, -6.088097) " points="1.49393321 6.43786808 0.989967062 5.91879544 0.796162311 6.1183945 1.3970361 6.73726667 1.59083031 6.73727753 2.65773153 5.63853812 2.46394786 5.43891734"></polygon>
                                <polygon id="ic_check-copy-32" stroke="#FFFFFF" stroke-width="0.5" fill="#FFFFFF" transform="translate(1.726947, 9.950166) rotate(2.000000) translate(-1.726947, -9.950166) " points="1.49393321 10.299937 0.989967062 9.7808644 0.796162311 9.98046346 1.3970361 10.5993356 1.59083031 10.5993465 2.65773153 9.50060708 2.46394786 9.30098631"></polygon>
                            </g>
                            <g id="Group-4" transform="translate(13.158442, 43.255172)" fill="#E2E2E2">
                                <polygon id="Rectangle-21-Copy-11" points="0 0 93.9753846 0 93.9753846 2.68260977 0 2.68260977"></polygon>
                                <polygon id="Rectangle-21-Copy-12" points="0 3.86206897 93.9753846 3.86206897 93.9753846 6.54467874 0 6.54467874"></polygon>
                                <polygon id="Rectangle-21-Copy-13" points="0 7.72413793 34.075044 7.72413793 34.075044 10.4067477 0 10.4067477"></polygon>
                            </g>
                            <g id="Group-6" transform="translate(13.158442, 105.048276)" fill="#E2E2E2">
                                <polygon id="Rectangle-21-Copy-20" points="0 0 93.9753846 0 93.9753846 2.68260977 0 2.68260977"></polygon>
                                <polygon id="Rectangle-21-Copy-29" points="0 3.86206897 93.9753846 3.86206897 93.9753846 6.54467874 0 6.54467874"></polygon>
                                <polygon id="Rectangle-21-Copy-30" points="0 7.72413793 34.075044 7.72413793 34.075044 10.4067477 0 10.4067477"></polygon>
                            </g>
                            <g id="Group-8" transform="translate(13.158442, 122.813793)" fill="#E2E2E2">
                                <polygon id="Rectangle-21-Copy-24" points="0 0 93.9753846 0 93.9753846 1.96724716 0 1.96724716"></polygon>
                                <polygon id="Rectangle-21-Copy-25" points="0 3.08965517 53.9820435 3.08965517 53.9820435 5.05690234 0 5.05690234"></polygon>
                            </g>
                            <g id="Group-7" transform="translate(12.384416, 135.944828)" fill="#E2E2E2">
                                <polygon id="Rectangle-21-Copy-26" points="0.583151459 4.54381191 21.7455472 4.54381191 21.7455472 6.33221843 0.583151459 6.33221843"></polygon>
                                <polygon id="Rectangle-21-Copy-27" points="0.583151459 7.22642168 32.1474028 7.22642168 32.1474028 9.0148282 0.583151459 9.0148282"></polygon>
                                <polygon id="Rectangle-21-Copy-28" points="0.583151459 9.7301908 16.3652771 9.7301908 16.3652771 11.5185973 0.583151459 11.5185973"></polygon>
                                <polygon id="Rectangle-21-Copy-34" points="0.583151459 0.430476932 9.0122413 0.430476932 9.0122413 1.50352084 0.583151459 1.50352084"></polygon>
                            </g>
                            <g id="Group-5" transform="translate(13.158442, 59.475862)" fill="#E2E2E2">
                                <polygon id="Rectangle-21-Copy-14" points="0 12.3586207 65.9979801 12.3586207 65.9979801 15.0412305 0 15.0412305"></polygon>
                                <polygon id="Rectangle-21-Copy-17" points="0 3.86206897 93.9753846 3.86206897 93.9753846 6.54467874 0 6.54467874"></polygon>
                                <polygon id="Rectangle-21-Copy-19" points="0 0 93.9753846 0 93.9753846 2.68260977 0 2.68260977"></polygon>
                                <polygon id="Rectangle-21-Copy-15" points="0 16.2206897 93.9753846 16.2206897 93.9753846 18.9032994 0 18.9032994"></polygon>
                                <polygon id="Rectangle-21-Copy-18" points="0 8.49655172 93.9753846 8.49655172 93.9753846 11.1791615 0 11.1791615"></polygon>
                                <polygon id="Rectangle-21-Copy-16" points="0 20.0827586 76.2204933 20.0827586 76.2204933 22.7653684 0 22.7653684"></polygon>
                            </g>
                            <path d="M13.699689,35.1822546 L107.437036,35.1822546" id="Line-5-Copy" stroke="#000000" stroke-width="0.5" stroke-linecap="square"></path>
                            <polyline id="Path-3" stroke="#E0E0E0" stroke-width="0.5" points="99.2312312 0.536521954 99.2312312 18.5994277 118.60699 18.5961907"></polyline>
                            <path d="M28.0109713,24.954556 L28.6516838,24.954556 L28.6516838,29.6988798 L31.4433599,29.6988798 L31.4433599,30.2938272 L28.0109713,30.2938272 L28.0109713,24.954556 Z M32.7324125,24.954556 L35.9664853,24.954556 L35.9664853,25.5495034 L33.373125,25.5495034 L33.373125,27.3190904 L35.9207201,27.3190904 L35.9207201,27.9140377 L33.373125,27.9140377 L33.373125,29.6988798 L36.0122505,29.6988798 L36.0122505,30.2938272 L32.7324125,30.2938272 L32.7324125,24.954556 Z M38.5064529,27.730977 L40.8862423,27.730977 L40.8862423,30.2938272 L40.291295,30.2938272 L40.291295,29.6531146 L40.1997646,29.6531146 C40.1133188,29.8768566 39.9607697,30.057373 39.7421128,30.1946693 C39.5234558,30.3319655 39.2692074,30.4006126 38.9793598,30.4006126 C38.4047496,30.4006126 37.9534586,30.2150112 37.6254731,29.8438029 C37.2974877,29.4725945 37.1334974,28.9310453 37.1334974,28.2191389 L37.1334974,27.0292442 C37.1334974,26.337678 37.2987589,25.8012138 37.6292869,25.4198353 C37.9598149,25.0384569 38.4200046,24.8477706 39.0098699,24.8477706 C39.3149726,24.8477706 39.584476,24.897349 39.8183881,24.9965074 C40.0523002,25.0956658 40.2480715,25.23296 40.4057079,25.408394 C40.5633443,25.5838281 40.6828411,25.7897694 40.7642018,26.026224 C40.8455626,26.2626786 40.8862423,26.5156558 40.8862423,26.7851633 L40.8862423,26.8766936 L40.2455298,26.8766936 L40.2455298,26.7851633 C40.2455298,26.6122717 40.2213762,26.4444677 40.1730682,26.2817463 C40.1247603,26.1190248 40.0510283,25.9753744 39.9518699,25.8507908 C39.8527115,25.7262072 39.7255872,25.6270503 39.5704934,25.5533171 C39.4153995,25.479584 39.2285268,25.4427179 39.0098699,25.4427179 C38.5979812,25.4427179 38.2890693,25.5927245 38.083125,25.8927422 C37.8771806,26.1927599 37.77421,26.586845 37.77421,27.0750094 L37.77421,28.1733738 C37.77421,28.6971334 37.8771806,29.1001173 38.083125,29.3823373 C38.2890693,29.6645573 38.6030662,29.8056652 39.0251249,29.8056652 C39.4065034,29.8056652 39.7052453,29.683626 39.9213597,29.4395438 C40.1374742,29.1954616 40.2455298,28.8547686 40.2455298,28.4174547 L40.2455298,28.3259244 L38.5064529,28.3259244 L38.5064529,27.730977 Z M44.8296755,28.9666369 L42.5414164,28.9666369 L42.1524123,30.2938272 L41.4659346,30.2938272 L43.082971,24.954556 L44.2881208,24.954556 L45.9051572,30.2938272 L45.2186795,30.2938272 L44.8296755,28.9666369 Z M43.6397807,25.2291471 L42.7168496,28.3716895 L44.6542423,28.3716895 L43.7313111,25.2291471 L43.6397807,25.2291471 Z M46.6831653,24.954556 L47.3238778,24.954556 L47.3238778,29.6988798 L50.1155539,29.6988798 L50.1155539,30.2938272 L46.6831653,30.2938272 L46.6831653,24.954556 Z M55.9124769,24.954556 L57.6668088,24.954556 C58.3278648,24.954556 58.8109369,25.11219 59.1160396,25.4274629 C59.4211423,25.7427357 59.5736914,26.2461477 59.5736914,26.9377139 L59.5736914,28.3106693 C59.5736914,29.0022355 59.4211423,29.5056475 59.1160396,29.8209203 C58.8109369,30.1361931 58.3278648,30.2938272 57.6668088,30.2938272 L55.9124769,30.2938272 L55.9124769,29.6912523 L56.3701287,29.6912523 L56.3701287,25.5495034 L55.9124769,25.5495034 L55.9124769,24.954556 Z M57.5752785,29.6988798 C57.8091906,29.6988798 58.0113181,29.6759974 58.1816671,29.630232 C58.3520162,29.5844666 58.4931241,29.5069208 58.6049951,29.3975924 C58.7168661,29.2882639 58.7994968,29.142071 58.8528898,28.9590094 C58.9062828,28.7759477 58.9329789,28.5445816 58.9329789,28.2649041 L58.9329789,26.983479 C58.9329789,26.7038015 58.9062828,26.4724354 58.8528898,26.2893738 C58.7994968,26.1063121 58.7168661,25.9601193 58.6049951,25.8507908 C58.4931241,25.7414623 58.3520162,25.6639165 58.1816671,25.6181511 C58.0113181,25.5723857 57.8091906,25.5495034 57.5752785,25.5495034 L57.0108412,25.5495034 L57.0108412,29.6988798 L57.5752785,29.6988798 Z M60.4813675,27.0292442 C60.4813675,26.337678 60.646629,25.8012138 60.977157,25.4198353 C61.3076849,25.0384569 61.7678747,24.8477706 62.3577399,24.8477706 C62.9476052,24.8477706 63.407795,25.0384569 63.7383229,25.4198353 C64.0688509,25.8012138 64.2341124,26.337678 64.2341124,27.0292442 L64.2341124,28.2191389 C64.2341124,28.9310453 64.0688509,29.4725945 63.7383229,29.8438029 C63.407795,30.2150112 62.9476052,30.4006126 62.3577399,30.4006126 C61.7678747,30.4006126 61.3076849,30.2150112 60.977157,29.8438029 C60.646629,29.4725945 60.4813675,28.9310453 60.4813675,28.2191389 L60.4813675,27.0292442 Z M62.3577399,29.8056652 C62.7696286,29.8056652 63.0785405,29.6645573 63.2844849,29.3823373 C63.4904292,29.1001173 63.5933998,28.6971334 63.5933998,28.1733738 L63.5933998,27.0750094 C63.5933998,26.586845 63.4904292,26.1927599 63.2844849,25.8927422 C63.0785405,25.5927245 62.7696286,25.4427179 62.3577399,25.4427179 C61.9458513,25.4427179 61.6369394,25.5927245 61.430995,25.8927422 C61.2250507,26.1927599 61.12208,26.586845 61.12208,27.0750094 L61.12208,28.1733738 C61.12208,28.6971334 61.2250507,29.1001173 61.430995,29.3823373 C61.6369394,29.6645573 61.9458513,29.8056652 62.3577399,29.8056652 Z M67.0562986,29.8056652 C67.2749555,29.8056652 67.4618282,29.7687992 67.616922,29.695066 C67.7720159,29.6213329 67.8991402,29.522176 67.9982986,29.3975924 C68.0974569,29.2730087 68.171189,29.1306296 68.2194969,28.9704507 C68.2678049,28.8102717 68.2919585,28.6411965 68.2919585,28.4632199 L68.2919585,28.3716895 L68.932671,28.3716895 L68.932671,28.4632199 C68.932671,28.7327273 68.8919913,28.9857045 68.8106305,29.2221592 C68.7292698,29.4586138 68.609773,29.664555 68.4521366,29.8399891 C68.2945002,30.0154232 68.0987289,30.1527174 67.8648168,30.2518757 C67.6309047,30.3510341 67.3614013,30.4006126 67.0562986,30.4006126 C66.4664333,30.4006126 66.0062436,30.2150112 65.6757156,29.8438029 C65.3451876,29.4725945 65.1799261,28.9310453 65.1799261,28.2191389 L65.1799261,27.0292442 C65.1799261,26.337678 65.3451876,25.8012138 65.6757156,25.4198353 C66.0062436,25.0384569 66.4664333,24.8477706 67.0562986,24.8477706 C67.3614013,24.8477706 67.6309047,24.897349 67.8648168,24.9965074 C68.0987289,25.0956658 68.2945002,25.23296 68.4521366,25.408394 C68.609773,25.5838281 68.7292698,25.7897694 68.8106305,26.026224 C68.8919913,26.2626786 68.932671,26.5156558 68.932671,26.7851633 L68.932671,26.8766936 L68.2919585,26.8766936 L68.2919585,26.7851633 C68.2868734,26.6122717 68.2601773,26.4444677 68.2118694,26.2817463 C68.1635615,26.1190248 68.0898294,25.9753744 67.990671,25.8507908 C67.8915126,25.7262072 67.7656596,25.6270503 67.6131083,25.5533171 C67.4605569,25.479584 67.2749555,25.4427179 67.0562986,25.4427179 C66.6444099,25.4427179 66.335498,25.5927245 66.1295536,25.8927422 C65.9236093,26.1927599 65.8206387,26.586845 65.8206387,27.0750094 L65.8206387,28.1733738 C65.8206387,28.6971334 65.9236093,29.1001173 66.1295536,29.3823373 C66.335498,29.6645573 66.6444099,29.8056652 67.0562986,29.8056652 Z M70.5039422,24.954556 L70.5039422,28.49373 C70.5039422,28.9259589 70.6043704,29.2526682 70.8052297,29.4738677 C71.006089,29.6950671 71.3022884,29.8056652 71.693837,29.8056652 C72.0853855,29.8056652 72.3815849,29.6950671 72.5824442,29.4738677 C72.7833035,29.2526682 72.8837317,28.9259589 72.8837317,28.49373 L72.8837317,24.954556 L73.5244442,24.954556 L73.5244442,28.49373 C73.5244442,29.1141056 73.3617252,29.5870077 73.0362823,29.9124506 C72.7108394,30.2378936 72.2633621,30.4006126 71.693837,30.4006126 C71.1243119,30.4006126 70.6768346,30.2378936 70.3513916,29.9124506 C70.0259487,29.5870077 69.8632297,29.1141056 69.8632297,28.49373 L69.8632297,24.954556 L70.5039422,24.954556 Z M74.3787276,24.954556 L75.5991324,24.954556 L76.3161203,30.0192361 L76.4076506,30.0192361 L77.1246385,24.954556 L78.3450433,24.954556 L78.3450433,30.2938272 L77.750096,30.2938272 L77.750096,25.2291471 L77.6585656,25.2291471 L76.9415778,30.2938272 L75.7821932,30.2938272 L75.0652053,25.2291471 L74.973675,25.2291471 L74.973675,30.2938272 L74.3787276,30.2938272 L74.3787276,24.954556 Z M79.4128976,24.954556 L82.6469704,24.954556 L82.6469704,25.5495034 L80.0536101,25.5495034 L80.0536101,27.3190904 L82.6012052,27.3190904 L82.6012052,27.9140377 L80.0536101,27.9140377 L80.0536101,29.6988798 L82.6927356,29.6988798 L82.6927356,30.2938272 L79.4128976,30.2938272 L79.4128976,24.954556 Z M86.7429541,30.0192361 L86.8344845,30.0192361 L86.8344845,24.954556 L87.475197,24.954556 L87.475197,30.2938272 L86.1937719,30.2938272 L84.6530108,25.2291471 L84.5614805,25.2291471 L84.5614805,30.2938272 L83.9207679,30.2938272 L83.9207679,24.954556 L85.202193,24.954556 L86.7429541,30.0192361 Z M88.4896585,24.954556 L92.2424034,24.954556 L92.2424034,25.5495034 L90.6863873,25.5495034 L90.6863873,30.2938272 L90.0456747,30.2938272 L90.0456747,25.5495034 L88.4896585,25.5495034 L88.4896585,24.954556 Z" id="LEGAL-DOCUMENT" fill="#000000"></path>
                        </g>
                        <g id="Group-14" transform="translate(41.000000, 0.000000)">
                            <path d="M14.2,12.6 L351,12.6" id="Line-2" stroke="#39ff14" stroke-width="0.8" stroke-linecap="square"></path>
                            <g id="Group-9">
                                <circle id="Oval-2" stroke="#FFFFFF" stroke-width="3.2" fill="#39ff14" cx="12" cy="12.8" r="13.6"></circle>
                                <polygon id="1" fill="#FFFFFF" points="12.504 16.752 12.504 7.392 12.312 7.392 10.472 11.6 9.144 11.6 9.144 11.504 11.24 6.8 13.848 6.8 13.848 16.752 17.016 16.752 17.016 18 9.336 18 9.336 16.752"></polygon>
                            </g>
                            <g id="Group-9-Copy" transform="translate(172.800000, 0.000000)">
                                <circle id="Oval-2" stroke="#FFFFFF" stroke-width="3.2" fill="#39ff14" cx="12" cy="12.8" r="13.6"></circle>
                                <path d="M16.104,16.752 L16.104,18 L8.52,18 L8.52,16.08 C8.52,15.5679974 8.60533248,15.1226686 8.776,14.744 C8.94666752,14.3653314 9.18933176,14.0400014 9.504,13.768 C9.81866824,13.4959986 10.1999978,13.2693342 10.648,13.088 C11.0960022,12.9066658 11.6026638,12.7520006 12.168,12.624 C13.1173381,12.4106656 13.8026646,12.1066686 14.224,11.712 C14.6453354,11.3173314 14.856,10.8320029 14.856,10.256 L14.856,10.16 C14.856,9.87199856 14.8080005,9.58933472 14.712,9.312 C14.6159995,9.03466528 14.4666677,8.78400112 14.264,8.56 C14.0613323,8.33599888 13.8026682,8.157334 13.488,8.024 C13.1733318,7.890666 12.7973355,7.824 12.36,7.824 C11.5386626,7.824 10.9013356,8.07466416 10.448,8.576 C9.9946644,9.07733584 9.768,9.74399584 9.768,10.576 L9.768,11.28 L8.424,11.28 L8.424,10.48 C8.424,9.96799744 8.50933248,9.47733568 8.68,9.008 C8.85066752,8.53866432 9.10133168,8.12266848 9.432,7.76 C9.76266832,7.39733152 10.1733309,7.1093344 10.664,6.896 C11.1546691,6.6826656 11.7199968,6.576 12.36,6.576 C13.0106699,6.576 13.5759976,6.67466568 14.056,6.872 C14.5360024,7.06933432 14.9359984,7.33066504 15.256,7.656 C15.5760016,7.98133496 15.8133326,8.34933128 15.968,8.76 C16.1226674,9.17066872 16.2,9.5893312 16.2,10.016 L16.2,10.304 C16.2,11.1573376 15.933336,11.8853303 15.4,12.488 C14.866664,13.0906697 14.0133392,13.5199987 12.84,13.776 C11.8159949,14.0000011 11.0640024,14.2959982 10.584,14.664 C10.1039976,15.0320018 9.864,15.5679965 9.864,16.272 L9.864,16.752 L16.104,16.752 Z" id="2" fill="#FFFFFF"></path>
                            </g>
                            <g id="Group-9-Copy-2" transform="translate(346.400000, 0.000000)">
                                <circle id="Oval-2" stroke="#FFFFFF" stroke-width="3.2" fill="#39ff14" cx="12" cy="12.8" r="13.6"></circle>
                                <path d="M11.192,12.432 L11.192,10.576 L14.84,8.24 L14.84,8.048 L8.504,8.048 L8.504,6.8 L15.992,6.8 L15.992,8.848 L12.344,11.184 L12.344,11.376 L12.984,11.376 C13.4106688,11.376 13.8213314,11.4453326 14.216,11.584 C14.6106686,11.7226674 14.9599985,11.925332 15.264,12.192 C15.5680015,12.458668 15.8133324,12.7866647 16,13.176 C16.1866676,13.5653353 16.28,14.0159974 16.28,14.528 L16.28,14.816 C16.28,15.2960024 16.184001,15.7439979 15.992,16.16 C15.799999,16.5760021 15.533335,16.9359985 15.192,17.24 C14.850665,17.5440015 14.4480023,17.7839991 13.984,17.96 C13.5199977,18.1360009 13.0160027,18.224 12.472,18.224 C11.8426635,18.224 11.2773358,18.128001 10.776,17.936 C10.2746642,17.743999 9.84800176,17.4800017 9.496,17.144 C9.14399824,16.8079983 8.8746676,16.4133356 8.688,15.96 C8.5013324,15.5066644 8.408,15.0240026 8.408,14.512 L8.408,13.648 L9.752,13.648 L9.752,14.416 C9.752,14.8213354 9.818666,15.1813318 9.952,15.496 C10.085334,15.8106682 10.2719988,16.0773322 10.512,16.296 C10.7520012,16.5146678 11.0373317,16.6826661 11.368,16.8 C11.6986683,16.9173339 12.0559981,16.976 12.44,16.976 C12.7920018,16.976 13.1199985,16.9173339 13.424,16.8 C13.7280015,16.6826661 13.9919989,16.520001 14.216,16.312 C14.4400011,16.103999 14.6159994,15.8586681 14.744,15.576 C14.8720006,15.2933319 14.936,14.9920016 14.936,14.672 L14.936,14.576 C14.936,13.9039966 14.7226688,13.3786686 14.296,13 C13.8693312,12.6213314 13.3360032,12.432 12.696,12.432 L11.192,12.432 Z" id="3" fill="#FFFFFF"></path>
                            </g>
                        </g>
                        <g id="Group-12" transform="translate(179.000000, 67.000000)" stroke-width="0.88">
                            <g id="Group-10" transform="translate(0.000000, 120.000000)" stroke="#000000">
                                <g id="Group-2" transform="translate(5.690081, 4.863468) rotate(-10.000000) translate(-5.690081, -4.863468) translate(0.690081, 1.363468)">
                                    <path d="M9.71098333,0.0337185146 L0.38457183,6.36080672" id="Path-13"></path>
                                </g>
                                <g id="Group-2-Copy" transform="translate(5.926837, 4.863468) scale(-1, 1) rotate(-10.000000) translate(-5.926837, -4.863468) translate(0.926837, 1.363468)">
                                    <path d="M9.71098333,0.0337185146 L0.38457183,6.36080672" id="Path-13"></path>
                                </g>
                            </g>
                            <path d="M17.2404494,127.456204 L77.141573,127.456204" id="Path-12-Copy-22" stroke="#9B9B9B" stroke-dasharray="3.520000076293945,3.520000076293945"></path>
                        </g>
                    </g>
                </g>
                <polygon id="Fill-195" fill="#70C6FF" points="840 80 846 80 846 74 840 74"></polygon>
                <polygon id="Fill-195-Copy-3" fill="#70C6FF" points="183 30 189 30 189 24 183 24"></polygon>
                <polygon id="Fill-195-Copy-4" fill="#70C6FF" points="228 30 234 30 234 24 228 24"></polygon>
                <polygon id="Fill-195-Copy" fill="#70C6FF" points="213 322 219 322 219 316 213 316"></polygon>
                <polygon id="Fill-195-Copy-2" fill="#70C6FF" points="751 571 757 571 757 565 751 565"></polygon>
                <polygon id="Fill-196" fill="#39ff14" points="816 110 822 110 822 104 816 104"></polygon>
                <polygon id="Fill-196-Copy" fill="#39ff14" points="189 352 195 352 195 346 189 346"></polygon>
                <polygon id="Fill-196-Copy-2" fill="#39ff14" points="727 601 733 601 733 595 727 595"></polygon>
                <g id="ic_industria_contratos" transform="translate(534.123987, 408.123987) rotate(-25.000000) translate(-534.123987, -408.123987) translate(486.623987, 360.623987)" fill="#D7D7D7" fill-rule="nonzero" stroke="#FFFFFF" stroke-width="1.5">
                    <path d="M81.4935698,0 L78.5314708,0 L11.9257311,66.2552087 L11.9257311,69.2017116 L12.5123507,69.7852426 L1.03000809,76.5268607 L0,78.323931 L0.019494913,92.7899224 L2.09449479,94.8705045 L16.0029069,95 L17.8151282,93.9946471 L24.9868394,82.1943714 L25.431839,82.637028 L28.3940991,82.637028 L85.3782132,25.9527854 L90.0764872,30.6261619 L73.2409381,47.3730688 L76.202876,50.3195718 L94.5195551,32.0994936 L94.5195551,29.1529906 L88.3403122,23.0062825 L95,16.3816591 L95,13.4351561 L81.4935698,0 Z M14.738067,91.0650888 L3.95026313,90.9659173 L3.93491124,79.7564977 L15.4708747,73.0769231 L21.9230769,79.4064337 L14.738067,91.0650888 Z M26.8015759,78.1360947 L25.9507784,77.2854576 L17.3141327,68.648812 L16.3017751,67.636294 L71.5713656,12.3668639 L82.0710059,22.8666646 L26.8015759,78.1360947 Z M85.3187207,20.2366864 L74.7633136,9.68117116 L79.9477128,4.49704142 L90.5029586,15.0523954 L85.3187207,20.2366864 Z" id="Shape"></path>
                </g>
                <rect id="Rectangle-4" fill="#D7D7D7" transform="translate(513.859179, 463.164517) rotate(20.000000) translate(-513.859179, -463.164517) " x="512.64835" y="457.045081" width="2.42165831" height="12.2388733"></rect>
            </g>
        </g>
    </g>
</svg>