<?xml version="1.0" encoding="UTF-8"?>
<svg width="553px" height="473px" viewBox="0 0 553 473" version="1.1" xmlns="http://www.w3.org/2000/svg" xmlns:xlink="http://www.w3.org/1999/xlink">
    <!-- Generator: Sketch 52.2 (67145) - http://www.bohemiancoding.com/sketch -->
    <title>Group 30</title>
    <desc>Created with Sketch.</desc>
    <defs>
        <polygon id="path-1" points="3.04450568 -6.51861603e-14 1.30758502e-11 293.572367 152.71262 293.538771 151.748025 1.99894087"></polygon>
        <polygon id="path-3" points="-1.49638626e-12 6.22802689e-11 299.498243 6.22802689e-11 349.594289 44.8356087 349.594289 268.060222 -1.64499447e-12 268.060222"></polygon>
        <filter x="-7.9%" y="-9.9%" width="115.7%" height="120.5%" filterUnits="objectBoundingBox" id="filter-4">
            <feMorphology radius="2" operator="dilate" in="SourceAlpha" result="shadowSpreadOuter1"></feMorphology>
            <feOffset dx="0" dy="1" in="shadowSpreadOuter1" result="shadowOffsetOuter1"></feOffset>
            <feGaussianBlur stdDeviation="7" in="shadowOffsetOuter1" result="shadowBlurOuter1"></feGaussianBlur>
            <feComposite in="shadowBlurOuter1" in2="SourceAlpha" operator="out" result="shadowBlurOuter1"></feComposite>
            <feColorMatrix values="0 0 0 0 0.24346301   0 0 0 0 0.24346301   0 0 0 0 0.24346301  0 0 0 0.0766530797 0" type="matrix" in="shadowBlurOuter1" result="shadowMatrixOuter1"></feColorMatrix>
            <feMorphology radius="1.5" operator="dilate" in="SourceAlpha" result="shadowSpreadOuter2"></feMorphology>
            <feOffset dx="0" dy="3" in="shadowSpreadOuter2" result="shadowOffsetOuter2"></feOffset>
            <feGaussianBlur stdDeviation="2.5" in="shadowOffsetOuter2" result="shadowBlurOuter2"></feGaussianBlur>
            <feComposite in="shadowBlurOuter2" in2="SourceAlpha" operator="out" result="shadowBlurOuter2"></feComposite>
            <feColorMatrix values="0 0 0 0 0   0 0 0 0 0   0 0 0 0 0  0 0 0 0.0586786685 0" type="matrix" in="shadowBlurOuter2" result="shadowMatrixOuter2"></feColorMatrix>
            <feMerge>
                <feMergeNode in="shadowMatrixOuter1"></feMergeNode>
                <feMergeNode in="shadowMatrixOuter2"></feMergeNode>
            </feMerge>
        </filter>
        <polygon id="path-5" points="-1.50886482e-12 6.12009455e-11 269.27365 6.12009455e-11 314.314131 40.3699106 314.314131 241.360996 -1.64247587e-12 241.360996"></polygon>
        <filter x="-8.3%" y="-10.4%" width="116.5%" height="121.5%" filterUnits="objectBoundingBox" id="filter-6">
            <feMorphology radius="2" operator="dilate" in="SourceAlpha" result="shadowSpreadOuter1"></feMorphology>
            <feOffset dx="0" dy="1" in="shadowSpreadOuter1" result="shadowOffsetOuter1"></feOffset>
            <feGaussianBlur stdDeviation="6.5" in="shadowOffsetOuter1" result="shadowBlurOuter1"></feGaussianBlur>
            <feComposite in="shadowBlurOuter1" in2="SourceAlpha" operator="out" result="shadowBlurOuter1"></feComposite>
            <feColorMatrix values="0 0 0 0 0.24346301   0 0 0 0 0.24346301   0 0 0 0 0.24346301  0 0 0 0.0766530797 0" type="matrix" in="shadowBlurOuter1" result="shadowMatrixOuter1"></feColorMatrix>
            <feMorphology radius="1.5" operator="dilate" in="SourceAlpha" result="shadowSpreadOuter2"></feMorphology>
            <feOffset dx="0" dy="3" in="shadowSpreadOuter2" result="shadowOffsetOuter2"></feOffset>
            <feGaussianBlur stdDeviation="2.5" in="shadowOffsetOuter2" result="shadowBlurOuter2"></feGaussianBlur>
            <feComposite in="shadowBlurOuter2" in2="SourceAlpha" operator="out" result="shadowBlurOuter2"></feComposite>
            <feColorMatrix values="0 0 0 0 0   0 0 0 0 0   0 0 0 0 0  0 0 0 0.0586786685 0" type="matrix" in="shadowBlurOuter2" result="shadowMatrixOuter2"></feColorMatrix>
            <feMerge>
                <feMergeNode in="shadowMatrixOuter1"></feMergeNode>
                <feMergeNode in="shadowMatrixOuter2"></feMergeNode>
            </feMerge>
        </filter>
        <polygon id="path-7" points="3.6115692 2.76392132 239.074952 2.70095875 282.149006 45.8005117 281.89145 369.63572 3.6015965 369.643272"></polygon>
        <filter x="-7.7%" y="-5.6%" width="115.4%" height="111.7%" filterUnits="objectBoundingBox" id="filter-8">
            <feMorphology radius="2" operator="dilate" in="SourceAlpha" result="shadowSpreadOuter1"></feMorphology>
            <feOffset dx="0" dy="1" in="shadowSpreadOuter1" result="shadowOffsetOuter1"></feOffset>
            <feGaussianBlur stdDeviation="5" in="shadowOffsetOuter1" result="shadowBlurOuter1"></feGaussianBlur>
            <feComposite in="shadowBlurOuter1" in2="SourceAlpha" operator="out" result="shadowBlurOuter1"></feComposite>
            <feColorMatrix values="0 0 0 0 0.243137255   0 0 0 0 0.243137255   0 0 0 0 0.243137255  0 0 0 0.08 0" type="matrix" in="shadowBlurOuter1" result="shadowMatrixOuter1"></feColorMatrix>
            <feOffset dx="0" dy="1" in="SourceAlpha" result="shadowOffsetOuter2"></feOffset>
            <feGaussianBlur stdDeviation="2" in="shadowOffsetOuter2" result="shadowBlurOuter2"></feGaussianBlur>
            <feComposite in="shadowBlurOuter2" in2="SourceAlpha" operator="out" result="shadowBlurOuter2"></feComposite>
            <feColorMatrix values="0 0 0 0 0   0 0 0 0 0   0 0 0 0 0  0 0 0 0.06 0" type="matrix" in="shadowBlurOuter2" result="shadowMatrixOuter2"></feColorMatrix>
            <feMerge>
                <feMergeNode in="shadowMatrixOuter1"></feMergeNode>
                <feMergeNode in="shadowMatrixOuter2"></feMergeNode>
            </feMerge>
        </filter>
    </defs>
    <g id="Web-design" stroke="none" stroke-width="1" fill="none" fill-rule="evenodd">
        <g id="Soluciones-industria-energetica" transform="translate(-729.000000, -171.000000)">
            <g id="Group-30" transform="translate(729.000000, 174.000000)">
                <g id="Group-28">
                    <g id="Group-27">
                        <g id="Group-46" transform="translate(120.128128, 204.419007) rotate(-1.000000) translate(-120.128128, -204.419007) translate(43.628128, 57.419007)">
                            <mask id="mask-2" fill="white">
                                <use xlink:href="#path-1"></use>
                            </mask>
                            <g id="Mask"></g>
                            <g mask="url(#mask-2)" stroke="#70C6FF">
                                <g transform="translate(19.280148, 10.587774)">
                                    <path d="M84.127988,241.117951 L98.8552112,255.650432 L127.196596,255.650432 L141.811425,241.117951 L141.811425,193.054255 C145.615897,176.416821 154.242429,161.01179 167.691021,146.839162 C187.863909,125.580219 192.687781,63.6176946 147.518133,44.2416559 C131.318462,37.292621 121.220094,35.91609 110.97054,36.0535346 C92.6411967,36.2993276 79.948724,44.3428289 74.552755,47.5453129 C67.7148567,51.6035758 39.9843115,74.3950315 44.0088131,113.564295 C45.6930989,129.956941 60.4159128,147.29911 71.4057265,163.476595 C79.6020809,175.541986 84.127988,187.810567 84.127988,193.978557 C84.127988,216.778002 84.127988,232.491134 84.127988,241.117951 Z" id="Path-18" stroke-width="5.56421499"></path>
                                    <path d="M192.128265,158.055617 L210.560397,168.780111" id="Path-21" stroke-width="7.41895332"></path>
                                    <path d="M203.266135,114.151279 L224.61372,114.151279" id="Path-22" stroke-width="7.41895332"></path>
                                    <path d="M194.912732,67.2624753 L213.18583,56.2713988" id="Path-23" stroke-width="7.41895332"></path>
                                    <path d="M160.570965,32.350565 L170.79897,13.690513" id="Path-24" stroke-width="7.41895332"></path>
                                    <path d="M112.770938,21.2589427 L112.770938,0" id="Path-29" stroke-width="7.41895332"></path>
                                    <path d="M61.9761579,32.350565 L51.4465214,13.8576406" id="Path-30" stroke-width="7.41895332"></path>
                                    <path d="M11.1378704,56.3824132 L29.391562,67.4054226" id="Path-31" stroke-width="7.41895332"></path>
                                    <path d="M5.5067062e-13,114.151279 L21.347585,114.151279" id="Path-32" stroke-width="7.41895332"></path>
                                    <path d="M15.7786498,170.036211 L33.7583343,158.575292" id="Path-33" stroke-width="7.41895332"></path>
                                    <path d="M82.6058723,190.868333 L142.615137,190.868333" id="Path-34" stroke-width="7.41895332"></path>
                                    <path d="M83.5340282,209.35437 L141.686982,209.35437" id="Path-35" stroke-width="7.41895332"></path>
                                    <path d="M83.5340282,224.1432 L141.686982,224.1432" id="Path-35-Copy" stroke-width="7.41895332"></path>
                                    <path d="M83.5340282,240.780633 L141.686982,240.780633" id="Path-35-Copy-2" stroke-width="7.41895332"></path>
                                    <path d="M102.198663,188.127923 L102.198663,136.651328 C102.198663,129.353811 99.3362444,125.705052 93.611408,125.705052 C85.0241534,125.705052 83.5340282,128.477958 83.5340282,136.651328 C83.5340282,144.824697 92.8164933,146.257229 99.9399083,146.257229 C104.688852,146.257229 113.039837,146.257229 124.992866,146.257229 C135.694454,146.339039 141.045249,143.137072 141.045249,136.651328 C141.045249,130.165584 137.843534,126.949189 131.440105,127.002144 C125.307387,127.030999 122.241028,130.247393 122.241028,136.651328 C122.241028,143.055262 122.241028,160.048643 122.241028,187.631471" id="Path-36" stroke-width="2.78210749"></path>
                                </g>
                            </g>
                        </g>
                        <g id="Group-41" opacity="0.198474702" transform="translate(0.000000, 406.735507)">
                            <polyline id="Path-4-Copy" stroke="#4A4A4A" stroke-width="2.4" transform="translate(183.832428, 22.540761) scale(1, -1) rotate(-90.000000) translate(-183.832428, -22.540761) " points="183.972212 -158.286232 183.972212 0.23715633 206.373188 44.9772678 206.373188 203.367754 161.291667 203.367754"></polyline>
                            <polygon id="Rectangle-Copy-24" fill="#4A4A4A" transform="translate(10.018116, 22.540761) scale(1, -1) rotate(-90.000000) translate(-10.018116, -22.540761) " points="0.500905797 12.5226449 19.5353261 12.5226449 19.5353261 32.5588768 0.500905797 32.5588768"></polygon>
                        </g>
                        <g id="Group-42" opacity="0.196707589" transform="translate(111.201087, 406.735507)">
                            <polyline id="Path-3-Copy" stroke="#4A4A4A" stroke-width="2.04000006" transform="translate(157.097302, 27.635323) rotate(-90.000000) translate(-157.097302, -27.635323) " points="129.461979 -116.438428 129.461979 -67.8897114 158.84299 -26.2010008 158.84299 171.709075 184.732625 171.709075"></polyline>
                            <polygon id="Rectangle-Copy-17" fill="#4A4A4A" transform="translate(139.752717, 25.546196) rotate(-90.000000) translate(-139.752717, -25.546196) " points="131.237319 17.0307971 148.268116 17.0307971 148.268116 34.0615942 131.237319 34.0615942"></polygon>
                            <polygon id="Rectangle-Copy-18" fill="#4A4A4A" transform="translate(278.375512, 24.891535) rotate(-90.000000) translate(-278.375512, -24.891535) " points="272.518397 19.008777 284.232627 19.008777 284.232627 30.7742937 272.518397 30.7742937"></polygon>
                            <polygon id="Rectangle-Copy-23" fill="#4A4A4A" transform="translate(7.513587, 55.600543) rotate(-90.000000) translate(-7.513587, -55.600543) " points="-3.55271368e-15 48.0869565 15.0271739 48.0869565 15.0271739 63.1141304 -3.55271368e-15 63.1141304"></polygon>
                        </g>
                        <g id="Group-3" opacity="0.699939546" transform="translate(184.333333, 0.000000)">
                            <g id="Group-25" opacity="0.699753534" transform="translate(184.502202, 190.688693) rotate(-1.000000) translate(-184.502202, -190.688693) translate(3.919837, 3.140243)">
                                <g id="Group-2-Copy-3" transform="translate(-0.000000, -0.000000)">
                                    <g id="Group-2-Copy" transform="translate(180.199076, 187.457974) scale(-1, 1) rotate(-91.000000) translate(-180.199076, -187.457974) translate(-3.598405, 10.626578)">
                                        <g id="Group" transform="translate(183.597697, 176.914343) rotate(1.000000) translate(-183.597697, -176.914343) translate(3.551185, 3.298064)">
                                            <g id="Group-4" transform="translate(-0.000000, 78.234496)">
                                                <g id="Rectangle-21">
                                                    <use fill="black" fill-opacity="1" filter="url(#filter-4)" xlink:href="#path-3"></use>
                                                    <path stroke="#EBEBEB" stroke-width="1.60435808" d="M0.80217904,0.80217904 L0.80217904,267.258043 L348.79211,267.258043 L348.79211,45.1942028 L299.191693,0.80217904 L0.80217904,0.80217904 Z" stroke-linejoin="square" fill="#FFFFFF" fill-rule="evenodd"></path>
                                                </g>
                                                <polyline id="Path-3" stroke="#DEDEDE" stroke-width="1.06957205" opacity="0.769999981" points="297.893725 1.22401928 297.893725 46.5127325 348.305446 46.5046163"></polyline>
                                            </g>
                                            <g id="Group-4-Copy" transform="translate(195.554720, 129.495383) rotate(-3.000000) translate(-195.554720, -129.495383) translate(38.014022, 8.392670)">
                                                <g id="Group-22" transform="translate(-0.000000, 0.000000)">
                                                    <g id="Rectangle-21">
                                                        <use fill="black" fill-opacity="1" filter="url(#filter-6)" xlink:href="#path-5"></use>
                                                        <path stroke="#EBEBEB" stroke-width="1.44392233" d="M0.721961165,0.721961165 L0.721961165,240.639035 L313.59217,240.639035 L313.59217,40.6923306 L268.997454,0.721961165 L0.721961165,0.721961165 Z" stroke-linejoin="square" fill="#FFFFFF" fill-rule="evenodd"></path>
                                                    </g>
                                                    <polyline id="Path-3" stroke="#DEDEDE" stroke-width="0.962614886" opacity="0.769999981" points="267.831056 1.10210501 267.831056 41.8799902 313.155355 41.8726824"></polyline>
                                                </g>
                                            </g>
                                        </g>
                                    </g>
                                </g>
                            </g>
                            <g id="Group-24" transform="translate(40.188953, 38.417528)">
                                <g id="Group-23">
                                    <g transform="translate(0.000000, 0.000000)">
                                        <g id="Group-26" transform="translate(0.164761, 0.205531)">
                                            <g id="Group-25">
                                                <g id="Rectangle-21" transform="translate(142.875301, 186.172116) rotate(1.000000) translate(-142.875301, -186.172116) ">
                                                    <use fill="black" fill-opacity="1" filter="url(#filter-8)" xlink:href="#path-7"></use>
                                                    <path stroke="#EBEBEB" stroke-width="0.668750033" d="M3.94593513,3.09820694 L3.93598061,369.308888 L281.557341,369.301354 L281.814521,45.9388462 L238.936428,3.03537082 L3.94593513,3.09820694 Z" stroke-linejoin="square" fill="#FFFFFF" fill-rule="evenodd"></path>
                                                </g>
                                                <g id="Group" transform="translate(31.986151, 82.528407)" fill="#E2E2E2">
                                                    <polygon id="Rectangle-21-Copy-11" transform="translate(111.982376, 5.312889) rotate(1.000000) translate(-111.982376, -5.312889) " points="2.17532073 2.17477889 221.789603 2.16881851 221.789432 8.45099918 2.17514997 8.45695956"></polygon>
                                                    <polygon id="Rectangle-21-Copy-14" transform="translate(79.291685, 71.769975) rotate(1.000000) translate(-79.291685, -71.769975) " points="2.17530525 68.6309774 156.408236 68.6267915 156.408065 74.9089722 2.17513448 74.9131581"></polygon>
                                                    <polygon id="Rectangle-21-Copy-17" transform="translate(111.982376, 53.526853) rotate(1.000000) translate(-111.982376, -53.526853) " points="2.17532073 50.3887431 221.789603 50.3827827 221.789432 56.6649634 2.17514997 56.6709238"></polygon>
                                                    <polygon id="Rectangle-21-Copy-19" transform="translate(111.982376, 43.970932) rotate(1.000000) translate(-111.982376, -43.970932) " points="2.17532073 40.8328223 221.789603 40.8268619 221.789432 47.1090425 2.17514997 47.1150029"></polygon>
                                                    <polygon id="Rectangle-21-Copy-12" transform="translate(111.982376, 14.868810) rotate(1.000000) translate(-111.982376, -14.868810) " points="2.17532073 11.7306997 221.789603 11.7247393 221.789432 18.00692 2.17514997 18.0128804"></polygon>
                                                    <polygon id="Rectangle-21-Copy-15" transform="translate(112.020557, 81.935756) rotate(1.000000) translate(-112.020557, -81.935756) " points="2.21350152 78.7976461 221.827784 78.7916857 221.827613 85.0738664 2.21333076 85.0798268"></polygon>
                                                    <polygon id="Rectangle-21-Copy-18" transform="translate(111.982376, 62.648414) rotate(1.000000) translate(-111.982376, -62.648414) " points="2.17532073 59.5103039 221.789603 59.5043435 221.789432 65.7865242 2.17514997 65.7924845"></polygon>
                                                    <polygon id="Rectangle-21-Copy-13" transform="translate(41.990769, 23.121651) rotate(1.000000) translate(-41.990769, -23.121651) " points="2.17528758 19.9816409 81.8064204 19.9794796 81.8062496 26.2616603 2.17511681 26.2638215"></polygon>
                                                    <polygon id="Rectangle-21-Copy-16" transform="translate(91.277701, 91.130172) rotate(1.000000) translate(-91.277701, -91.130172) " points="2.21665141 87.9914991 180.338922 87.9866648 180.338751 94.2688455 2.21648065 94.2736798"></polygon>
                                                    <polygon id="Rectangle-21-Copy-20" transform="translate(110.242230, 139.964501) rotate(1.000000) translate(-110.242230, -139.964501) " points="0.435174068 136.826391 220.049456 136.82043 220.049285 143.102611 0.435003303 143.108571"></polygon>
                                                    <polygon id="Rectangle-21-Copy-21" transform="translate(97.258878, 115.205979) rotate(1.000000) translate(-97.258878, -115.205979) " points="52.2045067 112.066111 142.31342 112.063665 142.313249 118.345846 52.2043359 118.348292"></polygon>
                                                    <polygon id="Rectangle-21-Copy-31" transform="translate(44.178179, 114.633625) rotate(1.000000) translate(-44.178179, -114.633625) " points="41.0349306 111.49262 47.321599 111.492449 47.3214282 117.77463 41.0347599 117.7748"></polygon>
                                                    <polygon id="Rectangle-21-Copy-22" transform="translate(97.258878, 105.650058) rotate(1.000000) translate(-97.258878, -105.650058) " points="52.2045067 102.51019 142.31342 102.507745 142.313249 108.789925 52.2043359 108.792371"></polygon>
                                                    <polygon id="Rectangle-21-Copy-32" transform="translate(44.352805, 104.644865) rotate(1.000000) translate(-44.352805, -104.644865) " points="41.2095567 101.50386 47.496225 101.50369 47.4960543 107.78587 41.2093859 107.786041"></polygon>
                                                    <polygon id="Rectangle-21-Copy-24" transform="translate(110.242230, 168.197237) rotate(1.000000) translate(-110.242230, -168.197237) " points="0.43517405 165.059793 220.049456 165.053833 220.049285 171.334682 0.435003321 171.340642"></polygon>
                                                    <polygon id="Rectangle-21-Copy-23" transform="translate(97.258878, 124.761899) rotate(1.000000) translate(-97.258878, -124.761899) " points="52.2045067 121.622032 142.31342 121.619586 142.313249 127.901767 52.2043359 127.904213"></polygon>
                                                    <polygon id="Rectangle-21-Copy-33" transform="translate(44.018738, 123.753796) rotate(1.000000) translate(-44.018738, -123.753796) " points="40.8754895 120.612791 47.1621578 120.612621 47.1619871 126.894801 40.8753187 126.894972"></polygon>
                                                    <polygon id="Rectangle-21-Copy-25" transform="translate(63.511306, 176.450078) rotate(1.000000) translate(-63.511306, -176.450078) " points="0.435151912 173.311365 126.587631 173.307942 126.58746 179.588791 0.434981183 179.592215"></polygon>
                                                </g>
                                                <g id="Group-2" transform="translate(30.681041, 305.355107)" fill="#E2E2E2">
                                                    <polygon id="Rectangle-21-Copy-26" transform="translate(25.162611, 12.518700) rotate(1.000000) translate(-25.162611, -12.518700) " points="0.435105302 10.425311 49.8902299 10.4239688 49.8901161 14.6120892 0.434991459 14.6134315"></polygon>
                                                    <polygon id="Rectangle-21-Copy-27" transform="translate(37.316842, 18.599741) rotate(1.000000) translate(-37.316842, -18.599741) " points="0.43511106 16.5066814 74.1986867 16.5046795 74.1985729 20.6927999 0.434997217 20.6948019"></polygon>
                                                    <polygon id="Rectangle-21-Copy-28" transform="translate(18.875939, 24.246421) rotate(1.000000) translate(-18.875939, -24.246421) " points="0.435102324 22.1528614 37.3168902 22.1518604 37.3167763 26.3399809 0.434988481 26.3409819"></polygon>
                                                    <polygon id="Rectangle-21-Copy-34" transform="translate(10.284155, 1.690796) rotate(1.000000) translate(-10.284155, -1.690796) " points="0.435075485 0.434626749 20.1333031 0.434092134 20.1332348 2.9469644 0.435007179 2.94749902"></polygon>
                                                </g>
                                                <polygon id="Rectangle-21-Copy-29" fill="#E2E2E2" transform="translate(222.572950, 332.546868) rotate(1.000000) translate(-222.572950, -332.546868) " points="208.651807 331.678525 236.49414 331.677769 236.494093 333.41521 208.65176 333.415966"></polygon>
                                                <polygon id="Rectangle-21-Copy-35" fill="#E2E2E2" transform="translate(167.751162, 331.629479) rotate(1.000000) translate(-167.751162, -331.629479) " points="153.830019 330.761137 181.672353 330.760381 181.672306 332.497822 153.829972 332.498578"></polygon>
                                                <polygon id="Rectangle-21-Copy-30" fill="#E2E2E2" transform="translate(222.401019, 329.937314) rotate(1.000000) translate(-222.401019, -329.937314) " points="203.911994 329.069095 240.890093 329.068092 240.890045 330.805533 203.911946 330.806536"></polygon>
                                                <polygon id="Rectangle-21-Copy-36" fill="#E2E2E2" transform="translate(167.586824, 328.585632) rotate(1.000000) translate(-167.586824, -328.585632) " points="149.097798 327.717413 186.075898 327.71641 186.07585 329.453851 149.097751 329.454854"></polygon>
                                                <path d="M36.0317475,75.2010087 L255.089752,75.1950634" id="Line-5-Copy" stroke="#979797" stroke-width="0.668750033" stroke-linecap="square" transform="translate(145.560750, 75.198036) rotate(1.000000) translate(-145.560750, -75.198036) "></path>
                                                <path d="M198.071759,326.207716 L247.29581,326.20638" id="Line-5-Copy-2" stroke="#979797" stroke-width="0.668750033" stroke-linecap="square" transform="translate(222.683784, 326.207048) rotate(1.000000) translate(-222.683784, -326.207048) "></path>
                                                <path d="M201.800213,314.426269 C200.372061,313.467536 202.902301,310.785882 209.390932,306.381305 C219.123878,299.774441 219.021437,303.974913 213.782881,309.200458 C208.544324,314.426003 206.938027,316.586147 203.634844,321.158916 C200.33166,325.731685 202.950131,325.255616 207.485675,321.158764 C212.02122,317.061912 211.224222,323.15412 216.450088,316.177133 C221.675954,309.200147 210.716827,325.973466 219.407044,316.177017 C228.097262,306.380567 218.409239,321.486888 223.247504,316.176865 C228.08577,310.866842 227.181127,319.009127 229.80531,319.009024 C237.140835,319.008734 256.692041,301.708615 228.086489,292.675744 C209.016121,286.653829 215.298004,300.107666 246.932138,333.037252" id="Path-4" stroke="#000000" stroke-width="0.716231239" transform="translate(224.172951, 312.158256) rotate(1.000000) translate(-224.172951, -312.158256) "></path>
                                                <path d="M143.684942,325.297909 L192.908993,325.296573" id="Line-5-Copy-3" stroke="#979797" stroke-width="0.668750033" stroke-linecap="square" transform="translate(168.296967, 325.297241) rotate(1.000000) translate(-168.296967, -325.297241) "></path>
                                                <g id="Group-11" opacity="0.504910714" transform="translate(196.836361, 293.162141) rotate(1.000000) translate(-196.836361, -293.162141) translate(174.465285, 270.009833)">
                                                    <g id="Group-29" opacity="0.501023065">
                                                        <path d="M13.83772,3.46763732 C16.2353887,4.20775007 18.1938369,3.64429471 19.7130644,1.77727124 C21.9919057,-1.02326396 24.2667371,-0.118815649 25.5775821,1.77727124 C26.8884271,3.67335813 29.517736,5.52002381 33.1912297,4.59669097 C36.8647235,3.67335813 37.7445014,6.00218195 37.7445014,8.23176156 C37.7445014,10.4613412 38.0207853,13.0854868 41.5435058,14.1868164 C45.0662264,15.288146 44.8974085,18.9489316 43.2204572,20.3162518 C41.5435058,21.6835719 41.1653698,25.8393733 43.2204572,27.2235689 C45.2755445,28.6077646 44.3023354,33.3702816 41.0234184,33.3702816 C37.7445014,33.3702816 36.6939006,37.3975075 36.6939006,39.2534146 C36.6939006,41.1093216 35.2603518,44.0444593 31.6297643,42.6289233 C27.9991768,41.2133874 26.0959023,42.0509972 24.6075808,44.1111578 C23.4611428,45.6980774 22.9450161,45.8567227 21.6656549,46.0162129 C20.4684806,46.1654574 19.4211565,45.6980774 18.2089409,43.905437 C15.5359239,39.9525439 13.2474588,41.7421542 11.5296062,41.7421542 C9.81175364,41.7421542 6.00432833,41.7011707 6.66035232,37.5357262 C7.09770165,34.7587632 6.01408582,33.0129489 3.40950482,32.2982834 C0.194078342,30.7722529 -0.747051432,28.7240183 0.5861155,26.1535797 C2.5858659,22.2979217 2.04813474,20.8727426 0.5861155,17.9994819 C-0.87590374,15.1262212 0.5861155,13.3498702 3.3068507,12.7913704 C3.73064166,12.7043765 8.02813829,11.5407727 7.64358633,6.90803656 C7.57637601,6.09834714 7.85432245,3.84919335 9.36183988,3.18376672 C10.027758,2.88982675 11.519718,2.98445029 13.83772,3.46763732 Z" id="Path-5" fill="#D8D8D8"></path>
                                                        <ellipse id="Oval" fill="#EDEDED" cx="22.18687" cy="23.021082" rx="16.96643" ry="17.0042083"></ellipse>
                                                        <ellipse id="Oval-Copy-4" stroke="#D8D8D8" stroke-width="2.08304296" cx="22.056359" cy="22.8902804" rx="15.008765" ry="15.0421843"></ellipse>
                                                    </g>
                                                </g>
                                                <path d="M152.056271,322.962599 C169.414979,305.825539 174.760021,294.154828 168.091395,287.950467 C161.42277,281.746106 160.133281,298.223713 164.222928,337.383286 L156.975125,312.030456 C166.638862,328.083781 175.625945,328.083781 183.936375,312.030456 C192.246804,295.97713 189.944082,296.685715 177.02821,314.156212 C172.633783,319.88835 170.43657,327.630708 170.43657,337.383286" id="Path-6" stroke="#000000" stroke-width="0.668750033"></path>
                                                <polygon id="ic_check-copy-28" fill="#FFFFFF" transform="translate(75.904829, 206.397039) rotate(3.000000) translate(-75.904829, -206.397039) " points="75.3601871 207.216236 74.1825549 206.000754 73.7296096 206.468217 75.1336887 207.917394 75.5865713 207.917383 78.0800492 205.344124 77.6272293 204.876684"></polygon>
                                                <polygon id="ic_check-copy-29" fill="#FFFFFF" transform="translate(76.064271, 197.276867) rotate(3.000000) translate(-76.064271, -197.276867) " points="75.5196283 198.096065 74.341996 196.880583 73.8890508 197.348046 75.2931299 198.797222 75.7460125 198.797211 78.2394904 196.223952 77.7866705 195.756512"></polygon>
                                                <polygon id="ic_check-copy-30" fill="#FFFFFF" transform="translate(76.238897, 187.288108) rotate(3.000000) translate(-76.238897, -187.288108) " points="75.6942543 188.107305 74.5166221 186.891824 74.0636768 187.359287 75.467756 188.808463 75.9206385 188.808452 78.4141164 186.235193 77.9612965 185.767753"></polygon>
                                            </g>
                                            <polyline id="Path-3" stroke="#EBEBEB" stroke-width="1.08040937" transform="translate(262.333668, 27.158458) rotate(1.000000) translate(-262.333668, -27.158458) " points="241.217506 6.07461209 241.21636 48.2423046 283.450977 48.2336014"></polyline>
                                        </g>
                                    </g>
                                </g>
                            </g>
                        </g>
                        <g id="Group-6" transform="translate(104.689312, 385.196558) scale(-1, 1) rotate(-270.000000) translate(-104.689312, -385.196558) translate(90.163043, 338.612319)">
                            <polygon id="Rectangle-9-Copy-2" fill="#39ff14" points="0 87.1576087 6.01086957 87.1576087 6.01086957 93.1684783 0 93.1684783"></polygon>
                            <polygon id="Rectangle-9-Copy-4" fill="#70C6FF" points="8.01449275 0 14.0253623 0 14.0253623 6.01086957 8.01449275 6.01086957"></polygon>
                            <polygon id="Rectangle-9-Copy-3" fill="#39ff14" points="23.0416667 57.1032609 29.0525362 57.1032609 29.0525362 63.1141304 23.0416667 63.1141304"></polygon>
                        </g>
                        <g id="Group-5" transform="translate(522.945652, 367.664855)">
                            <polygon id="Rectangle-9-Copy-2" fill="#39ff14" transform="translate(3.005435, 3.005435) rotate(-90.000000) translate(-3.005435, -3.005435) " points="-1.46549439e-14 1.46552767e-14 6.01086957 1.46552767e-14 6.01086957 6.01086957 -1.46549439e-14 6.01086957"></polygon>
                            <polygon id="Rectangle-9-Copy-4" fill="#70C6FF" transform="translate(11.019928, 59.106884) rotate(-90.000000) translate(-11.019928, -59.106884) " points="8.01449275 56.1014493 14.0253623 56.1014493 14.0253623 62.1123188 8.01449275 62.1123188"></polygon>
                        </g>
                    </g>
                    <path d="M339.301522,70.066086 L347.204882,70.066086 L347.204882,71.520006 L340.867282,71.520006 L340.867282,75.844486 L347.093042,75.844486 L347.093042,77.298406 L340.867282,77.298406 L340.867282,81.660166 L347.316722,81.660166 L347.316722,83.114086 L339.301522,83.114086 L339.301522,70.066086 Z M357.214562,82.443046 L357.438242,82.443046 L357.438242,70.066086 L359.004002,70.066086 L359.004002,83.114086 L355.872482,83.114086 L352.107202,70.737126 L351.883522,70.737126 L351.883522,83.114086 L350.317762,83.114086 L350.317762,70.066086 L353.449282,70.066086 L357.214562,82.443046 Z M362.116882,70.066086 L370.020242,70.066086 L370.020242,71.520006 L363.682642,71.520006 L363.682642,75.844486 L369.908402,75.844486 L369.908402,77.298406 L363.682642,77.298406 L363.682642,81.660166 L370.132082,81.660166 L370.132082,83.114086 L362.116882,83.114086 L362.116882,70.066086 Z M381.558402,83.114086 L379.992642,83.114086 L379.992642,78.752326 C379.992642,78.429231 379.918083,78.1807002 379.768962,78.006726 C379.619841,77.8327517 379.358884,77.745766 378.986082,77.745766 L374.922562,77.745766 L374.922562,83.114086 L373.356802,83.114086 L373.356802,70.066086 L378.016802,70.066086 C378.687845,70.066086 379.271893,70.1623917 379.768962,70.355006 C380.266031,70.5476202 380.679214,70.805471 381.008522,71.128566 C381.33783,71.4516609 381.586361,71.8275638 381.754122,72.256286 C381.921883,72.6850081 382.005762,73.1354703 382.005762,73.607686 L382.005762,74.166886 C382.005762,74.6515284 381.872177,75.1361635 381.605002,75.620806 C381.337827,76.1054484 380.924645,76.4782446 380.365442,76.739206 L380.365442,76.962886 C380.738244,77.0250196 381.030268,77.1741381 381.241522,77.410246 C381.452776,77.6463538 381.558402,77.9818704 381.558402,78.416806 L381.558402,83.114086 Z M374.922562,76.291846 L377.830402,76.291846 C378.7127,76.291846 379.3682,76.1023412 379.796922,75.723326 C380.225644,75.3443107 380.440002,74.788223 380.440002,74.055046 L380.440002,73.719526 C380.440002,73.0609093 380.225644,72.5296746 379.796922,72.125806 C379.3682,71.7219373 378.7127,71.520006 377.830402,71.520006 L374.922562,71.520006 L374.922562,76.291846 Z M387.635042,76.851046 L393.450722,76.851046 L393.450722,83.114086 L391.996802,83.114086 L391.996802,81.548326 L391.773122,81.548326 C391.561868,82.095102 391.189071,82.5362443 390.654722,82.871766 C390.120373,83.2072876 389.499046,83.375046 388.790722,83.375046 C387.386502,83.375046 386.283646,82.9214772 385.482122,82.014326 C384.680598,81.1071747 384.279842,79.783748 384.279842,78.044006 L384.279842,75.136166 C384.279842,73.4461308 384.683705,72.1351306 385.491442,71.203126 C386.299179,70.2711213 387.423781,69.805126 388.865282,69.805126 C389.610886,69.805126 390.269492,69.9262847 390.841122,70.168606 C391.412751,70.4109272 391.891173,70.7464438 392.276402,71.175166 C392.661631,71.6038881 392.953654,72.1071631 393.152482,72.685006 C393.35131,73.2628488 393.450722,73.8810693 393.450722,74.539686 L393.450722,74.763366 L391.884962,74.763366 L391.884962,74.539686 C391.884962,74.1171772 391.825936,73.7071013 391.707882,73.309446 C391.589828,72.9117906 391.409643,72.5607408 391.167322,72.256286 C390.925001,71.9518311 390.614337,71.7095135 390.235322,71.529326 C389.856307,71.3491384 389.399631,71.259046 388.865282,71.259046 C387.858717,71.259046 387.103804,71.625629 386.600522,72.358806 C386.097239,73.091983 385.845602,74.05504 385.845602,75.248006 L385.845602,77.932166 C385.845602,79.212119 386.097239,80.1969225 386.600522,80.886606 C387.103804,81.5762894 387.871143,81.921126 388.902562,81.921126 C389.834567,81.921126 390.564626,81.6228889 391.092762,81.026406 C391.620898,80.429923 391.884962,79.5973446 391.884962,78.528646 L391.884962,78.304966 L387.635042,78.304966 L387.635042,76.851046 Z M399.508722,78.528646 L399.173202,78.528646 L395.091042,70.066086 L396.843202,70.066086 L400.179762,77.186566 L400.403442,77.186566 L403.740002,70.066086 L405.492162,70.066086 L401.410002,78.528646 L401.074482,78.528646 L401.074482,83.114086 L399.508722,83.114086 L399.508722,78.528646 Z" id="ENERGY" fill="#4A4A4A" transform="translate(372.396842, 76.590086) rotate(1.000000) translate(-372.396842, -76.590086) "></path>
                    <path d="M319.560724,104.209538 L321.039124,104.209538 L321.039124,90.8053775 L319.560724,90.8053775 L319.560724,88.8834575 L326.533844,88.8834575 C327.355182,88.8834575 328.082055,88.9984431 328.714484,89.2284175 C329.346914,89.458392 329.880776,89.7704956 330.316084,90.1647375 C330.751393,90.5589795 331.079923,91.0312414 331.301684,91.5815375 C331.523446,92.1318336 331.634324,92.7272943 331.634324,93.3679375 L331.634324,93.6636175 C331.634324,94.1399932 331.560405,94.5752956 331.412564,94.9695375 C331.264724,95.3637795 331.059392,95.7169493 330.796564,96.0290575 C330.533736,96.3411658 330.22574,96.6080964 329.872564,96.8298575 C329.519389,97.0516186 329.137473,97.2199903 328.726804,97.3349775 L328.726804,97.6306575 C329.548142,97.860632 330.238055,98.300041 330.796564,98.9488975 C331.355074,99.5977541 331.634324,100.390333 331.634324,101.326658 L331.634324,101.622338 C331.634324,102.262981 331.523446,102.858441 331.301684,103.408738 C331.079923,103.959034 330.751393,104.435402 330.316084,104.837858 C329.880776,105.240313 329.346914,105.556523 328.714484,105.786498 C328.082055,106.016472 327.355182,106.131458 326.533844,106.131458 L319.560724,106.131458 L319.560724,104.209538 Z M323.108884,104.209538 L326.386004,104.209538 C327.355183,104.209538 328.143655,103.967247 328.751444,103.482658 C329.359234,102.998068 329.663124,102.328688 329.663124,101.474498 L329.663124,101.326658 C329.663124,100.439613 329.375661,99.7373801 328.800724,99.2199375 C328.225788,98.7024949 327.445529,98.4437775 326.459924,98.4437775 L323.108884,98.4437775 L323.108884,104.209538 Z M323.108884,96.5218575 L326.459924,96.5218575 C327.445529,96.5218575 328.225788,96.2672467 328.800724,95.7580175 C329.375661,95.2487883 329.663124,94.550662 329.663124,93.6636175 L329.663124,93.5157775 C329.663124,92.6780133 329.359234,92.0168466 328.751444,91.5322575 C328.143655,91.0476684 327.355183,90.8053775 326.386004,90.8053775 L323.108884,90.8053775 L323.108884,96.5218575 Z M344.471764,101.844098 L337.079764,101.844098 L335.823124,106.131458 L333.605524,106.131458 L338.829204,88.8834575 L342.722324,88.8834575 L347.946004,106.131458 L345.728404,106.131458 L344.471764,101.844098 Z M340.627924,89.7704975 L337.646484,99.9221775 L343.905044,99.9221775 L340.923604,89.7704975 L340.627924,89.7704975 Z M350.459284,88.8834575 L352.529044,88.8834575 L352.529044,104.209538 L361.547284,104.209538 L361.547284,106.131458 L350.459284,106.131458 L350.459284,88.8834575 Z M374.631124,101.844098 L367.239124,101.844098 L365.982484,106.131458 L363.764884,106.131458 L368.988564,88.8834575 L372.881684,88.8834575 L378.105364,106.131458 L375.887764,106.131458 L374.631124,101.844098 Z M370.787284,89.7704975 L367.805844,99.9221775 L374.064404,99.9221775 L371.082964,89.7704975 L370.787284,89.7704975 Z M389.390484,105.244418 L389.686164,105.244418 L389.686164,88.8834575 L391.755924,88.8834575 L391.755924,106.131458 L387.616404,106.131458 L382.639124,89.7704975 L382.343444,89.7704975 L382.343444,106.131458 L380.273684,106.131458 L380.273684,88.8834575 L384.413204,88.8834575 L389.390484,105.244418 Z M401.193044,104.554498 C401.899395,104.554498 402.503069,104.435405 403.004084,104.197218 C403.5051,103.95903 403.915763,103.638713 404.236084,103.236258 C404.556406,102.833802 404.79459,102.37386 404.950644,101.856418 C405.106699,101.338975 405.184724,100.792794 405.184724,100.217858 L405.184724,99.9221775 L407.254484,99.9221775 L407.254484,100.217858 C407.254484,101.088475 407.123072,101.905694 406.860244,102.669538 C406.597416,103.433381 406.211394,104.098655 405.702164,104.665378 C405.192935,105.2321 404.560515,105.675616 403.804884,105.995938 C403.049254,106.316259 402.178649,106.476418 401.193044,106.476418 C399.287542,106.476418 397.800943,105.87685 396.733204,104.677698 C395.665466,103.478545 395.131604,101.729122 395.131604,99.4293775 L395.131604,95.5855375 C395.131604,93.3514997 395.665466,91.6185037 396.733204,90.3864975 C397.800943,89.1544914 399.287542,88.5384975 401.193044,88.5384975 C402.178649,88.5384975 403.049254,88.6986559 403.804884,89.0189775 C404.560515,89.3392991 405.192935,89.7828147 405.702164,90.3495375 C406.211394,90.9162604 406.597416,91.5815337 406.860244,92.3453775 C407.123072,93.1092214 407.254484,93.9264398 407.254484,94.7970575 L407.254484,95.0927375 L405.184724,95.0927375 L405.184724,94.7970575 C405.168298,94.2385481 405.082059,93.6964735 404.926004,93.1708175 C404.76995,92.6451616 404.531766,92.1811129 404.211444,91.7786575 C403.891123,91.3762022 403.484567,91.0558854 402.991764,90.8176975 C402.498962,90.5795097 401.899395,90.4604175 401.193044,90.4604175 C399.862478,90.4604175 398.864568,90.9449994 398.199284,91.9141775 C397.534001,92.8833557 397.201364,94.1564096 397.201364,95.7333775 L397.201364,99.2815375 C397.201364,100.973493 397.534001,102.275293 398.199284,103.186978 C398.864568,104.098662 399.862478,104.554498 401.193044,104.554498 Z M410.950484,88.8834575 L421.397844,88.8834575 L421.397844,90.8053775 L413.020244,90.8053775 L413.020244,96.5218575 L421.250004,96.5218575 L421.250004,98.4437775 L413.020244,98.4437775 L413.020244,104.209538 L421.545684,104.209538 L421.545684,106.131458 L410.950484,106.131458 L410.950484,88.8834575 Z" id="BALANCE" fill="#4A4A4A" transform="translate(370.553204, 97.507458) rotate(1.000000) translate(-370.553204, -97.507458) "></path>
                </g>
            </g>
        </g>
    </g>
</svg>