<?xml version="1.0" encoding="UTF-8"?>
<svg width="535px" height="535px" viewBox="0 0 535 535" version="1.1" xmlns="http://www.w3.org/2000/svg" xmlns:xlink="http://www.w3.org/1999/xlink">
    <!-- Generator: Sketch 52.2 (67145) - http://www.bohemiancoding.com/sketch -->
    <title>Group 31</title>
    <desc>Created with Sketch.</desc>
    <defs>
        <polygon id="path-1" points="8.36382234 6.23506693 313.04645 6.22669266 373.494784 60.8589158 373.48305 488.087603 8.35058865 488.097638"></polygon>
        <filter x="-5.9%" y="-4.3%" width="111.8%" height="108.9%" filterUnits="objectBoundingBox" id="filter-2">
            <feMorphology radius="2" operator="dilate" in="SourceAlpha" result="shadowSpreadOuter1"></feMorphology>
            <feOffset dx="0" dy="1" in="shadowSpreadOuter1" result="shadowOffsetOuter1"></feOffset>
            <feGaussianBlur stdDeviation="5" in="shadowOffsetOuter1" result="shadowBlurOuter1"></feGaussianBlur>
            <feComposite in="shadowBlurOuter1" in2="SourceAlpha" operator="out" result="shadowBlurOuter1"></feComposite>
            <feColorMatrix values="0 0 0 0 0.243137255   0 0 0 0 0.243137255   0 0 0 0 0.243137255  0 0 0 0.08 0" type="matrix" in="shadowBlurOuter1" result="shadowMatrixOuter1"></feColorMatrix>
            <feOffset dx="0" dy="2" in="SourceAlpha" result="shadowOffsetOuter2"></feOffset>
            <feGaussianBlur stdDeviation="2.5" in="shadowOffsetOuter2" result="shadowBlurOuter2"></feGaussianBlur>
            <feComposite in="shadowBlurOuter2" in2="SourceAlpha" operator="out" result="shadowBlurOuter2"></feComposite>
            <feColorMatrix values="0 0 0 0 0   0 0 0 0 0   0 0 0 0 0  0 0 0 0.06 0" type="matrix" in="shadowBlurOuter2" result="shadowMatrixOuter2"></feColorMatrix>
            <feMerge>
                <feMergeNode in="shadowMatrixOuter1"></feMergeNode>
                <feMergeNode in="shadowMatrixOuter2"></feMergeNode>
            </feMerge>
        </filter>
        <polygon id="path-3" points="4.35084996 3.33676431 288.535442 3.27075545 340.524075 55.3964307 340.227169 447.036871 4.35460827 447.034025"></polygon>
        <filter x="-6.4%" y="-4.6%" width="112.8%" height="109.7%" filterUnits="objectBoundingBox" id="filter-4">
            <feMorphology radius="2" operator="dilate" in="SourceAlpha" result="shadowSpreadOuter1"></feMorphology>
            <feOffset dx="0" dy="1" in="shadowSpreadOuter1" result="shadowOffsetOuter1"></feOffset>
            <feGaussianBlur stdDeviation="5" in="shadowOffsetOuter1" result="shadowBlurOuter1"></feGaussianBlur>
            <feComposite in="shadowBlurOuter1" in2="SourceAlpha" operator="out" result="shadowBlurOuter1"></feComposite>
            <feColorMatrix values="0 0 0 0 0.243137255   0 0 0 0 0.243137255   0 0 0 0 0.243137255  0 0 0 0.08 0" type="matrix" in="shadowBlurOuter1" result="shadowMatrixOuter1"></feColorMatrix>
            <feOffset dx="0" dy="2" in="SourceAlpha" result="shadowOffsetOuter2"></feOffset>
            <feGaussianBlur stdDeviation="2.5" in="shadowOffsetOuter2" result="shadowBlurOuter2"></feGaussianBlur>
            <feComposite in="shadowBlurOuter2" in2="SourceAlpha" operator="out" result="shadowBlurOuter2"></feComposite>
            <feColorMatrix values="0 0 0 0 0   0 0 0 0 0   0 0 0 0 0  0 0 0 0.06 0" type="matrix" in="shadowBlurOuter2" result="shadowMatrixOuter2"></feColorMatrix>
            <feMerge>
                <feMergeNode in="shadowMatrixOuter1"></feMergeNode>
                <feMergeNode in="shadowMatrixOuter2"></feMergeNode>
            </feMerge>
        </filter>
    </defs>
    <g id="Web-design" stroke="none" stroke-width="1" fill="none" fill-rule="evenodd">
        <g id="Soluciones-contrato_legal_tech" transform="translate(-790.000000, -155.000000)">
            <g id="Group-31" transform="translate(790.000000, 155.000000)">
                <g id="Group-4" transform="translate(43.000000, 12.000000)">
                    <g transform="translate(0.458891, 0.105163)">
                        <g transform="translate(0.228023, 0.526114)">
                            <g id="Group-3" opacity="0.543666295" transform="translate(0.000000, 12.649620)">
                                <g id="Rectangle-21" transform="translate(190.922686, 247.162166) rotate(-2.000000) translate(-190.922686, -247.162166) ">
                                    <use fill="black" fill-opacity="1" filter="url(#filter-2)" xlink:href="#path-1"></use>
                                    <path stroke="#EBEBEB" stroke-width="0.772711352" d="M8.7501674,6.62141199 L8.73695493,487.711272 L373.096705,487.701258 L373.108423,61.0304971 L312.897733,6.61305243 L8.7501674,6.62141199 Z" stroke-linejoin="square" fill="#FFFFFF" fill-rule="evenodd"></path>
                                </g>
                                <polygon id="Rectangle-21-Copy-11" fill="#E2E2E2" transform="translate(187.524326, 118.209601) rotate(-2.000000) translate(-187.524326, -118.209601) " points="43.4510882 114.088025 331.59779 114.080106 331.597563 122.331177 43.4508616 122.339097"></polygon>
                                <polygon id="Rectangle-21-Copy-14" fill="#E2E2E2" transform="translate(147.727568, 207.665590) rotate(-2.000000) translate(-147.727568, -207.665590) " points="46.5463969 203.542835 248.908966 203.537273 248.90874 211.788344 46.5461703 211.793906"></polygon>
                                <polygon id="Rectangle-21-Copy-20" fill="#E2E2E2" transform="translate(193.681786, 294.675136) rotate(-2.000000) translate(-193.681786, -294.675136) " points="49.6085481 290.55356 337.75525 290.54564 337.755023 298.796711 49.6083215 298.804631"></polygon>
                                <polygon id="Rectangle-21-Copy-17" fill="#E2E2E2" transform="translate(189.730269, 181.429341) rotate(-2.000000) translate(-189.730269, -181.429341) " points="45.6570318 177.307765 333.803734 177.299845 333.803507 185.550917 45.6568052 185.558837"></polygon>
                                <polygon id="Rectangle-21-Copy-19" fill="#E2E2E2" transform="translate(189.289081, 168.785393) rotate(-2.000000) translate(-189.289081, -168.785393) " points="45.2158431 164.663817 333.362545 164.655897 333.362318 172.906969 45.2156165 172.914889"></polygon>
                                <polygon id="Rectangle-21-Copy-12" fill="#E2E2E2" transform="translate(187.946332, 130.303812) rotate(-2.000000) translate(-187.946332, -130.303812) " points="43.8730948 126.182236 332.019797 126.174317 332.01957 134.425388 43.8728682 134.433308"></polygon>
                                <polygon id="Rectangle-21-Copy-24" fill="#E2E2E2" transform="translate(195.024534, 333.156716) rotate(-2.000000) translate(-195.024534, -333.156716) " points="50.9512662 330.135283 339.097968 330.127364 339.097802 336.178149 50.9511 336.186069"></polygon>
                                <polygon id="Rectangle-21-Copy-15" fill="#E2E2E2" transform="translate(191.015471, 218.261711) rotate(-2.000000) translate(-191.015471, -218.261711) " points="46.9422337 214.140135 335.088936 214.132215 335.088709 222.383287 46.9420071 222.391207"></polygon>
                                <polygon id="Rectangle-21-Copy-18" fill="#E2E2E2" transform="translate(190.152276, 193.523552) rotate(-2.000000) translate(-190.152276, -193.523552) " points="46.0790384 189.401976 334.22574 189.394056 334.225514 197.645128 46.0788118 197.653048"></polygon>
                                <polygon id="Rectangle-21-Copy-13" fill="#E2E2E2" transform="translate(96.610538, 146.155209) rotate(-2.000000) translate(-96.610538, -146.155209) " points="44.3703138 142.031109 148.850988 142.028237 148.850761 150.279309 44.3700872 150.28218"></polygon>
                                <polygon id="Rectangle-21-Copy-25" fill="#E2E2E2" transform="translate(134.074381, 344.643743) rotate(-2.000000) translate(-134.074381, -344.643743) " points="51.3147717 341.620625 216.834156 341.616076 216.83399 347.666861 51.3146055 347.671411"></polygon>
                                <polygon id="Rectangle-21-Copy-26" fill="#E2E2E2" transform="translate(86.561203, 425.838095) rotate(-2.000000) translate(-86.561203, -425.838095) " points="54.1172794 423.088629 119.005277 423.086846 119.005126 428.58756 54.1171283 428.589344"></polygon>
                                <polygon id="Rectangle-21-Copy-27" fill="#E2E2E2" transform="translate(102.786255, 433.011832) rotate(-2.000000) translate(-102.786255, -433.011832) " points="54.3952814 430.262805 151.17738 430.260145 151.177229 435.76086 54.3951303 435.76352"></polygon>
                                <polygon id="Rectangle-21-Copy-28" fill="#E2E2E2" transform="translate(78.874043, 442.068558) rotate(-2.000000) translate(-78.874043, -442.068558) " points="54.6785935 439.318866 103.069643 439.317536 103.069492 444.81825 54.6784424 444.81958"></polygon>
                                <polygon id="Rectangle-21-Copy-34" fill="#E2E2E2" transform="translate(66.572171, 412.776496) rotate(-2.000000) translate(-66.572171, -412.776496) " points="53.6496069 411.126637 79.4948263 411.125927 79.4947357 414.426355 53.6495162 414.427066"></polygon>
                                <polygon id="Rectangle-21-Copy-16" fill="#E2E2E2" transform="translate(164.234121, 231.306633) rotate(-2.000000) translate(-164.234121, -231.306633) " points="47.3808481 227.184309 281.08762 227.177885 281.087393 235.428957 47.3806215 235.43538"></polygon>
                                <path d="M43.2691437,101.384082 L330.685977,101.376182" id="Line-5-Copy" stroke="#979797" stroke-width="0.5" stroke-linecap="square" transform="translate(186.977560, 101.380132) rotate(-2.000000) translate(-186.977560, -101.380132) "></path>
                            </g>
                            <polygon id="Rectangle-21-Copy-21" fill="#E2E2E2" transform="translate(174.158870, 276.083428) rotate(-2.000000) translate(-174.158870, -276.083428) " points="115.044917 271.959517 233.273049 271.956267 233.272822 280.207339 115.044691 280.210588"></polygon>
                            <polygon id="Rectangle-21-Copy-31" fill="#E2E2E2" transform="translate(104.364397, 278.522625) rotate(-2.000000) translate(-104.364397, -278.522625) " points="100.240274 274.397203 108.488748 274.396976 108.488521 282.648047 100.240047 282.648274"></polygon>
                            <polygon id="Rectangle-21-Copy-22" fill="#E2E2E2" transform="translate(173.717681, 263.439480) rotate(-2.000000) translate(-173.717681, -263.439480) " points="114.603729 259.315569 232.83186 259.312319 232.831634 267.563391 114.603502 267.56664"></polygon>
                            <polygon id="Rectangle-21-Copy-32" fill="#E2E2E2" transform="translate(103.923209, 265.878677) rotate(-2.000000) translate(-103.923209, -265.878677) " points="99.7990849 261.753255 108.047559 261.753028 108.047333 270.004099 99.7988583 270.004326"></polygon>
                            <polygon id="Rectangle-21-Copy-23" fill="#E2E2E2" transform="translate(174.580877, 288.177639) rotate(-2.000000) translate(-174.580877, -288.177639) " points="115.466924 284.053728 233.695056 284.050478 233.694829 292.30155 115.466697 292.304799"></polygon>
                            <polygon id="Rectangle-21-Copy-33" fill="#E2E2E2" transform="translate(104.786404, 290.616836) rotate(-2.000000) translate(-104.786404, -290.616836) " points="100.66228 286.491414 108.910755 286.491187 108.910528 294.742258 100.662054 294.742485"></polygon>
                            <polygon id="Rectangle-21-Copy-29" fill="#E2E2E2" transform="translate(276.032804, 443.974966) rotate(-2.000000) translate(-276.032804, -443.974966) " points="251.837325 442.325417 300.228374 442.324087 300.228283 445.624515 251.837234 445.625845"></polygon>
                            <polygon id="Rectangle-21-Copy-30" fill="#E2E2E2" transform="translate(275.860165, 439.027334) rotate(-2.000000) translate(-275.860165, -439.027334) " points="243.416211 437.378012 308.304209 437.376228 308.304119 440.676657 243.416121 440.67844"></polygon>
                            <path d="M233.069483,432.633468 L319.305024,432.631098" id="Line-5-Copy-2" stroke="#979797" stroke-width="0.5" stroke-linecap="square" transform="translate(276.187254, 432.632283) rotate(-2.000000) translate(-276.187254, -432.632283) "></path>
                            <polyline id="Path-3" stroke="#F7F7F7" stroke-width="0.880890941" opacity="0.769999981" transform="translate(334.402130, 43.165815) rotate(-2.000000) translate(-334.402130, -43.165815) " points="304.984098 15.3872078 304.982572 70.9444221 363.821688 70.9428049"></polyline>
                            <text id="DOCUMENT" transform="translate(191.638841, 91.086104) rotate(-2.000000) translate(-191.638841, -91.086104) " font-family="SpaceMono-Regular, Space Mono" font-size="27.3076192" font-weight="normal" fill="#4A4A4A">
                                <tspan x="124.789789" y="97.0578299">DOCUMENT</tspan>
                            </text>
                            <text id="LEGAL" transform="translate(190.929103, 70.745840) rotate(-2.000000) translate(-190.929103, -70.745840) " font-family="SpaceMono-Regular, Space Mono" font-size="19.8200462" font-weight="normal" fill="#4A4A4A">
                                <tspan x="160.604432" y="67.7175658">LEGAL</tspan>
                            </text>
                            <path d="M250.318566,418.740785 C248.196439,417.313691 251.956108,413.322108 261.597572,406.766035 C276.059768,396.931926 275.907624,403.184306 268.123677,410.962408 C260.33973,418.74051 257.952951,421.955844 253.044788,428.762327 C248.136625,435.56881 252.027438,434.860231 258.76679,428.76217 C265.506142,422.664109 264.321983,431.732313 272.087042,421.347199 C279.8521,410.962086 263.568087,435.928886 276.480822,421.347079 C289.393556,406.765271 274.998264,429.250777 282.187412,421.346922 C289.37656,413.443067 288.032485,425.5628 291.931793,425.562693 C302.831748,425.562393 331.882836,399.811607 289.377304,386.365714 C261.040282,377.401785 270.374856,397.427861 317.381025,446.443943" id="Path-4" stroke="#000000" stroke-width="0.5" transform="translate(283.562675, 415.365435) rotate(-2.000000) translate(-283.562675, -415.365435) "></path>
                            <g id="Group-30" transform="translate(85.000000, 0.000000)">
                                <g id="Group-24" transform="translate(0.326960, -0.000000)">
                                    <g id="Group-23" transform="translate(0.000000, 0.000000)">
                                        <g id="Group-26" transform="translate(0.198853, 0.248566)">
                                            <g id="Group-25">
                                                <g id="Rectangle-21" transform="translate(172.437463, 225.153813) rotate(1.000000) translate(-172.437463, -225.153813) ">
                                                    <use fill="black" fill-opacity="1" filter="url(#filter-4)" xlink:href="#path-3"></use>
                                                    <path stroke="#EBEBEB" stroke-width="0.788165564" d="M4.74493608,3.73075557 L4.74868771,446.639946 L339.833385,446.642785 L340.129869,55.5592375 L288.371942,3.66487622 L4.74493608,3.73075557 Z" stroke-linejoin="square" fill="#FFFFFF" fill-rule="evenodd"></path>
                                                </g>
                                                <g id="Group" transform="translate(38.604583, 99.808427)" fill="#E2E2E2">
                                                    <polygon id="Rectangle-21-Copy-11" transform="translate(135.153271, 6.425316) rotate(1.000000) translate(-135.153271, -6.425316) " points="2.62521081 2.625415 267.681268 2.62766123 267.681332 10.2252171 2.62527516 10.2229708"></polygon>
                                                    <polygon id="Rectangle-21-Copy-14" transform="translate(95.698368, 86.797365) rotate(1.000000) translate(-95.698368, -86.797365) " points="2.62521664 82.9977986 188.771455 82.9993761 188.771519 90.5969319 2.625281 90.5953544"></polygon>
                                                    <polygon id="Rectangle-21-Copy-17" transform="translate(135.153271, 64.734450) rotate(1.000000) translate(-135.153271, -64.734450) " points="2.62521081 60.9345488 267.681268 60.936795 267.681332 68.5343508 2.62527516 68.5321046"></polygon>
                                                    <polygon id="Rectangle-21-Copy-19" transform="translate(135.153271, 53.177685) rotate(1.000000) translate(-135.153271, -53.177685) " points="2.62521081 49.3777835 267.681268 49.3800297 267.681332 56.9775856 2.62527516 56.9753393"></polygon>
                                                    <polygon id="Rectangle-21-Copy-12" transform="translate(135.153271, 17.982081) rotate(1.000000) translate(-135.153271, -17.982081) " points="2.62521081 14.1821803 267.681268 14.1844265 267.681332 21.7819823 2.62527516 21.7797361"></polygon>
                                                    <polygon id="Rectangle-21-Copy-15" transform="translate(135.199352, 99.091685) rotate(1.000000) translate(-135.199352, -99.091685) " points="2.67129179 95.2917843 267.727349 95.2940306 267.727413 102.891586 2.67135615 102.88934"></polygon>
                                                    <polygon id="Rectangle-21-Copy-18" transform="translate(135.153271, 75.765908) rotate(1.000000) translate(-135.153271, -75.765908) " points="2.62521081 71.9660065 267.681268 71.9682527 267.681332 79.5658086 2.62527516 79.5635623"></polygon>
                                                    <polygon id="Rectangle-21-Copy-13" transform="translate(50.679312, 27.962924) rotate(1.000000) translate(-50.679312, -27.962924) " points="2.6252233 24.1637388 98.7333355 24.1645533 98.7333999 31.7621092 2.62528766 31.7612947"></polygon>
                                                    <polygon id="Rectangle-21-Copy-16" transform="translate(110.164477, 110.211253) rotate(1.000000) translate(-110.164477, -110.211253) " points="2.67510901 106.411564 217.653781 106.413386 217.653845 114.010942 2.67517336 114.00912"></polygon>
                                                    <polygon id="Rectangle-21-Copy-20" transform="translate(133.053061, 169.270645) rotate(1.000000) translate(-133.053061, -169.270645) " points="0.525000736 165.470744 265.581058 165.47299 265.581122 173.070546 0.525065091 173.068299"></polygon>
                                                    <polygon id="Rectangle-21-Copy-21" transform="translate(117.383252, 139.328116) rotate(1.000000) translate(-117.383252, -139.328116) " points="63.0062619 135.528878 171.760178 135.529799 171.760243 143.127355 63.0063262 143.126434"></polygon>
                                                    <polygon id="Rectangle-21-Copy-31" transform="translate(53.319332, 138.635921) rotate(1.000000) translate(-53.319332, -138.635921) " points="49.5255583 134.837111 57.1130408 134.837176 57.1131052 142.434731 49.5256226 142.434667"></polygon>
                                                    <polygon id="Rectangle-21-Copy-22" transform="translate(117.383252, 127.771351) rotate(1.000000) translate(-117.383252, -127.771351) " points="63.0062619 123.972112 171.760178 123.973034 171.760243 131.57059 63.0063262 131.569668"></polygon>
                                                    <polygon id="Rectangle-21-Copy-32" transform="translate(53.530091, 126.555689) rotate(1.000000) translate(-53.530091, -126.555689) " points="49.7363172 122.756879 57.3237997 122.756943 57.3238641 130.354499 49.7363815 130.354435"></polygon>
                                                    <polygon id="Rectangle-21-Copy-24" transform="translate(133.053061, 203.414828) rotate(1.000000) translate(-133.053061, -203.414828) " points="0.525000743 199.615732 265.581058 199.617978 265.581122 207.213923 0.525065084 207.211677"></polygon>
                                                    <polygon id="Rectangle-21-Copy-23" transform="translate(117.383252, 150.884882) rotate(1.000000) translate(-117.383252, -150.884882) " points="63.0062619 147.085643 171.760178 147.086565 171.760243 154.68412 63.0063262 154.683199"></polygon>
                                                    <polygon id="Rectangle-21-Copy-33" transform="translate(53.126900, 149.665699) rotate(1.000000) translate(-53.126900, -149.665699) " points="49.3331262 145.866889 56.9206088 145.866953 56.9206731 153.464509 49.3331906 153.464445"></polygon>
                                                    <polygon id="Rectangle-21-Copy-25" transform="translate(76.652783, 213.395670) rotate(1.000000) translate(-76.652783, -213.395670) " points="0.525009086 209.597052 152.780492 209.598343 152.780556 217.194288 0.525073427 217.192998"></polygon>
                                                </g>
                                                <g id="Group-2" transform="translate(37.029425, 369.291180)" fill="#E2E2E2">
                                                    <polygon id="Rectangle-21-Copy-26" transform="translate(30.369146, 15.139899) rotate(1.000000) translate(-30.369146, -15.139899) " points="0.525026651 12.6071277 60.2132227 12.6076336 60.2132656 17.6726708 0.525069554 17.672165"></polygon>
                                                    <polygon id="Rectangle-21-Copy-27" transform="translate(45.038277, 22.494204) rotate(1.000000) translate(-45.038277, -22.494204) " points="0.525024481 19.9613086 89.5514863 19.962063 89.5515292 25.0271003 0.525067384 25.0263458"></polygon>
                                                    <polygon id="Rectangle-21-Copy-28" transform="translate(22.781665, 29.323202) rotate(1.000000) translate(-22.781665, -29.323202) " points="0.525027774 26.7904948 45.0382587 26.7908721 45.0383016 31.8559093 0.525070677 31.8555321"></polygon>
                                                    <polygon id="Rectangle-21-Copy-34" transform="translate(12.412107, 2.044819) rotate(1.000000) translate(-12.412107, -2.044819) " points="0.525037888 0.525206999 24.2991499 0.525408473 24.2991756 3.56443081 0.52506363 3.56422933"></polygon>
                                                </g>
                                                <polygon id="Rectangle-21-Copy-29" fill="#E2E2E2" transform="translate(268.626754, 402.176426) rotate(1.000000) translate(-268.626754, -402.176426) " points="251.825062 401.125669 285.428429 401.125953 285.428446 403.227183 251.82508 403.226898"></polygon>
                                                <polygon id="Rectangle-21-Copy-35" fill="#E2E2E2" transform="translate(202.461487, 401.066952) rotate(1.000000) translate(-202.461487, -401.066952) " points="185.659795 400.016195 219.263161 400.01648 219.263178 402.117709 185.659812 402.117425"></polygon>
                                                <polygon id="Rectangle-21-Copy-30" fill="#E2E2E2" transform="translate(268.419249, 399.020477) rotate(1.000000) translate(-268.419249, -399.020477) " points="246.104505 397.969673 290.733975 397.970051 290.733993 400.071281 246.104522 400.070903"></polygon>
                                                <polygon id="Rectangle-21-Copy-36" fill="#E2E2E2" transform="translate(202.263144, 397.385776) rotate(1.000000) translate(-202.263144, -397.385776) " points="179.9484 396.334972 224.577871 396.33535 224.577888 398.43658 179.948418 398.436202"></polygon>
                                                <path d="M43.4871942,90.9420829 L307.87187,90.9443234" id="Line-5-Copy" stroke="#979797" stroke-width="0.5" stroke-linecap="square" transform="translate(175.679532, 90.943203) rotate(1.000000) translate(-175.679532, -90.943203) "></path>
                                                <path d="M239.055867,394.508906 L298.465177,394.50941" id="Line-5-Copy-2" stroke="#979797" stroke-width="0.5" stroke-linecap="square" transform="translate(268.760522, 394.509158) rotate(1.000000) translate(-268.760522, -394.509158) "></path>
                                                <path d="M173.415572,393.408601 L232.824881,393.409104" id="Line-5-Copy-3" stroke="#979797" stroke-width="0.5" stroke-linecap="square" transform="translate(203.120227, 393.408852) rotate(1.000000) translate(-203.120227, -393.408852) "></path>
                                                <g id="Group-11" opacity="0.504910714" transform="translate(237.564865, 354.545219) rotate(1.000000) translate(-237.564865, -354.545219) translate(210.564865, 326.545219)">
                                                    <g id="Group-29" opacity="0.501023065">
                                                        <path d="M16.7009594,4.19370056 C19.5947431,5.0887801 21.9584247,4.40734694 23.792004,2.14940108 C26.542373,-1.23751772 29.2879023,-0.14369359 30.8699815,2.14940108 C32.4520608,4.44249574 35.6254145,6.67582125 40.0590113,5.5591585 C44.492608,4.44249574 45.5544256,7.25893496 45.5544256,9.95534994 C45.5544256,12.6517649 45.887877,15.8253613 50.1395032,17.1572902 C54.3911294,18.4892191 54.1873804,22.9165099 52.1634418,24.5701232 C50.1395032,26.2237365 49.6831249,31.2496908 52.1634418,32.9237131 C54.6437587,34.5977353 53.4691774,40.357441 49.5118015,40.357441 C45.5544256,40.357441 44.2864392,45.2278983 44.2864392,47.4724001 C44.2864392,49.716902 42.5562669,53.2666067 38.1744544,51.554682 C33.7926418,49.8427574 31.4955502,50.8557482 29.6992719,53.3472708 C28.3156181,55.2664638 27.6926967,55.4583267 26.1486158,55.6512114 C24.7037275,55.8317051 23.4396957,55.2664638 21.976654,53.0984756 C18.7505481,48.317915 15.988564,50.4822387 13.915261,50.4822387 C11.841958,50.4822387 7.24671723,50.4326741 8.03848278,45.3950575 C8.56632649,42.0366465 7.25849369,39.925289 4.11498439,39.0609849 C0.234236169,37.21543 -0.90162799,34.7383305 0.707391911,31.6296865 C3.12092176,26.9667206 2.47192567,25.2431336 0.707391911,21.7682619 C-1.05714184,18.2933901 0.707391911,16.145102 3.99108953,15.4696619 C4.50256943,15.3644531 9.68928493,13.9572107 9.22516319,8.35445984 C9.14404602,7.37523548 9.4795039,4.65514781 11.2989501,3.85039236 C12.102657,3.49490645 13.9033268,3.60934252 16.7009594,4.19370056 Z" id="Path-5" fill="#D8D8D8"></path>
                                                        <ellipse id="Oval" fill="#EDEDED" cx="26.7776784" cy="27.8412981" rx="20.4770482" ry="20.5645952"></ellipse>
                                                        <ellipse id="Oval-Copy-4" stroke="#D8D8D8" stroke-width="2.52212981" cx="26.6201626" cy="27.6831089" rx="18.1143118" ry="18.1917573"></ellipse>
                                                    </g>
                                                </g>
                                                <path d="M106.439807,60.9527732 L113.259629,60.9527732 C115.82943,60.9527732 117.707333,61.5655627 118.893395,62.7911601 C120.079457,64.0167574 120.672479,65.9737302 120.672479,68.6621373 L120.672479,73.9993894 C120.672479,76.6877964 120.079457,78.6447693 118.893395,79.8703666 C117.707333,81.0959639 115.82943,81.7087534 113.259629,81.7087534 L106.439807,81.7087534 L106.439807,79.3662928 L108.218891,79.3662928 L108.218891,63.2655825 L106.439807,63.2655825 L106.439807,60.9527732 Z M112.903813,79.3959442 C113.813127,79.3959442 114.598881,79.3069909 115.261099,79.1290816 C115.923317,78.9511723 116.471862,78.6497194 116.906752,78.2247139 C117.341641,77.7997084 117.662861,77.2313955 117.870422,76.5197584 C118.077983,75.8081212 118.181762,74.9087044 118.181762,73.821481 L118.181762,68.8400457 C118.181762,67.7528223 118.077983,66.8534055 117.870422,66.1417683 C117.662861,65.4301311 117.341641,64.8618183 116.906752,64.4368128 C116.471862,64.0118072 115.923317,63.7103544 115.261099,63.5324451 C114.598881,63.3545358 113.813127,63.2655825 112.903813,63.2655825 L110.709609,63.2655825 L110.709609,79.3959442 L112.903813,79.3959442 Z M124.200996,69.0179541 C124.200996,66.329547 124.843437,64.2440861 126.128337,62.7615087 C127.413237,61.2789312 129.202187,60.5376536 131.49524,60.5376536 C133.788294,60.5376536 135.577244,61.2789312 136.862144,62.7615087 C138.147044,64.2440861 138.789485,66.329547 138.789485,69.0179541 L138.789485,73.6435726 C138.789485,76.4110504 138.147044,78.5162788 136.862144,79.9593208 C135.577244,81.4023628 133.788294,82.123873 131.49524,82.123873 C129.202187,82.123873 127.413237,81.4023628 126.128337,79.9593208 C124.843437,78.5162788 124.200996,76.4110504 124.200996,73.6435726 L124.200996,69.0179541 Z M131.49524,79.8110638 C133.096424,79.8110638 134.297294,79.2625184 135.097886,78.1654111 C135.898477,77.0683038 136.298767,75.5017371 136.298767,73.4656642 L136.298767,69.1958625 C136.298767,67.2981634 135.898477,65.7661897 135.097886,64.5998955 C134.297294,63.4336012 133.096424,62.8504629 131.49524,62.8504629 C129.894057,62.8504629 128.693187,63.4336012 127.892595,64.5998955 C127.092004,65.7661897 126.691714,67.2981634 126.691714,69.1958625 L126.691714,73.4656642 C126.691714,75.5017371 127.092004,77.0683038 127.892595,78.1654111 C128.693187,79.2625184 129.894057,79.8110638 131.49524,79.8110638 Z M149.760503,79.8110638 C150.610514,79.8110638 151.336966,79.6677501 151.939881,79.3811185 C152.542796,79.0944869 153.036981,78.7090225 153.422451,78.2247139 C153.807921,77.7404053 154.094548,77.186918 154.282342,76.5642355 C154.470135,75.941553 154.56403,75.2842868 154.56403,74.5924174 L154.56403,74.2366006 L157.054748,74.2366006 L157.054748,74.5924174 C157.054748,75.6401054 156.896608,76.6235337 156.580325,77.5427317 C156.264042,78.4619297 155.799508,79.2625095 155.186709,79.9444951 C154.573911,80.6264807 153.812866,81.1602006 152.903551,81.5456707 C151.994237,81.9311409 150.946565,82.123873 149.760503,82.123873 C147.46745,82.123873 145.6785,81.4023628 144.3936,79.9593208 C143.108699,78.5162788 142.466259,76.4110504 142.466259,73.6435726 L142.466259,69.0179541 C142.466259,66.329547 143.108699,64.2440861 144.3936,62.7615087 C145.6785,61.2789312 147.46745,60.5376536 149.760503,60.5376536 C150.946565,60.5376536 151.994237,60.7303858 152.903551,61.1158559 C153.812866,61.5013261 154.573911,62.0350459 155.186709,62.7170316 C155.799508,63.3990172 156.264042,64.199597 156.580325,65.118795 C156.896608,66.037993 157.054748,67.0214213 157.054748,68.0691093 L157.054748,68.4249261 L154.56403,68.4249261 L154.56403,68.0691093 C154.544262,67.3970075 154.440483,66.7446833 154.25269,66.1121169 C154.064897,65.4795505 153.77827,64.9211214 153.3928,64.4368128 C153.007329,63.9525041 152.518086,63.5670398 151.925055,63.2804082 C151.332024,62.9937765 150.610514,62.8504629 149.760503,62.8504629 C148.159319,62.8504629 146.95845,63.4336012 146.157858,64.5998955 C145.357266,65.7661897 144.956976,67.2981634 144.956976,69.1958625 L144.956976,73.4656642 C144.956976,75.5017371 145.357266,77.0683038 146.157858,78.1654111 C146.95845,79.2625184 148.159319,79.8110638 149.760503,79.8110638 Z M163.162936,60.9527732 L163.162936,74.711023 C163.162936,76.3912774 163.553342,77.661333 164.334166,78.5212279 C165.11499,79.3811228 166.266442,79.8110638 167.788554,79.8110638 C169.310667,79.8110638 170.462118,79.3811228 171.242943,78.5212279 C172.023767,77.661333 172.414173,76.3912774 172.414173,74.711023 L172.414173,60.9527732 L174.90489,60.9527732 L174.90489,74.711023 C174.90489,77.1226822 174.272334,78.9610507 173.007201,80.2261834 C171.742068,81.4913161 170.002537,82.123873 167.788554,82.123873 C165.574572,82.123873 163.835041,81.4913161 162.569908,80.2261834 C161.304775,78.9610507 160.672218,77.1226822 160.672218,74.711023 L160.672218,60.9527732 L163.162936,60.9527732 Z M178.225847,60.9527732 L182.970071,60.9527732 L185.757303,80.641303 L186.11312,80.641303 L188.900351,60.9527732 L193.644575,60.9527732 L193.644575,81.7087534 L191.331766,81.7087534 L191.331766,62.0202237 L190.975949,62.0202237 L188.188718,81.7087534 L183.681705,81.7087534 L180.894473,62.0202237 L180.538657,62.0202237 L180.538657,81.7087534 L178.225847,81.7087534 L178.225847,60.9527732 Z M197.795771,60.9527732 L210.367965,60.9527732 L210.367965,63.2655825 L200.286489,63.2655825 L200.286489,70.1447073 L210.190057,70.1447073 L210.190057,72.4575165 L200.286489,72.4575165 L200.286489,79.3959442 L210.545874,79.3959442 L210.545874,81.7087534 L197.795771,81.7087534 L197.795771,60.9527732 Z M226.290767,80.641303 L226.646584,80.641303 L226.646584,60.9527732 L229.137302,60.9527732 L229.137302,81.7087534 L224.155866,81.7087534 L218.166283,62.0202237 L217.810467,62.0202237 L217.810467,81.7087534 L215.319749,81.7087534 L215.319749,60.9527732 L220.301184,60.9527732 L226.290767,80.641303 Z M233.080938,60.9527732 L247.669427,60.9527732 L247.669427,63.2655825 L241.620541,63.2655825 L241.620541,81.7087534 L239.129823,81.7087534 L239.129823,63.2655825 L233.080938,63.2655825 L233.080938,60.9527732 Z" id="DOCUMENT" fill="#4A4A4A" transform="translate(177.054617, 71.330763) rotate(1.000000) translate(-177.054617, -71.330763) "></path>
                                                <path d="M144.840741,38.2327922 L146.727609,38.2327922 L146.727609,52.2046032 L154.948964,52.2046032 L154.948964,53.9566953 L144.840741,53.9566953 L144.840741,38.2327922 Z M158.745163,38.2327922 L168.269356,38.2327922 L168.269356,39.9848843 L160.632032,39.9848843 L160.632032,45.196235 L168.13458,45.196235 L168.13458,46.9483271 L160.632032,46.9483271 L160.632032,52.2046032 L168.404132,52.2046032 L168.404132,53.9566953 L158.745163,53.9566953 L158.745163,38.2327922 Z M175.749441,46.4092218 L182.75781,46.4092218 L182.75781,53.9566953 L181.005717,53.9566953 L181.005717,52.0698269 L180.736165,52.0698269 C180.481586,52.7287366 180.032336,53.260349 179.388402,53.6646799 C178.744467,54.0690109 177.995717,54.2711733 177.14213,54.2711733 C175.44993,54.2711733 174.120899,53.724586 173.154997,52.6313949 C172.189096,51.5382038 171.706152,49.9433667 171.706152,47.8468358 L171.706152,44.3426517 C171.706152,42.3060217 172.192839,40.7261596 173.166229,39.6030181 C174.139618,38.4798765 175.494855,37.9183142 177.231981,37.9183142 C178.130494,37.9183142 178.924169,38.0643204 179.613029,38.3563372 C180.301889,38.648354 180.878426,39.0526789 181.342658,39.569324 C181.80689,40.0859691 182.158803,40.6924564 182.398406,41.3888042 C182.63801,42.085152 182.75781,42.830158 182.75781,43.6238447 L182.75781,43.8933973 L180.870941,43.8933973 L180.870941,43.6238447 C180.870941,43.1146872 180.79981,42.6205123 180.657545,42.1413053 C180.515281,41.6620982 180.298143,41.2390546 180.006127,40.8721617 C179.71411,40.5052688 179.339735,40.2132564 178.882991,39.9961157 C178.426246,39.778975 177.875915,39.6704062 177.231981,39.6704062 C176.018988,39.6704062 175.109257,40.1121686 174.50276,40.9957066 C173.896264,41.8792446 173.59302,43.0398068 173.59302,44.477428 L173.59302,47.7120595 C173.59302,49.2545072 173.896264,50.4412756 174.50276,51.2724004 C175.109257,52.1035251 176.033963,52.5190813 177.276906,52.5190813 C178.400048,52.5190813 179.279829,52.1596814 179.916276,51.4408708 C180.552723,50.7220602 180.870941,49.7187355 180.870941,48.4308665 L180.870941,48.1613139 L175.749441,48.1613139 L175.749441,46.4092218 Z M194.371035,50.0481822 L187.632219,50.0481822 L186.486621,53.9566953 L184.464976,53.9566953 L189.227072,38.2327922 L192.776182,38.2327922 L197.538278,53.9566953 L195.516634,53.9566953 L194.371035,50.0481822 Z M190.866851,39.0414501 L188.148862,48.2960902 L193.854393,48.2960902 L191.136404,39.0414501 L190.866851,39.0414501 Z M199.829476,38.2327922 L201.716344,38.2327922 L201.716344,52.2046032 L209.937699,52.2046032 L209.937699,53.9566953 L199.829476,53.9566953 L199.829476,38.2327922 Z" id="LEGAL" fill="#4A4A4A" transform="translate(177.389220, 46.094744) rotate(1.000000) translate(-177.389220, -46.094744) "></path>
                                                <path d="M183.519078,390.585376 C204.469573,369.860113 210.920586,355.745758 202.872119,348.242311 C194.823651,340.738864 193.267346,360.666596 198.203205,408.025507 L189.45572,377.364232 C201.119034,396.778846 211.965684,396.778846 221.995671,377.364232 C232.025657,357.949618 229.246466,358.806569 213.658099,379.935085 C208.354398,386.867433 205.702547,396.230907 205.702547,408.025507" id="Path-6" stroke="#000000" stroke-width="0.52544371"></path>
                                                <polygon id="ic_check-copy-28" fill="#FFFFFF" transform="translate(91.610651, 249.613086) rotate(3.000000) translate(-91.610651, -249.613086) " points="90.9534793 250.60365 89.532012 249.133524 88.9854025 249.698804 90.6802038 251.451584 91.2267979 251.451629 94.2359002 248.339913 93.6893215 247.774544"></polygon>
                                                <polygon id="ic_check-copy-29" fill="#FFFFFF" transform="translate(91.803083, 238.583309) rotate(3.000000) translate(-91.803083, -238.583309) " points="91.1459114 239.573873 89.724444 238.103746 89.1778345 238.669026 90.8726358 240.421807 91.4192299 240.421851 94.4283322 237.310136 93.8817535 236.744766"></polygon>
                                                <polygon id="ic_check-copy-30" fill="#FFFFFF" transform="translate(92.013842, 226.503076) rotate(3.000000) translate(-92.013842, -226.503076) " points="91.3566702 227.49364 89.9352029 226.023514 89.3885934 226.588794 91.0833947 228.341574 91.6299888 228.341619 94.6390911 225.229903 94.0925124 224.664534"></polygon>
                                            </g>
                                            <polyline id="Path-3" stroke="#EBEBEB" stroke-width="1.30815001" opacity="0.769999981" transform="translate(316.615291, 32.844073) rotate(1.000000) translate(-316.615291, -32.844073) " points="291.128252 7.34564969 291.128684 58.3424954 342.10233 58.3337881"></polyline>
                                        </g>
                                    </g>
                                </g>
                                <g id="Group-28" transform="translate(242.313086, 387.368724)" stroke="#000000" stroke-width="0.64000001">
                                    <path d="M6.58770336,5.59552404e-14 L-7.10542736e-15,4.79324864" id="Path-13"></path>
                                    <path d="M6.58770336,5.59552404e-14 L-7.10542736e-15,4.79324864" id="Path-13" transform="translate(3.293852, 2.396624) scale(-1, 1) translate(-3.293852, -2.396624) "></path>
                                </g>
                            </g>
                        </g>
                    </g>
                </g>
                <g id="Group-6" transform="translate(0.000000, 374.000000)">
                    <polygon id="Rectangle-9-Copy-2" fill="#39ff14" points="0 87 6 87 6 93 0 93"></polygon>
                    <polygon id="Rectangle-9-Copy-4" fill="#70C6FF" points="8 0 14 0 14 6 8 6"></polygon>
                    <polygon id="Rectangle-9-Copy-3" fill="#39ff14" points="23 57 29 57 29 63 23 63"></polygon>
                </g>
                <g id="Group-5" transform="translate(90.500000, 8.500000) scale(-1, 1) rotate(-90.000000) translate(-90.500000, -8.500000) translate(82.000000, -14.000000)">
                    <polygon id="Rectangle-9-Copy-4" fill="#70C6FF" points="0 39 6 39 6 45 0 45"></polygon>
                    <polygon id="Rectangle-9-Copy-3" fill="#39ff14" points="11 0 17 0 17 6 11 6"></polygon>
                </g>
                <rect id="Rectangle" fill="#FFFFFF" opacity="0.699079241" transform="translate(464.593560, 324.563563) rotate(-44.000000) translate(-464.593560, -324.563563) " x="401.59356" y="310.563563" width="126" height="28"></rect>
                <g id="Group-27" transform="translate(385.000000, 256.000000)" fill="#70C6FF">
                    <path d="M124.66883,0 L22.5094399,100.947977 L22.5094399,105.437093 L23.4091928,106.326419 L5.79766063,116.598105 L4.21784185,119.336163 L4.24799012,141.37664 L7.43060956,144.546663 L28.763229,144.744209 L31.5425535,143.212186 L42.5424712,125.233012 L43.2250082,125.907209 L47.7682537,125.907209 L135.170066,39.5420233 L142.375997,46.6624884 L116.554003,72.1787093 L121.097002,76.6680698 L149.190988,48.9072907 L149.190988,44.4181744 L139.713311,35.0526628 L149.927891,24.9594767 L149.927891,20.4701163 L129.212076,0 L124.66883,0 Z M118.997496,14.5825465 L126.940577,6.7339186 L143.113147,22.7146744 L135.170066,30.5635465 L118.997496,14.5825465 Z M29.3244316,103.192779 L114.454498,19.0721512 L130.62682,35.0526628 L45.4967545,119.173291 L44.1862932,117.878616 L44.1862932,117.878372 L30.8837397,104.733349 L30.8834926,104.733349 L29.3244316,103.192779 Z M10.6688303,138.227616 L10.6456013,121.142895 L28.1007084,110.962291 L37.8633114,120.609349 L26.9918946,138.378523 L10.6688303,138.227616 Z" id="Fill-1"></path>
                    <polygon id="Fill-2" points="4.63629135e-13 142.490177 4.54324547 146.979293 19.9939868 131.711805 15.4509885 127.222444"></polygon>
                </g>
            </g>
        </g>
    </g>
</svg>