<?xml version="1.0" encoding="UTF-8"?>
<svg width="78px" height="78px" viewBox="0 0 78 78" version="1.1" xmlns="http://www.w3.org/2000/svg" xmlns:xlink="http://www.w3.org/1999/xlink">
    <!-- Generator: Sketch 52.2 (67145) - http://www.bohemiancoding.com/sketch -->
    <title>10ic_soluciones_banca</title>
    <desc>Created with Sketch.</desc>
    <g id="10ic_soluciones_banca" stroke="none" stroke-width="1" fill="none" fill-rule="evenodd">
        <g id="ic_banca" transform="translate(9.000000, 5.000000)" stroke-width="2">
            <g id="Group-43">
                <rect id="Rectangle-Copy-40" stroke="#39ff14" stroke-linejoin="bevel" x="46.322898" y="57.3224238" width="12.1127013" height="6.47734452"></rect>
                <rect id="Rectangle-Copy-41" stroke="#39ff14" stroke-linejoin="bevel" x="24.6073345" y="57.3224238" width="12.1127013" height="6.47734452"></rect>
                <rect id="Rectangle-Copy-42" stroke="#39ff14" stroke-linejoin="bevel" x="2.56440072" y="57.3224238" width="12.1127013" height="6.47734452"></rect>
                <rect id="Rectangle" stroke="#39ff14" stroke-linejoin="bevel" transform="translate(30.554562, 21.195798) scale(1, -1) translate(-30.554562, -21.195798) " x="0.982110912" y="19.1647661" width="59.1449016" height="4.06206351"></rect>
                <rect id="Rectangle-Copy-40" stroke="#39ff14" stroke-linejoin="bevel" transform="translate(52.379249, 29.601585) scale(1, -1) translate(-52.379249, -29.601585) " x="46.322898" y="26.3629127" width="12.1127013" height="6.47734452"></rect>
                <rect id="Rectangle-Copy-41" stroke="#39ff14" stroke-linejoin="bevel" transform="translate(30.663685, 29.601585) scale(1, -1) translate(-30.663685, -29.601585) " x="24.6073345" y="26.3629127" width="12.1127013" height="6.47734452"></rect>
                <rect id="Rectangle-Copy-42" stroke="#39ff14" stroke-linejoin="bevel" transform="translate(8.620751, 29.601585) scale(1, -1) translate(-8.620751, -29.601585) " x="2.56440072" y="26.3629127" width="12.1127013" height="6.47734452"></rect>
                <path d="M-7.74108329,45.2410833 L16.7410833,45.2410833" id="Path-9" stroke="#39ff14" transform="translate(4.500000, 45.241083) rotate(90.000000) translate(-4.500000, -45.241083) "></path>
                <path d="M14.2589167,45.2410833 L38.7410833,45.2410833" id="Path-9-Copy-21" stroke="#39ff14" transform="translate(26.500000, 45.241083) rotate(90.000000) translate(-26.500000, -45.241083) "></path>
                <path d="M36.1381654,45.2410833 L60.6203319,45.2410833" id="Path-9-Copy-23" stroke="#39ff14" transform="translate(48.379249, 45.241083) rotate(90.000000) translate(-48.379249, -45.241083) "></path>
                <path d="M0.258916709,44.2410833 L24.7410833,44.2410833" id="Path-9-Copy-20" stroke="#39ff14" transform="translate(12.500000, 44.241083) rotate(90.000000) translate(-12.500000, -44.241083) "></path>
                <path d="M22.2589167,44.2410833 L46.7410833,44.2410833" id="Path-9-Copy-22" stroke="#39ff14" transform="translate(34.500000, 44.241083) rotate(90.000000) translate(-34.500000, -44.241083) "></path>
                <path d="M44.1381654,44.2410833 L68.6203319,44.2410833" id="Path-9-Copy-24" stroke="#39ff14" transform="translate(56.379249, 44.241083) rotate(90.000000) translate(-56.379249, -44.241083) "></path>
                <path d="" id="Path-9-Copy-16" stroke="#70C6FF" transform="translate(28.400000, 31.900000) rotate(90.000000) translate(-28.400000, -31.900000) "></path>
                <path d="" id="Path-9-Copy-18" stroke="#70C6FF" transform="translate(49.331402, 32.400000) rotate(90.000000) translate(-49.331402, -32.400000) "></path>
                <path d="" id="Path-9-Copy-12" stroke="#70C6FF" transform="translate(28.400000, 31.450000) rotate(90.000000) translate(-28.400000, -31.450000) "></path>
                <path d="" id="Path-9-Copy-14" stroke="#70C6FF" transform="translate(49.964580, 31.450000) rotate(90.000000) translate(-49.964580, -31.450000) "></path>
                <path d="" id="Path-9-Copy-8" stroke="#313131" transform="translate(28.535001, 30.595001) rotate(90.000000) translate(-28.535001, -30.595001) "></path>
                <path d="" id="Path-9-Copy-10" stroke="#313131" transform="translate(50.302575, 30.595001) rotate(90.000000) translate(-50.302575, -30.595001) "></path>
                <path d="" id="Path-9-Copy-3" stroke="#70C6FF" transform="translate(13.100000, 31.900000) rotate(90.000000) translate(-13.100000, -31.900000) "></path>
                <path d="" id="Path-9-Copy-17" stroke="#70C6FF" transform="translate(35.036765, 32.400000) rotate(90.000000) translate(-35.036765, -32.400000) "></path>
                <path d="" id="Path-9-Copy-19" stroke="#70C6FF" transform="translate(56.507872, 32.400000) rotate(90.000000) translate(-56.507872, -32.400000) "></path>
                <path d="" id="Path-9-Copy-13" stroke="#70C6FF" transform="translate(35.150000, 31.450000) rotate(90.000000) translate(-35.150000, -31.450000) "></path>
                <path d="" id="Path-9-Copy-15" stroke="#70C6FF" transform="translate(56.714580, 31.450000) rotate(90.000000) translate(-56.714580, -31.450000) "></path>
                <path d="" id="Path-9-Copy-9" stroke="#313131" transform="translate(35.622501, 30.595001) rotate(90.000000) translate(-35.622501, -30.595001) "></path>
                <path d="" id="Path-9-Copy-11" stroke="#313131" transform="translate(57.390075, 30.595001) rotate(90.000000) translate(-57.390075, -30.595001) "></path>
                <path d="" id="Path-9-Copy-4" stroke="#313131" transform="translate(28.659798, 30.551464) rotate(90.000000) translate(-28.659798, -30.551464) "></path>
                <path d="" id="Path-9-Copy-5" stroke="#313131" transform="translate(35.916833, 30.551464) rotate(90.000000) translate(-35.916833, -30.551464) "></path>
                <path d="" id="Path-9-Copy-6" stroke="#313131" transform="translate(50.322589, 30.551464) rotate(90.000000) translate(-50.322589, -30.551464) "></path>
                <path d="" id="Path-9-Copy-7" stroke="#313131" transform="translate(57.645896, 30.392501) rotate(90.000000) translate(-57.645896, -30.392501) "></path>
                <polygon id="Path-37" stroke="#39ff14" stroke-linejoin="bevel" points="30.7237883 0.0548927502 0.872987478 15.6615878 60.274926 15.6615878"></polygon>
                <path d="M0,67.0384406 L60.9842283,67.0384406" id="Path-9-Copy" stroke="#39ff14"></path>
            </g>
        </g>
    </g>
</svg>