<?xml version="1.0" encoding="UTF-8"?>
<svg width="78px" height="78px" viewBox="0 0 78 78" version="1.1" xmlns="http://www.w3.org/2000/svg" xmlns:xlink="http://www.w3.org/1999/xlink">
    <!-- Generator: Sketch 52.2 (67145) - http://www.bohemiancoding.com/sketch -->
    <title>12ic_soluciones_energetica</title>
    <desc>Created with Sketch.</desc>
    <g id="12ic_soluciones_energetica" stroke="none" stroke-width="1" fill="none" fill-rule="evenodd">
        <g id="ic_industria" transform="translate(7.000000, 3.000000)" stroke="#39ff14" stroke-width="2.5">
            <g id="Group-46" transform="translate(31.606113, 35.535694) rotate(-1.000000) translate(-31.606113, -35.535694) translate(0.606113, 0.535694)">
                <g transform="translate(0.715827, 0.151558)">
                    <path d="M22.7273867,64.6730365 L26.705983,68.5709612 L34.362479,68.5709612 L38.3107118,64.6730365 L38.3107118,51.7813161 C39.3384995,47.3187976 41.6689787,43.1868359 45.3021495,39.3854312 C50.7519056,33.6833241 52.0550869,17.0636382 39.8523933,11.8665666 C35.4760115,10.0026855 32.7479122,9.63347021 29.9789695,9.67033581 C25.0272514,9.73626279 21.5983481,11.8937034 20.1406136,12.7526787 C18.2933382,13.8411923 10.8018619,19.9543525 11.8890911,30.460394 C12.3441051,34.8572554 16.3215102,39.5087993 19.2904359,43.8479498 C21.5047016,47.084148 22.7273867,50.3748459 22.7273867,52.0292338 C22.7273867,58.1445371 22.7273867,62.359138 22.7273867,64.6730365 Z" id="Path-18"></path>
                    <path d="M51.9039321,42.3939265 L56.8834187,45.270467" id="Path-21"></path>
                    <path d="M54.9128557,30.6178358 L60.6799593,30.6178358" id="Path-22"></path>
                    <path d="M52.656163,18.041247 L57.5926862,15.0932032" id="Path-23"></path>
                    <path d="M43.3786486,8.67711946 L46.1417695,3.67209095" id="Path-24"></path>
                    <path d="M30.4653515,5.70210708 L30.4653515,0" id="Path-29"></path>
                    <path d="M16.7430143,8.67711946 L13.8984066,3.71691817" id="Path-30"></path>
                    <path d="M3.0089236,15.1229796 L7.94020412,18.0795886" id="Path-31"></path>
                    <path d="M5.5067062e-13,30.6178358 L5.76710357,30.6178358" id="Path-32"></path>
                    <path d="M4.26264177,45.6073802 L9.11989858,42.5333145" id="Path-33"></path>
                    <path d="M22.3161834,51.1950048 L38.5278367,51.1950048" id="Path-34"></path>
                    <path d="M22.566927,56.1533588 L38.2770931,56.1533588" id="Path-35"></path>
                    <path d="M22.566927,60.120042 L38.2770931,60.120042" id="Path-35-Copy"></path>
                    <path d="M22.566927,64.5825606 L38.2770931,64.5825606" id="Path-35-Copy-2"></path>
                    <path d="M27.6092248,50.4599676 L27.6092248,36.6528342 C27.6092248,34.6954828 26.8359353,33.7168071 25.2893564,33.7168071 C22.9694881,33.7168071 22.566927,34.4605602 22.566927,36.6528342 C22.566927,38.8451083 25.0746082,39.2293443 26.9990166,39.2293443 C28.2819556,39.2293443 30.5379953,39.2293443 33.7671358,39.2293443 C36.6581968,39.2512874 38.1037273,38.3924507 38.1037273,36.6528342 C38.1037273,34.9132178 37.2387761,34.0505114 35.5088735,34.064715 C33.8521046,34.0724545 33.0237201,34.9351609 33.0237201,36.6528342 C33.0237201,38.3705076 33.0237201,42.9284991 33.0237201,50.3268087" id="Path-36"></path>
                </g>
            </g>
        </g>
    </g>
</svg>