<?xml version="1.0" encoding="UTF-8"?>
<svg width="78px" height="78px" viewBox="0 0 78 78" version="1.1" xmlns="http://www.w3.org/2000/svg" xmlns:xlink="http://www.w3.org/1999/xlink">
    <!-- Generator: Sketch 52.2 (67145) - http://www.bohemiancoding.com/sketch -->
    <title>2ic_fecha</title>
    <desc>Created with Sketch.</desc>
    <g id="2ic_fecha" stroke="none" stroke-width="1" fill="none" fill-rule="evenodd">
        <g id="ic_fecha" transform="translate(17.000000, 14.000000)" stroke="#39ff14">
            <g id="Group-69">
                <polygon id="Rectangle" stroke-width="2.75" stroke-linecap="square" stroke-linejoin="bevel" points="2.26573855 3.55608233 42.0137627 3.55608233 44.4518272 6.39503015 44.4518272 47.4005286 42.0137627 49.8913043 2.26573855 50.5223383 -2.0250468e-13 47.7610712 -2.0250468e-13 6.65217391"></polygon>
                <rect id="Rectangle-Copy-62" stroke-width="2.2" fill="#39ff14" stroke-linejoin="bevel" x="8.625459" y="3.10862447e-14" width="4.18604651" height="3.0931677"></rect>
                <rect id="Rectangle-Copy-63" stroke-width="2.2" fill="#39ff14" stroke-linejoin="bevel" x="32.6952264" y="3.10862447e-14" width="4.18604651" height="3.0931677"></rect>
                <rect id="Rectangle-Copy-61" stroke-width="2.2" stroke-linejoin="bevel" x="7.14565483" y="21.2608696" width="6.51407589" height="6.50639386"></rect>
                <rect id="Rectangle-Copy-66" stroke-width="2.2" stroke-linejoin="bevel" x="7.14565483" y="33.4565217" width="6.51407589" height="6.50639386"></rect>
                <rect id="Rectangle-Copy-64" stroke-width="2.2" fill="#39ff14" stroke-linejoin="bevel" x="18.6572827" y="21.2608696" width="6.51407589" height="6.50639386"></rect>
                <rect id="Rectangle-Copy-71" stroke-width="2.2" stroke-linejoin="bevel" x="18.6572827" y="33.4565217" width="6.51407589" height="6.50639386"></rect>
                <rect id="Rectangle-Copy-65" stroke-width="2.2" stroke-linejoin="bevel" x="30.1689106" y="21.2608696" width="6.51407589" height="6.50639386"></rect>
                <rect id="Rectangle-Copy-72" stroke-width="2.2" stroke-linejoin="bevel" x="30.1689106" y="33.4565217" width="6.51407589" height="6.50639386"></rect>
                <path d="M0,12.75 L43.9534884,12.75" id="Line-4" stroke-width="2.75" stroke-linecap="square"></path>
            </g>
        </g>
    </g>
</svg>