<?xml version="1.0" encoding="UTF-8"?>
<svg width="78px" height="78px" viewBox="0 0 78 78" version="1.1" xmlns="http://www.w3.org/2000/svg" xmlns:xlink="http://www.w3.org/1999/xlink">
    <!-- Generator: Sketch 52.2 (67145) - http://www.bohemiancoding.com/sketch -->
    <title>3ic_integridad</title>
    <desc>Created with Sketch.</desc>
    <g id="3ic_integridad" stroke="none" stroke-width="1" fill="none" fill-rule="evenodd" stroke-linejoin="bevel">
        <g id="ic_integridad" transform="translate(16.000000, 15.000000)" stroke="#39ff14" stroke-width="2.75">
            <g id="Group-70" transform="translate(0.000000, 1.000000)" stroke-linecap="square">
                <path d="M22.5355991,46.1337209 L22.5355991,37.926173 C28.2817988,41.4459427 31.1548987,40.5969106 31.1548987,35.3790766 C31.1548987,30.1612426 28.2817988,29.3674487 22.5355991,32.9976949 L22.5355991,12.4442678 C16.2560524,17.0192664 13.1162791,16.44645 13.1162791,10.7258188 C13.1162791,5.00518753 16.2560524,4.27416803 22.5355991,8.53276027 L22.5355991,0" id="Line-3"></path>
                <path d="M23.2728512,45.9139408 L23.2728512,36.7604047 C28.8940427,41.1527785 31.7046385,40.600574 31.7046385,35.1037914 C31.7046385,29.6070087 28.8940427,28.7160809 23.2728512,32.4310079 L23.2728512,23.7882254 L23.2728512,12.4849346 C17.3770054,17.1448713 14.4290825,16.5811033 14.4290825,10.7936306 C14.4290825,5.00615782 17.3770054,4.46391581 23.2728512,9.16690455 L23.2728512,-0.219780137" id="Line-3-Copy" transform="translate(23.066860, 22.847080) rotate(-270.000000) translate(-23.066860, -22.847080) "></path>
            </g>
            <polygon id="Rectangle" points="2.36643805 0.13372093 43.8810411 0.13372093 46.427464 2.99860718 46.427464 44.378758 43.8810411 46.892291 2.36643805 47.5290905 0 44.7425947 0 3.25810037"></polygon>
        </g>
    </g>
</svg>