<?xml version="1.0" encoding="UTF-8"?>
<svg width="78px" height="78px" viewBox="0 0 78 78" version="1.1" xmlns="http://www.w3.org/2000/svg" xmlns:xlink="http://www.w3.org/1999/xlink">
    <!-- Generator: Sketch 52.2 (67145) - http://www.bohemiancoding.com/sketch -->
    <title>5ic_confianza</title>
    <desc>Created with Sketch.</desc>
    <g id="5ic_confianza" stroke="none" stroke-width="1" fill="none" fill-rule="evenodd">
        <g id="Group-5" transform="translate(0.000000, 16.000000)" stroke="#39ff14" stroke-width="2">
            <g id="Group-3-Copy">
                <polyline id="Rectangle-Copy-70" stroke-linejoin="bevel" transform="translate(18.102783, 6.877930) scale(-1, 1) rotate(-90.000000) translate(-18.102783, -6.877930) " points="15.8996582 -2.01928711 24.9807129 -2.01928711 24.9807129 2.98071289 14.4669189 7.35584646 11.2248535 15.7751465"></polyline>
                <polyline id="Rectangle-Copy-67" stroke-linejoin="bevel" points="35.0762564 28.026416 35.0762564 28.8837115 35.0762564 33.3685547 21.3141395 33.3685547 9.7902832 31.0361014"></polyline>
                <polyline id="Path-2" points="27 27.2597994 35.6155962 27.2597994 36.7416992 26.0942383 36.7416992 21.0021973"></polyline>
                <polyline id="Path-2-Copy-2" transform="translate(29.590117, 13.129900) scale(1, -1) translate(-29.590117, -13.129900) " points="23.4385354 16.2597994 34.5 16.2597994 35.7416992 14.8726403 35.7416992 10"></polyline>
                <polyline id="Path-2-Copy" points="27 21.2597994 36.5 21.2597994 37.7416992 20.269031 37.7416992 16.788783 36.6765137 15.5915527 27 15.5915527"></polyline>
                <polygon id="Path-39" points="9.45397949 13.5023093 9.61987305 31.6896556 8.42651367 33.1853027 2.0682666 33.1853027 0.727416992 31.6896556 0.727416992 13.5023093 2.49607037 12 7.62878418 12"></polygon>
            </g>
            <g id="Group-3-Copy-3" transform="translate(58.000000, 30.000000) scale(-1, 1) translate(-58.000000, -30.000000) translate(39.000000, 13.000000)">
                <polyline id="Rectangle-Copy-70" stroke-linejoin="bevel" transform="translate(18.102783, 6.877930) scale(-1, 1) rotate(-90.000000) translate(-18.102783, -6.877930) " points="15.8996582 -2.01928711 24.9807129 -2.01928711 24.9807129 2.98071289 14.4669189 7.35584646 11.2248535 15.7751465"></polyline>
                <polyline id="Rectangle-Copy-67" stroke-linejoin="bevel" points="35.0762564 28.026416 35.0762564 28.8837115 35.0762564 33.3685547 21.3141395 33.3685547 9.7902832 31.0361014"></polyline>
                <polyline id="Path-2" points="27 27.2597994 35.6155962 27.2597994 36.7416992 26.0942383 36.7416992 21.0021973"></polyline>
                <polyline id="Path-2-Copy-2" transform="translate(29.590117, 13.129900) scale(1, -1) translate(-29.590117, -13.129900) " points="23.4385354 16.2597994 34.5 16.2597994 35.7416992 14.8726403 35.7416992 10"></polyline>
                <polyline id="Path-2-Copy" points="27 21.2597994 36.5 21.2597994 37.7416992 20.269031 37.7416992 16.788783 36.6765137 15.5915527 27 15.5915527"></polyline>
                <polygon id="Path-39" points="9.45397949 13.5023093 9.61987305 31.6896556 8.42651367 33.1853027 2.0682666 33.1853027 0.727416992 31.6896556 0.727416992 13.5023093 2.49607037 12 7.62878418 12"></polygon>
            </g>
        </g>
    </g>
</svg>