<?xml version="1.0" encoding="UTF-8"?>
<svg width="78px" height="78px" viewBox="0 0 78 78" version="1.1" xmlns="http://www.w3.org/2000/svg" xmlns:xlink="http://www.w3.org/1999/xlink">
    <!-- Generator: Sketch 52.2 (67145) - http://www.bohemiancoding.com/sketch -->
    <title>7ic_soluciones_contrato</title>
    <desc>Created with Sketch.</desc>
    <g id="7ic_soluciones_contrato" stroke="none" stroke-width="1" fill="none" fill-rule="evenodd">
        <g id="ic_contratos" transform="translate(7.000000, 8.000000)" fill="#39ff14">
            <path d="M52.5894152,0 L9.68247117,42.5766977 L9.68247117,44.4700664 L10.0603674,44.8451561 L2.66352389,49.1774319 L2,50.3322591 L2.01266227,59.6282425 L3.34936244,60.9652591 L12.3090626,61.0485781 L13.4763789,60.4024186 L18.0963443,52.8193654 L18.3830099,53.1037209 L20.291173,53.1037209 L56.9999341,16.677588 L60.026425,19.6807774 L49.1811878,30.4427209 L51.0892471,32.3361927 L62.8887216,20.6275648 L62.8887216,18.734196 L58.9080972,14.7841163 L63.1982208,10.5271262 L63.1982208,8.63365449 L54.4975783,0 L52.5894152,0 Z M50.2074547,6.15046179 L53.5435486,2.84015615 L60.336028,9.58033887 L56.9999341,12.8907475 L50.2074547,6.15046179 Z M12.5447677,43.523485 L48.2993954,8.04403654 L55.091771,14.7841163 L19.3371433,50.2635648 L18.7867496,49.7175116 L18.7867496,49.7174086 L13.1996771,44.1732492 L13.1995733,44.1732492 L12.5447677,43.523485 Z M4.70941516,58.3000831 L4.69965898,51.0942824 L12.030804,46.8004219 L16.1310972,50.8692492 L11.5651021,58.3637309 L4.70941516,58.3000831 Z" id="Fill-1"></path>
            <polygon id="Fill-2" points="0 60.0978977 1.9081631 61.9912664 8.39747446 55.5519176 6.48941516 53.6584458"></polygon>
        </g>
    </g>
</svg>