<?xml version="1.0" encoding="UTF-8"?>
<svg width="78px" height="78px" viewBox="0 0 78 78" version="1.1" xmlns="http://www.w3.org/2000/svg" xmlns:xlink="http://www.w3.org/1999/xlink">
    <!-- Generator: Sketch 52.2 (67145) - http://www.bohemiancoding.com/sketch -->
    <title>8ic_soluciones_gobierno</title>
    <desc>Created with Sketch.</desc>
    <g id="8ic_soluciones_gobierno" stroke="none" stroke-width="1" fill="none" fill-rule="evenodd">
        <path d="M50.2497329,71.4424759 L53.0401401,71.4424759 L53.0401401,48.0929881 L50.2497329,48.0929881 L50.2497329,71.4424759 Z M25.8752593,71.4424759 L28.6391621,71.4424759 L28.6391621,48.0929881 L25.8752593,48.0929881 L25.8752593,71.4424759 Z M20.3687201,71.2779398 L23.2555073,71.2779398 L23.2555073,48.4201918 L20.3687201,48.4201918 L20.3687201,71.2779398 Z M31.2591236,71.2779398 L34.1455965,71.2779398 L34.1455965,48.4201918 L31.2591236,48.4201918 L31.2591236,71.2779398 Z M36.765558,71.4423721 L42.1231274,71.4423721 L42.1231274,48.0928843 L36.765558,48.0928843 L36.765558,71.4423721 Z M44.7431937,71.2779398 L47.6298761,71.2779398 L47.6298761,48.4201918 L44.7431937,48.4201918 L44.7431937,71.2779398 Z M16.4838773,45.6857784 L61.6211977,45.6857784 L61.6211977,36.7979229 L16.4838773,36.7979229 L16.4838773,45.6857784 Z M39.1778837,20.90301 C49.4949317,20.90301 58.0189994,26.8136446 59.1395204,34.3907132 L47.1914524,34.3907132 L30.9017847,34.3907132 L19.2163519,34.3907132 C20.3369776,26.8136446 28.8608358,20.90301 39.1778837,20.90301 Z M47.0703489,8.01687561 L45.2294931,10.0178836 L45.235674,11.2839291 L47.0416445,13.2090533 L39.7922008,13.2090533 L39.7922008,8.01687561 L47.0703489,8.01687561 Z M55.6602064,71.2779398 L58.5468888,71.2779398 L58.5468888,48.4201918 L55.6602064,48.4201918 L55.6602064,71.2779398 Z M62.601025,48.0929881 L64,46.8893314 L64,35.5942662 L62.601025,34.3907132 L61.9947745,34.3907132 C61.4973705,30.16416 59.1477965,26.2589971 55.251849,23.2534366 C51.0889712,20.0423357 45.6197269,18.225276 39.792096,18.1058965 L39.792096,15.0782248 L49.2063158,15.0782248 L49.8970034,13.5072944 L47.2083188,10.641356 L49.9033938,7.71188695 L49.2063158,6.14770411 L39.7922008,6.14770411 L39.7922008,5 L37.6676528,5 L37.6676528,18.1384923 C32.1772468,18.4166984 27.0525606,20.2074947 23.104128,23.2534366 C19.2080758,26.2589971 16.8586065,30.16416 16.3610977,34.3907132 L15.3990798,34.3907132 L14,35.5942662 L14,46.8893314 L15.3990798,48.0929881 L17.7487586,48.0929881 L17.7487586,71.4423721 L14.4595854,71.4423721 L14.4595854,73.9998962 L63.6599466,74 L63.6599466,71.4423721 L61.1667456,71.4423721 L61.1667456,48.0929881 L62.601025,48.0929881 Z" id="Fill-1" fill="#1700FF"></path>
        <rect id="Rectangle" fill="#FFFFFF" x="20" y="48" width="39" height="23.5"></rect>
        <rect id="Rectangle" fill="#39ff14" x="26" y="48" width="2.5" height="24"></rect>
        <rect id="Rectangle-Copy" fill="#39ff14" x="42" y="48" width="2.5" height="24"></rect>
        <rect id="Rectangle-Copy-3" fill="#39ff14" x="34" y="48" width="2.5" height="24"></rect>
        <rect id="Rectangle-Copy-2" fill="#39ff14" x="50" y="48" width="2.5" height="24"></rect>
    </g>
</svg>