<?xml version="1.0" encoding="UTF-8"?>
<svg width="156px" height="317px" viewBox="0 0 156 317" version="1.1" xmlns="http://www.w3.org/2000/svg" xmlns:xlink="http://www.w3.org/1999/xlink">
    <!-- Generator: Sketch 51.3 (57544) - http://www.bohemiancoding.com/sketch -->
    <title>prod-core</title>
    <desc>Created with Sketch.</desc>
    <defs></defs>
    <g id="Web-design" stroke="none" stroke-width="1" fill="none" fill-rule="evenodd">
        <g id="Home" transform="translate(-1113.000000, -1005.000000)">
            <g id="xchcek-Web" transform="translate(740.000000, 984.000000)">
                <g id="prod-core" transform="translate(373.000000, 21.000000)">
                    <polyline id="Path-3-Copy" stroke="#39ff14" stroke-width="3" points="91 93 91 123.956833 112.391931 150.539419 112.391931 276.735733 155.711456 276.735733"></polyline>
                    <polyline id="Path-5-Copy" stroke="#70C6FF" stroke-width="1.8" points="81 220 81 296.267927 132 296.267927 132 236.851912"></polyline>
                    <polyline id="Path-7-Copy" stroke="#39ff14" stroke-width="1.8" points="28 164 28 312.818359 113.09375 312.818359 113.09375 295.595703"></polyline>
                    <polyline id="Path-8-Copy" stroke="#39ff14" stroke-width="3" points="31.4288385 74 31.4288385 115.651491 5 148.461606 5 288.857616 40.6904895 288.857616"></polyline>
                    <polyline id="Path-4-Copy" stroke="#39ff14" stroke-width="3" points="74.5767897 33 74.5767897 145.149783 99.83831 176.801856 99.83831 288.857616 49 288.857616"></polyline>
                    <polyline id="Path-6-Copy" stroke="#70C6FF" stroke-width="1.8" points="34 6 34 47.5959595 59.918235 80.7114852 59.918235 194.224611 43.4909412 210.665605 43.4909412 285.780694"></polyline>
                    <rect id="Rectangle-Copy-15" fill="#70C6FF" x="77" y="216" width="8.42857143" height="8.39072848"></rect>
                    <rect id="Rectangle-Copy-16" fill="#39ff14" x="0" y="242.715569" width="10" height="9.95510158"></rect>
                    <rect id="Rectangle-Copy-17" fill="#39ff14" x="106" y="162.502245" width="13.0408163" height="12.9822651"></rect>
                    <rect id="Rectangle-Copy-18" fill="#39ff14" x="109" y="259" width="7.2244898" height="7.19205298"></rect>
                    <rect id="Rectangle-Copy-28" fill="#39ff14" x="111" y="294" width="4" height="3.98204063"></rect>
                    <rect id="Rectangle-Copy-19" fill="#39ff14" x="67" y="227" width="3.6122449" height="3.59602649"></rect>
                    <rect id="Rectangle-Copy-20" fill="#39ff14" x="38" y="283" width="11.7680686" height="11.7152318"></rect>
                    <rect id="Rectangle-Copy-21" fill="#39ff14" x="87" y="309" width="8" height="7.96408127"></rect>
                    <rect id="Rectangle-Copy-22" fill="#70C6FF" x="129" y="234" width="5.81632653" height="5.79470199"></rect>
                    <rect id="Rectangle-Copy-23" fill="#39ff14" x="87" y="87" width="8.42857143" height="8.39072848"></rect>
                    <rect id="Rectangle-Copy-24" fill="#39ff14" x="70" y="28.0044898" width="9.42857143" height="9.38623864"></rect>
                    <rect id="Rectangle-Copy-25" fill="#70C6FF" x="30" y="0" width="8.42857143" height="8.39072848"></rect>
                    <rect id="Rectangle-Copy-26" fill="#39ff14" x="27" y="67.4311371" width="9" height="8.95959142"></rect>
                    <rect id="Rectangle-Copy-27" fill="#39ff14" x="24" y="158" width="8.42857143" height="8.39072848"></rect>
                    <polyline id="Path-11-Copy" stroke="#39ff14" stroke-width="1.2" transform="translate(61.463982, 259.381273) scale(-1, 1) translate(-61.463982, -259.381273) " points="54 229 54 249.520587 68.927965 267.495763 68.927965 289.762547"></polyline>
                    <path d="" id="Path-10-Copy" stroke="#979797"></path>
                </g>
            </g>
        </g>
    </g>
</svg>