<?xml version="1.0" encoding="UTF-8"?>
<svg width="187px" height="45px" viewBox="0 0 187 45" version="1.1" xmlns="http://www.w3.org/2000/svg" xmlns:xlink="http://www.w3.org/1999/xlink">
    <!-- Generator: Sketch 50.2 (55047) - http://www.bohemiancoding.com/sketch -->
    <title>Navbar</title>
    <desc>Created with Sketch.</desc>
    <defs></defs>
    <g id="Page-1" stroke="none" stroke-width="1" fill="none" fill-rule="evenodd">
        <g id="Home---navbar-scrolled" transform="translate(-167.000000, -17.000000)" fill="#FFFFFF">
            <g id="Navbar" transform="translate(167.000000, 17.000000)">
                <g id="logo-xchcek">
                    <path d="M56.7682334,24.0896606 C56.5663539,23.8265837 56.3576377,23.5547511 56.1117227,23.275181 L52.9075883,19.8256561 C52.7925732,19.6990045 52.6715259,19.570724 52.5484678,19.44 C51.96917,18.8256787 51.3701668,18.1903846 51.1290775,17.4577602 C50.9750539,17.015905 50.9750539,16.5319005 50.9750539,16.3728733 C50.9750539,15.6732353 51.074184,15.3169005 51.1393324,15.1584842 C51.1509947,15.1389367 51.1640646,15.1159276 51.1787431,15.0896606 C51.2378592,14.9837783 51.3271367,14.8239367 51.4654765,14.7017647 L51.4819646,14.6858824 C51.7884033,14.3757692 52.1983958,14.2311991 52.7722646,14.2311991 C52.9325216,14.2311991 53.3077281,14.2311991 53.6925861,14.4014253 C54.4442055,14.7703846 54.5982291,15.46819 54.5982291,16.4021946 C54.5982291,16.9151131 54.5982291,16.9151131 54.6080818,17.3026018 C54.6123044,17.4711991 54.6185377,17.713914 54.6273851,18.1069005 L54.6348248,18.444095 L57.5622797,18.444095 L57.5622797,16.7823529 C57.5622797,16.0485068 57.5622797,15.0430317 57.3776926,14.2953394 C56.8822431,12.3939367 55.2981722,11.3467195 52.9168377,11.3467195 C49.68777,11.3467195 48.5062517,13.0229186 48.0811786,14.4378733 C47.8378775,15.3313575 47.8378775,16.1731222 47.8378775,16.4899548 C47.8378775,18.9384842 48.5890947,20.1402489 50.2741055,21.9086878 L53.0191851,24.776267 L53.1593345,24.921448 C54.2007033,26.0002262 54.8292646,26.6511991 54.8292646,28.1926018 C54.8292646,28.3715837 54.8292646,28.846629 54.6283904,29.2793213 C54.2527818,30.1219005 53.3336668,30.4222398 52.5989377,30.4222398 C51.2430872,30.4222398 50.7747829,29.5366968 50.6386549,29.161629 C50.4261184,28.5438462 50.4261184,27.9201584 50.4261184,26.554276 L50.4261184,25.1851357 L47.3468517,25.1851357 L47.3468517,27.8120362 C47.3468517,28.524095 47.3868657,29.368914 47.6832506,30.2367421 C48.3622818,32.2161312 50.1080173,33.3065158 52.5989377,33.3065158 C53.096398,33.3065158 54.6096904,33.3065158 55.9673506,32.3698643 C56.4634033,32.0349095 57.966642,31.0170136 57.966642,27.9877602 C57.966642,25.9010633 57.2831872,24.7642534 56.7682334,24.0896606" id="Path"></path>
                    <polygon id="Fill-3" points="63.9606355 33.013914 67.1559226 33.013914 67.1559226 11.6684389 63.9606355 11.6684389"></polygon>
                    <polygon id="Fill-5" points="182.924506 11.6684593 179.122374 11.6684593 175.211058 33.0139344 178.483155 33.0139344 181.02354 16.7658801 183.563925 33.0139344 186.86538 33.0139344"></polygon>
                    <polygon id="Fill-6" points="124.730689 11.6684593 124.730689 14.6700204 128.60179 14.6700204 128.60179 33.0139344 131.797077 33.0139344 131.797077 14.6700204 135.668379 14.6700204 135.668379 11.6684593"></polygon>
                    <path d="M148.680845,11.6684593 L148.680845,26.7004955 C148.680845,28.3231425 148.622131,28.9407217 148.574074,29.1679615 C148.503697,29.4770566 148.362744,29.6676448 148.289954,29.7661968 C147.887804,30.2929615 147.424728,30.3927353 146.710307,30.3927353 C146.225112,30.3927353 146.029868,30.3395905 145.807077,30.2642511 C145.584085,30.1889118 145.039573,29.9468077 144.802304,29.322509 C144.581121,28.7625543 144.586349,27.746491 144.592985,26.4598167 C144.594191,26.2195452 144.595598,25.9682783 144.595598,25.7058122 L144.595598,11.6684593 L141.342603,11.6684593 L141.342603,27.5196584 L141.342402,27.5711742 C141.336772,28.7599072 141.459629,29.735043 141.709565,30.4743869 C142.01158,31.3234819 142.451734,31.8282557 142.630691,32.0094774 C143.779635,33.1377353 145.60761,33.3065362 146.59489,33.3065362 L146.646365,33.3065362 C146.668081,33.3067398 146.691406,33.3067398 146.716339,33.3067398 C147.258237,33.3067398 148.515159,33.2804729 149.705725,32.6203371 C151.761519,31.4843416 151.93384,29.4342964 151.93384,27.4318982 L151.93384,11.6684593 L148.680845,11.6684593 Z" id="Fill-7"></path>
                    <path d="M166.073071,17.9236018 L166.073071,17.9946652 C166.073675,19.0317014 166.074479,20.5997783 165.05362,21.0226968 C164.569833,21.2031041 164.081019,21.2354796 162.946753,21.2354796 L161.958669,21.2354796 L161.958669,14.6992805 L163.115656,14.6982624 C164.484577,14.6911357 165.485529,14.7668824 165.861339,15.8436244 C166.073071,16.4612036 166.073071,17.2382172 166.073071,17.9236018 Z M166.665238,23.5317014 C167.072616,23.3920181 167.666392,23.1104118 168.184161,22.4667692 C168.486377,22.0770407 168.862588,21.4612941 169.089804,20.1471312 C169.22935,19.3277647 169.297112,18.4664525 169.297112,17.5139186 L169.297715,17.4434661 C169.32667,14.7243258 168.380611,13.3694389 167.582543,12.7117466 C166.417312,11.7490317 164.953283,11.6683982 163.553799,11.6683982 L158.763583,11.6683982 L158.763583,33.0138733 L161.958669,33.0138733 L161.958669,23.9442353 L163.493477,23.9442353 L166.960416,33.0138733 L170.352154,33.0138733 L166.665238,23.5317014 Z" id="Fill-8"></path>
                    <polygon id="Fill-9" points="116.542763 11.6684593 112.740631 11.6684593 108.829315 33.0139344 112.101413 33.0139344 114.641798 16.7658801 117.182183 33.0139344 120.483638 33.0139344"></polygon>
                    <path d="M82.0558011,32.263086 C82.1352258,32.1973167 82.2045968,32.1374525 82.2703484,32.0792172 L82.2787935,32.0641493 L82.2840215,32.0674072 C82.2918634,32.0602805 82.3005097,32.0529502 82.3083516,32.0460271 L82.3083516,32.0820679 L83.8483871,33.0140362 L85.127628,33.0140362 L85.127628,21.6451222 L79.0724473,21.6451222 L79.0724473,24.5587195 L82.076914,24.5587195 L82.076914,26.3200317 C82.076914,27.7386516 81.9876366,28.6907783 81.8169237,29.1367059 C81.6498301,29.5231765 81.3830032,29.8062081 81.2392344,29.923086 C80.8024989,30.3122036 80.2561774,30.5097149 79.6153505,30.5097149 C79.0442968,30.5097149 78.2784011,30.3305294 77.8756473,29.485914 C77.6950817,29.0748054 77.6741699,28.6284706 77.6325473,27.7396697 L77.615657,27.3855747 C77.5575462,26.2104842 77.5293957,25.0773394 77.5293957,23.9209819 L77.5293957,21.4341719 C77.5293957,18.5739231 77.6293301,16.5212308 77.8107,15.6552353 C77.8925376,15.2683575 78.0242419,15.0297149 78.0678753,14.9706652 C78.1348333,14.8806652 78.2844333,14.7312081 78.5074258,14.580733 C79.0559591,14.202 79.6722548,14.202 79.9042957,14.202 C81.6313312,14.202 81.8120978,15.2681538 81.8458785,16.255914 C81.8458785,16.4361176 81.8533183,16.6165249 81.860557,16.7967285 C81.8675946,16.9677692 81.8748333,17.1384027 81.8748333,17.3090362 L81.8748333,18.6781765 L84.9543011,18.6781765 L84.9543011,16.8702353 C84.9543011,15.5513891 84.9543011,14.9494887 84.7671,14.286095 C84.6144839,13.7601448 84.3727914,13.3113665 84.0128667,12.8807104 C83.9354527,12.782362 83.6995914,12.4838552 83.2715022,12.1945113 C82.437643,11.6319095 81.2854817,11.346638 79.8465871,11.346638 L79.8214527,11.346638 L79.8186376,11.346638 C77.0942688,11.346638 75.3801022,12.4730633 74.7233903,14.6972036 C74.4081043,15.7998054 74.3922194,17.6513213 74.3924204,17.9972715 C74.3347118,19.4574299 74.3053548,20.9387647 74.3053548,22.3997376 C74.3053548,23.5304389 74.3053548,24.598629 74.3343097,25.6808688 L74.3373258,25.9217511 C74.3638677,28.088267 74.3761333,29.0772489 74.7252,30.2258688 C75.6010839,33.0838778 78.1583591,33.3064344 78.9150054,33.3064344 L78.9152065,33.3064344 C78.948786,33.3070452 78.9817624,33.3074525 79.0147387,33.3074525 C80.3633505,33.3072489 81.4021054,32.7491267 82.0417258,32.2742851 L82.0558011,32.263086 Z" id="Fill-10"></path>
                    <polygon id="Fill-11" points="102.625379 32.8821109 102.625379 11.6683778 99.4302928 11.6683778 99.4302928 23.4221335 95.4604638 11.6683778 92.2655788 11.6683778 92.2655788 33.0138529 95.4604638 33.0138529 95.4604638 21.1283552 99.4302928 32.8821109 99.4302928 33.0138529 99.4749315 33.0138529 102.625379 33.0138529 102.670018 33.0138529"></polygon>
                    <polygon id="Fill-12" points="35.7674498 11.582552 17.93891 0.0238642534 17.9222208 4.07239812e-05 17.9119659 0.00655656109 17.9017111 4.07239812e-05 17.8850218 0.0238642534 0.056482043 11.582552 0.0556777419 11.582552 0.0556777419 15.6740905 0.0383852688 15.6991357 0.0556777419 15.7085023 0.0556777419 15.7160362 0.069954086 15.7160362 29.3517412 31.374 17.8564691 38.8266923 4.9822229 30.4803122 4.9822229 23.0553122 -2.01075257e-05 23.0553122 -2.01075257e-05 33.2363077 0.000985268818 33.2363077 17.8295251 44.7947919 17.8462143 44.818819 17.8564691 44.8120995 17.866724 44.818819 17.8834132 44.7947919 35.711953 33.2363077 35.7129584 33.2363077 35.7129584 29.1028235 35.690639 29.1028235 6.41327559 13.4468959 17.9119659 5.99216742 30.7862122 14.3385475 30.7862122 21.7635475 35.7684552 21.7635475 35.7684552 11.582552"></polygon>
                </g>
            </g>
        </g>
    </g>
</svg>