<?xml version="1.0" encoding="UTF-8"?>
<svg width="561px" height="448px" viewBox="0 0 561 448" version="1.1" xmlns="http://www.w3.org/2000/svg" xmlns:xlink="http://www.w3.org/1999/xlink">
    <!-- Generator: Sketch 52.2 (67145) - http://www.bohemiancoding.com/sketch -->
    <title>Group 28</title>
    <desc>Created with Sketch.</desc>
    <defs>
        <polygon id="path-1" points="1.17198238e-13 2.63131428e-13 283.868437 2.63131428e-13 331.350139 42.3903843 331.350139 253.440873 -2.36546047e-14 253.440873"></polygon>
        <filter x="-7.4%" y="-9.3%" width="114.8%" height="119.3%" filterUnits="objectBoundingBox" id="filter-2">
            <feMorphology radius="2" operator="dilate" in="SourceAlpha" result="shadowSpreadOuter1"></feMorphology>
            <feOffset dx="0" dy="1" in="shadowSpreadOuter1" result="shadowOffsetOuter1"></feOffset>
            <feGaussianBlur stdDeviation="6" in="shadowOffsetOuter1" result="shadowBlurOuter1"></feGaussianBlur>
            <feComposite in="shadowBlurOuter1" in2="SourceAlpha" operator="out" result="shadowBlurOuter1"></feComposite>
            <feColorMatrix values="0 0 0 0 0.24346301   0 0 0 0 0.24346301   0 0 0 0 0.24346301  0 0 0 0.0766530797 0" type="matrix" in="shadowBlurOuter1" result="shadowMatrixOuter1"></feColorMatrix>
            <feMorphology radius="1.5" operator="dilate" in="SourceAlpha" result="shadowSpreadOuter2"></feMorphology>
            <feOffset dx="0" dy="2" in="shadowSpreadOuter2" result="shadowOffsetOuter2"></feOffset>
            <feGaussianBlur stdDeviation="2.5" in="shadowOffsetOuter2" result="shadowBlurOuter2"></feGaussianBlur>
            <feComposite in="shadowBlurOuter2" in2="SourceAlpha" operator="out" result="shadowBlurOuter2"></feComposite>
            <feColorMatrix values="0 0 0 0 0   0 0 0 0 0   0 0 0 0 0  0 0 0 0.0586786685 0" type="matrix" in="shadowBlurOuter2" result="shadowMatrixOuter2"></feColorMatrix>
            <feMerge>
                <feMergeNode in="shadowMatrixOuter1"></feMergeNode>
                <feMergeNode in="shadowMatrixOuter2"></feMergeNode>
            </feMerge>
        </filter>
        <polygon id="path-3" points="3.94765621 3.01915688 261.177744 2.94759153 308.233133 50.001214 307.947882 403.549827 3.93235889 403.561412"></polygon>
        <filter x="-5.6%" y="-4.0%" width="111.2%" height="108.5%" filterUnits="objectBoundingBox" id="filter-4">
            <feMorphology radius="2" operator="dilate" in="SourceAlpha" result="shadowSpreadOuter1"></feMorphology>
            <feOffset dx="0" dy="1" in="shadowSpreadOuter1" result="shadowOffsetOuter1"></feOffset>
            <feGaussianBlur stdDeviation="3.5" in="shadowOffsetOuter1" result="shadowBlurOuter1"></feGaussianBlur>
            <feComposite in="shadowBlurOuter1" in2="SourceAlpha" operator="out" result="shadowBlurOuter1"></feComposite>
            <feColorMatrix values="0 0 0 0 0.243137255   0 0 0 0 0.243137255   0 0 0 0 0.243137255  0 0 0 0.08 0" type="matrix" in="shadowBlurOuter1" result="shadowMatrixOuter1"></feColorMatrix>
            <feOffset dx="0" dy="1" in="SourceAlpha" result="shadowOffsetOuter2"></feOffset>
            <feGaussianBlur stdDeviation="2" in="shadowOffsetOuter2" result="shadowBlurOuter2"></feGaussianBlur>
            <feComposite in="shadowBlurOuter2" in2="SourceAlpha" operator="out" result="shadowBlurOuter2"></feComposite>
            <feColorMatrix values="0 0 0 0 0   0 0 0 0 0   0 0 0 0 0  0 0 0 0.06 0" type="matrix" in="shadowBlurOuter2" result="shadowMatrixOuter2"></feColorMatrix>
            <feMerge>
                <feMergeNode in="shadowMatrixOuter1"></feMergeNode>
                <feMergeNode in="shadowMatrixOuter2"></feMergeNode>
            </feMerge>
        </filter>
    </defs>
    <g id="Web-design" stroke="none" stroke-width="1" fill="none" fill-rule="evenodd">
        <g id="Soluciones-banca" transform="translate(-742.000000, -188.000000)">
            <g id="Group-28" transform="translate(742.000000, 188.000000)">
                <g id="Group-27">
                    <g id="Group-5-Copy" opacity="0.347679501" transform="translate(380.982648, 221.174930) rotate(2.000000) translate(-380.982648, -221.174930) translate(243.982648, 46.674930)">
                        <g id="Group-25" transform="translate(136.974912, 174.555474) rotate(-1.000000) translate(-136.974912, -174.555474) translate(2.977652, 3.057624)">
                            <g id="Group-2-Copy-3">
                                <g id="Group-2-Copy" transform="translate(133.642739, 171.174826) scale(-1, 1) rotate(-91.000000) translate(-133.642739, -171.174826) translate(-34.816521, 40.989368)">
                                    <g id="Group" transform="translate(168.642050, 130.176359) rotate(1.000000) translate(-168.642050, -130.176359) translate(2.719827, 3.030251)">
                                        <g id="Rectangle-21">
                                            <use fill="black" fill-opacity="1" filter="url(#filter-2)" xlink:href="#path-1"></use>
                                            <path stroke="#EBEBEB" stroke-width="1.5181425" d="M0.759071251,0.759071251 L0.759071251,252.681802 L330.591068,252.681802 L330.591068,42.7302703 L283.578898,0.759071251 L0.759071251,0.759071251 Z" stroke-linejoin="square" fill="#FFFFFF" fill-rule="evenodd"></path>
                                        </g>
                                        <polyline id="Path-3" stroke="#DEDEDE" stroke-width="1.012095" opacity="0.769999981" points="282.347654 1.15726426 282.347654 43.9760419 330.128556 43.9683683"></polyline>
                                    </g>
                                </g>
                            </g>
                            <g id="Group-24" transform="translate(34.231067, 59.088530)">
                                <g id="Group-8" transform="translate(2.685978, 0.000000)">
                                    <rect id="Rectangle" fill="#D8D8D8" opacity="0.701311384" x="7.27595761e-12" y="99.5538124" width="16.1158651" height="34.8827145"></rect>
                                    <polygon id="Rectangle-Copy-19" fill="#DFDFDF" transform="translate(159.815662, 126.386670) rotate(-90.000000) translate(-159.815662, -126.386670) " points="153.77827 92.1404564 165.853055 92.1404564 165.853055 160.632883 153.77827 160.632883"></polygon>
                                    <rect id="Rectangle-Copy-14" fill="#D8D8D8" opacity="0.701311384" x="22.8308089" y="64.6710979" width="16.1158651" height="69.765429"></rect>
                                    <rect id="Rectangle-Copy-15" fill="#D8D8D8" opacity="0.701311384" x="45.6616178" y="78.0875266" width="16.1158651" height="56.3490003"></rect>
                                    <rect id="Rectangle-Copy-16" fill="#D8D8D8" opacity="0.701311384" x="68.4924268" y="48.5713836" width="16.1158651" height="85.8651434"></rect>
                                    <rect id="Rectangle-Copy-17" fill="#D8D8D8" opacity="0.701311384" x="91.3232357" y="20.3968834" width="16.1158651" height="114.039644"></rect>
                                    <g id="Group-23" transform="translate(0.000000, 158.257614)" opacity="0.695661272" stroke="#DFDFDF" stroke-linecap="square" stroke-width="3.08370165">
                                        <path d="M24.228989,4.03406266 L24.228989,41.8588703" id="Line"></path>
                                        <path d="M72.7237612,4.09460605 L72.7237612,41.9194136" id="Line-Copy"></path>
                                        <path d="M135.770644,4.09460605 L135.770644,41.9194136" id="Line-Copy-2"></path>
                                        <path d="M95.6899769,-69.1994563 L95.6899769,122.180498" id="Line-Copy-3" transform="translate(95.689977, 26.490521) scale(-1, 1) rotate(-270.000000) translate(-95.689977, -26.490521) "></path>
                                        <path d="M96.0144978,-52.0826198 L96.0144978,139.946376" id="Line-Copy-7" transform="translate(96.014498, 43.931878) scale(-1, 1) rotate(-270.000000) translate(-96.014498, -43.931878) "></path>
                                        <path d="M96.0144978,-95.3271064 L96.0144978,96.7018891" id="Line-Copy-6" transform="translate(96.014498, 0.687391) scale(-1, 1) rotate(-270.000000) translate(-96.014498, -0.687391) "></path>
                                    </g>
                                    <path d="M20.2264318,-18.1819992 L20.2264318,19.3632952" id="Line-Copy-5" stroke="#DFDFDF" stroke-width="3.036285" opacity="0.697358631" stroke-linecap="square" transform="translate(20.226432, 0.590648) scale(-1, 1) rotate(-270.000000) translate(-20.226432, -0.590648) "></path>
                                </g>
                                <path d="M2.74116884,162.291676 L2.74116884,200.116484" id="Line-Copy-4" stroke="#DFDFDF" stroke-width="3.08370165" opacity="0.597423735" stroke-linecap="square"></path>
                                <path d="M194.714973,162.291676 L194.714973,200.116484" id="Line-Copy-5" stroke="#DFDFDF" stroke-width="3.08370165" opacity="0.597423735" stroke-linecap="square"></path>
                                <polyline id="Path-20" stroke="#DFDFDF" stroke-width="3.34623896" stroke-linecap="square" points="2.48636133 251.130632 38.946674 226.677547 91.2724358 246.873133 152.631377 232.376456 163.091821 246.873133 193.348413 226.677547"></polyline>
                            </g>
                        </g>
                        <g id="$" transform="translate(198.850036, 128.078613) rotate(1.000000) translate(-198.850036, -128.078613) translate(168.447296, 81.545280)">
                            <g id="Group-7" transform="translate(0.000000, -0.000000)">
                                <g id="Group-3" transform="translate(0.017711, -0.000154)">
                                    <polygon id="Fill-1" fill="#DFDFDF" transform="translate(31.920448, 84.831862) rotate(-3.000000) translate(-31.920448, -84.831862) " points="29.382849 77.2332321 29.3841805 92.4300479 34.4580476 92.4304917 34.4568998 77.233676"></polygon>
                                    <polygon id="Fill-2" fill="#DFDFDF" transform="translate(27.883989, 7.940537) rotate(-3.000000) translate(-27.883989, -7.940537) " points="25.3463899 0.341907328 25.3477214 15.5387231 30.4215886 15.5391669 30.4204407 0.34235116"></polygon>
                                    <polyline id="Stroke-3" stroke="#DFDFDF" stroke-width="7.92534375" stroke-linejoin="bevel" transform="translate(29.884718, 45.854136) rotate(-3.000000) translate(-29.884718, -45.854136) " points="57.7910911 44.5829668 57.7898078 29.936131 30.0404641 12.4211828 2.93209772 30.249742 57.792486 60.5034404 29.0895016 79.2870885 1.9781502 63.045834 1.97695059 49.3542267"></polyline>
                                </g>
                            </g>
                        </g>
                    </g>
                    <g id="Group-5" transform="translate(100.976143, 117.000000)">
                        <g id="Group-25" transform="translate(101.130207, 128.793679) rotate(-1.000000) translate(-101.130207, -128.793679) translate(3.130207, 2.293679)">
                            <g id="Group-24" transform="translate(0.731343, 0.619432)">
                                <g id="Group-8" transform="translate(2.646766, 0.000000)">
                                    <rect id="Rectangle" fill="#D8D8D8" opacity="0.701311384" x="0" y="101.969034" width="15.880597" height="34.4311024"></rect>
                                    <polygon id="Rectangle-Copy-19" fill="#70C6FF" transform="translate(157.482587, 128.454498) rotate(-90.000000) translate(-157.482587, -128.454498) " points="151.523358 94.7082289 163.441816 94.7082289 163.441816 162.200766 151.523358 162.200766"></polygon>
                                    <rect id="Rectangle-Copy-14" fill="#D8D8D8" opacity="0.701311384" x="22.4975124" y="67.5379317" width="15.880597" height="68.8622049"></rect>
                                    <rect id="Rectangle-Copy-15" fill="#D8D8D8" opacity="0.701311384" x="44.9950249" y="80.7806634" width="15.880597" height="55.6194731"></rect>
                                    <rect id="Rectangle-Copy-16" fill="#D8D8D8" opacity="0.701311384" x="67.4925373" y="51.6466536" width="15.880597" height="84.7534829"></rect>
                                    <rect id="Rectangle-Copy-17" fill="#D8D8D8" opacity="0.701311384" x="89.9900498" y="23.8369171" width="15.880597" height="112.563219"></rect>
                                    <g id="Group-23" transform="translate(0.000000, 159.912822)" opacity="0.695661272" stroke="#DFDFDF" stroke-linecap="square" stroke-width="3.04563126">
                                        <path d="M23.8752811,3.98183532 L23.8752811,41.3169408" id="Line"></path>
                                        <path d="M71.6621005,4.04159488 L71.6621005,41.3767004" id="Line-Copy"></path>
                                        <path d="M133.788591,4.04159488 L133.788591,41.3767004" id="Line-Copy-2"></path>
                                        <path d="M94.293043,-68.1454841 L94.293043,120.440602" id="Line-Copy-3" transform="translate(94.293043, 26.147559) scale(-1, 1) rotate(-270.000000) translate(-94.293043, -26.147559) "></path>
                                        <path d="M94.6128263,-51.2497162 L94.6128263,137.975936" id="Line-Copy-7" transform="translate(94.612826, 43.363110) scale(-1, 1) rotate(-270.000000) translate(-94.612826, -43.363110) "></path>
                                        <path d="M94.6128263,-93.9343343 L94.6128263,95.2913183" id="Line-Copy-6" transform="translate(94.612826, 0.678492) scale(-1, 1) rotate(-270.000000) translate(-94.612826, -0.678492) "></path>
                                    </g>
                                    <path d="M19.8795155,-17.1743208 L19.8795155,19.8228672" id="Line-Copy-5" stroke="#DFDFDF" stroke-width="2.9988" opacity="0.697358631" stroke-linecap="square" transform="translate(19.879515, 1.324273) scale(-1, 1) rotate(-270.000000) translate(-19.879515, -1.324273) "></path>
                                </g>
                                <path d="M2.70115178,163.894657 L2.70115178,201.229762" id="Line-Copy-4" stroke="#DFDFDF" stroke-width="3.04563126" opacity="0.597423735" stroke-linecap="square"></path>
                                <path d="M191.872419,163.894657 L191.872419,201.229762" id="Line-Copy-5" stroke="#DFDFDF" stroke-width="3.04563126" opacity="0.597423735" stroke-linecap="square"></path>
                                <polyline id="Path-20" stroke="#70C6FF" stroke-width="3.30492737" stroke-linecap="square" points="2.45006408 251.583451 38.3781095 227.446951 89.9399915 247.381072 150.403182 233.072078 160.710918 247.381072 190.525808 227.446951"></polyline>
                            </g>
                        </g>
                        <g id="$" transform="translate(162.991198, 71.508650) rotate(1.000000) translate(-162.991198, -71.508650) translate(132.991198, 25.008650)">
                            <g id="Group-7" transform="translate(0.000000, -0.000000)">
                                <g id="Group-3" transform="translate(0.017452, -0.000152)">
                                    <polygon id="Fill-1" fill="#70C6FF" transform="translate(31.454547, 84.474395) rotate(-3.000000) translate(-31.454547, -84.474395) " points="28.9545468 76.9743949 28.9545468 91.9743949 33.9543658 91.9743949 33.9545468 76.9743949"></polygon>
                                    <polygon id="Fill-2" fill="#70C6FF" transform="translate(27.477014, 8.578550) rotate(-3.000000) translate(-27.477014, -8.578550) " points="24.9770141 1.07855027 24.9770141 16.0785503 29.9768331 16.0785503 29.9770141 1.07855027"></polygon>
                                    <polyline id="Stroke-3" stroke="#70C6FF" stroke-width="7.8275" stroke-linejoin="bevel" transform="translate(29.447664, 46.001370) rotate(-3.000000) translate(-29.447664, -46.001370) " points="56.947664 44.7442276 56.947664 30.2870848 29.6048069 13.0013705 2.89052119 30.6013705 56.947664 60.4585133 28.6619498 79.0013705 1.94766404 62.972799 1.94766404 49.4585133"></polyline>
                                </g>
                            </g>
                        </g>
                    </g>
                    <g id="Group-23" transform="translate(204.500305, 232.372399) rotate(-2.000000) translate(-204.500305, -232.372399) translate(48.000305, 28.372399)">
                        <g id="Group-26" transform="translate(0.451945, 0.908157)">
                            <g id="Group-25">
                                <g id="Rectangle-21" transform="translate(156.083039, 203.254505) rotate(1.000000) translate(-156.083039, -203.254505) ">
                                    <use fill="black" fill-opacity="1" filter="url(#filter-4)" xlink:href="#path-3"></use>
                                    <path stroke="#EBEBEB" stroke-width="0.7120787" d="M4.30368248,3.37509719 L4.28899712,403.205365 L307.59213,403.193801 L307.876974,50.1485753 L261.030313,3.30367191 L4.30368248,3.37509719 Z" stroke-linejoin="square" fill="#FFFFFF" fill-rule="evenodd"></path>
                                </g>
                                <g id="Group" transform="translate(34.943021, 90.100759)" fill="#E2E2E2">
                                    <polygon id="Rectangle-21-Copy-11" transform="translate(122.334274, 5.800371) rotate(1.000000) translate(-122.334274, -5.800371) " points="2.37647283 2.3756417 242.292337 2.36649894 242.292075 9.22509921 2.37621089 9.23424196"></polygon>
                                    <polygon id="Rectangle-21-Copy-14" transform="translate(86.621584, 78.355195) rotate(1.000000) translate(-86.621584, -78.355195) " points="2.37644903 74.9291025 170.86698 74.9226816 170.866718 81.7812819 2.37618709 81.7877027"></polygon>
                                    <polygon id="Rectangle-21-Copy-17" transform="translate(122.334274, 58.438185) rotate(1.000000) translate(-122.334274, -58.438185) " points="2.3764728 55.0134535 242.292337 55.0043108 242.292075 61.862911 2.37621086 61.8720538"></polygon>
                                    <polygon id="Rectangle-21-Copy-19" transform="translate(122.334274, 48.005465) rotate(1.000000) translate(-122.334274, -48.005465) " points="2.3764728 44.5807341 242.292337 44.5715913 242.292075 51.4301916 2.37621086 51.4393343"></polygon>
                                    <polygon id="Rectangle-21-Copy-12" transform="translate(122.334274, 16.233091) rotate(1.000000) translate(-122.334274, -16.233091) " points="2.37647283 12.8083612 242.292337 12.7992184 242.292075 19.6578187 2.37621089 19.6669614"></polygon>
                                    <polygon id="Rectangle-21-Copy-15" transform="translate(122.375984, 89.453733) rotate(1.000000) translate(-122.375984, -89.453733) " points="2.41818308 86.0290009 242.334048 86.0198582 242.333786 92.8784584 2.41792114 92.8876012"></polygon>
                                    <polygon id="Rectangle-21-Copy-18" transform="translate(122.334274, 68.396690) rotate(1.000000) translate(-122.334274, -68.396690) " points="2.37647279 64.9719585 242.292337 64.9628157 242.292075 71.821416 2.37621085 71.8305587"></polygon>
                                    <polygon id="Rectangle-21-Copy-13" transform="translate(45.872488, 25.243167) rotate(1.000000) translate(-45.872488, -25.243167) " points="2.37642196 21.8155232 89.3688156 21.8122081 89.3685537 28.6708084 2.37616002 28.6741235"></polygon>
                                    <polygon id="Rectangle-21-Copy-16" transform="translate(99.715613, 99.491779) rotate(1.000000) translate(-99.715613, -99.491779) " points="2.42161981 96.0661823 197.009869 96.0587669 197.009607 102.917367 2.42135787 102.924783"></polygon>
                                    <polygon id="Rectangle-21-Copy-20" transform="translate(120.433395, 152.806876) rotate(1.000000) translate(-120.433395, -152.806876) " points="0.475463137 149.382146 240.391328 149.373003 240.391066 156.231603 0.475201197 156.240746"></polygon>
                                    <polygon id="Rectangle-21-Copy-21" transform="translate(106.249703, 125.776649) rotate(1.000000) translate(-106.249703, -125.776649) " points="57.0304534 122.34922 155.469215 122.345468 155.468953 129.204069 57.0301915 129.20782"></polygon>
                                    <polygon id="Rectangle-21-Copy-31" transform="translate(48.262108, 125.151779) rotate(1.000000) translate(-48.262108, -125.151779) " points="44.8283283 121.722605 51.6961489 121.722343 51.6958869 128.580944 44.8280664 128.581205"></polygon>
                                    <polygon id="Rectangle-21-Copy-22" transform="translate(106.249703, 115.343929) rotate(1.000000) translate(-106.249703, -115.343929) " points="57.0304534 111.9165 155.469215 111.912749 155.468953 118.771349 57.0301915 118.775101"></polygon>
                                    <polygon id="Rectangle-21-Copy-32" transform="translate(48.452877, 114.246506) rotate(1.000000) translate(-48.452877, -114.246506) " points="45.0190972 110.817332 51.8869178 110.81707 51.8866558 117.675671 45.0188353 117.675932"></polygon>
                                    <polygon id="Rectangle-21-Copy-24" transform="translate(120.433395, 183.630094) rotate(1.000000) translate(-120.433395, -183.630094) " points="0.475463088 180.206089 240.391328 180.196947 240.391066 187.054093 0.475201203 187.063236"></polygon>
                                    <polygon id="Rectangle-21-Copy-23" transform="translate(106.249703, 136.209369) rotate(1.000000) translate(-106.249703, -136.209369) " points="57.0304534 132.781939 155.469215 132.778188 155.468953 139.636788 57.0301915 139.64054"></polygon>
                                    <polygon id="Rectangle-21-Copy-33" transform="translate(48.087927, 135.108768) rotate(1.000000) translate(-48.087927, -135.108768) " points="44.6541481 131.679593 51.5219686 131.679332 51.5217067 138.537932 44.6538861 138.538193"></polygon>
                                    <polygon id="Rectangle-21-Copy-25" transform="translate(69.382562, 192.640170) rotate(1.000000) translate(-69.382562, -192.640170) " points="0.475429122 189.21422 138.289695 189.208968 138.289433 196.066115 0.475167237 196.071366"></polygon>
                                </g>
                                <g id="Group-22" transform="translate(96.746107, 300.942876)">
                                    <polygon id="Rectangle-21-Copy-29" fill="#E2E2E2" transform="translate(93.168716, 70.217553) rotate(1.000000) translate(-93.168716, -70.217553) " points="77.9606848 69.2697003 108.376819 69.2685412 108.376747 71.1654006 77.9606123 71.1665597"></polygon>
                                    <polygon id="Rectangle-21-Copy-35" fill="#E2E2E2" transform="translate(33.243478, 69.324162) rotate(1.000000) translate(-33.243478, -69.324162) " points="18.0354471 68.3763095 48.4515814 68.3751504 48.4515089 70.2720098 18.0353746 70.2731689"></polygon>
                                    <polygon id="Rectangle-21-Copy-30" fill="#E2E2E2" transform="translate(92.264927, 66.696756) rotate(1.000000) translate(-92.264927, -66.696756) " points="72.0667491 65.7490937 112.463178 65.7475542 112.463105 67.6444136 72.0666767 67.645953"></polygon>
                                    <polygon id="Rectangle-21-Copy-36" fill="#E2E2E2" transform="translate(32.356221, 65.803366) rotate(1.000000) translate(-32.356221, -65.803366) " points="12.1580427 64.8557039 52.5544711 64.8541644 52.5543987 66.7510238 12.1579703 66.7525632"></polygon>
                                    <path d="M66.2093102,62.873383 L119.983731,62.8713337" id="Line-5-Copy-2" stroke="#979797" stroke-width="0.694971832" stroke-linecap="square" transform="translate(93.096520, 62.872358) rotate(1.000000) translate(-93.096520, -62.872358) "></path>
                                    <path d="M6.2840735,61.9966019 L60.0584938,61.9945526" id="Line-5-Copy-3" stroke="#979797" stroke-width="0.694971832" stroke-linecap="square" transform="translate(33.171284, 61.995577) rotate(1.000000) translate(-33.171284, -61.995577) "></path>
                                    <g id="Group-11" opacity="0.504910714" transform="translate(64.555591, 26.339980) rotate(1.000000) translate(-64.555591, -26.339980) translate(40.317718, 1.206610)">
                                        <path d="M15.1169093,3.78580861 C17.7362239,4.59383003 19.8757153,3.97867511 21.5353835,1.94034386 C24.0248859,-1.11715302 26.5100077,-0.129717519 27.9420301,1.94034386 C29.3740526,4.01040523 32.2464205,6.02651078 36.2595002,5.018458 C40.2725798,4.01040523 41.2336863,6.55290909 41.2336863,8.98706263 C41.2336863,11.4212162 41.5355105,14.286139 45.3838791,15.4885205 C49.2322477,16.690902 49.0478239,20.6875812 47.2158515,22.1803591 C45.3838791,23.673137 44.9707873,28.2102518 47.2158515,29.7214536 C49.4609157,31.2326554 48.3977409,36.4321548 44.8157136,36.4321548 C41.2336863,36.4321548 40.0859657,40.8288967 40.0859657,42.8550916 C40.0859657,44.8812864 38.5198965,48.0857361 34.5536894,46.5403184 C30.5874824,44.9949007 28.508265,45.909365 26.8823598,48.1585546 C25.6299426,49.8910812 25.066104,50.0642829 23.6684758,50.238407 C22.360632,50.4013453 21.216491,49.8910812 19.8922156,47.933958 C16.9720989,43.6183691 14.472083,45.5721842 12.5954284,45.5721842 C10.7187738,45.5721842 6.55938168,45.5274403 7.27604997,40.9797976 C7.75382884,37.9480357 6.57004117,36.0420351 3.72468697,35.2617959 C0.212019372,33.5957452 -0.816110513,31.3595759 0.640297309,28.553288 C2.82490904,24.3438561 2.23746883,22.7879105 0.640297309,19.6510152 C-0.956874213,16.5141199 0.640297309,14.5747807 3.61254327,13.965036 C4.0755104,13.8700601 8.77027709,12.5996904 8.3501763,7.54187992 C8.27675291,6.65789787 8.58039334,4.20237412 10.227269,3.47589161 C10.954746,3.15498133 12.5846261,3.258287 15.1169093,3.78580861 Z" id="Path-5" fill="#D8D8D8"></path>
                                        <ellipse id="Oval" fill="#EDEDED" cx="24.2378732" cy="25.1333696" rx="18.5348442" ry="18.5644207"></ellipse>
                                        <ellipse id="Oval-Copy-4" stroke="#D8D8D8" stroke-width="2.27865184" cx="24.0952974" cy="24.9905664" rx="16.3962083" ry="16.4223722"></ellipse>
                                    </g>
                                    <path d="M75.1603059,41.2522725 C64.4257596,51.7432613 64.4254941,55.5611671 75.1595094,52.7059896 C91.2605322,48.4232234 102.753849,32.7938231 97.053254,30.6874439 C93.2528571,29.2831911 87.2630112,35.2817367 79.0837164,48.6830807 C75.4325753,59.9880373 82.7382691,61.3284062 101.000798,52.7041874 C119.263327,44.0799686 116.655794,42.739272 93.1782002,48.6820977 C76.4004429,53.4126367 77.6915064,56.3466361 97.0513904,57.4840958 C116.411274,58.6215556 124.053431,48.8143194 119.97786,28.0623873 C116.61554,18.9092241 110.290033,24.5384174 101.001337,44.9499672 C91.7126417,65.3615169 89.104115,78.3156613 93.1757571,83.8124003" id="Path-4" stroke="#000000" stroke-width="0.661200018" stroke-linecap="round" stroke-linejoin="round" transform="translate(94.075104, 53.812046) rotate(-1.500000) translate(-94.075104, -53.812046) "></path>
                                    <path d="M49.6912276,59.70648 C3.90725128,43.8293902 -7.93071523,37.2812722 14.177328,40.0621259 C36.2853713,42.8429796 35.3392016,47.674534 11.338819,54.556789 C-2.61642927,59.9159849 10.1706422,58.2484834 49.7000333,49.5542844 C89.2294244,40.8600853 82.9729513,37.0866705 30.9306138,38.2340398 C12.9664506,38.9482404 12.849128,48.4822459 30.578646,66.8360563" id="Path-6-Copy" stroke="#000000" stroke-width="0.600000024" stroke-linecap="round" stroke-linejoin="round" transform="translate(39.337251, 52.434724) rotate(-18.500000) translate(-39.337251, -52.434724) "></path>
                                </g>
                                <path d="M39.3626246,79.5036271 L278.670788,79.4945075" id="Line-5-Copy" stroke="#979797" stroke-width="0.694971832" stroke-linecap="square" transform="translate(159.016706, 79.499067) rotate(1.000000) translate(-159.016706, -79.499067) "></path>
                                <path d="M70.4940504,67.1486084 L72.0838104,67.1486084 L72.0838104,52.7347838 L70.4940504,52.7347838 L70.4940504,50.6680957 L77.9924187,50.6680957 C78.8756231,50.6680957 79.6572473,50.7917425 80.3373148,51.0390397 C81.0173822,51.286337 81.5914565,51.6219496 82.0595548,52.0458878 C82.5276532,52.4698259 82.8809297,52.9776609 83.1193949,53.5694078 C83.3578601,54.1611548 83.4770909,54.8014684 83.4770909,55.4903679 L83.4770909,55.8083199 C83.4770909,56.3205785 83.3976037,56.7886698 83.2386269,57.212608 C83.0796501,57.6365461 82.8588523,58.0163183 82.5762268,58.351936 C82.2936014,58.6875537 81.9624047,58.9745909 81.5826268,59.2130561 C81.2028489,59.4515213 80.792165,59.6325755 80.3505628,59.7562241 L80.3505628,60.0741761 C81.2337672,60.3214733 81.9756478,60.7939806 82.5762268,61.4917122 C83.1768059,62.1894437 83.4770909,63.0417232 83.4770909,64.0485763 L83.4770909,64.3665283 C83.4770909,65.0554277 83.3578601,65.6957414 83.1193949,66.2874883 C82.8809297,66.8792353 82.5276532,67.3914862 82.0595548,67.8242564 C81.5914565,68.2570266 81.0173822,68.5970552 80.3373148,68.8443524 C79.6572473,69.0916497 78.8756231,69.2152965 77.9924187,69.2152965 L70.4940504,69.2152965 L70.4940504,67.1486084 Z M74.3094745,67.1486084 L77.8334427,67.1486084 C78.8756239,67.1486084 79.7234875,66.888067 80.3770588,66.3669763 C81.03063,65.8458857 81.3574108,65.1260849 81.3574108,64.2075523 L81.3574108,64.0485763 C81.3574108,63.0947155 81.0482939,62.339587 80.4300508,61.7831682 C79.8118076,61.2267494 78.972776,60.9485441 77.9129307,60.9485441 L74.3094745,60.9485441 L74.3094745,67.1486084 Z M74.3094745,58.8818561 L77.9129307,58.8818561 C78.972776,58.8818561 79.8118076,58.6080668 80.4300508,58.06048 C81.0482939,57.5128933 81.3574108,56.7621807 81.3574108,55.8083199 L81.3574108,55.6493439 C81.3574108,54.7484754 81.03063,54.0375065 80.3770588,53.5164158 C79.7234875,52.9953252 78.8756239,52.7347838 77.8334427,52.7347838 L74.3094745,52.7347838 L74.3094745,58.8818561 Z M97.2815074,64.6049923 L89.3327071,64.6049923 L87.9814111,69.2152965 L85.596771,69.2152965 L91.2139232,50.6680957 L95.4002914,50.6680957 L101.017444,69.2152965 L98.6328035,69.2152965 L97.2815074,64.6049923 Z M93.1481313,51.6219518 L89.9421151,62.5383042 L96.6720994,62.5383042 L93.4660833,51.6219518 L93.1481313,51.6219518 Z M113.152612,68.2614404 L113.470564,68.2614404 L113.470564,50.6680957 L115.696228,50.6680957 L115.696228,69.2152965 L111.2449,69.2152965 L105.892708,51.6219518 L105.574756,51.6219518 L105.574756,69.2152965 L103.349092,69.2152965 L103.349092,50.6680957 L107.80042,50.6680957 L113.152612,68.2614404 Z M122.214244,69.2152965 L119.98858,69.2152965 L119.98858,50.6680957 L122.214244,50.6680957 L122.214244,58.8818561 L122.823652,58.8818561 L129.951077,50.6680957 L132.706661,50.6680957 L132.706661,50.8270717 L125.022821,59.7827201 L125.022821,60.1006721 L133.024613,69.0563205 L133.024613,69.2152965 L130.216037,69.2152965 L122.823652,60.9485441 L122.214244,60.9485441 L122.214244,69.2152965 Z M163.971942,69.2152965 L161.746278,69.2152965 L161.746278,63.0152322 C161.746278,62.5559659 161.640295,62.2026894 161.428326,61.9553922 C161.216357,61.7080949 160.845417,61.5844482 160.315494,61.5844482 L154.539366,61.5844482 L154.539366,69.2152965 L152.313702,69.2152965 L152.313702,50.6680957 L158.937702,50.6680957 C159.891563,50.6680957 160.721762,50.8049904 161.428326,51.0787837 C162.13489,51.3525771 162.722212,51.7191015 163.19031,52.1783678 C163.658408,52.6376341 164.011685,53.1719648 164.25015,53.7813758 C164.488615,54.3907869 164.607846,55.0311005 164.607846,55.7023359 L164.607846,56.497216 C164.607846,57.1861154 164.41796,57.8750046 164.038182,58.563904 C163.658404,59.2528035 163.071082,59.7827182 162.276198,60.1536641 L162.276198,60.4716161 C162.806121,60.5599366 163.221221,60.7719024 163.52151,61.1075201 C163.8218,61.4431378 163.971942,61.9200611 163.971942,62.5383042 L163.971942,69.2152965 Z M154.539366,59.5177601 L158.672742,59.5177601 C159.926892,59.5177601 160.858659,59.2483868 161.46807,58.709632 C162.077481,58.1708773 162.382182,57.3804212 162.382182,56.33824 L162.382182,55.8613119 C162.382182,54.9251152 162.077481,54.1699867 161.46807,53.5959038 C160.858659,53.0218209 159.926892,52.7347838 158.672742,52.7347838 L154.539366,52.7347838 L154.539366,59.5177601 Z M168.767718,50.6680957 L180.002023,50.6680957 L180.002023,52.7347838 L170.993382,52.7347838 L170.993382,58.8818561 L179.843047,58.8818561 L179.843047,60.9485441 L170.993382,60.9485441 L170.993382,67.1486084 L180.160999,67.1486084 L180.160999,69.2152965 L168.767718,69.2152965 L168.767718,50.6680957 Z M194.972263,56.0202879 C194.972263,55.4197089 194.853032,54.8897942 194.614567,54.4305279 C194.376102,53.9712616 194.053737,53.5914893 193.647463,53.2911998 C193.241189,52.9909103 192.773098,52.7612806 192.243175,52.6023038 C191.713253,52.443327 191.156842,52.3638398 190.573927,52.3638398 C190.061669,52.3638398 189.575913,52.4300791 189.116647,52.5625598 C188.657381,52.6950405 188.246697,52.8849266 187.884583,53.1322238 C187.522469,53.3795211 187.235432,53.684222 187.023463,54.0463359 C186.811494,54.4084497 186.705511,54.8279655 186.705511,55.3048959 L186.705511,55.4638719 C186.705511,55.9761305 186.811494,56.4133101 187.023463,56.775424 C187.235432,57.1375378 187.548965,57.4466547 187.964071,57.702784 C188.379177,57.9589133 188.895844,58.1708792 189.514087,58.338688 C190.13233,58.5064969 190.856547,58.6522234 191.686759,58.775872 C193.629809,59.0761616 195.060579,59.6458199 195.979111,60.4848641 C196.897644,61.3239083 197.356903,62.4499771 197.356903,63.8631042 L197.356903,64.1810563 C197.356903,64.9759403 197.220009,65.704573 196.946215,66.3669763 C196.672422,67.0293797 196.266154,67.599038 195.727399,68.0759684 C195.188645,68.5528988 194.521835,68.9238391 193.726951,69.1888005 C192.932067,69.4537618 192.013548,69.5862405 190.971367,69.5862405 C189.787873,69.5862405 188.741292,69.4140182 187.831591,69.0695685 C186.92189,68.7251187 186.162346,68.2481955 185.552935,67.6387844 C184.943524,67.0293733 184.479848,66.3139885 184.161895,65.4926083 C183.843941,64.6712282 183.684967,63.7747891 183.684967,62.8032642 L183.684967,62.0083842 L185.910631,62.0083842 L185.910631,62.6442882 C185.910631,64.2693844 186.356643,65.4881883 187.248679,66.3007363 C188.140715,67.1132844 189.381599,67.5195524 190.971367,67.5195524 C192.349166,67.5195524 193.386916,67.2148514 194.084647,66.6054404 C194.782379,65.9960293 195.131239,65.1879093 195.131239,64.1810563 L195.131239,64.0220803 C195.131239,63.0505554 194.773547,62.3086747 194.058151,61.7964162 C193.342756,61.2841576 192.181359,60.9132173 190.573927,60.6835841 C189.63773,60.5599355 188.794283,60.3700494 188.043559,60.1139201 C187.292835,59.8577908 186.652522,59.5221782 186.122599,59.1070721 C185.592676,58.691966 185.186408,58.1929629 184.903783,57.610048 C184.621157,57.0271331 184.479847,56.3382439 184.479847,55.5433599 L184.479847,55.2254079 C184.479847,54.5011803 184.629989,53.8387869 184.930279,53.2382078 C185.230568,52.6376288 185.650084,52.116546 186.188839,51.6749438 C186.727594,51.2333415 187.372323,50.8933129 188.123047,50.6548477 C188.873771,50.4163825 189.699555,50.2971517 190.600423,50.2971517 C191.642604,50.2971517 192.574371,50.4472942 193.395751,50.7475837 C194.217131,51.0478732 194.910436,51.4497252 195.475687,51.9531518 C196.040938,52.4565783 196.469286,53.0483164 196.760743,53.7283838 C197.052201,54.4084513 197.197927,55.1194202 197.197927,55.8613119 L197.197927,56.974144 L194.972263,56.974144 L194.972263,56.0202879 Z M202.6826,50.6680957 L202.6826,62.9622402 C202.6826,64.4636878 203.03146,65.5985885 203.729192,66.3669763 C204.426923,67.1353642 205.455841,67.5195524 206.815976,67.5195524 C208.176111,67.5195524 209.205028,67.1353642 209.90276,66.3669763 C210.600491,65.5985885 210.949352,64.4636878 210.949352,62.9622402 L210.949352,50.6680957 L213.175016,50.6680957 L213.175016,62.9622402 C213.175016,65.1172591 212.609774,66.7599947 211.479272,67.8904964 C210.34877,69.0209981 208.794354,69.5862405 206.815976,69.5862405 C204.837598,69.5862405 203.283181,69.0209981 202.15268,67.8904964 C201.022178,66.7599947 200.456936,65.1172591 200.456936,62.9622402 L200.456936,50.6680957 L202.6826,50.6680957 Z M216.142568,50.6680957 L220.381928,50.6680957 L222.872552,68.2614404 L223.190504,68.2614404 L225.681129,50.6680957 L229.920489,50.6680957 L229.920489,69.2152965 L227.853801,69.2152965 L227.853801,51.6219518 L227.535849,51.6219518 L225.045225,69.2152965 L221.017832,69.2152965 L218.527208,51.6219518 L218.209256,51.6219518 L218.209256,69.2152965 L216.142568,69.2152965 L216.142568,50.6680957 Z M233.629929,50.6680957 L244.864233,50.6680957 L244.864233,52.7347838 L235.855593,52.7347838 L235.855593,58.8818561 L244.705257,58.8818561 L244.705257,60.9485441 L235.855593,60.9485441 L235.855593,67.1486084 L245.023209,67.1486084 L245.023209,69.2152965 L233.629929,69.2152965 L233.629929,50.6680957 Z" id="BANK-RESUME" fill="#4A4A4A" transform="translate(157.758630, 59.941696) rotate(1.000000) translate(-157.758630, -59.941696) "></path>
                                <polygon id="ic_check-copy-28" fill="#FFFFFF" transform="translate(82.921658, 225.334877) rotate(3.000000) translate(-82.921658, -225.334877) " points="82.3266214 226.229278 81.0401721 224.90231 80.5453397 225.412682 82.0791602 226.99478 82.5739074 226.994751 85.2979757 224.18529 84.8033138 223.674975"></polygon>
                                <polygon id="ic_check-copy-29" fill="#FFFFFF" transform="translate(83.095838, 215.377889) rotate(3.000000) translate(-83.095838, -215.377889) " points="82.5008017 216.27229 81.2143524 214.945322 80.7195199 215.455694 82.2533405 217.037792 82.7480877 217.037763 85.472156 214.228301 84.9774941 213.717987"></polygon>
                                <polygon id="ic_check-copy-30" fill="#FFFFFF" transform="translate(83.286607, 204.472616) rotate(3.000000) translate(-83.286607, -204.472616) " points="82.6915705 205.367017 81.4051213 204.040049 80.9102888 204.550421 82.4441094 206.132519 82.9388566 206.13249 85.6629248 203.323029 85.1682629 202.812714"></polygon>
                            </g>
                            <polyline id="Path-3" stroke="#EBEBEB" stroke-width="1.18186559" opacity="0.769999981" transform="translate(286.584114, 29.650619) rotate(1.000000) translate(-286.584114, -29.650619) " points="263.516438 6.63222955 263.514679 52.6690059 309.653548 52.6589974"></polyline>
                        </g>
                    </g>
                    <g id="Group-6" transform="translate(14.500000, 46.500000) scale(-1, -1) translate(-14.500000, -46.500000) ">
                        <polygon id="Rectangle-9-Copy-2" fill="#39ff14" points="0 87 6 87 6 93 0 93"></polygon>
                        <polygon id="Rectangle-9-Copy-4" fill="#70C6FF" points="8 0 14 0 14 6 8 6"></polygon>
                        <polygon id="Rectangle-9-Copy-3" fill="#39ff14" points="23 57 29 57 29 63 23 63"></polygon>
                    </g>
                    <g id="Group-4" transform="translate(424.500000, 423.500000) scale(-1, 1) translate(-424.500000, -423.500000) translate(393.000000, 413.000000)">
                        <polygon id="Rectangle-9-Copy-4" fill="#70C6FF" transform="translate(3.000000, 3.000000) scale(-1, 1) rotate(-270.000000) translate(-3.000000, -3.000000) " points="0 0 6 0 6 6 0 6"></polygon>
                        <polygon id="Rectangle-9-Copy-3" fill="#39ff14" transform="translate(60.000000, 18.000000) scale(-1, 1) rotate(-270.000000) translate(-60.000000, -18.000000) " points="57 15 63 15 63 21 57 21"></polygon>
                    </g>
                    <g id="Group-43" transform="translate(425.000000, 222.000000)">
                        <rect id="Rectangle-Copy-40" stroke="#70C6FF" stroke-width="3.5" stroke-linejoin="bevel" x="102.517889" y="126.446523" width="26.8067979" height="14.28826"></rect>
                        <path d="M102.517889,133.832827 L129.324687,133.832827" id="Path-9-Copy-2" stroke="#70C6FF" stroke-width="2.6"></path>
                        <rect id="Rectangle-Copy-41" stroke="#70C6FF" stroke-width="3.5" stroke-linejoin="bevel" x="54.4588551" y="126.446523" width="26.8067979" height="14.28826"></rect>
                        <path d="M54.4588551,133.832827 L81.265653,133.832827" id="Path-9-Copy" stroke="#70C6FF" stroke-width="2.6"></path>
                        <rect id="Rectangle-Copy-42" stroke="#70C6FF" stroke-width="3.5" stroke-linejoin="bevel" x="5.67531306" y="126.446523" width="26.8067979" height="14.28826"></rect>
                        <path d="M5.67531306,133.832827 L32.4821109,133.832827" id="Path-9" stroke="#70C6FF" stroke-width="2.6"></path>
                        <rect id="Rectangle" stroke="#70C6FF" stroke-width="4.625" stroke-linejoin="bevel" transform="translate(67.620751, 46.755436) scale(1, -1) translate(-67.620751, -46.755436) " x="2.17352415" y="42.2752194" width="130.894454" height="8.96043422"></rect>
                        <rect id="Rectangle-Copy-40" stroke="#70C6FF" stroke-width="3.5" stroke-linejoin="bevel" transform="translate(115.921288, 65.297614) scale(1, -1) translate(-115.921288, -65.297614) " x="102.517889" y="58.1534839" width="26.8067979" height="14.28826"></rect>
                        <path d="M102.517889,65.5397878 L129.324687,65.5397878" id="Path-9-Copy-2" stroke="#70C6FF" stroke-width="2.6" transform="translate(115.921288, 65.539788) scale(1, -1) translate(-115.921288, -65.539788) "></path>
                        <rect id="Rectangle-Copy-41" stroke="#70C6FF" stroke-width="3.5" stroke-linejoin="bevel" transform="translate(67.862254, 65.297614) scale(1, -1) translate(-67.862254, -65.297614) " x="54.4588551" y="58.1534839" width="26.8067979" height="14.28826"></rect>
                        <path d="M54.4588551,65.5397878 L81.265653,65.5397878" id="Path-9-Copy" stroke="#70C6FF" stroke-width="2.6" transform="translate(67.862254, 65.539788) scale(1, -1) translate(-67.862254, -65.539788) "></path>
                        <rect id="Rectangle-Copy-42" stroke="#70C6FF" stroke-width="3.5" stroke-linejoin="bevel" transform="translate(19.078712, 65.297614) scale(1, -1) translate(-19.078712, -65.297614) " x="5.67531306" y="58.1534839" width="26.8067979" height="14.28826"></rect>
                        <path d="M5.67531306,65.5397878 L32.4821109,65.5397878" id="Path-9" stroke="#70C6FF" stroke-width="2.6" transform="translate(19.078712, 65.539788) scale(1, -1) translate(-19.078712, -65.539788) "></path>
                        <path d="M-15.5023896,99.0023896 L38.5023896,99.0023896" id="Path-9" stroke="#70C6FF" stroke-width="3.5" transform="translate(11.500000, 99.002390) rotate(90.000000) translate(-11.500000, -99.002390) "></path>
                        <path d="M33.4976104,99.0023896 L87.5023896,99.0023896" id="Path-9-Copy-12" stroke="#70C6FF" stroke-width="3.5" transform="translate(60.500000, 99.002390) rotate(90.000000) translate(-60.500000, -99.002390) "></path>
                        <path d="M81.4188984,99.0023896 L135.423678,99.0023896" id="Path-9-Copy-14" stroke="#70C6FF" stroke-width="3.5" transform="translate(108.421288, 99.002390) rotate(90.000000) translate(-108.421288, -99.002390) "></path>
                        <path d="" id="Path-9-Copy-8" stroke="#313131" stroke-width="4.50000018" transform="translate(60.800002, 70.600003) rotate(90.000000) translate(-60.800002, -70.600003) "></path>
                        <path d="" id="Path-9-Copy-10" stroke="#313131" stroke-width="4.50000018" transform="translate(109.172388, 70.600003) rotate(90.000000) translate(-109.172388, -70.600003) "></path>
                        <path d="M-0.502389611,99.0023896 L53.5023896,99.0023896" id="Path-9-Copy-3" stroke="#70C6FF" stroke-width="3.5" transform="translate(26.500000, 99.002390) rotate(90.000000) translate(-26.500000, -99.002390) "></path>
                        <path d="M48.4976104,99.0023896 L102.50239,99.0023896" id="Path-9-Copy-13" stroke="#70C6FF" stroke-width="3.5" transform="translate(75.500000, 99.002390) rotate(90.000000) translate(-75.500000, -99.002390) "></path>
                        <path d="M96.4188984,99.0023896 L150.423678,99.0023896" id="Path-9-Copy-15" stroke="#70C6FF" stroke-width="3.5" transform="translate(123.421288, 99.002390) rotate(90.000000) translate(-123.421288, -99.002390) "></path>
                        <path d="" id="Path-9-Copy-9" stroke="#313131" stroke-width="4.50000018" transform="translate(76.550003, 70.600003) rotate(90.000000) translate(-76.550003, -70.600003) "></path>
                        <path d="" id="Path-9-Copy-11" stroke="#313131" stroke-width="4.50000018" transform="translate(124.922389, 70.600003) rotate(90.000000) translate(-124.922389, -70.600003) "></path>
                        <path d="" id="Path-9-Copy-4" stroke="#313131" stroke-width="4.81500019" transform="translate(61.077328, 70.503253) rotate(90.000000) translate(-61.077328, -70.503253) "></path>
                        <path d="" id="Path-9-Copy-5" stroke="#313131" stroke-width="4.81500019" transform="translate(77.204073, 70.503253) rotate(90.000000) translate(-77.204073, -70.503253) "></path>
                        <path d="" id="Path-9-Copy-6" stroke="#313131" stroke-width="4.81500019" transform="translate(109.216865, 70.503253) rotate(90.000000) translate(-109.216865, -70.503253) "></path>
                        <path d="" id="Path-9-Copy-7" stroke="#313131" stroke-width="4.81500019" transform="translate(125.490880, 70.150003) rotate(90.000000) translate(-125.490880, -70.150003) "></path>
                        <polygon id="Path-37" stroke="#70C6FF" stroke-width="4.625" stroke-linejoin="bevel" points="67.9952692 0.121086949 1.93202147 34.5476201 133.395328 34.5476201"></polygon>
                        <path d="M0,147.878913 L134.965095,147.878913" id="Path-9-Copy" stroke="#70C6FF" stroke-width="4.625"></path>
                    </g>
                </g>
            </g>
        </g>
    </g>
</svg>