<?xml version="1.0" encoding="UTF-8"?>
<svg width="547px" height="456px" viewBox="0 0 547 456" version="1.1" xmlns="http://www.w3.org/2000/svg" xmlns:xlink="http://www.w3.org/1999/xlink">
    <!-- Generator: Sketch 52.2 (67145) - http://www.bohemiancoding.com/sketch -->
    <title>Group 32</title>
    <desc>Created with Sketch.</desc>
    <defs>
        <polygon id="path-1" points="113.802343 0.824021587 115.768445 128.731604 -5.40012479e-13 128.568652 -5.40012479e-13 0.824021587"></polygon>
        <polygon id="path-3" points="3.90769679 3.00064981 259.42823 2.94661404 306.174058 49.8722478 305.914522 402.435347 3.91948646 402.426419"></polygon>
        <filter x="-6.6%" y="-4.8%" width="113.2%" height="110.0%" filterUnits="objectBoundingBox" id="filter-4">
            <feMorphology radius="2" operator="dilate" in="SourceAlpha" result="shadowSpreadOuter1"></feMorphology>
            <feOffset dx="0" dy="1" in="shadowSpreadOuter1" result="shadowOffsetOuter1"></feOffset>
            <feGaussianBlur stdDeviation="4.5" in="shadowOffsetOuter1" result="shadowBlurOuter1"></feGaussianBlur>
            <feComposite in="shadowBlurOuter1" in2="SourceAlpha" operator="out" result="shadowBlurOuter1"></feComposite>
            <feColorMatrix values="0 0 0 0 0.243137255   0 0 0 0 0.243137255   0 0 0 0 0.243137255  0 0 0 0.08 0" type="matrix" in="shadowBlurOuter1" result="shadowMatrixOuter1"></feColorMatrix>
            <feOffset dx="0" dy="2" in="SourceAlpha" result="shadowOffsetOuter2"></feOffset>
            <feGaussianBlur stdDeviation="2.5" in="shadowOffsetOuter2" result="shadowBlurOuter2"></feGaussianBlur>
            <feComposite in="shadowBlurOuter2" in2="SourceAlpha" operator="out" result="shadowBlurOuter2"></feComposite>
            <feColorMatrix values="0 0 0 0 0   0 0 0 0 0   0 0 0 0 0  0 0 0 0.06 0" type="matrix" in="shadowBlurOuter2" result="shadowMatrixOuter2"></feColorMatrix>
            <feMerge>
                <feMergeNode in="shadowMatrixOuter1"></feMergeNode>
                <feMergeNode in="shadowMatrixOuter2"></feMergeNode>
            </feMerge>
        </filter>
        <polygon id="path-5" points="1.12327464e-13 3.26993149e-13 350.571015 3.26993149e-13 409.209828 52.6784859 409.209828 314.950706 -6.16225687e-14 314.950706"></polygon>
        <filter x="-4.5%" y="-5.6%" width="109.0%" height="111.7%" filterUnits="objectBoundingBox" id="filter-6">
            <feMorphology radius="1.5" operator="dilate" in="SourceAlpha" result="shadowSpreadOuter1"></feMorphology>
            <feOffset dx="0" dy="1" in="shadowSpreadOuter1" result="shadowOffsetOuter1"></feOffset>
            <feGaussianBlur stdDeviation="4.5" in="shadowOffsetOuter1" result="shadowBlurOuter1"></feGaussianBlur>
            <feComposite in="shadowBlurOuter1" in2="SourceAlpha" operator="out" result="shadowBlurOuter1"></feComposite>
            <feColorMatrix values="0 0 0 0 0.24346301   0 0 0 0 0.24346301   0 0 0 0 0.24346301  0 0 0 0.0766530797 0" type="matrix" in="shadowBlurOuter1" result="shadowMatrixOuter1"></feColorMatrix>
            <feOffset dx="0" dy="2" in="SourceAlpha" result="shadowOffsetOuter2"></feOffset>
            <feGaussianBlur stdDeviation="2" in="shadowOffsetOuter2" result="shadowBlurOuter2"></feGaussianBlur>
            <feComposite in="shadowBlurOuter2" in2="SourceAlpha" operator="out" result="shadowBlurOuter2"></feComposite>
            <feColorMatrix values="0 0 0 0 0   0 0 0 0 0   0 0 0 0 0  0 0 0 0.0586786685 0" type="matrix" in="shadowBlurOuter2" result="shadowMatrixOuter2"></feColorMatrix>
            <feMerge>
                <feMergeNode in="shadowMatrixOuter1"></feMergeNode>
                <feMergeNode in="shadowMatrixOuter2"></feMergeNode>
            </feMerge>
        </filter>
    </defs>
    <g id="Web-design" stroke="none" stroke-width="1" fill="none" fill-rule="evenodd">
        <g id="Soluciones-compliance" transform="translate(-734.000000, -131.000000)">
            <g id="Group-32" transform="translate(723.000000, 136.000000)">
                <g id="Group-31">
                    <g id="Fill-1-Copy-7" transform="translate(0.000000, 241.000000)">
                        <mask id="mask-2" fill="white">
                            <use xlink:href="#path-1"></use>
                        </mask>
                        <g id="Mask"></g>
                        <path d="M77.1136326,7.81818182 L75.382244,8.56701767 L71.7780254,12.331457 L47.7830486,12.331457 L46.0518484,13.0804896 L11.7966102,48.8564322 L11.7966102,52.47256 L20.5723938,61.6379804 L13.1724171,69.3663126 L13.1724171,72.982637 L22.3235578,82.5396865 L21.9282369,82.9523626 L21.9282369,86.568687 L32.8103895,97.9339971 L36.2729782,97.9339971 L36.6679223,97.5211244 L45.8188747,107.078371 L48.5708652,107.078371 L58.0772108,117.006789 L61.5396111,117.006789 L67.9178558,110.345356 L74.5507331,117.272727 L78.0133218,117.272727 L88.839538,105.965837 L91.5915285,105.965837 L100.742293,96.4085907 L101.137425,96.8212668 L104.600014,96.8212668 L115.482166,85.4559567 L115.482166,81.8396322 L115.087034,81.4269562 L124.237986,71.8699067 L124.237986,68.2535822 L117.993838,61.7320028 L132.711864,46.3607061 L132.711864,42.7443817 L99.987435,8.56701767 L98.2564232,7.81818182 L77.1136326,7.81818182 Z M62.3140558,29.4480704 L78.1278311,12.932178 L97.2422246,12.932178 L127.518076,44.5526423 L114.531249,58.1158751 L88.9617692,31.4111336 L93.1085887,27.0801991 L89.646,23.4640713 L73.1150348,40.7286029 L62.3140558,29.4480704 Z M16.990399,50.6644961 L48.7970588,17.4456499 L66.8812451,17.4456499 L57.1202669,27.6398098 L57.1202669,31.2561342 L71.3836463,46.1531879 L74.8464233,46.1531879 L85.4989921,35.0274581 L119.044009,70.0616461 L111.624633,77.8106318 L92.9673354,58.3251636 L89.5049351,61.941488 L110.288377,83.6478928 L102.868814,91.3968785 L100.865089,89.3041901 L84.2117039,71.9112136 L80.7489269,75.5277347 L97.2798922,92.792463 L89.86014,100.541252 L73.3293631,83.2765237 L69.8667744,86.8930449 L85.0217444,102.720488 L76.2821216,111.848339 L71.3804445,106.729032 L77.0499744,100.80778 L77.0499744,97.1916524 L67.5436288,87.2632337 L67.5436288,84.3894508 L58.3928648,74.8320078 L58.787809,74.4195285 L58.787809,70.8030073 L47.9056564,59.4378939 L44.4430677,59.4378939 L44.0479352,59.85057 L34.8969829,50.2933237 L31.4345825,50.2933237 L24.0346058,58.0216559 L16.990399,50.6644961 Z M18.366206,71.1743764 L33.1657827,55.7179087 L40.5853466,63.4666977 L25.7859581,78.9231654 L18.366206,71.1743764 Z M27.1220258,84.7606231 L46.1742679,64.8622823 L53.5940201,72.6112679 L34.541778,92.5094121 L27.1220258,84.7606231 Z M40.1306993,93.9049966 L54.9300878,78.448529 L62.3496516,86.1973179 L47.5502632,101.653982 L40.1306993,93.9049966 Z M52.3888471,103.833219 L64.4364334,91.2507306 L71.8561856,98.9999129 L59.8082226,111.582401 L52.3888471,103.833219 Z" fill="#70C6FF" mask="url(#mask-2)"></path>
                    </g>
                    <g id="Group-30" opacity="0.446823847" transform="translate(263.989567, 208.320659) rotate(-2.000000) translate(-263.989567, -208.320659) translate(107.989567, 5.320659)">
                        <g id="Group-24" transform="translate(0.293981, -0.000000)">
                            <g id="Group-23" transform="translate(0.000000, 0.000000)">
                                <g id="Group-26" transform="translate(0.178796, 0.223764)">
                                    <g id="Group-25">
                                        <g id="Rectangle-21" transform="translate(155.040877, 202.690981) rotate(1.000000) translate(-155.040877, -202.690981) ">
                                            <use fill="black" fill-opacity="1" filter="url(#filter-4)" xlink:href="#path-3"></use>
                                            <path stroke="#EBEBEB" stroke-width="0.709349036" d="M4.26238178,3.35524933 L4.27415051,402.071754 L305.560109,402.080662 L305.819276,50.0186519 L259.280951,3.30131971 L4.26238178,3.35524933 Z" stroke-linejoin="square" fill="#FFFFFF" fill-rule="evenodd"></path>
                                        </g>
                                        <g id="Group" transform="translate(34.710749, 89.849715)" fill="#E2E2E2">
                                            <polygon id="Rectangle-21-Copy-11" transform="translate(121.521097, 5.784209) rotate(1.000000) translate(-121.521097, -5.784209) " points="2.36030421 2.36094478 240.681688 2.36799111 240.68189 9.20747345 2.36050609 9.20042712"></polygon>
                                            <polygon id="Rectangle-21-Copy-14" transform="translate(86.045795, 78.136874) rotate(1.000000) translate(-86.045795, -78.136874) " points="2.36032252 74.7146588 169.731065 74.7196074 169.731267 81.5590897 2.3605244 81.5541412"></polygon>
                                            <polygon id="Rectangle-21-Copy-17" transform="translate(121.521097, 58.275358) rotate(1.000000) translate(-121.521097, -58.275358) " points="2.36030421 54.852094 240.681688 54.8591403 240.68189 61.6986227 2.36050609 61.6915764"></polygon>
                                            <polygon id="Rectangle-21-Copy-19" transform="translate(121.521097, 47.871707) rotate(1.000000) translate(-121.521097, -47.871707) " points="2.36030421 44.4484428 240.681688 44.4554891 240.68189 51.2949715 2.36050609 51.2879252"></polygon>
                                            <polygon id="Rectangle-21-Copy-12" transform="translate(121.521097, 16.187860) rotate(1.000000) translate(-121.521097, -16.187860) " points="2.36030421 12.764596 240.681688 12.7716423 240.68189 19.6111247 2.36050609 19.6040783"></polygon>
                                            <polygon id="Rectangle-21-Copy-15" transform="translate(121.562530, 89.204488) rotate(1.000000) translate(-121.562530, -89.204488) " points="2.40173726 85.781224 240.723121 85.7882704 240.723323 92.6277527 2.40193914 92.6207064"></polygon>
                                            <polygon id="Rectangle-21-Copy-18" transform="translate(121.521097, 68.206116) rotate(1.000000) translate(-121.521097, -68.206116) " points="2.36030421 64.782852 240.681688 64.7898983 240.68189 71.6293807 2.36050609 71.6223343"></polygon>
                                            <polygon id="Rectangle-21-Copy-13" transform="translate(45.567565, 25.172832) rotate(1.000000) translate(-45.567565, -25.172832) " points="2.36034341 21.7518132 88.7745856 21.7543681 88.7747875 28.5938505 2.36054529 28.5912955"></polygon>
                                            <polygon id="Rectangle-21-Copy-16" transform="translate(99.052786, 99.214565) rotate(1.000000) translate(-99.052786, -99.214565) " points="2.40517774 95.7919661 195.700193 95.7976812 195.700395 102.637164 2.40537962 102.631448"></polygon>
                                            <polygon id="Rectangle-21-Copy-20" transform="translate(119.632724, 152.381112) rotate(1.000000) translate(-119.632724, -152.381112) " points="0.471930894 148.957848 238.793315 148.964894 238.793517 155.804377 0.472132772 155.79733"></polygon>
                                            <polygon id="Rectangle-21-Copy-21" transform="translate(105.543443, 125.426198) rotate(1.000000) translate(-105.543443, -125.426198) " points="56.6510734 122.005011 154.435611 122.007902 154.435813 128.847385 56.6512753 128.844494"></polygon>
                                            <polygon id="Rectangle-21-Copy-31" transform="translate(47.941301, 124.803069) rotate(1.000000) translate(-47.941301, -124.803069) " points="44.5301117 121.383227 51.3522887 121.383429 51.3524906 128.222911 44.5303136 128.222709"></polygon>
                                            <polygon id="Rectangle-21-Copy-22" transform="translate(105.543443, 115.022547) rotate(1.000000) translate(-105.543443, -115.022547) " points="56.6510734 111.60136 154.435611 111.604251 154.435813 118.443733 56.6512753 118.440842"></polygon>
                                            <polygon id="Rectangle-21-Copy-32" transform="translate(48.130802, 113.928181) rotate(1.000000) translate(-48.130802, -113.928181) " points="44.7196125 110.508339 51.5417895 110.508541 51.5419914 117.348023 44.7198144 117.347821"></polygon>
                                            <polygon id="Rectangle-21-Copy-24" transform="translate(119.632724, 183.118448) rotate(1.000000) translate(-119.632724, -183.118448) " points="0.471930915 179.695908 238.793315 179.702955 238.793517 186.540987 0.47213275 186.533941"></polygon>
                                            <polygon id="Rectangle-21-Copy-23" transform="translate(105.543443, 135.829849) rotate(1.000000) translate(-105.543443, -135.829849) " points="56.6510734 132.408662 154.435611 132.411554 154.435813 139.251036 56.6512753 139.248145"></polygon>
                                            <polygon id="Rectangle-21-Copy-33" transform="translate(47.768279, 134.732314) rotate(1.000000) translate(-47.768279, -134.732314) " points="44.3570892 131.312472 51.1792663 131.312674 51.1794681 138.152156 44.3572911 138.151955"></polygon>
                                            <polygon id="Rectangle-21-Copy-25" transform="translate(68.921234, 192.103419) rotate(1.000000) translate(-68.921234, -192.103419) " points="0.471957087 188.682379 137.370309 188.686427 137.370511 195.52446 0.472158922 195.520412"></polygon>
                                        </g>
                                        <g id="Group-2" transform="translate(33.294469, 332.443945)" fill="#E2E2E2">
                                            <polygon id="Rectangle-21-Copy-26" transform="translate(27.305976, 13.629266) rotate(1.000000) translate(-27.305976, -13.629266) " points="0.472012188 11.3486455 54.1398047 11.3502322 54.1399393 15.9098871 0.472146774 15.9083004"></polygon>
                                            <polygon id="Rectangle-21-Copy-27" transform="translate(40.495511, 20.249772) rotate(1.000000) translate(-40.495511, -20.249772) " points="0.472005382 17.9687608 80.5188824 17.9711275 80.519017 22.5307824 0.472139967 22.5284157"></polygon>
                                            <polygon id="Rectangle-21-Copy-28" transform="translate(20.483802, 26.397384) rotate(1.000000) translate(-20.483802, -26.397384) " points="0.472015709 24.1169646 40.4954542 24.1181479 40.4955888 28.6778028 0.472150295 28.6766194"></polygon>
                                            <polygon id="Rectangle-21-Copy-34" transform="translate(11.160165, 1.840790) rotate(1.000000) translate(-11.160165, -1.840790) " points="0.472047438 0.472577932 21.8482021 0.473209951 21.8482828 3.20900289 0.472128189 3.20837087"></polygon>
                                        </g>
                                        <polygon id="Rectangle-21-Copy-29" fill="#E2E2E2" transform="translate(241.531837, 362.047958) rotate(1.000000) translate(-241.531837, -362.047958) " points="226.424815 361.101725 256.638803 361.102618 256.638859 362.99419 226.42487 362.993297"></polygon>
                                        <polygon id="Rectangle-21-Copy-35" fill="#E2E2E2" transform="translate(182.040299, 361.049185) rotate(1.000000) translate(-182.040299, -361.049185) " points="166.933277 360.102953 197.147266 360.103846 197.147321 361.995418 166.933333 361.994525"></polygon>
                                        <polygon id="Rectangle-21-Copy-30" fill="#E2E2E2" transform="translate(241.345261, 359.206904) rotate(1.000000) translate(-241.345261, -359.206904) " points="221.281256 358.260525 261.40921 358.261711 261.409266 360.153283 221.281312 360.152096"></polygon>
                                        <polygon id="Rectangle-21-Copy-36" fill="#E2E2E2" transform="translate(181.861963, 357.735310) rotate(1.000000) translate(-181.861963, -357.735310) " points="161.797958 356.788931 201.925911 356.790118 201.925967 358.68169 161.798014 358.680503"></polygon>
                                        <path d="M39.100834,81.8655334 L276.818555,81.8725619" id="Line-5-Copy" stroke="#979797" stroke-width="0.5" stroke-linecap="square" transform="translate(157.959695, 81.869048) rotate(1.000000) translate(-157.959695, -81.869048) "></path>
                                        <path d="M214.943594,355.144927 L268.36063,355.146506" id="Line-5-Copy-2" stroke="#979797" stroke-width="0.5" stroke-linecap="square" transform="translate(241.652112, 355.145716) rotate(1.000000) translate(-241.652112, -355.145716) "></path>
                                        <path d="M155.924078,354.154408 L209.341114,354.155987" id="Line-5-Copy-3" stroke="#979797" stroke-width="0.5" stroke-linecap="square" transform="translate(182.632596, 354.155197) rotate(1.000000) translate(-182.632596, -354.155197) "></path>
                                        <g id="Group-11" opacity="0.504910714" transform="translate(213.602991, 319.169310) rotate(1.000000) translate(-213.602991, -319.169310) translate(189.326334, 293.963102)">
                                            <g id="Group-29" opacity="0.501023065">
                                                <path d="M15.0164246,3.77526037 C17.6183281,4.58103043 19.743598,3.96758949 21.3922341,1.93493755 C23.8651884,-1.11404035 26.3337911,-0.129356092 27.7562946,1.93493755 C29.1787981,3.9992312 32.032073,6.00971935 36.018477,5.00447528 C40.004881,3.9992312 40.9595988,6.53465098 40.9595988,8.96202234 C40.9595988,11.3893937 41.2594168,14.2463341 45.0822046,15.4453654 C48.9049924,16.6443968 48.7217945,20.6299402 46.9019996,22.1185588 C45.0822046,23.6071775 44.6718587,28.1316507 46.9019996,29.6386419 C49.1321404,31.1456331 48.0760327,36.3306453 44.5178158,36.3306453 C40.9595988,36.3306453 39.8195073,40.7151368 39.8195073,42.7356861 C39.8195073,44.7562355 38.2638481,47.9517568 34.3240051,46.410645 C30.3841621,44.8695332 28.3187656,45.7814496 26.7036681,48.0243723 C25.4595759,49.7520717 24.8994852,49.9247908 23.5111474,50.0984298 C22.211997,50.2609141 21.0754613,49.7520717 19.7599886,47.8004015 C16.8592824,43.496837 14.3758846,45.4452083 12.5117044,45.4452083 C10.6475242,45.4452083 6.51578033,45.4005891 7.22768481,40.8656172 C7.70228779,37.8423026 6.52636897,35.9416127 3.69992833,35.1635473 C0.210610043,33.5021387 -0.810685685,31.2722 0.636041142,28.4737311 C2.80613138,24.2760278 2.22259599,22.7244174 0.636041142,19.5962623 C-0.950513704,16.4681072 0.636041142,14.5341716 3.58853007,13.9261258 C4.04841978,13.8314145 8.71197954,12.5645844 8.29467123,7.52086629 C8.2217359,6.63934724 8.52335798,4.19066521 10.1592866,3.46620687 C10.8819279,3.14619073 12.5009739,3.24920856 15.0164246,3.77526037 Z" id="Path-5" fill="#D8D8D8"></path>
                                                <ellipse id="Oval" fill="#EDEDED" cx="24.0767598" cy="25.0633415" rx="18.4116399" ry="18.5126954"></ellipse>
                                                <ellipse id="Oval-Copy-4" stroke="#D8D8D8" stroke-width="2.26991692" cx="23.9351318" cy="24.9209362" rx="16.2872199" ry="16.3766152"></ellipse>
                                            </g>
                                        </g>
                                        <text id="DOCUMENT" transform="translate(159.022788, 64.595119) rotate(1.000000) translate(-159.022788, -64.595119) " font-family="SpaceMono-Regular, Space Mono" font-size="26.6862613" font-weight="normal" fill="#4A4A4A">
                                            <tspan x="93.6948204" y="73.8486782">DOCUMENT</tspan>
                                        </text>
                                        <text id="LEGAL" transform="translate(159.375753, 46.813887) rotate(1.000000) translate(-159.375753, -46.813887) " font-family="SpaceMono-Regular, Space Mono" font-size="20.2164475" font-weight="normal" fill="#4A4A4A">
                                            <tspan x="128.444588" y="49.0674463">LEGAL</tspan>
                                        </text>
                                        <path d="M165.008508,351.613443 C183.845841,332.956111 189.646176,320.250062 182.409513,313.495296 C175.17285,306.74053 173.773522,324.679907 178.211528,367.313427 L170.346353,339.711482 C180.833253,357.188939 190.58586,357.188939 199.604176,339.711482 C208.622493,322.234024 206.123624,323.00547 192.107571,342.025819 C187.338824,348.26647 184.954451,356.695673 184.954451,367.313427" id="Path-6" stroke="#000000" stroke-width="0.5"></path>
                                        <polygon id="ic_check-copy-28" fill="#FFFFFF" transform="translate(82.370348, 224.707171) rotate(3.000000) translate(-82.370348, -224.707171) " points="81.7795491 225.598809 80.5013697 224.275293 80.0099242 224.784138 81.5338847 226.36212 82.0253484 226.362191 84.7307713 223.561137 84.2392892 223.05215"></polygon>
                                        <polygon id="ic_check-copy-29" fill="#FFFFFF" transform="translate(82.543370, 214.777925) rotate(3.000000) translate(-82.543370, -214.777925) " points="81.9525715 215.669564 80.6743922 214.346048 80.1829467 214.854893 81.7069071 216.432875 82.1983709 216.432946 84.9037937 213.631892 84.4123117 213.122904"></polygon>
                                        <polygon id="ic_check-copy-30" fill="#FFFFFF" transform="translate(82.732871, 203.903037) rotate(3.000000) translate(-82.732871, -203.903037) " points="82.1420723 204.794676 80.8638929 203.47116 80.3724474 203.980005 81.8964079 205.557987 82.3878717 205.558058 85.0932945 202.757004 84.6018125 202.248017"></polygon>
                                    </g>
                                    <polyline id="Path-3" stroke="#EBEBEB" stroke-width="1.17733506" opacity="0.769999981" transform="translate(284.680039, 29.566465) rotate(1.000000) translate(-284.680039, -29.566465) " points="261.763247 6.61223887 261.764602 52.5206906 307.596831 52.5138184"></polyline>
                                </g>
                            </g>
                        </g>
                        <g id="Group-28" transform="translate(217.872285, 348.717742)" stroke="#000000" stroke-width="0.576000031">
                            <path d="M5.92323761,5.59552404e-14 L-7.10542736e-15,4.31498658" id="Path-13"></path>
                            <path d="M5.92323761,5.59552404e-14 L-7.10542736e-15,4.31498658" id="Path-13" transform="translate(2.961619, 2.157493) scale(-1, 1) translate(-2.961619, -2.157493) "></path>
                        </g>
                    </g>
                    <path d="M528.566038,195.101351 L528.566038,144.346363 L535.433962,144.346363 L535.433962,195.101351 L528.566038,195.101351 Z M477.54717,195.101351 L477.54717,144.346363 L484.415094,144.346363 L484.415094,195.101351 L477.54717,195.101351 Z M465.773585,195.101351 L465.773585,145.361463 L472.641509,145.361463 L472.641509,195.101351 L465.773585,195.101351 Z M489.320755,195.101351 L489.320755,145.361463 L496.188679,145.361463 L496.188679,195.101351 L489.320755,195.101351 Z M502.075472,195.101351 L502.075472,144.346363 L511.886792,144.346363 L511.886792,195.101351 L502.075472,195.101351 Z M516.792453,195.101351 L516.792453,145.361463 L523.660377,145.361463 L523.660377,195.101351 L516.792453,195.101351 Z M540.339623,195.101351 L540.339623,145.361463 L547.207547,145.361463 L547.207547,195.101351 L540.339623,195.101351 Z M458.90566,140.236486 L458.90566,121.621622 L553.09434,121.621622 L553.09434,140.236486 L458.90566,140.236486 Z M506.490457,87.3310811 C528.041924,87.3310811 545.848003,100.211312 548.188679,116.722973 L523.230145,116.722973 L489.202364,116.722973 L464.792453,116.722973 C467.133348,100.211312 484.938989,87.3310811 506.490457,87.3310811 Z M522.679245,60.8783784 L519.205049,65.4093027 L519.216714,68.2760361 L522.625072,72.6351351 L508.943396,72.6351351 L508.943396,60.8783784 L522.679245,60.8783784 Z M555.090132,145.557729 L558,143.028305 L558,119.292298 L555.090132,116.763093 L553.829131,116.763093 C552.794531,107.881206 547.907417,99.674704 539.803846,93.3586711 C531.14506,86.6107055 519.769032,82.7922466 507.64756,82.5413766 L507.64756,76.1788782 L527.229137,76.1788782 L528.665767,72.8776477 L523.073303,66.8550235 L528.679059,60.6988929 L527.229137,57.411842 L507.647778,57.411842 L507.647778,55 L503.228718,55 L503.228718,82.609875 C491.808673,83.1945111 481.149326,86.9577786 472.936586,93.3586711 C464.832798,99.674704 459.945902,107.881206 458.911083,116.763093 L456.910086,116.763093 L454,119.292298 L454,143.028305 L456.910086,145.557729 L461.797418,145.557729 L461.797418,194.625275 L454.955938,194.625275 L454.955938,199.999782 L557.292689,200 L557.292689,194.625275 L552.106831,194.625275 L552.106831,145.557729 L555.090132,145.557729 Z" id="Fill-1" fill="#70C6FF"></path>
                    <g id="Group-4" transform="translate(154.000000, 23.000000)">
                        <g id="Group-3">
                            <g id="Group-2">
                                <g id="Group-2-Copy" transform="translate(165.851461, 211.083324) scale(-1, 1) rotate(-91.000000) translate(-165.851461, -211.083324) translate(-42.211887, 49.554017)">
                                    <g id="Group" transform="translate(208.046138, 161.543282) rotate(1.000000) translate(-208.046138, -161.543282) translate(3.362880, 3.761754)">
                                        <g id="Rectangle-21">
                                            <use fill="black" fill-opacity="1" filter="url(#filter-6)" xlink:href="#path-5"></use>
                                            <path stroke="#EBEBEB" stroke-width="0.9" d="M0.45,0.45 L0.45,314.500706 L408.759828,314.500706 L408.759828,52.8791443 L350.398568,0.45 L0.45,0.45 Z" stroke-linejoin="square" fill="#FFFFFF" fill-rule="evenodd"></path>
                                        </g>
                                        <polyline id="Path-3" stroke="#DEDEDE" stroke-width="1.05" opacity="0.769999981" points="348.692882 1.43813108 348.692882 54.6489809 407.701201 54.639445"></polyline>
                                    </g>
                                </g>
                                <g id="Group-11" opacity="0.296875" transform="translate(127.425777, 49.883584)">
                                    <path d="M23.3652032,5.74053385 C27.4137039,6.96576068 30.7205737,6.03298303 33.2858128,2.94220092 C37.1336714,-1.69397225 40.9747592,-0.19669452 43.1881412,2.94220092 C45.4015232,6.08109636 49.8411517,9.13817697 56.0439025,7.60963667 C62.2466532,6.08109636 63.7321718,9.93637035 63.7321718,13.6273495 C63.7321718,17.3183287 64.1986815,21.6624962 70.1468493,23.4857028 C76.0950172,25.3089095 75.8099655,31.3691927 72.9784074,33.6327361 C70.1468493,35.8962795 69.5083607,42.7760412 72.9784074,45.0675213 C76.4484541,47.3590015 74.8051754,55.2431565 69.2686736,55.2431565 C63.7321718,55.2431565 61.9582162,61.9100666 61.9582162,64.982446 C61.9582162,68.0548253 59.537647,72.9138274 53.4073441,70.5704647 C47.2770411,68.227102 44.0633328,69.6137313 41.5502791,73.0242442 C39.6145009,75.6513256 38.743013,75.9139565 36.5827919,76.1779861 C34.5613446,76.4250543 32.7929217,75.6513256 30.7460772,72.6836817 C26.2326467,66.1398264 22.3685381,69.1024541 19.4679176,69.1024541 C16.5672971,69.1024541 10.1384008,69.0346077 11.2461075,62.1388821 C11.9845785,57.5417317 10.1548765,54.6516065 5.75700139,53.4685066 C0.32770427,50.9422245 -1.26140785,47.5514548 0.989665047,43.2961972 C4.36627439,36.9133109 3.45830705,34.5539843 0.989665047,29.7974169 C-1.47897695,25.0408496 0.989665047,22.1001722 5.58366833,21.1755982 C6.29924589,21.0315834 13.5556351,19.1052841 12.9063132,11.4359761 C12.7928276,10.0955679 13.2621444,6.37218447 15.8076108,5.2705975 C16.9320237,4.78399173 19.4512212,4.94063718 23.3652032,5.74053385 Z" id="Path-5" fill="#9B9B9B"></path>
                                    <ellipse id="Oval" fill="#EDEDED" cx="36.7424318" cy="38.1104736" rx="28.0971537" ry="28.043556"></ellipse>
                                    <ellipse id="Oval-Copy-4" stroke="#FFFFFF" stroke-width="2.889216" cx="36.7424318" cy="38.1104736" rx="25.2153943" ry="25.1672939"></ellipse>
                                </g>
                            </g>
                            <g id="Group-6" transform="translate(134.371041, 344.795737)">
                                <g id="Group-18" transform="translate(0.000000, 0.230906)">
                                    <g id="Group-22">
                                        <polygon id="Rectangle-21-Copy-29" fill="#E2E2E2" points="0 39.6616341 69.6397253 39.6616341 69.6397253 43.7363388 0 43.7363388"></polygon>
                                        <polygon id="Rectangle-21-Copy-68" fill="#E2E2E2" points="0 46.0328597 34.9905483 46.0328597 34.9905483 50.1075644 0 50.1075644"></polygon>
                                        <path d="M0.463653424,33.4104791 L69.1276685,33.4104791" id="Line-5-Copy-2" stroke="#979797" stroke-width="0.5" stroke-linecap="square"></path>
                                        <path d="M22.2283595,23.2120547 C33.0703422,12.5373545 36.408773,5.26765156 32.2436519,1.40294576 C28.0785308,-2.46176004 29.1021703,10.2303028 35.3145703,39.4791343 C37.0092336,43.2725414 40.4236536,36.8137468 45.5578303,20.1027505 C50.692007,3.39175415 40.5101724,3.39175415 15.0123265,20.1027505 C5.87739921,26.4710523 14.0164917,26.6465016 39.4296039,20.6290986 C64.842716,14.6116955 64.7117119,8.20297788 39.0365915,1.40294576" id="Path-6" stroke="#000000" stroke-width="0.5" stroke-linecap="round" stroke-linejoin="round"></path>
                                        <polygon id="Rectangle-21-Copy-29" fill="#E2E2E2" points="92.5376197 38.9537201 162.177345 38.9537201 162.177345 43.0284249 92.5376197 43.0284249"></polygon>
                                        <polygon id="Rectangle-21-Copy-68" fill="#E2E2E2" points="92.5376197 45.3249457 127.528168 45.3249457 127.528168 49.3996504 92.5376197 49.3996504"></polygon>
                                        <path d="M93.0012731,32.7025652 L161.665288,32.7025652" id="Line-5-Copy-2" stroke="#979797" stroke-width="0.5" stroke-linecap="square"></path>
                                        <path d="M111.110045,13.8149128 C103.430679,21.2628884 103.430679,23.9735668 111.110045,21.9469482 C122.629094,18.9070202 130.851057,7.81085655 126.772537,6.31506411 C124.053524,5.31786916 119.768467,9.57648564 113.917367,19.0909136 C111.305769,27.1171497 116.532597,28.0691612 129.59785,21.9469482 C142.663103,15.8247352 140.797512,14.8727236 124.001077,19.0909136 C111.99789,22.4487227 112.92171,24.5318996 126.772537,25.3404443 C140.623364,26.148989 146.090355,19.1863186 143.17351,4.45243285 C140.767528,-2.04639665 136.242308,1.94996642 129.59785,16.441522 C122.953392,30.9330776 121.087801,40.1302737 124.001077,44.0331103" id="Path-4" stroke="#000000" stroke-width="0.5" stroke-linecap="round" stroke-linejoin="round"></path>
                                    </g>
                                </g>
                            </g>
                            <g id="Group-18-Copy" transform="translate(178.018100, 345.545293)">
                                <g id="Group-5"></g>
                            </g>
                        </g>
                        <polygon id="Rectangle-21-Copy-31" fill="#EBEBEB" points="29.9769631 190.387211 301.336253 190.387211 301.336253 198.586333 29.9769631 198.586333"></polygon>
                        <polygon id="Rectangle-21-Copy-39" fill="#EBEBEB" points="29.9769631 240.60746 301.336253 240.60746 301.336253 248.806581 29.9769631 248.806581"></polygon>
                        <polygon id="Rectangle-21-Copy-37" fill="#EBEBEB" points="29.9769631 215.122558 301.336253 215.122558 301.336253 223.321679 29.9769631 223.321679"></polygon>
                        <polygon id="Rectangle-21-Copy-40" fill="#EBEBEB" points="29.9769631 266.841918 301.336253 266.841918 301.336253 275.041039 29.9769631 275.041039"></polygon>
                        <polygon id="Rectangle-21-Copy-36" fill="#EBEBEB" points="29.9769631 202.380107 301.336253 202.380107 301.336253 210.579228 29.9769631 210.579228"></polygon>
                        <polygon id="Rectangle-21-Copy-41" fill="#EBEBEB" points="29.9769631 254.099467 301.336253 254.099467 301.336253 262.298588 29.9769631 262.298588"></polygon>
                        <polygon id="Rectangle-21-Copy-38" fill="#EBEBEB" points="29.9769631 227.865009 301.336253 227.865009 301.336253 236.06413 29.9769631 236.06413"></polygon>
                        <polygon id="Rectangle-21-Copy-42" fill="#EBEBEB" points="29.9769631 280.333925 301.336253 280.333925 301.336253 288.533047 29.9769631 288.533047"></polygon>
                        <polygon id="Rectangle-21-Copy-11" fill="#EBEBEB" points="30.0452489 157.40675 301.404538 157.40675 301.404538 165.605871 30.0452489 165.605871"></polygon>
                        <polygon id="Rectangle-21-Copy-13" fill="#EBEBEB" points="30.0452489 145.413854 301.404538 145.413854 301.404538 153.612975 30.0452489 153.612975"></polygon>
                    </g>
                    <path id="Path-10" d="M394.334269,315.853588 L411.195007,322.134369 L409.449625,326.819841 L383.645479,317.207556 L382.969247,312.902465 L404.583679,295.841799 L407.681524,299.76651 L393.558396,310.914152 L407.597786,308.708883 C463.535155,297.18133 497.695272,267.135303 510.460384,218.366952 L515.297429,219.633048 C502.026657,270.333242 466.315991,301.729615 408.548069,313.618109 L408.432072,313.639143 L394.334269,315.853588 Z" fill="#70C6FF" fill-rule="nonzero"></path>
                    <g id="Group-6" transform="translate(49.000000, 42.000000)">
                        <polygon id="Rectangle-9-Copy-2" fill="#39ff14" points="0 87 6 87 6 93 0 93"></polygon>
                        <polygon id="Rectangle-9-Copy-4" fill="#70C6FF" points="8 0 14 0 14 6 8 6"></polygon>
                        <polygon id="Rectangle-9-Copy-3" fill="#39ff14" points="23 57 29 57 29 63 23 63"></polygon>
                    </g>
                    <g id="Group-5" transform="translate(516.500000, 346.500000) scale(-1, 1) translate(-516.500000, -346.500000) translate(508.000000, 324.000000)">
                        <polygon id="Rectangle-9-Copy-4" fill="#70C6FF" points="0 39 6 39 6 45 0 45"></polygon>
                        <polygon id="Rectangle-9-Copy-3" fill="#39ff14" points="11 0 17 0 17 6 11 6"></polygon>
                    </g>
                    <polygon id="Rectangle-9-Copy-3" fill="#39ff14" transform="translate(474.000000, 43.000000) scale(-1, 1) translate(-474.000000, -43.000000) " points="471 40 477 40 477 46 471 46"></polygon>
                    <g id="Group-27" transform="translate(184.000000, 396.000000)" fill="#E2E2E2">
                        <polygon id="Rectangle-21-Copy-26" points="-6.03961325e-13 8 39.2413036 8.00033255 39.2413318 11.3302818 2.82061082e-05 11.3299492"></polygon>
                        <polygon id="Rectangle-21-Copy-27" points="2.41584505e-13 13 58.529402 13.000496 58.5294302 16.3304453 2.8206109e-05 16.3299492"></polygon>
                        <polygon id="Rectangle-21-Copy-28" points="-8.52651308e-13 18 29.264701 18.000248 29.2647292 21.3301973 2.82061079e-05 21.3299492"></polygon>
                        <polygon id="Rectangle-21-Copy-34" points="2.94875249e-13 -2.10163156e-14 15.6300108 0.000132457202 15.6300277 1.99810201 1.69236656e-05 1.99796955"></polygon>
                    </g>
                </g>
                <path id="Path-38" d="M142.878044,161.851251 L125.963135,155.717855 L127.66756,151.01733 L153.554611,160.404052 L154.268389,164.703078 L132.80367,181.951726 L129.671691,178.0542 L143.696994,166.783728 L129.706974,169.106523 C94.6480565,177.712524 71.61727,198.609316 60.3691738,231.998132 L55.6308262,230.401868 C67.4394466,195.349193 91.847762,173.223809 128.609692,164.227473 L128.794478,164.189579 L142.878044,161.851251 Z" fill="#70C6FF" fill-rule="nonzero"></path>
            </g>
        </g>
    </g>
</svg>